<svg width="1000" height="200" viewBox="0 0 1000 200" fill="none" xmlns="http://www.w3.org/2000/svg">
<g clip-path="url(#clip0_221_242)">
<rect width="1000" height="200" fill="white"/>
<mask id="path-1-outside-1_221_242" maskUnits="userSpaceOnUse" x="0" y="41" width="610" height="125" fill="black">
<rect fill="white" y="41" width="610" height="125"/>
<path d="M36.8864 138.385C29.6231 138.385 23.3755 136.846 18.1435 133.768C12.9422 130.66 8.94129 126.351 6.14062 120.842C3.37074 115.333 1.9858 108.993 1.9858 101.822C1.9858 94.5592 3.38613 88.1884 6.18679 82.7102C9.01823 77.2012 13.0346 72.9079 18.2358 69.8303C23.437 66.7218 29.6231 65.1676 36.794 65.1676C42.9801 65.1676 48.3968 66.291 53.044 68.5376C57.6913 70.7843 61.3691 73.9389 64.0774 78.0014C66.7857 82.0639 68.2784 86.8343 68.5554 92.3125H49.9972C49.474 88.7732 48.089 85.9264 45.8423 83.772C43.6264 81.5869 40.718 80.4943 37.1172 80.4943C34.0703 80.4943 31.4081 81.3253 29.1307 82.9872C26.884 84.6184 25.1297 87.0036 23.8679 90.1428C22.6061 93.282 21.9751 97.0829 21.9751 101.545C21.9751 106.07 22.5907 109.917 23.8217 113.087C25.0836 116.257 26.8532 118.673 29.1307 120.335C31.4081 121.996 34.0703 122.827 37.1172 122.827C39.3639 122.827 41.3797 122.366 43.1648 121.442C44.9806 120.519 46.4732 119.18 47.6428 117.426C48.843 115.641 49.6278 113.502 49.9972 111.009H68.5554C68.2476 116.426 66.7704 121.196 64.1236 125.32C61.5076 129.414 57.8913 132.614 53.2749 134.923C48.6584 137.231 43.1956 138.385 36.8864 138.385ZM101.367 138.339C96.8429 138.339 92.8111 137.554 89.2718 135.984C85.7325 134.384 82.9319 132.03 80.8699 128.921C78.8386 125.782 77.823 121.873 77.823 117.195C77.823 113.256 78.5462 109.947 79.9927 107.27C81.4392 104.592 83.4089 102.438 85.9018 100.807C88.3947 99.1757 91.2261 97.9446 94.3961 97.1136C97.5969 96.2827 100.952 95.6979 104.46 95.3594C108.584 94.9285 111.908 94.5284 114.432 94.1591C116.955 93.759 118.787 93.1742 119.925 92.4048C121.064 91.6354 121.633 90.4967 121.633 88.9886V88.7116C121.633 85.7879 120.71 83.5258 118.863 81.9254C117.048 80.325 114.462 79.5249 111.108 79.5249C107.568 79.5249 104.752 80.3097 102.66 81.8793C100.567 83.4181 99.1819 85.357 98.5048 87.696L80.3159 86.2188C81.2392 81.91 83.055 78.1861 85.7633 75.0469C88.4717 71.8769 91.9648 69.4455 96.2427 67.7528C100.551 66.0294 105.537 65.1676 111.2 65.1676C115.14 65.1676 118.91 65.6293 122.51 66.5526C126.142 67.4759 129.358 68.907 132.159 70.8459C134.99 72.7848 137.222 75.2777 138.853 78.3246C140.484 81.3407 141.3 84.9569 141.3 89.1733V137H122.649V127.167H122.095C120.956 129.383 119.433 131.337 117.525 133.03C115.617 134.692 113.324 136 110.646 136.954C107.969 137.877 104.876 138.339 101.367 138.339ZM106.999 124.766C109.892 124.766 112.447 124.197 114.662 123.058C116.878 121.889 118.617 120.319 119.879 118.349C121.141 116.38 121.772 114.148 121.772 111.656V104.131C121.156 104.531 120.31 104.9 119.233 105.239C118.186 105.546 117.001 105.839 115.678 106.116C114.355 106.362 113.031 106.593 111.708 106.808C110.385 106.993 109.184 107.162 108.107 107.316C105.799 107.655 103.783 108.193 102.059 108.932C100.336 109.67 98.9972 110.671 98.0431 111.933C97.0891 113.164 96.612 114.702 96.612 116.549C96.612 119.227 97.5815 121.273 99.5204 122.689C101.49 124.074 103.983 124.766 106.999 124.766ZM156.557 137V66.0909H175.623V78.4631H176.362C177.654 74.062 179.824 70.7382 182.871 68.4915C185.918 66.214 189.426 65.0753 193.396 65.0753C194.381 65.0753 195.443 65.1368 196.582 65.2599C197.721 65.383 198.721 65.5523 199.583 65.7678V83.218C198.659 82.941 197.382 82.6948 195.751 82.4794C194.12 82.264 192.627 82.1562 191.273 82.1562C188.38 82.1562 185.795 82.7872 183.517 84.049C181.271 85.2801 179.485 87.0035 178.162 89.2195C176.869 91.4354 176.223 93.9898 176.223 96.8828V137H156.557ZM238.765 138.385C231.471 138.385 225.192 136.908 219.93 133.953C214.698 130.968 210.666 126.751 207.835 121.304C205.003 115.826 203.587 109.347 203.587 101.869C203.587 94.5746 205.003 88.1731 207.835 82.6641C210.666 77.1551 214.652 72.8617 219.791 69.7841C224.962 66.7064 231.025 65.1676 237.98 65.1676C242.658 65.1676 247.013 65.9216 251.045 67.4297C255.107 68.907 258.647 71.1383 261.663 74.1236C264.71 77.1089 267.079 80.8636 268.772 85.3878C270.465 89.8812 271.311 95.1439 271.311 101.176V106.577H211.435V94.3899H252.799C252.799 91.5585 252.183 89.0502 250.952 86.8651C249.721 84.6799 248.013 82.9718 245.828 81.7408C243.674 80.4789 241.165 79.848 238.303 79.848C235.318 79.848 232.671 80.5405 230.363 81.9254C228.085 83.2796 226.3 85.1108 225.008 87.419C223.715 89.6965 223.054 92.2356 223.023 95.0362V106.624C223.023 110.132 223.669 113.164 224.962 115.718C226.285 118.272 228.147 120.242 230.548 121.627C232.948 123.012 235.795 123.705 239.088 123.705C241.273 123.705 243.274 123.397 245.089 122.781C246.905 122.166 248.46 121.242 249.752 120.011C251.045 118.78 252.03 117.272 252.707 115.487L270.896 116.688C269.972 121.058 268.08 124.874 265.217 128.136C262.386 131.368 258.723 133.892 254.23 135.707C249.768 137.492 244.612 138.385 238.765 138.385ZM316.46 138.385C309.166 138.385 302.888 136.908 297.625 133.953C292.393 130.968 288.361 126.751 285.53 121.304C282.698 115.826 281.283 109.347 281.283 101.869C281.283 94.5746 282.698 88.1731 285.53 82.6641C288.361 77.1551 292.347 72.8617 297.487 69.7841C302.657 66.7064 308.72 65.1676 315.675 65.1676C320.353 65.1676 324.708 65.9216 328.74 67.4297C332.803 68.907 336.342 71.1383 339.358 74.1236C342.405 77.1089 344.775 80.8636 346.467 85.3878C348.16 89.8812 349.006 95.1439 349.006 101.176V106.577H289.131V94.3899H330.494C330.494 91.5585 329.879 89.0502 328.648 86.8651C327.417 84.6799 325.709 82.9718 323.523 81.7408C321.369 80.4789 318.861 79.848 315.999 79.848C313.013 79.848 310.366 80.5405 308.058 81.9254C305.781 83.2796 303.996 85.1108 302.703 87.419C301.411 89.6965 300.749 92.2356 300.718 95.0362V106.624C300.718 110.132 301.364 113.164 302.657 115.718C303.98 118.272 305.842 120.242 308.243 121.627C310.643 123.012 313.49 123.705 316.783 123.705C318.969 123.705 320.969 123.397 322.785 122.781C324.601 122.166 326.155 121.242 327.447 120.011C328.74 118.78 329.725 117.272 330.402 115.487L348.591 116.688C347.668 121.058 345.775 124.874 342.913 128.136C340.081 131.368 336.419 133.892 331.925 135.707C327.463 137.492 322.308 138.385 316.46 138.385ZM361.84 137V66.0909H380.906V78.4631H381.645C382.938 74.062 385.107 70.7382 388.154 68.4915C391.201 66.214 394.71 65.0753 398.68 65.0753C399.665 65.0753 400.726 65.1368 401.865 65.2599C403.004 65.383 404.004 65.5523 404.866 65.7678V83.218C403.942 82.941 402.665 82.6948 401.034 82.4794C399.403 82.264 397.91 82.1562 396.556 82.1562C393.663 82.1562 391.078 82.7872 388.8 84.049C386.554 85.2801 384.769 87.0035 383.445 89.2195C382.153 91.4354 381.506 93.9898 381.506 96.8828V137H361.84ZM474.032 86.3111L456.028 87.419C455.72 85.8802 455.058 84.4953 454.043 83.2642C453.027 82.0024 451.688 81.0021 450.026 80.2635C448.395 79.4941 446.441 79.1094 444.164 79.1094C441.117 79.1094 438.547 79.7557 436.454 81.0483C434.361 82.3101 433.315 84.0028 433.315 86.1264C433.315 87.8191 433.992 89.2502 435.346 90.4197C436.7 91.5893 439.024 92.5279 442.317 93.2358L455.151 95.821C462.045 97.2367 467.184 99.5142 470.57 102.653C473.955 105.793 475.648 109.917 475.648 115.026C475.648 119.673 474.278 123.751 471.539 127.259C468.831 130.768 465.107 133.507 460.367 135.477C455.659 137.415 450.227 138.385 444.071 138.385C434.684 138.385 427.206 136.431 421.635 132.522C416.095 128.583 412.848 123.228 411.894 116.457L431.237 115.441C431.822 118.303 433.238 120.488 435.485 121.996C437.731 123.474 440.609 124.212 444.117 124.212C447.564 124.212 450.334 123.551 452.427 122.227C454.551 120.873 455.628 119.134 455.659 117.011C455.628 115.226 454.874 113.764 453.396 112.625C451.919 111.455 449.642 110.563 446.564 109.947L434.284 107.501C427.36 106.116 422.204 103.715 418.819 100.299C415.464 96.8828 413.787 92.5279 413.787 87.2344C413.787 82.6794 415.018 78.7554 417.48 75.4624C419.973 72.1693 423.466 69.6302 427.96 67.8452C432.484 66.0601 437.777 65.1676 443.84 65.1676C452.796 65.1676 459.844 67.0604 464.984 70.8459C470.154 74.6314 473.17 79.7865 474.032 86.3111ZM549.939 164.237C540.121 164.237 531.38 162.898 523.717 160.221C516.054 157.574 509.575 153.681 504.282 148.541C498.988 143.432 494.956 137.185 492.186 129.798C489.417 122.412 488.032 114.01 488.032 104.592C488.032 95.2978 489.417 86.8651 492.186 79.294C494.987 71.723 499.065 65.2292 504.42 59.8125C509.775 54.3651 516.315 50.1794 524.04 47.2557C531.796 44.3319 540.629 42.87 550.539 42.87C559.71 42.87 567.897 44.2088 575.098 46.8864C582.331 49.5639 588.455 53.3802 593.472 58.3352C598.519 63.2595 602.351 69.1224 604.967 75.924C607.614 82.6948 608.922 90.1889 608.891 98.4062C608.922 104.069 608.429 109.27 607.414 114.01C606.398 118.75 604.798 122.889 602.613 126.428C600.458 129.937 597.627 132.722 594.118 134.784C590.61 136.815 586.363 137.969 581.377 138.246C577.807 138.523 574.914 138.262 572.698 137.462C570.482 136.661 568.789 135.477 567.62 133.907C566.481 132.307 565.742 130.445 565.404 128.321H564.85C564.111 130.168 562.665 131.845 560.51 133.353C558.356 134.83 555.725 135.984 552.616 136.815C549.538 137.616 546.261 137.908 542.783 137.692C539.151 137.477 535.704 136.631 532.442 135.153C529.211 133.676 526.333 131.537 523.809 128.737C521.316 125.936 519.347 122.473 517.9 118.349C516.484 114.225 515.761 109.455 515.73 104.038C515.761 98.6832 516.515 94.0206 517.993 90.0504C519.501 86.0803 521.486 82.741 523.948 80.0327C526.441 77.3243 529.211 75.2008 532.257 73.6619C535.304 72.1231 538.367 71.1383 541.444 70.7074C544.922 70.1842 548.215 70.1842 551.324 70.7074C554.432 71.2306 557.048 72.0769 559.172 73.2464C561.326 74.416 562.665 75.6778 563.188 77.032H563.834V71.8615H578.284V116.918C578.315 119.042 578.792 120.688 579.715 121.858C580.638 123.027 581.885 123.612 583.454 123.612C585.578 123.612 587.347 122.674 588.763 120.796C590.21 118.919 591.287 116.041 591.995 112.163C592.733 108.286 593.103 103.346 593.103 97.3445C593.103 91.5585 592.333 86.4803 590.794 82.1101C589.286 77.709 587.163 73.9697 584.424 70.892C581.715 67.7836 578.561 65.2599 574.96 63.321C571.359 61.3821 567.45 59.9664 563.234 59.0739C559.048 58.1813 554.74 57.7351 550.308 57.7351C542.645 57.7351 535.951 58.9046 530.226 61.2436C524.502 63.5518 519.731 66.7988 515.915 70.9844C512.099 75.17 509.237 80.0788 507.328 85.7109C505.451 91.3123 504.497 97.4214 504.466 104.038C504.497 111.332 505.513 117.795 507.513 123.428C509.544 129.029 512.53 133.738 516.469 137.554C520.408 141.37 525.271 144.263 531.057 146.233C536.843 148.203 543.491 149.188 551 149.188C554.54 149.188 558.002 148.926 561.387 148.403C564.773 147.91 567.835 147.295 570.574 146.556C573.313 145.848 575.514 145.156 577.176 144.479L581.746 157.866C579.807 158.974 577.176 160.005 573.852 160.96C570.559 161.944 566.835 162.729 562.68 163.314C558.556 163.929 554.309 164.237 549.939 164.237ZM547.815 122.504C551.57 122.504 554.555 121.781 556.771 120.335C559.018 118.888 560.618 116.749 561.572 113.918C562.557 111.055 563.019 107.531 562.957 103.346C562.926 99.6527 562.449 96.5289 561.526 93.9744C560.633 91.3892 559.079 89.4349 556.863 88.1115C554.678 86.7573 551.631 86.0803 547.723 86.0803C544.306 86.0803 541.398 86.8035 538.998 88.25C536.628 89.6965 534.812 91.7277 533.55 94.3438C532.319 96.929 531.688 99.9759 531.657 103.484C531.688 106.747 532.211 109.84 533.227 112.763C534.243 115.656 535.92 118.011 538.259 119.827C540.598 121.612 543.783 122.504 547.815 122.504Z"/>
</mask>
<path d="M36.8864 138.385C29.6231 138.385 23.3755 136.846 18.1435 133.768C12.9422 130.66 8.94129 126.351 6.14062 120.842C3.37074 115.333 1.9858 108.993 1.9858 101.822C1.9858 94.5592 3.38613 88.1884 6.18679 82.7102C9.01823 77.2012 13.0346 72.9079 18.2358 69.8303C23.437 66.7218 29.6231 65.1676 36.794 65.1676C42.9801 65.1676 48.3968 66.291 53.044 68.5376C57.6913 70.7843 61.3691 73.9389 64.0774 78.0014C66.7857 82.0639 68.2784 86.8343 68.5554 92.3125H49.9972C49.474 88.7732 48.089 85.9264 45.8423 83.772C43.6264 81.5869 40.718 80.4943 37.1172 80.4943C34.0703 80.4943 31.4081 81.3253 29.1307 82.9872C26.884 84.6184 25.1297 87.0036 23.8679 90.1428C22.6061 93.282 21.9751 97.0829 21.9751 101.545C21.9751 106.07 22.5907 109.917 23.8217 113.087C25.0836 116.257 26.8532 118.673 29.1307 120.335C31.4081 121.996 34.0703 122.827 37.1172 122.827C39.3639 122.827 41.3797 122.366 43.1648 121.442C44.9806 120.519 46.4732 119.18 47.6428 117.426C48.843 115.641 49.6278 113.502 49.9972 111.009H68.5554C68.2476 116.426 66.7704 121.196 64.1236 125.32C61.5076 129.414 57.8913 132.614 53.2749 134.923C48.6584 137.231 43.1956 138.385 36.8864 138.385ZM101.367 138.339C96.8429 138.339 92.8111 137.554 89.2718 135.984C85.7325 134.384 82.9319 132.03 80.8699 128.921C78.8386 125.782 77.823 121.873 77.823 117.195C77.823 113.256 78.5462 109.947 79.9927 107.27C81.4392 104.592 83.4089 102.438 85.9018 100.807C88.3947 99.1757 91.2261 97.9446 94.3961 97.1136C97.5969 96.2827 100.952 95.6979 104.46 95.3594C108.584 94.9285 111.908 94.5284 114.432 94.1591C116.955 93.759 118.787 93.1742 119.925 92.4048C121.064 91.6354 121.633 90.4967 121.633 88.9886V88.7116C121.633 85.7879 120.71 83.5258 118.863 81.9254C117.048 80.325 114.462 79.5249 111.108 79.5249C107.568 79.5249 104.752 80.3097 102.66 81.8793C100.567 83.4181 99.1819 85.357 98.5048 87.696L80.3159 86.2188C81.2392 81.91 83.055 78.1861 85.7633 75.0469C88.4717 71.8769 91.9648 69.4455 96.2427 67.7528C100.551 66.0294 105.537 65.1676 111.2 65.1676C115.14 65.1676 118.91 65.6293 122.51 66.5526C126.142 67.4759 129.358 68.907 132.159 70.8459C134.99 72.7848 137.222 75.2777 138.853 78.3246C140.484 81.3407 141.3 84.9569 141.3 89.1733V137H122.649V127.167H122.095C120.956 129.383 119.433 131.337 117.525 133.03C115.617 134.692 113.324 136 110.646 136.954C107.969 137.877 104.876 138.339 101.367 138.339ZM106.999 124.766C109.892 124.766 112.447 124.197 114.662 123.058C116.878 121.889 118.617 120.319 119.879 118.349C121.141 116.38 121.772 114.148 121.772 111.656V104.131C121.156 104.531 120.31 104.9 119.233 105.239C118.186 105.546 117.001 105.839 115.678 106.116C114.355 106.362 113.031 106.593 111.708 106.808C110.385 106.993 109.184 107.162 108.107 107.316C105.799 107.655 103.783 108.193 102.059 108.932C100.336 109.67 98.9972 110.671 98.0431 111.933C97.0891 113.164 96.612 114.702 96.612 116.549C96.612 119.227 97.5815 121.273 99.5204 122.689C101.49 124.074 103.983 124.766 106.999 124.766ZM156.557 137V66.0909H175.623V78.4631H176.362C177.654 74.062 179.824 70.7382 182.871 68.4915C185.918 66.214 189.426 65.0753 193.396 65.0753C194.381 65.0753 195.443 65.1368 196.582 65.2599C197.721 65.383 198.721 65.5523 199.583 65.7678V83.218C198.659 82.941 197.382 82.6948 195.751 82.4794C194.12 82.264 192.627 82.1562 191.273 82.1562C188.38 82.1562 185.795 82.7872 183.517 84.049C181.271 85.2801 179.485 87.0035 178.162 89.2195C176.869 91.4354 176.223 93.9898 176.223 96.8828V137H156.557ZM238.765 138.385C231.471 138.385 225.192 136.908 219.93 133.953C214.698 130.968 210.666 126.751 207.835 121.304C205.003 115.826 203.587 109.347 203.587 101.869C203.587 94.5746 205.003 88.1731 207.835 82.6641C210.666 77.1551 214.652 72.8617 219.791 69.7841C224.962 66.7064 231.025 65.1676 237.98 65.1676C242.658 65.1676 247.013 65.9216 251.045 67.4297C255.107 68.907 258.647 71.1383 261.663 74.1236C264.71 77.1089 267.079 80.8636 268.772 85.3878C270.465 89.8812 271.311 95.1439 271.311 101.176V106.577H211.435V94.3899H252.799C252.799 91.5585 252.183 89.0502 250.952 86.8651C249.721 84.6799 248.013 82.9718 245.828 81.7408C243.674 80.4789 241.165 79.848 238.303 79.848C235.318 79.848 232.671 80.5405 230.363 81.9254C228.085 83.2796 226.3 85.1108 225.008 87.419C223.715 89.6965 223.054 92.2356 223.023 95.0362V106.624C223.023 110.132 223.669 113.164 224.962 115.718C226.285 118.272 228.147 120.242 230.548 121.627C232.948 123.012 235.795 123.705 239.088 123.705C241.273 123.705 243.274 123.397 245.089 122.781C246.905 122.166 248.46 121.242 249.752 120.011C251.045 118.78 252.03 117.272 252.707 115.487L270.896 116.688C269.972 121.058 268.08 124.874 265.217 128.136C262.386 131.368 258.723 133.892 254.23 135.707C249.768 137.492 244.612 138.385 238.765 138.385ZM316.46 138.385C309.166 138.385 302.888 136.908 297.625 133.953C292.393 130.968 288.361 126.751 285.53 121.304C282.698 115.826 281.283 109.347 281.283 101.869C281.283 94.5746 282.698 88.1731 285.53 82.6641C288.361 77.1551 292.347 72.8617 297.487 69.7841C302.657 66.7064 308.72 65.1676 315.675 65.1676C320.353 65.1676 324.708 65.9216 328.74 67.4297C332.803 68.907 336.342 71.1383 339.358 74.1236C342.405 77.1089 344.775 80.8636 346.467 85.3878C348.16 89.8812 349.006 95.1439 349.006 101.176V106.577H289.131V94.3899H330.494C330.494 91.5585 329.879 89.0502 328.648 86.8651C327.417 84.6799 325.709 82.9718 323.523 81.7408C321.369 80.4789 318.861 79.848 315.999 79.848C313.013 79.848 310.366 80.5405 308.058 81.9254C305.781 83.2796 303.996 85.1108 302.703 87.419C301.411 89.6965 300.749 92.2356 300.718 95.0362V106.624C300.718 110.132 301.364 113.164 302.657 115.718C303.98 118.272 305.842 120.242 308.243 121.627C310.643 123.012 313.49 123.705 316.783 123.705C318.969 123.705 320.969 123.397 322.785 122.781C324.601 122.166 326.155 121.242 327.447 120.011C328.74 118.78 329.725 117.272 330.402 115.487L348.591 116.688C347.668 121.058 345.775 124.874 342.913 128.136C340.081 131.368 336.419 133.892 331.925 135.707C327.463 137.492 322.308 138.385 316.46 138.385ZM361.84 137V66.0909H380.906V78.4631H381.645C382.938 74.062 385.107 70.7382 388.154 68.4915C391.201 66.214 394.71 65.0753 398.68 65.0753C399.665 65.0753 400.726 65.1368 401.865 65.2599C403.004 65.383 404.004 65.5523 404.866 65.7678V83.218C403.942 82.941 402.665 82.6948 401.034 82.4794C399.403 82.264 397.91 82.1562 396.556 82.1562C393.663 82.1562 391.078 82.7872 388.8 84.049C386.554 85.2801 384.769 87.0035 383.445 89.2195C382.153 91.4354 381.506 93.9898 381.506 96.8828V137H361.84ZM474.032 86.3111L456.028 87.419C455.72 85.8802 455.058 84.4953 454.043 83.2642C453.027 82.0024 451.688 81.0021 450.026 80.2635C448.395 79.4941 446.441 79.1094 444.164 79.1094C441.117 79.1094 438.547 79.7557 436.454 81.0483C434.361 82.3101 433.315 84.0028 433.315 86.1264C433.315 87.8191 433.992 89.2502 435.346 90.4197C436.7 91.5893 439.024 92.5279 442.317 93.2358L455.151 95.821C462.045 97.2367 467.184 99.5142 470.57 102.653C473.955 105.793 475.648 109.917 475.648 115.026C475.648 119.673 474.278 123.751 471.539 127.259C468.831 130.768 465.107 133.507 460.367 135.477C455.659 137.415 450.227 138.385 444.071 138.385C434.684 138.385 427.206 136.431 421.635 132.522C416.095 128.583 412.848 123.228 411.894 116.457L431.237 115.441C431.822 118.303 433.238 120.488 435.485 121.996C437.731 123.474 440.609 124.212 444.117 124.212C447.564 124.212 450.334 123.551 452.427 122.227C454.551 120.873 455.628 119.134 455.659 117.011C455.628 115.226 454.874 113.764 453.396 112.625C451.919 111.455 449.642 110.563 446.564 109.947L434.284 107.501C427.36 106.116 422.204 103.715 418.819 100.299C415.464 96.8828 413.787 92.5279 413.787 87.2344C413.787 82.6794 415.018 78.7554 417.48 75.4624C419.973 72.1693 423.466 69.6302 427.96 67.8452C432.484 66.0601 437.777 65.1676 443.84 65.1676C452.796 65.1676 459.844 67.0604 464.984 70.8459C470.154 74.6314 473.17 79.7865 474.032 86.3111ZM549.939 164.237C540.121 164.237 531.38 162.898 523.717 160.221C516.054 157.574 509.575 153.681 504.282 148.541C498.988 143.432 494.956 137.185 492.186 129.798C489.417 122.412 488.032 114.01 488.032 104.592C488.032 95.2978 489.417 86.8651 492.186 79.294C494.987 71.723 499.065 65.2292 504.42 59.8125C509.775 54.3651 516.315 50.1794 524.04 47.2557C531.796 44.3319 540.629 42.87 550.539 42.87C559.71 42.87 567.897 44.2088 575.098 46.8864C582.331 49.5639 588.455 53.3802 593.472 58.3352C598.519 63.2595 602.351 69.1224 604.967 75.924C607.614 82.6948 608.922 90.1889 608.891 98.4062C608.922 104.069 608.429 109.27 607.414 114.01C606.398 118.75 604.798 122.889 602.613 126.428C600.458 129.937 597.627 132.722 594.118 134.784C590.61 136.815 586.363 137.969 581.377 138.246C577.807 138.523 574.914 138.262 572.698 137.462C570.482 136.661 568.789 135.477 567.62 133.907C566.481 132.307 565.742 130.445 565.404 128.321H564.85C564.111 130.168 562.665 131.845 560.51 133.353C558.356 134.83 555.725 135.984 552.616 136.815C549.538 137.616 546.261 137.908 542.783 137.692C539.151 137.477 535.704 136.631 532.442 135.153C529.211 133.676 526.333 131.537 523.809 128.737C521.316 125.936 519.347 122.473 517.9 118.349C516.484 114.225 515.761 109.455 515.73 104.038C515.761 98.6832 516.515 94.0206 517.993 90.0504C519.501 86.0803 521.486 82.741 523.948 80.0327C526.441 77.3243 529.211 75.2008 532.257 73.6619C535.304 72.1231 538.367 71.1383 541.444 70.7074C544.922 70.1842 548.215 70.1842 551.324 70.7074C554.432 71.2306 557.048 72.0769 559.172 73.2464C561.326 74.416 562.665 75.6778 563.188 77.032H563.834V71.8615H578.284V116.918C578.315 119.042 578.792 120.688 579.715 121.858C580.638 123.027 581.885 123.612 583.454 123.612C585.578 123.612 587.347 122.674 588.763 120.796C590.21 118.919 591.287 116.041 591.995 112.163C592.733 108.286 593.103 103.346 593.103 97.3445C593.103 91.5585 592.333 86.4803 590.794 82.1101C589.286 77.709 587.163 73.9697 584.424 70.892C581.715 67.7836 578.561 65.2599 574.96 63.321C571.359 61.3821 567.45 59.9664 563.234 59.0739C559.048 58.1813 554.74 57.7351 550.308 57.7351C542.645 57.7351 535.951 58.9046 530.226 61.2436C524.502 63.5518 519.731 66.7988 515.915 70.9844C512.099 75.17 509.237 80.0788 507.328 85.7109C505.451 91.3123 504.497 97.4214 504.466 104.038C504.497 111.332 505.513 117.795 507.513 123.428C509.544 129.029 512.53 133.738 516.469 137.554C520.408 141.37 525.271 144.263 531.057 146.233C536.843 148.203 543.491 149.188 551 149.188C554.54 149.188 558.002 148.926 561.387 148.403C564.773 147.91 567.835 147.295 570.574 146.556C573.313 145.848 575.514 145.156 577.176 144.479L581.746 157.866C579.807 158.974 577.176 160.005 573.852 160.96C570.559 161.944 566.835 162.729 562.68 163.314C558.556 163.929 554.309 164.237 549.939 164.237ZM547.815 122.504C551.57 122.504 554.555 121.781 556.771 120.335C559.018 118.888 560.618 116.749 561.572 113.918C562.557 111.055 563.019 107.531 562.957 103.346C562.926 99.6527 562.449 96.5289 561.526 93.9744C560.633 91.3892 559.079 89.4349 556.863 88.1115C554.678 86.7573 551.631 86.0803 547.723 86.0803C544.306 86.0803 541.398 86.8035 538.998 88.25C536.628 89.6965 534.812 91.7277 533.55 94.3438C532.319 96.929 531.688 99.9759 531.657 103.484C531.688 106.747 532.211 109.84 533.227 112.763C534.243 115.656 535.92 118.011 538.259 119.827C540.598 121.612 543.783 122.504 547.815 122.504Z" fill="black"/>
<path d="M18.1435 133.768L17.6305 134.627L17.6364 134.63L18.1435 133.768ZM6.14062 120.842L5.24719 121.292L5.24921 121.296L6.14062 120.842ZM6.18679 82.7102L5.29738 82.2531L5.2964 82.255L6.18679 82.7102ZM18.2358 69.8303L18.745 70.6909L18.7488 70.6886L18.2358 69.8303ZM53.044 68.5376L53.4793 67.6373L53.4793 67.6373L53.044 68.5376ZM64.0774 78.0014L63.2454 78.5561L64.0774 78.0014ZM68.5554 92.3125V93.3125H69.6072L69.5541 92.262L68.5554 92.3125ZM49.9972 92.3125L49.0079 92.4587L49.1341 93.3125H49.9972V92.3125ZM45.8423 83.772L45.1401 84.4841L45.1502 84.4938L45.8423 83.772ZM29.1307 82.9872L29.7182 83.7964L29.7202 83.795L29.1307 82.9872ZM23.8217 113.087L22.8895 113.449L22.8926 113.456L23.8217 113.087ZM29.1307 120.335L29.7202 119.527L29.7202 119.527L29.1307 120.335ZM43.1648 121.442L42.7115 120.551L42.7054 120.554L43.1648 121.442ZM47.6428 117.426L46.8129 116.868L46.8107 116.871L47.6428 117.426ZM49.9972 111.009V110.009H49.1344L49.008 110.863L49.9972 111.009ZM68.5554 111.009L69.5538 111.066L69.6138 110.009H68.5554V111.009ZM64.1236 125.32L63.282 124.78L63.281 124.782L64.1236 125.32ZM53.2749 134.923L52.8276 134.028L52.8276 134.028L53.2749 134.923ZM36.8864 137.385C29.7662 137.385 23.7011 135.877 18.6505 132.907L17.6364 134.63C23.0498 137.815 29.48 139.385 36.8864 139.385V137.385ZM18.6565 132.91C13.6204 129.9 9.74908 125.734 7.03204 120.389L5.24921 121.296C8.1335 126.969 12.2641 131.42 17.6305 134.627L18.6565 132.91ZM7.03405 120.393C4.34483 115.045 2.9858 108.863 2.9858 101.822H0.985796C0.985796 109.124 2.39665 115.622 5.2472 121.292L7.03405 120.393ZM2.9858 101.822C2.9858 94.689 4.36049 88.4794 7.07718 83.1654L5.2964 82.255C2.41177 87.8975 0.985796 94.4294 0.985796 101.822H2.9858ZM7.07619 83.1673C9.82374 77.8216 13.7102 73.6701 18.745 70.6909L17.7266 68.9696C12.3589 72.1458 8.21272 76.5809 5.29739 82.2531L7.07619 83.1673ZM18.7488 70.6886C23.7686 67.6887 29.7703 66.1676 36.794 66.1676V64.1676C29.4759 64.1676 23.1055 65.755 17.7228 68.9719L18.7488 70.6886ZM36.794 66.1676C42.8589 66.1676 48.1216 67.2686 52.6088 69.4379L53.4793 67.6373C48.672 65.3133 43.1013 64.1676 36.794 64.1676V66.1676ZM52.6088 69.4379C57.1049 71.6115 60.6418 74.6508 63.2454 78.5561L64.9095 77.4467C62.0964 73.2271 58.2777 69.9571 53.4793 67.6373L52.6088 69.4379ZM63.2454 78.5561C65.8418 82.4508 67.2876 87.042 67.5567 92.363L69.5541 92.262C69.2692 86.6265 67.7297 81.6771 64.9095 77.4467L63.2454 78.5561ZM68.5554 91.3125H49.9972V93.3125H68.5554V91.3125ZM50.9864 92.1663C50.4358 88.4418 48.9646 85.3806 46.5345 83.0502L45.1502 84.4938C47.2134 86.4722 48.5121 89.1046 49.0079 92.4587L50.9864 92.1663ZM46.5445 83.06C44.1119 80.6612 40.9363 79.4943 37.1172 79.4943V81.4943C40.4998 81.4943 43.1409 82.5125 45.1402 84.4841L46.5445 83.06ZM37.1172 79.4943C33.8765 79.4943 31.0039 80.3823 28.5412 82.1794L29.7202 83.795C31.8124 82.2682 34.2641 81.4943 37.1172 81.4943V79.4943ZM28.5432 82.178C26.114 83.9416 24.2566 86.4944 22.9401 89.7698L24.7957 90.5157C26.0028 87.5127 27.654 85.2951 29.7182 83.7964L28.5432 82.178ZM22.9401 89.7698C21.618 93.0588 20.9751 96.9937 20.9751 101.545H22.9751C22.9751 97.172 23.5941 93.5051 24.7957 90.5157L22.9401 89.7698ZM20.9751 101.545C20.9751 106.155 21.6016 110.132 22.8896 113.449L24.7539 112.725C23.5798 109.701 22.9751 105.984 22.9751 101.545H20.9751ZM22.8926 113.456C24.2094 116.765 26.0823 119.348 28.5412 121.142L29.7202 119.527C27.6242 117.997 25.9577 115.749 24.7508 112.717L22.8926 113.456ZM28.5412 121.142C31.0039 122.939 33.8765 123.827 37.1172 123.827V121.827C34.2641 121.827 31.8124 121.054 29.7202 119.527L28.5412 121.142ZM37.1172 123.827C39.5046 123.827 41.6811 123.336 43.6242 122.331L42.7054 120.554C41.0784 121.396 39.2231 121.827 37.1172 121.827V123.827ZM43.618 122.334C45.5924 121.33 47.2135 119.873 48.4748 117.981L46.8107 116.871C45.733 118.488 44.3688 119.708 42.7115 120.551L43.618 122.334ZM48.4726 117.984C49.7691 116.056 50.5989 113.771 50.9864 111.156L49.008 110.863C48.6567 113.233 47.917 115.226 46.8129 116.868L48.4726 117.984ZM49.9972 112.009H68.5554V110.009H49.9972V112.009ZM67.557 110.953C67.2579 116.216 65.8261 120.816 63.282 124.78L64.9652 125.86C67.7147 121.576 69.2373 116.636 69.5538 111.066L67.557 110.953ZM63.281 124.782C60.7683 128.713 57.2931 131.795 52.8276 134.028L53.7221 135.817C58.4896 133.433 62.2468 130.114 64.9662 125.859L63.281 124.782ZM52.8276 134.028C48.3775 136.253 43.0743 137.385 36.8864 137.385V139.385C43.3168 139.385 48.9393 138.208 53.7221 135.817L52.8276 134.028ZM89.2718 135.984L88.8598 136.896L88.8664 136.899L89.2718 135.984ZM80.8699 128.921L80.0302 129.464L80.0365 129.474L80.8699 128.921ZM79.9927 107.27L79.1129 106.795L79.1129 106.795L79.9927 107.27ZM85.9018 100.807L85.3543 99.97L85.3543 99.97L85.9018 100.807ZM94.3961 97.1136L94.1448 96.1457L94.1426 96.1463L94.3961 97.1136ZM104.46 95.3594L104.556 96.3548L104.564 96.354L104.46 95.3594ZM114.432 94.1591L114.576 95.1486L114.588 95.1468L114.432 94.1591ZM119.925 92.4048L119.365 91.5762L119.365 91.5762L119.925 92.4048ZM118.863 81.9254L118.202 82.6757L118.209 82.6811L118.863 81.9254ZM102.66 81.8793L103.252 82.6849L103.26 82.6793L102.66 81.8793ZM98.5048 87.696L98.4238 88.6927L99.2382 88.7589L99.4654 87.9741L98.5048 87.696ZM80.3159 86.2188L79.3381 86.0092L79.0994 87.1232L80.2349 87.2155L80.3159 86.2188ZM85.7633 75.0469L86.5205 75.7001L86.5236 75.6964L85.7633 75.0469ZM96.2427 67.7528L96.6107 68.6827L96.6141 68.6813L96.2427 67.7528ZM122.51 66.5526L122.262 67.5212L122.264 67.5217L122.51 66.5526ZM132.159 70.8459L131.59 71.6681L131.594 71.671L132.159 70.8459ZM138.853 78.3246L137.971 78.7966L137.973 78.8003L138.853 78.3246ZM141.3 137V138H142.3V137H141.3ZM122.649 137H121.649V138H122.649V137ZM122.649 127.167H123.649V126.167H122.649V127.167ZM122.095 127.167V126.167H121.485L121.206 126.71L122.095 127.167ZM117.525 133.03L118.181 133.784L118.188 133.778L117.525 133.03ZM110.646 136.954L110.972 137.899L110.982 137.896L110.646 136.954ZM114.662 123.058L115.12 123.948L115.129 123.943L114.662 123.058ZM119.879 118.349L119.037 117.81L119.037 117.81L119.879 118.349ZM121.772 104.131H122.772V102.288L121.227 103.292L121.772 104.131ZM119.233 105.239L119.515 106.198L119.524 106.195L119.533 106.193L119.233 105.239ZM115.678 106.116L115.861 107.099L115.872 107.097L115.883 107.095L115.678 106.116ZM111.708 106.808L111.846 107.799L111.857 107.797L111.869 107.795L111.708 106.808ZM108.107 107.316L107.966 106.326L107.962 106.327L108.107 107.316ZM102.059 108.932L102.453 109.851L102.453 109.851L102.059 108.932ZM98.0431 111.933L98.8336 112.545L98.8408 112.536L98.0431 111.933ZM99.5204 122.689L98.9307 123.497L98.9379 123.502L98.9452 123.507L99.5204 122.689ZM101.367 137.339C96.9592 137.339 93.0692 136.574 89.6772 135.07L88.8664 136.899C92.5531 138.533 96.7265 139.339 101.367 139.339V137.339ZM89.6839 135.073C86.3085 133.547 83.6568 131.313 81.7032 128.368L80.0365 129.474C82.2069 132.746 85.1566 135.221 88.8598 136.896L89.6839 135.073ZM81.7094 128.378C79.8064 125.437 78.823 121.729 78.823 117.195H76.823C76.823 122.018 77.8708 126.127 80.0303 129.464L81.7094 128.378ZM78.823 117.195C78.823 113.374 79.5248 110.24 80.8725 107.745L79.1129 106.795C77.5677 109.655 76.823 113.137 76.823 117.195H78.823ZM80.8725 107.745C82.2418 105.211 84.0986 103.182 86.4493 101.644L85.3543 99.97C82.7192 101.694 80.6366 103.974 79.1129 106.795L80.8725 107.745ZM86.4493 101.644C88.8434 100.077 91.5737 98.8873 94.6497 98.081L94.1426 96.1463C90.8786 97.0019 87.946 98.2742 85.3543 99.97L86.4493 101.644ZM94.6474 98.0815C97.794 97.2646 101.097 96.6886 104.556 96.3548L104.364 94.364C100.807 94.7073 97.3998 95.3007 94.1448 96.1457L94.6474 98.0815ZM104.564 96.354C108.694 95.9224 112.033 95.5207 114.576 95.1486L114.287 93.1696C111.782 93.5361 108.474 93.9346 104.356 94.3648L104.564 96.354ZM114.588 95.1468C117.153 94.7401 119.161 94.128 120.485 93.2334L119.365 91.5762C118.412 92.2205 116.758 92.7779 114.275 93.1714L114.588 95.1468ZM120.485 93.2334C121.929 92.2577 122.633 90.7908 122.633 88.9886H120.633C120.633 90.2026 120.199 91.0131 119.365 91.5762L120.485 93.2334ZM122.633 88.9886V88.7116H120.633V88.9886H122.633ZM122.633 88.7116C122.633 85.5604 121.627 82.9975 119.518 81.1697L118.209 82.6811C119.793 84.0541 120.633 86.0154 120.633 88.7116H122.633ZM119.525 81.1752C117.466 79.361 114.612 78.5249 111.108 78.5249V80.5249C114.313 80.5249 116.629 81.2891 118.202 82.6756L119.525 81.1752ZM111.108 78.5249C107.428 78.5249 104.377 79.3409 102.06 81.0793L103.26 82.6793C105.127 81.2784 107.709 80.5249 111.108 80.5249V78.5249ZM102.067 81.0736C99.8096 82.7336 98.2868 84.8527 97.5442 87.418L99.4654 87.9741C100.077 85.8613 101.324 84.1025 103.252 82.6849L102.067 81.0736ZM98.5857 86.6993L80.3968 85.222L80.2349 87.2155L98.4238 88.6927L98.5857 86.6993ZM81.2937 86.4283C82.1841 82.273 83.9286 78.7043 86.5205 75.7001L85.0062 74.3936C82.1813 77.6679 80.2942 81.5471 79.3381 86.0092L81.2937 86.4283ZM86.5236 75.6964C89.1153 72.6629 92.4684 70.3217 96.6106 68.6827L95.8748 66.823C91.4612 68.5694 87.828 71.0908 85.003 74.3973L86.5236 75.6964ZM96.6141 68.6813C100.782 67.0142 105.637 66.1676 111.2 66.1676V64.1676C105.437 64.1676 100.321 65.0445 95.8713 66.8244L96.6141 68.6813ZM111.2 66.1676C115.061 66.1676 118.747 66.6199 122.262 67.5212L122.759 65.5839C119.072 64.6386 115.218 64.1676 111.2 64.1676V66.1676ZM122.264 67.5217C125.792 68.4186 128.896 69.8035 131.59 71.6681L132.728 70.0237C129.82 68.0105 126.492 66.5331 122.757 65.5834L122.264 67.5217ZM131.594 71.671C134.292 73.5186 136.415 75.89 137.971 78.7965L139.734 77.8526C138.028 74.6654 135.689 72.051 132.724 70.0208L131.594 71.671ZM137.973 78.8003C139.509 81.6404 140.3 85.0853 140.3 89.1733H142.3C142.3 84.8285 141.459 81.041 139.732 77.8489L137.973 78.8003ZM140.3 89.1733V137H142.3V89.1733H140.3ZM141.3 136H122.649V138H141.3V136ZM123.649 137V127.167H121.649V137H123.649ZM122.649 126.167H122.095V128.167H122.649V126.167ZM121.206 126.71C120.125 128.813 118.679 130.669 116.861 132.282L118.188 133.778C120.187 132.005 121.788 129.953 122.984 127.624L121.206 126.71ZM116.868 132.276C115.065 133.846 112.885 135.095 110.31 136.012L110.982 137.896C113.763 136.905 116.168 135.538 118.181 133.784L116.868 132.276ZM110.32 136.008C107.769 136.888 104.79 137.339 101.367 137.339V139.339C104.961 139.339 108.168 138.866 110.972 137.899L110.32 136.008ZM106.999 125.766C110.025 125.766 112.741 125.17 115.12 123.948L114.205 122.169C112.152 123.224 109.759 123.766 106.999 123.766V125.766ZM115.129 123.943C117.487 122.698 119.359 121.014 120.721 118.889L119.037 117.81C117.875 119.624 116.27 121.079 114.196 122.174L115.129 123.943ZM120.721 118.889C122.093 116.747 122.772 114.327 122.772 111.656H120.772C120.772 113.97 120.189 116.012 119.037 117.81L120.721 118.889ZM122.772 111.656V104.131H120.772V111.656H122.772ZM121.227 103.292C120.717 103.624 119.965 103.96 118.933 104.285L119.533 106.193C120.655 105.84 121.596 105.438 122.317 104.969L121.227 103.292ZM118.951 104.279C117.935 104.578 116.776 104.864 115.473 105.137L115.883 107.095C117.226 106.813 118.438 106.515 119.515 106.198L118.951 104.279ZM115.495 105.133C114.179 105.377 112.863 105.607 111.547 105.821L111.869 107.795C113.199 107.579 114.53 107.346 115.861 107.099L115.495 105.133ZM111.57 105.818C110.245 106.003 109.044 106.172 107.966 106.326L108.248 108.306C109.324 108.152 110.524 107.983 111.846 107.799L111.57 105.818ZM107.962 106.327C105.588 106.675 103.485 107.233 101.666 108.013L102.453 109.851C104.081 109.154 106.01 108.634 108.252 108.305L107.962 106.327ZM101.666 108.013C99.812 108.807 98.3223 109.905 97.2455 111.329L98.8408 112.536C99.6721 111.436 100.86 110.534 102.453 109.851L101.666 108.013ZM97.2527 111.32C96.1388 112.757 95.612 114.523 95.612 116.549H97.612C97.612 114.882 98.0394 113.57 98.8336 112.545L97.2527 111.32ZM95.612 116.549C95.612 119.503 96.7014 121.869 98.9307 123.497L100.11 121.881C98.4616 120.678 97.612 118.95 97.612 116.549H95.612ZM98.9452 123.507C101.122 125.037 103.829 125.766 106.999 125.766V123.766C104.137 123.766 101.859 123.11 100.096 121.871L98.9452 123.507ZM156.557 137H155.557V138H156.557V137ZM156.557 66.0909V65.0909H155.557V66.0909H156.557ZM175.623 66.0909H176.623V65.0909H175.623V66.0909ZM175.623 78.4631H174.623V79.4631H175.623V78.4631ZM176.362 78.4631V79.4631H177.11L177.321 78.7449L176.362 78.4631ZM182.871 68.4915L183.464 69.2963L183.47 69.2924L182.871 68.4915ZM196.582 65.2599L196.689 64.2657L196.689 64.2657L196.582 65.2599ZM199.583 65.7678H200.583V64.987L199.825 64.7976L199.583 65.7678ZM199.583 83.218L199.295 84.1759L200.583 84.5621V83.218H199.583ZM183.517 84.049L183.998 84.926L184.002 84.9237L183.517 84.049ZM178.162 89.2195L177.304 88.7067L177.298 88.7156L178.162 89.2195ZM176.223 137V138H177.223V137H176.223ZM157.557 137V66.0909H155.557V137H157.557ZM156.557 67.0909H175.623V65.0909H156.557V67.0909ZM174.623 66.0909V78.4631H176.623V66.0909H174.623ZM175.623 79.4631H176.362V77.4631H175.623V79.4631ZM177.321 78.7449C178.566 74.5079 180.628 71.3877 183.464 69.2963L182.277 67.6866C179.02 70.0886 176.743 73.6161 175.402 78.1813L177.321 78.7449ZM183.47 69.2924C186.336 67.1501 189.632 66.0753 193.396 66.0753V64.0753C189.221 64.0753 185.5 65.2779 182.272 67.6905L183.47 69.2924ZM193.396 66.0753C194.34 66.0753 195.366 66.1343 196.474 66.2541L196.689 64.2657C195.521 64.1394 194.422 64.0753 193.396 64.0753V66.0753ZM196.474 66.2541C197.58 66.3737 198.533 66.5362 199.34 66.7379L199.825 64.7976C198.908 64.5684 197.861 64.3924 196.689 64.2657L196.474 66.2541ZM198.583 65.7678V83.218H200.583V65.7678H198.583ZM199.87 82.2602C198.872 81.9609 197.535 81.7063 195.882 81.488L195.62 83.4708C197.23 83.6834 198.446 83.9212 199.295 84.1759L199.87 82.2602ZM195.882 81.488C194.216 81.268 192.679 81.1562 191.273 81.1562V83.1562C192.575 83.1562 194.023 83.2599 195.62 83.4708L195.882 81.488ZM191.273 81.1562C188.23 81.1562 185.474 81.8214 183.033 83.1743L184.002 84.9237C186.115 83.7529 188.53 83.1562 191.273 83.1562V81.1562ZM183.037 83.172C180.633 84.4893 178.718 86.3391 177.304 88.7067L179.021 89.7322C180.253 87.668 181.908 86.0708 183.998 84.926L183.037 83.172ZM177.298 88.7156C175.906 91.1032 175.223 93.8358 175.223 96.8828H177.223C177.223 94.1438 177.833 91.7675 179.026 89.7233L177.298 88.7156ZM175.223 96.8828V137H177.223V96.8828H175.223ZM176.223 136H156.557V138H176.223V136ZM219.93 133.953L219.434 134.822L219.44 134.825L219.93 133.953ZM207.835 121.304L206.946 121.763L206.947 121.765L207.835 121.304ZM207.835 82.6641L206.945 82.2069L206.945 82.2069L207.835 82.6641ZM219.791 69.7841L219.28 68.9248L219.277 68.9261L219.791 69.7841ZM251.045 67.4297L250.694 68.3663L250.703 68.3695L251.045 67.4297ZM261.663 74.1236L260.959 74.8343L260.963 74.8379L261.663 74.1236ZM268.772 85.3878L267.835 85.7382L267.836 85.7403L268.772 85.3878ZM271.311 106.577V107.577H272.311V106.577H271.311ZM211.435 106.577H210.435V107.577H211.435V106.577ZM211.435 94.3899V93.3899H210.435V94.3899H211.435ZM252.799 94.3899V95.3899H253.799V94.3899H252.799ZM250.952 86.8651L250.081 87.3559L250.081 87.3559L250.952 86.8651ZM245.828 81.7408L245.323 82.6036L245.33 82.6079L245.337 82.612L245.828 81.7408ZM230.363 81.9254L230.874 82.785L230.877 82.7829L230.363 81.9254ZM225.008 87.419L225.878 87.9126L225.88 87.9076L225.008 87.419ZM223.023 95.0362L222.023 95.0252V95.0362H223.023ZM224.962 115.718L224.069 116.17L224.074 116.178L224.962 115.718ZM245.089 122.781L244.768 121.834L244.768 121.834L245.089 122.781ZM249.752 120.011L249.062 119.287L249.062 119.287L249.752 120.011ZM252.707 115.487L252.773 114.489L252.034 114.441L251.772 115.133L252.707 115.487ZM270.896 116.688L271.874 116.894L272.112 115.766L270.961 115.69L270.896 116.688ZM265.217 128.136L264.466 127.477L264.465 127.477L265.217 128.136ZM254.23 135.707L254.602 136.636L254.605 136.635L254.23 135.707ZM238.765 137.385C231.607 137.385 225.504 135.936 220.419 133.081L219.44 134.825C224.881 137.879 231.335 139.385 238.765 139.385V137.385ZM220.425 133.085C215.364 130.196 211.466 126.123 208.722 120.843L206.947 121.765C209.866 127.38 214.032 131.739 219.434 134.822L220.425 133.085ZM208.723 120.845C205.979 115.536 204.587 109.221 204.587 101.869H202.587C202.587 109.473 204.027 116.116 206.946 121.763L208.723 120.845ZM204.587 101.869C204.587 94.7054 205.977 88.4657 208.724 83.1212L206.945 82.2069C204.029 87.8804 202.587 94.4437 202.587 101.869H204.587ZM208.724 83.1212C211.473 77.7723 215.331 73.6204 220.305 70.642L219.277 68.9261C213.972 72.1031 209.859 76.5378 206.945 82.2069L208.724 83.1212ZM220.303 70.6434C225.296 67.6714 231.176 66.1676 237.98 66.1676V64.1676C230.873 64.1676 224.628 65.7415 219.28 68.9248L220.303 70.6434ZM237.98 66.1676C242.549 66.1676 246.784 66.9037 250.694 68.3663L251.395 66.4931C247.242 64.9396 242.767 64.1676 237.98 64.1676V66.1676ZM250.703 68.3695C254.632 69.7984 258.048 71.9525 260.959 74.8343L262.366 73.4129C259.245 70.324 255.582 68.0156 251.386 66.4899L250.703 68.3695ZM260.963 74.8379C263.892 77.7079 266.187 81.333 267.835 85.7382L269.709 85.0374C267.971 80.3943 265.527 76.5099 262.362 73.4093L260.963 74.8379ZM267.836 85.7403C269.477 90.0963 270.311 95.2347 270.311 101.176H272.311C272.311 95.0531 271.452 89.6661 269.708 85.0353L267.836 85.7403ZM270.311 101.176V106.577H272.311V101.176H270.311ZM271.311 105.577H211.435V107.577H271.311V105.577ZM212.435 106.577V94.3899H210.435V106.577H212.435ZM211.435 95.3899H252.799V93.3899H211.435V95.3899ZM253.799 94.3899C253.799 91.4091 253.15 88.7277 251.824 86.3742L250.081 87.3559C251.217 89.3727 251.799 91.7079 251.799 94.3899H253.799ZM251.824 86.3742C250.503 84.0299 248.663 82.1903 246.319 80.8695L245.337 82.612C247.363 83.7534 248.94 85.3299 250.081 87.3559L251.824 86.3742ZM246.334 80.8779C244.005 79.5138 241.317 78.848 238.303 78.848V80.848C241.014 80.848 243.343 81.4441 245.323 82.6036L246.334 80.8779ZM238.303 78.848C235.157 78.848 232.329 79.5798 229.848 81.0679L230.877 82.7829C233.014 81.5012 235.479 80.848 238.303 80.848V78.848ZM229.852 81.0659C227.424 82.5097 225.514 84.4687 224.135 86.9304L225.88 87.9076C227.087 85.7529 228.747 84.0495 230.874 82.785L229.852 81.0659ZM224.138 86.9254C222.756 89.3604 222.055 92.0674 222.023 95.0252L224.023 95.0472C224.052 92.4037 224.674 90.0326 225.877 87.9126L224.138 86.9254ZM222.023 95.0362V106.624H224.023V95.0362H222.023ZM222.023 106.624C222.023 110.254 222.692 113.447 224.069 116.17L225.854 115.267C224.646 112.88 224.023 110.01 224.023 106.624H222.023ZM224.074 116.178C225.482 118.895 227.475 121.009 230.048 122.493L231.047 120.761C228.819 119.475 227.089 117.65 225.85 115.258L224.074 116.178ZM230.048 122.493C232.627 123.981 235.653 124.705 239.088 124.705V122.705C235.937 122.705 233.27 122.043 231.047 120.761L230.048 122.493ZM239.088 124.705C241.367 124.705 243.478 124.383 245.411 123.728L244.768 121.834C243.069 122.41 241.179 122.705 239.088 122.705V124.705ZM245.411 123.728C247.354 123.07 249.036 122.074 250.442 120.735L249.062 119.287C247.883 120.411 246.457 121.262 244.768 121.834L245.411 123.728ZM250.442 120.736C251.85 119.394 252.915 117.757 253.642 115.842L251.772 115.133C251.144 116.788 250.239 118.166 249.062 119.287L250.442 120.736ZM252.641 116.485L270.83 117.685L270.961 115.69L252.773 114.489L252.641 116.485ZM269.917 116.481C269.028 120.688 267.211 124.347 264.466 127.477L265.969 128.796C268.948 125.401 270.916 121.427 271.874 116.894L269.917 116.481ZM264.465 127.477C261.749 130.577 258.222 133.015 253.855 134.78L254.605 136.635C259.224 134.768 263.022 132.159 265.969 128.795L264.465 127.477ZM253.859 134.779C249.537 136.508 244.512 137.385 238.765 137.385V139.385C244.713 139.385 249.998 138.477 254.602 136.636L253.859 134.779ZM297.625 133.953L297.129 134.822L297.135 134.825L297.625 133.953ZM285.53 121.304L284.641 121.763L284.643 121.765L285.53 121.304ZM285.53 82.6641L284.64 82.2069L284.64 82.2069L285.53 82.6641ZM297.487 69.7841L296.975 68.9248L296.973 68.9261L297.487 69.7841ZM328.74 67.4297L328.39 68.3663L328.398 68.3695L328.74 67.4297ZM339.358 74.1236L338.654 74.8343L338.658 74.8379L339.358 74.1236ZM346.467 85.3878L345.531 85.7382L345.532 85.7403L346.467 85.3878ZM349.006 106.577V107.577H350.006V106.577H349.006ZM289.131 106.577H288.131V107.577H289.131V106.577ZM289.131 94.3899V93.3899H288.131V94.3899H289.131ZM330.494 94.3899V95.3899H331.494V94.3899H330.494ZM328.648 86.8651L327.776 87.3559L327.776 87.3559L328.648 86.8651ZM323.523 81.7408L323.018 82.6036L323.025 82.6079L323.033 82.612L323.523 81.7408ZM308.058 81.9254L308.569 82.785L308.573 82.7829L308.058 81.9254ZM302.703 87.419L303.573 87.9126L303.576 87.9076L302.703 87.419ZM300.718 95.0362L299.718 95.0252V95.0362H300.718ZM302.657 115.718L301.765 116.17L301.769 116.178L302.657 115.718ZM322.785 122.781L322.464 121.834L322.464 121.834L322.785 122.781ZM327.447 120.011L326.758 119.287L326.758 119.287L327.447 120.011ZM330.402 115.487L330.468 114.489L329.729 114.441L329.467 115.133L330.402 115.487ZM348.591 116.688L349.569 116.894L349.808 115.766L348.657 115.69L348.591 116.688ZM342.913 128.136L342.161 127.477L342.161 127.477L342.913 128.136ZM331.925 135.707L332.297 136.636L332.3 136.635L331.925 135.707ZM316.46 137.385C309.302 137.385 303.2 135.936 298.115 133.081L297.135 134.825C302.576 137.879 309.03 139.385 316.46 139.385V137.385ZM298.121 133.085C293.059 130.196 289.162 126.123 286.417 120.843L284.643 121.765C287.561 127.38 291.727 131.739 297.129 134.822L298.121 133.085ZM286.418 120.845C283.674 115.536 282.283 109.221 282.283 101.869H280.283C280.283 109.473 281.723 116.116 284.641 121.763L286.418 120.845ZM282.283 101.869C282.283 94.7054 283.672 88.4657 286.419 83.1212L284.64 82.2069C281.724 87.8804 280.283 94.4437 280.283 101.869H282.283ZM286.419 83.1212C289.168 77.7723 293.026 73.6204 298 70.642L296.973 68.9261C291.667 72.1031 287.554 76.5378 284.64 82.2069L286.419 83.1212ZM297.998 70.6434C302.991 67.6714 308.871 66.1676 315.675 66.1676V64.1676C308.568 64.1676 302.323 65.7415 296.975 68.9248L297.998 70.6434ZM315.675 66.1676C320.244 66.1676 324.479 66.9037 328.39 68.3663L329.09 66.4931C324.937 64.9396 320.463 64.1676 315.675 64.1676V66.1676ZM328.398 68.3695C332.328 69.7984 335.743 71.9525 338.654 74.8343L340.061 73.4129C336.941 70.324 333.277 68.0156 329.082 66.4899L328.398 68.3695ZM338.658 74.8379C341.587 77.7079 343.883 81.333 345.531 85.7382L347.404 85.0374C345.667 80.3943 343.222 76.5099 340.058 73.4093L338.658 74.8379ZM345.532 85.7403C347.172 90.0963 348.006 95.2347 348.006 101.176H350.006C350.006 95.0531 349.148 89.6661 347.403 85.0353L345.532 85.7403ZM348.006 101.176V106.577H350.006V101.176H348.006ZM349.006 105.577H289.131V107.577H349.006V105.577ZM290.131 106.577V94.3899H288.131V106.577H290.131ZM289.131 95.3899H330.494V93.3899H289.131V95.3899ZM331.494 94.3899C331.494 91.4091 330.845 88.7277 329.519 86.3742L327.776 87.3559C328.913 89.3727 329.494 91.7079 329.494 94.3899H331.494ZM329.519 86.3742C328.198 84.0299 326.359 82.1903 324.014 80.8695L323.033 82.612C325.059 83.7534 326.635 85.3299 327.776 87.3559L329.519 86.3742ZM324.029 80.8779C321.7 79.5138 319.012 78.848 315.999 78.848V80.848C318.71 80.848 321.038 81.4441 323.018 82.6036L324.029 80.8779ZM315.999 78.848C312.852 78.848 310.024 79.5798 307.544 81.0679L308.573 82.7829C310.709 81.5012 313.174 80.848 315.999 80.848V78.848ZM307.547 81.0659C305.119 82.5097 303.209 84.4687 301.831 86.9304L303.576 87.9076C304.782 85.7529 306.443 84.0495 308.569 82.785L307.547 81.0659ZM301.833 86.9254C300.451 89.3604 299.751 92.0674 299.718 95.0252L301.718 95.0472C301.747 92.4037 302.37 90.0326 303.573 87.9126L301.833 86.9254ZM299.718 95.0362V106.624H301.718V95.0362H299.718ZM299.718 106.624C299.718 110.254 300.387 113.447 301.765 116.17L303.549 115.267C302.342 112.88 301.718 110.01 301.718 106.624H299.718ZM301.769 116.178C303.177 118.895 305.171 121.009 307.743 122.493L308.743 120.761C306.514 119.475 304.784 117.65 303.545 115.258L301.769 116.178ZM307.743 122.493C310.322 123.981 313.348 124.705 316.783 124.705V122.705C313.633 122.705 310.965 122.043 308.743 120.761L307.743 122.493ZM316.783 124.705C319.063 124.705 321.173 124.383 323.106 123.728L322.464 121.834C320.765 122.41 318.874 122.705 316.783 122.705V124.705ZM323.106 123.728C325.049 123.07 326.732 122.074 328.137 120.735L326.758 119.287C325.578 120.411 324.152 121.262 322.464 121.834L323.106 123.728ZM328.137 120.736C329.546 119.394 330.611 117.757 331.337 115.842L329.467 115.133C328.839 116.788 327.935 118.166 326.758 119.287L328.137 120.736ZM330.336 116.485L348.525 117.685L348.657 115.69L330.468 114.489L330.336 116.485ZM347.613 116.481C346.724 120.688 344.907 124.347 342.161 127.477L343.664 128.796C346.643 125.401 348.612 121.427 349.569 116.894L347.613 116.481ZM342.161 127.477C339.445 130.577 335.918 133.015 331.551 134.78L332.3 136.635C336.92 134.768 340.718 132.159 343.665 128.795L342.161 127.477ZM331.554 134.779C327.232 136.508 322.207 137.385 316.46 137.385V139.385C322.408 139.385 327.694 138.477 332.297 136.636L331.554 134.779ZM361.84 137H360.84V138H361.84V137ZM361.84 66.0909V65.0909H360.84V66.0909H361.84ZM380.906 66.0909H381.906V65.0909H380.906V66.0909ZM380.906 78.4631H379.906V79.4631H380.906V78.4631ZM381.645 78.4631V79.4631H382.393L382.604 78.7449L381.645 78.4631ZM388.154 68.4915L388.748 69.2963L388.753 69.2924L388.154 68.4915ZM401.865 65.2599L401.973 64.2657L401.973 64.2657L401.865 65.2599ZM404.866 65.7678H405.866V64.987L405.108 64.7976L404.866 65.7678ZM404.866 83.218L404.578 84.1759L405.866 84.5621V83.218H404.866ZM388.8 84.049L389.281 84.926L389.285 84.9237L388.8 84.049ZM383.445 89.2195L382.587 88.7067L382.582 88.7156L383.445 89.2195ZM381.506 137V138H382.506V137H381.506ZM362.84 137V66.0909H360.84V137H362.84ZM361.84 67.0909H380.906V65.0909H361.84V67.0909ZM379.906 66.0909V78.4631H381.906V66.0909H379.906ZM380.906 79.4631H381.645V77.4631H380.906V79.4631ZM382.604 78.7449C383.849 74.5079 385.911 71.3877 388.748 69.2963L387.561 67.6866C384.303 70.0886 382.026 73.6161 380.685 78.1813L382.604 78.7449ZM388.753 69.2924C391.619 67.1501 394.915 66.0753 398.68 66.0753V64.0753C394.504 64.0753 390.783 65.2779 387.555 67.6905L388.753 69.2924ZM398.68 66.0753C399.623 66.0753 400.649 66.1343 401.758 66.2541L401.973 64.2657C400.804 64.1394 399.706 64.0753 398.68 64.0753V66.0753ZM401.758 66.2541C402.863 66.3737 403.816 66.5362 404.623 66.7379L405.108 64.7976C404.192 64.5684 403.145 64.3924 401.973 64.2657L401.758 66.2541ZM403.866 65.7678V83.218H405.866V65.7678H403.866ZM405.153 82.2602C404.155 81.9609 402.818 81.7063 401.165 81.488L400.903 83.4708C402.513 83.6834 403.73 83.9212 404.578 84.1759L405.153 82.2602ZM401.165 81.488C399.499 81.268 397.962 81.1562 396.556 81.1562V83.1562C397.858 83.1562 399.307 83.2599 400.903 83.4708L401.165 81.488ZM396.556 81.1562C393.513 81.1562 390.758 81.8214 388.316 83.1743L389.285 84.9237C391.398 83.7529 393.813 83.1562 396.556 83.1562V81.1562ZM388.32 83.172C385.916 84.4893 384.001 86.3391 382.587 88.7067L384.304 89.7322C385.537 87.668 387.192 86.0708 389.281 84.926L388.32 83.172ZM382.582 88.7156C381.189 91.1032 380.506 93.8358 380.506 96.8828H382.506C382.506 94.1438 383.117 91.7675 384.309 89.7233L382.582 88.7156ZM380.506 96.8828V137H382.506V96.8828H380.506ZM381.506 136H361.84V138H381.506V136ZM474.032 86.3111L474.094 87.3092L475.164 87.2433L475.024 86.1801L474.032 86.3111ZM456.028 87.419L455.047 87.6151L455.218 88.4707L456.089 88.4171L456.028 87.419ZM454.043 83.2642L453.264 83.8913L453.271 83.9006L454.043 83.2642ZM450.026 80.2635L449.6 81.1679L449.61 81.1727L449.62 81.1773L450.026 80.2635ZM436.454 81.0483L436.97 81.9047L436.98 81.8991L436.454 81.0483ZM435.346 90.4197L434.692 91.1766L434.692 91.1766L435.346 90.4197ZM442.317 93.2358L442.107 94.2135L442.119 94.2161L442.317 93.2358ZM455.151 95.821L455.352 94.8415L455.348 94.8407L455.151 95.821ZM470.57 102.653L469.89 103.387L469.89 103.387L470.57 102.653ZM471.539 127.259L470.751 126.644L470.748 126.648L471.539 127.259ZM460.367 135.477L460.748 136.401L460.751 136.4L460.367 135.477ZM421.635 132.522L421.056 133.337L421.061 133.341L421.635 132.522ZM411.894 116.457L411.842 115.458L410.752 115.515L410.904 116.596L411.894 116.457ZM431.237 115.441L432.217 115.241L432.045 114.397L431.185 114.442L431.237 115.441ZM435.485 121.996L434.927 122.827L434.935 122.832L435.485 121.996ZM452.427 122.227L452.961 123.072L452.965 123.07L452.427 122.227ZM455.659 117.011L456.658 117.025L456.659 117.009L456.658 116.993L455.659 117.011ZM453.396 112.625L452.776 113.409L452.786 113.417L453.396 112.625ZM446.564 109.947L446.76 108.967L446.76 108.967L446.564 109.947ZM434.284 107.501L434.088 108.481L434.089 108.481L434.284 107.501ZM418.819 100.299L418.106 101L418.109 101.003L418.819 100.299ZM417.48 75.4624L416.683 74.8588L416.679 74.8636L417.48 75.4624ZM427.96 67.8452L427.593 66.915L427.59 66.9158L427.96 67.8452ZM464.984 70.8459L464.391 71.6511L464.393 71.6527L464.984 70.8459ZM473.971 85.313L455.966 86.4209L456.089 88.4171L474.094 87.3092L473.971 85.313ZM457.008 87.2229C456.668 85.5195 455.933 83.9839 454.814 82.6278L453.271 83.9006C454.184 85.0066 454.772 86.2409 455.047 87.6151L457.008 87.2229ZM454.822 82.6372C453.695 81.2369 452.222 80.1449 450.433 79.3497L449.62 81.1773C451.155 81.8594 452.36 82.7678 453.264 83.8912L454.822 82.6372ZM450.453 79.3591C448.658 78.5124 446.551 78.1094 444.164 78.1094V80.1094C446.331 80.1094 448.132 80.4757 449.6 81.1679L450.453 79.3591ZM444.164 78.1094C440.975 78.1094 438.213 78.7865 435.929 80.1975L436.98 81.8991C438.881 80.7249 441.258 80.1094 444.164 80.1094V78.1094ZM435.938 80.1919C433.598 81.6023 432.315 83.5939 432.315 86.1264H434.315C434.315 84.4118 435.124 83.0179 436.97 81.9047L435.938 80.1919ZM432.315 86.1264C432.315 88.1281 433.133 89.8294 434.692 91.1766L436 89.6629C434.851 88.671 434.315 87.5102 434.315 86.1264H432.315ZM434.692 91.1766C436.242 92.5152 438.771 93.4964 442.107 94.2135L442.527 92.2581C439.277 91.5595 437.158 90.6633 436 89.6629L434.692 91.1766ZM442.119 94.2161L454.953 96.8013L455.348 94.8407L442.514 92.2555L442.119 94.2161ZM454.95 96.8006C461.751 98.1973 466.691 100.421 469.89 103.387L471.25 101.92C467.677 98.6077 462.338 96.2761 455.352 94.8415L454.95 96.8006ZM469.89 103.387C473.048 106.315 474.648 110.162 474.648 115.026H476.648C476.648 109.671 474.862 105.27 471.25 101.92L469.89 103.387ZM474.648 115.026C474.648 119.46 473.347 123.319 470.751 126.644L472.327 127.875C475.21 124.182 476.648 119.885 476.648 115.026H474.648ZM470.748 126.648C468.162 129.998 464.588 132.64 459.984 134.553L460.751 136.4C465.626 134.374 469.5 131.537 472.331 127.87L470.748 126.648ZM459.987 134.552C455.421 136.432 450.122 137.385 444.071 137.385V139.385C450.331 139.385 455.896 138.399 460.748 136.401L459.987 134.552ZM444.071 137.385C434.814 137.385 427.559 135.457 422.209 131.703L421.061 133.341C426.853 137.404 434.555 139.385 444.071 139.385V137.385ZM422.215 131.707C416.9 127.928 413.801 122.818 412.885 116.317L410.904 116.596C411.896 123.637 415.29 129.237 421.056 133.337L422.215 131.707ZM411.947 117.455L431.29 116.44L431.185 114.442L411.842 115.458L411.947 117.455ZM430.258 115.641C430.89 118.738 432.444 121.16 434.927 122.827L436.042 121.166C434.032 119.817 432.754 117.868 432.217 115.241L430.258 115.641ZM434.935 122.832C437.388 124.445 440.472 125.212 444.117 125.212V123.212C440.745 123.212 438.075 122.503 436.034 121.161L434.935 122.832ZM444.117 125.212C447.682 125.212 450.658 124.529 452.961 123.072L451.893 121.382C450.011 122.572 447.446 123.212 444.117 123.212V125.212ZM452.965 123.07C455.311 121.574 456.622 119.552 456.658 117.025L454.659 116.996C454.634 118.717 453.79 120.172 451.889 121.384L452.965 123.07ZM456.658 116.993C456.622 114.889 455.713 113.148 454.007 111.833L452.786 113.417C454.035 114.38 454.633 115.562 454.659 117.028L456.658 116.993ZM454.017 111.841C452.359 110.529 449.902 109.595 446.76 108.967L446.368 110.928C449.381 111.531 451.479 112.382 452.776 113.409L454.017 111.841ZM446.76 108.967L434.48 106.52L434.089 108.481L446.369 110.928L446.76 108.967ZM434.48 106.52C427.664 105.157 422.723 102.818 419.529 99.5951L418.109 101.003C421.686 104.612 427.055 107.075 434.088 108.481L434.48 106.52ZM419.533 99.5984C416.382 96.3897 414.787 92.2961 414.787 87.2344H412.787C412.787 92.7597 414.547 97.3759 418.106 101L419.533 99.5984ZM414.787 87.2344C414.787 82.8708 415.962 79.1627 418.281 76.0612L416.679 74.8636C414.074 78.3482 412.787 82.4881 412.787 87.2344H414.787ZM418.278 76.0659C420.643 72.9418 423.976 70.5038 428.329 68.7745L427.59 66.9158C422.957 68.7566 419.304 71.3968 416.683 74.8588L418.278 76.0659ZM428.327 68.7754C432.709 67.0463 437.873 66.1676 443.84 66.1676V64.1676C437.682 64.1676 432.259 65.074 427.593 66.915L428.327 68.7754ZM443.84 66.1676C452.667 66.1676 459.48 68.0341 464.391 71.6511L465.577 70.0407C460.208 66.0867 452.926 64.1676 443.84 64.1676V66.1676ZM464.393 71.6527C469.337 75.2722 472.214 80.1797 473.041 86.442L475.024 86.1801C474.127 79.3932 470.972 73.9906 465.575 70.039L464.393 71.6527ZM523.717 160.221L524.047 159.277L524.043 159.276L523.717 160.221ZM504.282 148.541L504.978 147.824L504.976 147.822L504.282 148.541ZM492.186 129.798L493.123 129.447L492.186 129.798ZM492.186 79.294L491.249 78.9471L491.247 78.9505L492.186 79.294ZM504.42 59.8125L505.131 60.5156L505.133 60.5135L504.42 59.8125ZM524.04 47.2557L523.687 46.32L523.686 46.3204L524.04 47.2557ZM575.098 46.8864L574.75 47.8237L574.751 47.8242L575.098 46.8864ZM593.472 58.3352L592.769 59.0467L592.774 59.051L593.472 58.3352ZM604.967 75.924L604.034 76.283L604.036 76.2881L604.967 75.924ZM608.891 98.4062L607.891 98.4025L607.891 98.4117L608.891 98.4062ZM602.613 126.428L601.762 125.903L601.76 125.905L602.613 126.428ZM594.118 134.784L594.619 135.65L594.625 135.646L594.118 134.784ZM581.377 138.246L581.321 137.248L581.31 137.249L581.299 137.249L581.377 138.246ZM572.698 137.462L573.037 136.521L573.037 136.521L572.698 137.462ZM567.62 133.907L566.805 134.487L566.811 134.496L566.818 134.504L567.62 133.907ZM565.404 128.321L566.391 128.164L566.257 127.321H565.404V128.321ZM564.85 128.321V127.321H564.173L563.921 127.95L564.85 128.321ZM560.51 133.353L561.076 134.178L561.084 134.172L560.51 133.353ZM552.616 136.815L552.868 137.783L552.874 137.781L552.616 136.815ZM542.783 137.692L542.845 136.694L542.842 136.694L542.783 137.692ZM532.442 135.153L532.026 136.063L532.03 136.064L532.442 135.153ZM523.809 128.737L523.062 129.401L523.066 129.406L523.809 128.737ZM517.9 118.349L516.954 118.674L516.957 118.68L517.9 118.349ZM515.73 104.038L514.73 104.033L514.73 104.044L515.73 104.038ZM517.993 90.0504L517.058 89.6953L517.055 89.7017L517.993 90.0504ZM523.948 80.0327L523.212 79.3554L523.208 79.36L523.948 80.0327ZM541.444 70.7074L541.583 71.6978L541.593 71.6963L541.444 70.7074ZM559.172 73.2464L558.689 74.1224L558.694 74.1253L559.172 73.2464ZM563.188 77.032L562.255 77.3924L562.502 78.032H563.188V77.032ZM563.834 77.032V78.032H564.834V77.032H563.834ZM563.834 71.8615V70.8615H562.834V71.8615H563.834ZM578.284 71.8615H579.284V70.8615H578.284V71.8615ZM578.284 116.918H577.284V116.926L577.284 116.933L578.284 116.918ZM579.715 121.858L578.93 122.478L578.93 122.478L579.715 121.858ZM588.763 120.796L587.971 120.186L587.965 120.194L588.763 120.796ZM591.995 112.163L591.012 111.976L591.011 111.984L591.995 112.163ZM590.794 82.1101L589.848 82.4343L589.851 82.4422L590.794 82.1101ZM584.424 70.892L583.67 71.549L583.677 71.5569L584.424 70.892ZM574.96 63.321L574.486 64.2015L574.486 64.2015L574.96 63.321ZM563.234 59.0739L563.025 60.0519L563.027 60.0522L563.234 59.0739ZM530.226 61.2436L530.6 62.1711L530.604 62.1693L530.226 61.2436ZM515.915 70.9844L516.654 71.6581L516.654 71.6581L515.915 70.9844ZM507.328 85.7109L506.381 85.3901L506.38 85.3931L507.328 85.7109ZM504.466 104.038L503.466 104.034L503.466 104.043L504.466 104.038ZM507.513 123.428L506.571 123.762L506.573 123.768L507.513 123.428ZM516.469 137.554L515.773 138.272L515.773 138.272L516.469 137.554ZM531.057 146.233L531.379 145.286L531.379 145.286L531.057 146.233ZM561.387 148.403L561.243 147.413L561.235 147.414L561.387 148.403ZM570.574 146.556L570.324 145.588L570.314 145.591L570.574 146.556ZM577.176 144.479L578.122 144.156L577.78 143.153L576.798 143.553L577.176 144.479ZM581.746 157.866L582.242 158.735L582.959 158.325L582.692 157.543L581.746 157.866ZM573.852 160.96L573.576 159.998L573.565 160.001L573.852 160.96ZM562.68 163.314L562.541 162.324L562.532 162.325L562.68 163.314ZM556.771 120.335L556.23 119.494L556.224 119.497L556.771 120.335ZM561.572 113.918L560.626 113.592L560.624 113.598L561.572 113.918ZM562.957 103.346L561.957 103.354L561.957 103.361L562.957 103.346ZM561.526 93.9744L560.581 94.3008L560.583 94.3076L560.585 94.3144L561.526 93.9744ZM556.863 88.1115L556.337 88.9615L556.343 88.9658L556.351 88.97L556.863 88.1115ZM538.998 88.25L538.481 87.3935L538.477 87.3964L538.998 88.25ZM533.55 94.3438L532.649 93.9093L532.647 93.9138L533.55 94.3438ZM531.657 103.484L530.657 103.476L530.657 103.485L530.657 103.494L531.657 103.484ZM533.227 112.763L532.282 113.092L532.283 113.095L533.227 112.763ZM538.259 119.827L537.646 120.617L537.652 120.622L538.259 119.827ZM549.939 163.237C540.21 163.237 531.585 161.911 524.047 159.277L523.387 161.165C531.176 163.886 540.031 165.237 549.939 165.237V163.237ZM524.043 159.276C516.505 156.672 510.157 152.852 504.978 147.824L503.585 149.259C508.994 154.51 515.602 158.476 523.391 161.166L524.043 159.276ZM504.976 147.822C499.797 142.823 495.844 136.705 493.123 129.447L491.25 130.149C494.068 137.665 498.179 144.041 503.587 149.261L504.976 147.822ZM493.123 129.447C490.402 122.193 489.032 113.913 489.032 104.592H487.032C487.032 114.107 488.431 122.631 491.25 130.149L493.123 129.447ZM489.032 104.592C489.032 95.3974 490.402 87.0831 493.126 79.6376L491.247 78.9505C488.432 86.647 487.032 95.1983 487.032 104.592H489.032ZM493.124 79.641C495.879 72.1953 499.882 65.825 505.131 60.5156L503.709 59.1094C498.248 64.6333 494.096 71.2507 491.249 78.9471L493.124 79.641ZM505.133 60.5135C510.379 55.1774 516.793 51.0677 524.394 48.1909L523.686 46.3204C515.837 49.2912 509.172 53.5527 503.707 59.1115L505.133 60.5135ZM524.393 48.1914C532.016 45.3175 540.726 43.87 550.539 43.87V41.87C540.531 41.87 531.575 43.3463 523.687 46.32L524.393 48.1914ZM550.539 43.87C559.614 43.87 567.679 45.1947 574.75 47.8237L575.447 45.9491C568.114 43.2229 559.807 41.87 550.539 41.87V43.87ZM574.751 47.8242C581.863 50.4571 587.863 54.2006 592.769 59.0467L594.175 57.6238C589.048 52.5599 582.799 48.6708 575.446 45.9486L574.751 47.8242ZM592.774 59.051C597.714 63.8712 601.468 69.6112 604.034 76.283L605.9 75.565C603.234 68.6336 599.324 62.6477 594.17 57.6194L592.774 59.051ZM604.036 76.2881C606.631 82.9274 607.921 90.2947 607.891 98.4025L609.891 98.41C609.922 90.0831 608.597 82.4622 605.898 75.5599L604.036 76.2881ZM607.891 98.4117C607.921 104.014 607.434 109.142 606.436 113.8L608.392 114.219C609.425 109.399 609.922 104.124 609.891 98.4008L607.891 98.4117ZM606.436 113.8C605.44 118.446 603.878 122.475 601.762 125.903L603.463 126.954C605.718 123.302 607.356 119.053 608.392 114.219L606.436 113.8ZM601.76 125.905C599.691 129.276 596.977 131.944 593.612 133.922L594.625 135.646C598.276 133.5 601.226 130.598 603.465 126.952L601.76 125.905ZM593.617 133.919C590.273 135.855 586.186 136.978 581.321 137.248L581.432 139.245C586.539 138.961 590.947 137.776 594.619 135.65L593.617 133.919ZM581.299 137.249C577.804 137.521 575.069 137.255 573.037 136.521L572.358 138.402C574.759 139.269 577.809 139.526 581.454 139.243L581.299 137.249ZM573.037 136.521C570.968 135.774 569.452 134.692 568.422 133.309L566.818 134.504C568.126 136.261 569.996 137.549 572.358 138.402L573.037 136.521ZM568.434 133.327C567.393 131.864 566.708 130.15 566.391 128.164L564.416 128.478C564.777 130.74 565.569 132.749 566.805 134.487L568.434 133.327ZM565.404 127.321H564.85V129.321H565.404V127.321ZM563.921 127.95C563.275 129.566 561.982 131.102 559.937 132.534L561.084 134.172C563.347 132.588 564.947 130.769 565.778 128.692L563.921 127.95ZM559.945 132.528C557.903 133.928 555.381 135.041 552.358 135.849L552.874 137.781C556.068 136.928 558.809 135.732 561.076 134.178L559.945 132.528ZM552.364 135.848C549.398 136.619 546.227 136.904 542.845 136.694L542.721 138.691C546.294 138.912 549.679 138.612 552.868 137.783L552.364 135.848ZM542.842 136.694C539.331 136.486 536.004 135.668 532.855 134.242L532.03 136.064C535.405 137.593 538.972 138.468 542.724 138.691L542.842 136.694ZM532.858 134.244C529.758 132.827 526.99 130.773 524.552 128.067L523.066 129.406C525.676 132.302 528.663 134.525 532.026 136.063L532.858 134.244ZM524.556 128.072C522.163 125.383 520.254 122.04 518.844 118.018L516.957 118.68C518.439 122.907 520.47 126.489 523.062 129.401L524.556 128.072ZM518.846 118.025C517.473 114.025 516.761 109.366 516.73 104.033L514.73 104.044C514.762 109.544 515.496 114.426 516.954 118.674L518.846 118.025ZM516.73 104.044C516.761 98.7765 517.503 94.2349 518.93 90.3992L517.055 89.7017C515.528 93.8063 514.762 98.59 514.73 104.033L516.73 104.044ZM518.927 90.4055C520.398 86.534 522.322 83.3074 524.688 80.7053L523.208 79.36C520.649 82.1746 518.603 85.6265 517.058 89.6953L518.927 90.4055ZM524.684 80.7099C527.102 78.0829 529.777 76.0352 532.708 74.5545L531.807 72.7693C528.645 74.3664 525.78 76.5657 523.212 79.3554L524.684 80.7099ZM532.708 74.5545C535.667 73.0604 538.624 72.112 541.583 71.6977L541.306 69.717C538.109 70.1646 534.942 71.1858 531.807 72.7693L532.708 74.5545ZM541.593 71.6963C544.978 71.187 548.164 71.1897 551.158 71.6935L551.489 69.7213C548.266 69.1786 544.866 69.1814 541.295 69.7185L541.593 71.6963ZM551.158 71.6935C554.187 72.2033 556.689 73.0207 558.689 74.1224L559.654 72.3705C557.407 71.1332 554.677 70.2578 551.489 69.7213L551.158 71.6935ZM558.694 74.1253C560.772 75.2532 561.859 76.368 562.255 77.3924L564.121 76.6716C563.47 74.9876 561.88 73.5787 559.649 72.3676L558.694 74.1253ZM563.188 78.032H563.834V76.032H563.188V78.032ZM564.834 77.032V71.8615H562.834V77.032H564.834ZM563.834 72.8615H578.284V70.8615H563.834V72.8615ZM577.284 71.8615V116.918H579.284V71.8615H577.284ZM577.284 116.933C577.316 119.185 577.823 121.076 578.93 122.478L580.5 121.238C579.76 120.301 579.313 118.898 579.284 116.904L577.284 116.933ZM578.93 122.478C580.054 123.902 581.597 124.612 583.454 124.612V122.612C582.172 122.612 581.222 122.153 580.5 121.238L578.93 122.478ZM583.454 124.612C585.928 124.612 587.98 123.495 589.562 121.398L587.965 120.194C586.715 121.852 585.227 122.612 583.454 122.612V124.612ZM589.555 121.407C591.143 119.345 592.259 116.286 592.978 112.343L591.011 111.984C590.315 115.796 589.276 118.492 587.971 120.186L589.555 121.407ZM592.977 112.35C593.732 108.388 594.103 103.38 594.103 97.3445H592.103C592.103 103.312 591.735 108.183 591.012 111.976L592.977 112.35ZM594.103 97.3445C594.103 91.4723 593.322 86.2777 591.738 81.778L589.851 82.4422C591.344 86.683 592.103 91.6446 592.103 97.3445H594.103ZM591.74 81.7859C590.195 77.2754 588.009 73.4161 585.171 70.2272L583.677 71.5569C586.317 74.5233 588.378 78.1427 589.848 82.4342L591.74 81.7859ZM585.178 70.2351C582.391 67.0367 579.142 64.437 575.434 62.4405L574.486 64.2015C577.98 66.0829 581.04 68.5305 583.67 71.549L585.178 70.2351ZM575.434 62.4406C571.745 60.4541 567.746 59.0067 563.441 58.0955L563.027 60.0522C567.155 60.926 570.973 62.3101 574.486 64.2015L575.434 62.4406ZM563.443 58.0959C559.186 57.1882 554.807 56.7351 550.308 56.7351V58.7351C554.672 58.7351 558.911 59.1745 563.025 60.0519L563.443 58.0959ZM550.308 56.7351C542.545 56.7351 535.717 57.9196 529.848 60.3179L530.604 62.1693C536.184 59.8896 542.744 58.7351 550.308 58.7351V56.7351ZM529.852 60.3162C524.001 62.6754 519.102 66.0045 515.176 70.3106L516.654 71.6581C520.36 67.5931 525.002 64.4283 530.6 62.171L529.852 60.3162ZM515.176 70.3106C511.262 74.6033 508.332 79.6339 506.381 85.3901L508.276 86.0318C510.142 80.5238 512.935 75.7367 516.654 71.6581L515.176 70.3106ZM506.38 85.3931C504.465 91.1068 503.497 97.3229 503.466 104.034L505.466 104.043C505.497 97.5199 506.437 91.5178 508.277 86.0287L506.38 85.3931ZM503.466 104.043C503.497 111.425 504.525 118.004 506.571 123.762L508.455 123.093C506.5 117.587 505.497 111.24 505.466 104.034L503.466 104.043ZM506.573 123.768C508.651 129.5 511.716 134.341 515.773 138.272L517.165 136.836C513.344 133.134 510.437 128.558 508.453 123.087L506.573 123.768ZM515.773 138.272C519.83 142.203 524.825 145.168 530.735 147.18L531.379 145.286C525.717 143.359 520.987 140.538 517.165 136.836L515.773 138.272ZM530.735 147.18C536.645 149.192 543.405 150.188 551 150.188V148.188C543.576 148.188 537.041 147.214 531.379 145.286L530.735 147.18ZM551 150.188C554.589 150.188 558.103 149.922 561.54 149.391L561.235 147.414C557.901 147.93 554.49 148.188 551 148.188V150.188ZM561.531 149.392C564.948 148.895 568.05 148.272 570.835 147.522L570.314 145.591C567.62 146.317 564.597 146.925 561.243 147.413L561.531 149.392ZM570.824 147.524C573.585 146.811 575.833 146.105 577.553 145.405L576.798 143.553C575.194 144.206 573.041 144.886 570.324 145.588L570.824 147.524ZM576.229 144.802L580.8 158.19L582.692 157.543L578.122 144.156L576.229 144.802ZM581.25 156.998C579.407 158.051 576.86 159.056 573.576 159.998L574.128 161.921C577.492 160.955 580.207 159.898 582.242 158.735L581.25 156.998ZM573.565 160.001C570.33 160.969 566.656 161.744 562.541 162.324L562.819 164.304C567.014 163.714 570.788 162.92 574.138 161.918L573.565 160.001ZM562.532 162.325C558.46 162.933 554.262 163.237 549.939 163.237V165.237C554.356 165.237 558.652 164.926 562.828 164.303L562.532 162.325ZM547.815 123.504C551.686 123.504 554.884 122.76 557.318 121.172L556.224 119.497C554.226 120.802 551.453 121.504 547.815 121.504V123.504ZM557.312 121.175C559.772 119.592 561.502 117.256 562.52 114.237L560.624 113.598C559.734 116.242 558.263 118.184 556.23 119.494L557.312 121.175ZM562.518 114.243C563.552 111.238 564.02 107.591 563.957 103.331L561.957 103.361C562.018 107.472 561.562 110.872 560.627 113.592L562.518 114.243ZM563.957 103.338C563.926 99.5692 563.439 96.3259 562.466 93.6345L560.585 94.3144C561.459 96.7318 561.927 99.7362 561.957 103.354L563.957 103.338ZM562.471 93.6481C561.507 90.8544 559.807 88.7048 557.376 87.253L556.351 88.97C558.351 90.165 559.76 91.924 560.581 94.3008L562.471 93.6481ZM557.39 87.2615C554.985 85.7708 551.728 85.0803 547.723 85.0803V87.0803C551.535 87.0803 554.372 87.7438 556.337 88.9615L557.39 87.2615ZM547.723 85.0803C544.164 85.0803 541.069 85.8345 538.481 87.3935L539.514 89.1065C541.728 87.7725 544.449 87.0803 547.723 87.0803V85.0803ZM538.477 87.3964C535.935 88.948 533.991 91.1284 532.649 93.9093L534.451 94.7782C535.633 92.3271 537.321 90.445 539.519 89.1036L538.477 87.3964ZM532.647 93.9138C531.341 96.6569 530.689 99.8534 530.657 103.476L532.657 103.493C532.687 100.098 533.297 97.201 534.453 94.7737L532.647 93.9138ZM530.657 103.494C530.689 106.859 531.229 110.06 532.282 113.092L534.172 112.435C533.193 109.62 532.687 106.635 532.657 103.475L530.657 103.494ZM532.283 113.095C533.36 116.162 535.149 118.679 537.646 120.617L538.872 119.037C536.691 117.343 535.125 115.151 534.17 112.432L532.283 113.095ZM537.652 120.622C540.22 122.581 543.644 123.504 547.815 123.504V121.504C543.923 121.504 540.976 120.642 538.866 119.032L537.652 120.622Z" fill="white" mask="url(#path-1-outside-1_221_242)"/>
<rect x="627" width="380" height="200" fill="#0050FF"/>
<path d="M725.24 138.97C722.553 140.703 719.303 142.177 715.49 143.39C711.677 144.603 707.387 145.21 702.62 145.21C693.607 145.21 686.912 142.913 682.535 138.32C678.158 133.683 675.97 127.4 675.97 119.47V88.14H661.475V73.97H675.97V59.02L696.51 56.55V73.97H718.74L716.725 88.14H696.51V119.47C696.51 122.893 697.29 125.342 698.85 126.815C700.41 128.288 702.902 129.025 706.325 129.025C708.752 129.025 710.962 128.743 712.955 128.18C714.992 127.573 716.812 126.815 718.415 125.905L725.24 138.97ZM758.859 114.465C759.336 118.235 760.311 121.29 761.784 123.63C763.301 125.927 765.229 127.617 767.569 128.7C769.909 129.74 772.531 130.26 775.434 130.26C778.598 130.26 781.653 129.74 784.599 128.7C787.546 127.66 790.384 126.273 793.114 124.54L801.369 135.72C798.119 138.493 794.176 140.768 789.539 142.545C784.946 144.322 779.703 145.21 773.809 145.21C765.923 145.21 759.314 143.65 753.984 140.53C748.654 137.367 744.646 133.033 741.959 127.53C739.273 122.027 737.929 115.7 737.929 108.55C737.929 101.747 739.229 95.5717 741.829 90.025C744.429 84.435 748.221 79.9933 753.204 76.7C758.231 73.3633 764.363 71.695 771.599 71.695C778.186 71.695 783.884 73.1033 788.694 75.92C793.548 78.7367 797.296 82.7883 799.939 88.075C802.626 93.3617 803.969 99.71 803.969 107.12C803.969 108.29 803.926 109.547 803.839 110.89C803.796 112.233 803.709 113.425 803.579 114.465H758.859ZM771.599 85.475C767.916 85.475 764.948 86.7967 762.694 89.44C760.441 92.0833 759.076 96.3083 758.599 102.115H783.949C783.906 97.0883 782.931 93.0583 781.024 90.025C779.118 86.9917 775.976 85.475 771.599 85.475ZM855.593 129.025C858.41 129.025 861.053 128.483 863.523 127.4C866.037 126.273 868.528 124.843 870.998 123.11L880.163 136.11C877.13 138.71 873.425 140.877 869.048 142.61C864.715 144.343 859.862 145.21 854.488 145.21C847.078 145.21 840.708 143.693 835.378 140.66C830.048 137.583 825.953 133.337 823.093 127.92C820.233 122.46 818.803 116.133 818.803 108.94C818.803 101.747 820.255 95.355 823.158 89.765C826.105 84.1317 830.265 79.7117 835.638 76.505C841.055 73.2983 847.468 71.695 854.878 71.695C860.122 71.695 864.78 72.4317 868.853 73.905C872.97 75.335 876.74 77.48 880.163 80.34L871.258 92.69C868.918 91.0433 866.448 89.765 863.848 88.855C861.248 87.945 858.54 87.49 855.723 87.49C851.087 87.49 847.338 89.1367 844.478 92.43C841.662 95.68 840.253 101.183 840.253 108.94C840.253 114.01 840.925 118.018 842.268 120.965C843.612 123.868 845.432 125.948 847.728 127.205C850.068 128.418 852.69 129.025 855.593 129.025ZM917.488 44.525V80.795C920.391 77.7183 923.533 75.4433 926.913 73.97C930.336 72.4533 933.954 71.695 937.768 71.695C943.921 71.695 948.623 73.4933 951.873 77.09C955.123 80.6867 956.748 85.7567 956.748 92.3V143H936.208V98.02C936.208 93.86 935.731 90.9567 934.778 89.31C933.868 87.6633 932.134 86.84 929.578 86.84C928.148 86.84 926.739 87.1867 925.353 87.88C924.009 88.53 922.688 89.4833 921.388 90.74C920.088 91.9967 918.788 93.4917 917.488 95.225V143H896.948V46.54L917.488 44.525Z" fill="white"/>
</g>
<defs>
<clipPath id="clip0_221_242">
<rect width="1000" height="200" fill="white"/>
</clipPath>
</defs>
</svg>
