<svg width="1203" height="751" viewBox="0 0 1203 751" fill="none" xmlns="http://www.w3.org/2000/svg">
<rect width="1203" height="751" fill="#F8F2FC"/>
<path d="M117 91.12V97.9H99.54V108.64H112.92V115.3H99.54V133H91.14V91.12H117ZM127.216 95.8C125.736 95.8 124.496 95.34 123.496 94.42C122.536 93.46 122.056 92.28 122.056 90.88C122.056 89.48 122.536 88.32 123.496 87.4C124.496 86.44 125.736 85.96 127.216 85.96C128.696 85.96 129.916 86.44 130.876 87.4C131.876 88.32 132.376 89.48 132.376 90.88C132.376 92.28 131.876 93.46 130.876 94.42C129.916 95.34 128.696 95.8 127.216 95.8ZM131.356 99.76V133H122.956V99.76H131.356ZM158.076 99.28C162.036 99.28 165.236 100.54 167.676 103.06C170.116 105.54 171.336 109.02 171.336 113.5V133H162.936V114.64C162.936 112 162.276 109.98 160.956 108.58C159.636 107.14 157.836 106.42 155.556 106.42C153.236 106.42 151.396 107.14 150.036 108.58C148.716 109.98 148.056 112 148.056 114.64V133H139.656V99.76H148.056V103.9C149.176 102.46 150.596 101.34 152.316 100.54C154.076 99.7 155.996 99.28 158.076 99.28ZM177.164 116.26C177.164 112.9 177.824 109.92 179.144 107.32C180.504 104.72 182.344 102.72 184.664 101.32C186.984 99.92 189.564 99.22 192.404 99.22C194.564 99.22 196.624 99.7 198.584 100.66C200.544 101.58 202.104 102.82 203.264 104.38V88.6H211.784V133H203.264V128.08C202.224 129.72 200.764 131.04 198.884 132.04C197.004 133.04 194.824 133.54 192.344 133.54C189.544 133.54 186.984 132.82 184.664 131.38C182.344 129.94 180.504 127.92 179.144 125.32C177.824 122.68 177.164 119.66 177.164 116.26ZM203.324 116.38C203.324 114.34 202.924 112.6 202.124 111.16C201.324 109.68 200.244 108.56 198.884 107.8C197.524 107 196.064 106.6 194.504 106.6C192.944 106.6 191.504 106.98 190.184 107.74C188.864 108.5 187.784 109.62 186.944 111.1C186.144 112.54 185.744 114.26 185.744 116.26C185.744 118.26 186.144 120.02 186.944 121.54C187.784 123.02 188.864 124.16 190.184 124.96C191.544 125.76 192.984 126.16 194.504 126.16C196.064 126.16 197.524 125.78 198.884 125.02C200.244 124.22 201.324 123.1 202.124 121.66C202.924 120.18 203.324 118.42 203.324 116.38ZM244.065 106.66V122.74C244.065 123.86 244.325 124.68 244.845 125.2C245.405 125.68 246.325 125.92 247.605 125.92H251.505V133H246.225C239.145 133 235.605 129.56 235.605 122.68V106.66H231.645V99.76H235.605V91.54H244.065V99.76H251.505V106.66H244.065ZM276.266 99.28C278.786 99.28 281.026 99.84 282.986 100.96C284.946 102.04 286.466 103.66 287.546 105.82C288.666 107.94 289.226 110.5 289.226 113.5V133H280.826V114.64C280.826 112 280.166 109.98 278.846 108.58C277.526 107.14 275.726 106.42 273.446 106.42C271.126 106.42 269.286 107.14 267.926 108.58C266.606 109.98 265.946 112 265.946 114.64V133H257.546V88.6H265.946V103.9C267.026 102.46 268.466 101.34 270.266 100.54C272.066 99.7 274.066 99.28 276.266 99.28ZM328.114 115.66C328.114 116.86 328.034 117.94 327.874 118.9H303.574C303.774 121.3 304.614 123.18 306.094 124.54C307.574 125.9 309.394 126.58 311.554 126.58C314.674 126.58 316.894 125.24 318.214 122.56H327.274C326.314 125.76 324.474 128.4 321.754 130.48C319.034 132.52 315.694 133.54 311.734 133.54C308.534 133.54 305.654 132.84 303.094 131.44C300.574 130 298.594 127.98 297.154 125.38C295.754 122.78 295.054 119.78 295.054 116.38C295.054 112.94 295.754 109.92 297.154 107.32C298.554 104.72 300.514 102.72 303.034 101.32C305.554 99.92 308.454 99.22 311.734 99.22C314.894 99.22 317.714 99.9 320.194 101.26C322.714 102.62 324.654 104.56 326.014 107.08C327.414 109.56 328.114 112.42 328.114 115.66ZM319.414 113.26C319.374 111.1 318.594 109.38 317.074 108.1C315.554 106.78 313.694 106.12 311.494 106.12C309.414 106.12 307.654 106.76 306.214 108.04C304.814 109.28 303.954 111.02 303.634 113.26H319.414ZM352.802 95.8C351.282 95.8 350.022 95.34 349.022 94.42C348.062 93.46 347.582 92.28 347.582 90.88C347.582 89.48 348.062 88.32 349.022 87.4C350.022 86.44 351.282 85.96 352.802 85.96C354.282 85.96 355.502 86.44 356.462 87.4C357.422 88.32 357.902 89.48 357.902 90.88C357.902 92.28 357.422 93.46 356.462 94.42C355.502 95.34 354.282 95.8 352.802 95.8ZM356.942 138.46C356.942 142.14 356.022 144.78 354.182 146.38C352.382 148.02 349.782 148.84 346.382 148.84H342.662V141.7H345.062C346.342 141.7 347.242 141.44 347.762 140.92C348.282 140.44 348.542 139.64 348.542 138.52V99.76H356.942V138.46ZM380.002 133.54C376.802 133.54 373.922 132.84 371.362 131.44C368.802 130 366.782 127.98 365.302 125.38C363.862 122.78 363.142 119.78 363.142 116.38C363.142 112.98 363.882 109.98 365.362 107.38C366.882 104.78 368.942 102.78 371.542 101.38C374.142 99.94 377.042 99.22 380.242 99.22C383.442 99.22 386.342 99.94 388.942 101.38C391.542 102.78 393.582 104.78 395.062 107.38C396.582 109.98 397.342 112.98 397.342 116.38C397.342 119.78 396.562 122.78 395.002 125.38C393.482 127.98 391.402 130 388.762 131.44C386.162 132.84 383.242 133.54 380.002 133.54ZM380.002 126.22C381.522 126.22 382.942 125.86 384.262 125.14C385.622 124.38 386.702 123.26 387.502 121.78C388.302 120.3 388.702 118.5 388.702 116.38C388.702 113.22 387.862 110.8 386.182 109.12C384.542 107.4 382.522 106.54 380.122 106.54C377.722 106.54 375.702 107.4 374.062 109.12C372.462 110.8 371.662 113.22 371.662 116.38C371.662 119.54 372.442 121.98 374.002 123.7C375.602 125.38 377.602 126.22 380.002 126.22ZM411.903 104.62C412.983 103.02 414.463 101.72 416.343 100.72C418.263 99.72 420.443 99.22 422.883 99.22C425.723 99.22 428.283 99.92 430.563 101.32C432.883 102.72 434.703 104.72 436.023 107.32C437.383 109.88 438.063 112.86 438.063 116.26C438.063 119.66 437.383 122.68 436.023 125.32C434.703 127.92 432.883 129.94 430.563 131.38C428.283 132.82 425.723 133.54 422.883 133.54C420.403 133.54 418.223 133.06 416.343 132.1C414.503 131.1 413.023 129.82 411.903 128.26V133H403.503V88.6H411.903V104.62ZM429.483 116.26C429.483 114.26 429.063 112.54 428.223 111.1C427.423 109.62 426.343 108.5 424.983 107.74C423.663 106.98 422.223 106.6 420.663 106.6C419.143 106.6 417.703 107 416.343 107.8C415.023 108.56 413.943 109.68 413.103 111.16C412.303 112.64 411.903 114.38 411.903 116.38C411.903 118.38 412.303 120.12 413.103 121.6C413.943 123.08 415.023 124.22 416.343 125.02C417.703 125.78 419.143 126.16 420.663 126.16C422.223 126.16 423.663 125.76 424.983 124.96C426.343 124.16 427.423 123.02 428.223 121.54C429.063 120.06 429.483 118.3 429.483 116.26ZM468.244 106.66V122.74C468.244 123.86 468.504 124.68 469.024 125.2C469.584 125.68 470.504 125.92 471.784 125.92H475.684V133H470.404C463.324 133 459.784 129.56 459.784 122.68V106.66H455.824V99.76H459.784V91.54H468.244V99.76H475.684V106.66H468.244ZM500.446 99.28C502.966 99.28 505.206 99.84 507.166 100.96C509.126 102.04 510.646 103.66 511.726 105.82C512.846 107.94 513.406 110.5 513.406 113.5V133H505.006V114.64C505.006 112 504.346 109.98 503.026 108.58C501.706 107.14 499.906 106.42 497.626 106.42C495.306 106.42 493.466 107.14 492.106 108.58C490.786 109.98 490.126 112 490.126 114.64V133H481.726V88.6H490.126V103.9C491.206 102.46 492.646 101.34 494.446 100.54C496.246 99.7 498.246 99.28 500.446 99.28ZM519.234 116.26C519.234 112.9 519.894 109.92 521.214 107.32C522.574 104.72 524.394 102.72 526.674 101.32C528.994 99.92 531.574 99.22 534.414 99.22C536.894 99.22 539.054 99.72 540.894 100.72C542.774 101.72 544.274 102.98 545.394 104.5V99.76H553.854V133H545.394V128.14C544.314 129.7 542.814 131 540.894 132.04C539.014 133.04 536.834 133.54 534.354 133.54C531.554 133.54 528.994 132.82 526.674 131.38C524.394 129.94 522.574 127.92 521.214 125.32C519.894 122.68 519.234 119.66 519.234 116.26ZM545.394 116.38C545.394 114.34 544.994 112.6 544.194 111.16C543.394 109.68 542.314 108.56 540.954 107.8C539.594 107 538.134 106.6 536.574 106.6C535.014 106.6 533.574 106.98 532.254 107.74C530.934 108.5 529.854 109.62 529.014 111.1C528.214 112.54 527.814 114.26 527.814 116.26C527.814 118.26 528.214 120.02 529.014 121.54C529.854 123.02 530.934 124.16 532.254 124.96C533.614 125.76 535.054 126.16 536.574 126.16C538.134 126.16 539.594 125.78 540.954 125.02C542.314 124.22 543.394 123.1 544.194 121.66C544.994 120.18 545.394 118.42 545.394 116.38ZM571.838 106.66V122.74C571.838 123.86 572.098 124.68 572.618 125.2C573.178 125.68 574.098 125.92 575.378 125.92H579.278V133H573.998C566.918 133 563.378 129.56 563.378 122.68V106.66H559.418V99.76H563.378V91.54H571.838V99.76H579.278V106.66H571.838ZM603.877 95.8C602.397 95.8 601.157 95.34 600.157 94.42C599.197 93.46 598.717 92.28 598.717 90.88C598.717 89.48 599.197 88.32 600.157 87.4C601.157 86.44 602.397 85.96 603.877 85.96C605.357 85.96 606.577 86.44 607.537 87.4C608.537 88.32 609.037 89.48 609.037 90.88C609.037 92.28 608.537 93.46 607.537 94.42C606.577 95.34 605.357 95.8 603.877 95.8ZM608.017 99.76V133H599.617V99.76H608.017ZM629.036 133.54C626.316 133.54 623.876 133.06 621.716 132.1C619.556 131.1 617.836 129.76 616.556 128.08C615.316 126.4 614.636 124.54 614.516 122.5H622.976C623.136 123.78 623.756 124.84 624.836 125.68C625.956 126.52 627.336 126.94 628.976 126.94C630.576 126.94 631.816 126.62 632.696 125.98C633.616 125.34 634.076 124.52 634.076 123.52C634.076 122.44 633.516 121.64 632.396 121.12C631.316 120.56 629.576 119.96 627.176 119.32C624.696 118.72 622.656 118.1 621.056 117.46C619.496 116.82 618.136 115.84 616.976 114.52C615.856 113.2 615.296 111.42 615.296 109.18C615.296 107.34 615.816 105.66 616.856 104.14C617.936 102.62 619.456 101.42 621.416 100.54C623.416 99.66 625.756 99.22 628.436 99.22C632.396 99.22 635.556 100.22 637.916 102.22C640.276 104.18 641.576 106.84 641.816 110.2H633.776C633.656 108.88 633.096 107.84 632.096 107.08C631.136 106.28 629.836 105.88 628.196 105.88C626.676 105.88 625.496 106.16 624.656 106.72C623.856 107.28 623.456 108.06 623.456 109.06C623.456 110.18 624.016 111.04 625.136 111.64C626.256 112.2 627.996 112.78 630.356 113.38C632.756 113.98 634.736 114.6 636.296 115.24C637.856 115.88 639.196 116.88 640.316 118.24C641.476 119.56 642.076 121.32 642.116 123.52C642.116 125.44 641.576 127.16 640.496 128.68C639.456 130.2 637.936 131.4 635.936 132.28C633.976 133.12 631.676 133.54 629.036 133.54ZM671.708 104.56C672.788 103.04 674.268 101.78 676.148 100.78C678.068 99.74 680.248 99.22 682.688 99.22C685.528 99.22 688.088 99.92 690.368 101.32C692.688 102.72 694.508 104.72 695.828 107.32C697.188 109.88 697.868 112.86 697.868 116.26C697.868 119.66 697.188 122.68 695.828 125.32C694.508 127.92 692.688 129.94 690.368 131.38C688.088 132.82 685.528 133.54 682.688 133.54C680.248 133.54 678.088 133.04 676.208 132.04C674.368 131.04 672.868 129.78 671.708 128.26V148.84H663.308V99.76H671.708V104.56ZM689.288 116.26C689.288 114.26 688.868 112.54 688.028 111.1C687.228 109.62 686.148 108.5 684.788 107.74C683.468 106.98 682.028 106.6 680.468 106.6C678.948 106.6 677.508 107 676.148 107.8C674.828 108.56 673.748 109.68 672.908 111.16C672.108 112.64 671.708 114.38 671.708 116.38C671.708 118.38 672.108 120.12 672.908 121.6C673.748 123.08 674.828 124.22 676.148 125.02C677.508 125.78 678.948 126.16 680.468 126.16C682.028 126.16 683.468 125.76 684.788 124.96C686.148 124.16 687.228 123.02 688.028 121.54C688.868 120.06 689.288 118.3 689.288 116.26ZM734.872 115.66C734.872 116.86 734.792 117.94 734.632 118.9H710.332C710.532 121.3 711.372 123.18 712.852 124.54C714.332 125.9 716.152 126.58 718.312 126.58C721.432 126.58 723.652 125.24 724.972 122.56H734.032C733.072 125.76 731.232 128.4 728.512 130.48C725.792 132.52 722.452 133.54 718.492 133.54C715.292 133.54 712.412 132.84 709.852 131.44C707.332 130 705.352 127.98 703.912 125.38C702.512 122.78 701.812 119.78 701.812 116.38C701.812 112.94 702.512 109.92 703.912 107.32C705.312 104.72 707.272 102.72 709.792 101.32C712.312 99.92 715.212 99.22 718.492 99.22C721.652 99.22 724.472 99.9 726.952 101.26C729.472 102.62 731.412 104.56 732.772 107.08C734.172 109.56 734.872 112.42 734.872 115.66ZM726.172 113.26C726.132 111.1 725.352 109.38 723.832 108.1C722.312 106.78 720.452 106.12 718.252 106.12C716.172 106.12 714.412 106.76 712.972 108.04C711.572 109.28 710.712 111.02 710.392 113.26H726.172ZM749.403 104.92C750.483 103.16 751.883 101.78 753.603 100.78C755.363 99.78 757.363 99.28 759.603 99.28V108.1H757.383C754.743 108.1 752.743 108.72 751.383 109.96C750.063 111.2 749.403 113.36 749.403 116.44V133H741.003V99.76H749.403V104.92ZM780.501 106.66H774.681V133H766.161V106.66H762.381V99.76H766.161V98.08C766.161 94 767.321 91 769.641 89.08C771.961 87.16 775.461 86.26 780.141 86.38V93.46C778.101 93.42 776.681 93.76 775.881 94.48C775.081 95.2 774.681 96.5 774.681 98.38V99.76H780.501V106.66ZM816.845 115.66C816.845 116.86 816.765 117.94 816.605 118.9H792.305C792.505 121.3 793.345 123.18 794.825 124.54C796.305 125.9 798.125 126.58 800.285 126.58C803.405 126.58 805.625 125.24 806.945 122.56H816.005C815.045 125.76 813.205 128.4 810.485 130.48C807.765 132.52 804.425 133.54 800.465 133.54C797.265 133.54 794.385 132.84 791.825 131.44C789.305 130 787.325 127.98 785.885 125.38C784.485 122.78 783.785 119.78 783.785 116.38C783.785 112.94 784.485 109.92 785.885 107.32C787.285 104.72 789.245 102.72 791.765 101.32C794.285 99.92 797.185 99.22 800.465 99.22C803.625 99.22 806.445 99.9 808.925 101.26C811.445 102.62 813.385 104.56 814.745 107.08C816.145 109.56 816.845 112.42 816.845 115.66ZM808.145 113.26C808.105 111.1 807.325 109.38 805.805 108.1C804.285 106.78 802.425 106.12 800.225 106.12C798.145 106.12 796.385 106.76 794.945 108.04C793.545 109.28 792.685 111.02 792.365 113.26H808.145ZM820.816 116.38C820.816 112.94 821.516 109.94 822.916 107.38C824.316 104.78 826.256 102.78 828.736 101.38C831.216 99.94 834.056 99.22 837.256 99.22C841.376 99.22 844.776 100.26 847.456 102.34C850.176 104.38 851.996 107.26 852.916 110.98H843.856C843.376 109.54 842.556 108.42 841.396 107.62C840.276 106.78 838.876 106.36 837.196 106.36C834.796 106.36 832.896 107.24 831.496 109C830.096 110.72 829.396 113.18 829.396 116.38C829.396 119.54 830.096 122 831.496 123.76C832.896 125.48 834.796 126.34 837.196 126.34C840.596 126.34 842.816 124.82 843.856 121.78H852.916C851.996 125.38 850.176 128.24 847.456 130.36C844.736 132.48 841.336 133.54 837.256 133.54C834.056 133.54 831.216 132.84 828.736 131.44C826.256 130 824.316 128 822.916 125.44C821.516 122.84 820.816 119.82 820.816 116.38ZM868.85 106.66V122.74C868.85 123.86 869.11 124.68 869.63 125.2C870.19 125.68 871.11 125.92 872.39 125.92H876.29V133H871.01C863.93 133 860.39 129.56 860.39 122.68V106.66H856.43V99.76H860.39V91.54H868.85V99.76H876.29V106.66H868.85ZM911.868 106.66H906.048V133H897.528V106.66H893.748V99.76H897.528V98.08C897.528 94 898.688 91 901.008 89.08C903.328 87.16 906.828 86.26 911.508 86.38V93.46C909.468 93.42 908.048 93.76 907.248 94.48C906.448 95.2 906.048 96.5 906.048 98.38V99.76H911.868V106.66ZM932.072 133.54C928.872 133.54 925.992 132.84 923.432 131.44C920.872 130 918.852 127.98 917.372 125.38C915.932 122.78 915.212 119.78 915.212 116.38C915.212 112.98 915.952 109.98 917.432 107.38C918.952 104.78 921.012 102.78 923.612 101.38C926.212 99.94 929.112 99.22 932.312 99.22C935.512 99.22 938.412 99.94 941.012 101.38C943.612 102.78 945.652 104.78 947.132 107.38C948.652 109.98 949.412 112.98 949.412 116.38C949.412 119.78 948.632 122.78 947.072 125.38C945.552 127.98 943.472 130 940.832 131.44C938.232 132.84 935.312 133.54 932.072 133.54ZM932.072 126.22C933.592 126.22 935.012 125.86 936.332 125.14C937.692 124.38 938.772 123.26 939.572 121.78C940.372 120.3 940.772 118.5 940.772 116.38C940.772 113.22 939.932 110.8 938.252 109.12C936.612 107.4 934.592 106.54 932.192 106.54C929.792 106.54 927.772 107.4 926.132 109.12C924.532 110.8 923.732 113.22 923.732 116.38C923.732 119.54 924.512 121.98 926.072 123.7C927.672 125.38 929.672 126.22 932.072 126.22ZM963.974 104.92C965.054 103.16 966.454 101.78 968.174 100.78C969.934 99.78 971.934 99.28 974.174 99.28V108.1H971.954C969.314 108.1 967.314 108.72 965.954 109.96C964.634 111.2 963.974 113.36 963.974 116.44V133H955.574V99.76H963.974V104.92Z" fill="black"/>
<path d="M1029.83 90.88L1015.25 119.08V133H1004.99V119.08L990.408 90.88H1002.05L1010.21 108.52L1018.31 90.88H1029.83ZM1049.2 133.48C1045.92 133.48 1042.96 132.78 1040.32 131.38C1037.72 129.98 1035.66 127.98 1034.14 125.38C1032.66 122.78 1031.92 119.74 1031.92 116.26C1031.92 112.82 1032.68 109.8 1034.2 107.2C1035.72 104.56 1037.8 102.54 1040.44 101.14C1043.08 99.74 1046.04 99.04 1049.32 99.04C1052.6 99.04 1055.56 99.74 1058.2 101.14C1060.84 102.54 1062.92 104.56 1064.44 107.2C1065.96 109.8 1066.72 112.82 1066.72 116.26C1066.72 119.7 1065.94 122.74 1064.38 125.38C1062.86 127.98 1060.76 129.98 1058.08 131.38C1055.44 132.78 1052.48 133.48 1049.2 133.48ZM1049.2 124.6C1051.16 124.6 1052.82 123.88 1054.18 122.44C1055.58 121 1056.28 118.94 1056.28 116.26C1056.28 113.58 1055.6 111.52 1054.24 110.08C1052.92 108.64 1051.28 107.92 1049.32 107.92C1047.32 107.92 1045.66 108.64 1044.34 110.08C1043.02 111.48 1042.36 113.54 1042.36 116.26C1042.36 118.94 1043 121 1044.28 122.44C1045.6 123.88 1047.24 124.6 1049.2 124.6ZM1105.23 99.52V133H1094.97V128.44C1093.93 129.92 1092.51 131.12 1090.71 132.04C1088.95 132.92 1086.99 133.36 1084.83 133.36C1082.27 133.36 1080.01 132.8 1078.05 131.68C1076.09 130.52 1074.57 128.86 1073.49 126.7C1072.41 124.54 1071.87 122 1071.87 119.08V99.52H1082.07V117.7C1082.07 119.94 1082.65 121.68 1083.81 122.92C1084.97 124.16 1086.53 124.78 1088.49 124.78C1090.49 124.78 1092.07 124.16 1093.23 122.92C1094.39 121.68 1094.97 119.94 1094.97 117.7V99.52H1105.23Z" fill="#6E00BE"/>
<path d="M137.31 271.71H109.23V284.13C110.43 282.81 112.11 281.73 114.27 280.89C116.43 280.05 118.77 279.63 121.29 279.63C125.79 279.63 129.51 280.65 132.45 282.69C135.45 284.73 137.64 287.37 139.02 290.61C140.4 293.85 141.09 297.36 141.09 301.14C141.09 308.16 139.11 313.74 135.15 317.88C131.19 321.96 125.61 324 118.41 324C113.61 324 109.44 323.19 105.9 321.57C102.36 319.89 99.63 317.58 97.71 314.64C95.79 311.7 94.74 308.31 94.56 304.47H109.59C109.95 306.33 110.82 307.89 112.2 309.15C113.58 310.35 115.47 310.95 117.87 310.95C120.69 310.95 122.79 310.05 124.17 308.25C125.55 306.45 126.24 304.05 126.24 301.05C126.24 298.11 125.52 295.86 124.08 294.3C122.64 292.74 120.54 291.96 117.78 291.96C115.74 291.96 114.06 292.47 112.74 293.49C111.42 294.45 110.55 295.74 110.13 297.36H95.28V258.21H137.31V271.71ZM166.505 257.4V324H151.115V257.4H166.505ZM174.598 298.8C174.598 293.64 175.558 289.11 177.478 285.21C179.458 281.31 182.128 278.31 185.488 276.21C188.848 274.11 192.598 273.06 196.738 273.06C200.278 273.06 203.368 273.78 206.008 275.22C208.708 276.66 210.778 278.55 212.218 280.89V273.78H227.608V324H212.218V316.89C210.718 319.23 208.618 321.12 205.918 322.56C203.278 324 200.188 324.72 196.648 324.72C192.568 324.72 188.848 323.67 185.488 321.57C182.128 319.41 179.458 316.38 177.478 312.48C175.558 308.52 174.598 303.96 174.598 298.8ZM212.218 298.89C212.218 295.05 211.138 292.02 208.978 289.8C206.878 287.58 204.298 286.47 201.238 286.47C198.178 286.47 195.568 287.58 193.408 289.8C191.308 291.96 190.258 294.96 190.258 298.8C190.258 302.64 191.308 305.7 193.408 307.98C195.568 310.2 198.178 311.31 201.238 311.31C204.298 311.31 206.878 310.2 208.978 307.98C211.138 305.76 212.218 302.73 212.218 298.89ZM269.432 324L254.132 302.94V324H238.742V257.4H254.132V294.21L269.342 273.78H288.332L267.452 298.98L288.512 324H269.432ZM325.247 273.24C331.007 273.24 335.627 275.16 339.107 279C342.587 282.78 344.327 288 344.327 294.66V324H329.027V296.73C329.027 293.37 328.157 290.76 326.417 288.9C324.677 287.04 322.337 286.11 319.397 286.11C316.457 286.11 314.117 287.04 312.377 288.9C310.637 290.76 309.767 293.37 309.767 296.73V324H294.377V257.4H309.767V280.53C311.327 278.31 313.457 276.54 316.157 275.22C318.857 273.9 321.887 273.24 325.247 273.24ZM400.651 299.43H384.991V315.45H370.411V299.43H354.751V285.66H370.411V269.55H384.991V285.66H400.651V299.43Z" fill="#6E00BE"/>
<path d="M430.37 298.89C430.37 293.85 431.36 289.38 433.34 285.48C435.38 281.58 438.11 278.58 441.53 276.48C445.01 274.38 448.88 273.33 453.14 273.33C456.86 273.33 460.1 274.08 462.86 275.58C465.68 277.08 467.93 278.97 469.61 281.25V274.14H482.3V324H469.61V316.71C467.99 319.05 465.74 321 462.86 322.56C460.04 324.06 456.77 324.81 453.05 324.81C448.85 324.81 445.01 323.73 441.53 321.57C438.11 319.41 435.38 316.38 433.34 312.48C431.36 308.52 430.37 303.99 430.37 298.89ZM469.61 299.07C469.61 296.01 469.01 293.4 467.81 291.24C466.61 289.02 464.99 287.34 462.95 286.2C460.91 285 458.72 284.4 456.38 284.4C454.04 284.4 451.88 284.97 449.9 286.11C447.92 287.25 446.3 288.93 445.04 291.15C443.84 293.31 443.24 295.89 443.24 298.89C443.24 301.89 443.84 304.53 445.04 306.81C446.3 309.03 447.92 310.74 449.9 311.94C451.94 313.14 454.1 313.74 456.38 313.74C458.72 313.74 460.91 313.17 462.95 312.03C464.99 310.83 466.61 309.15 467.81 306.99C469.01 304.77 469.61 302.13 469.61 299.07ZM491.366 299.07C491.366 293.91 492.416 289.41 494.516 285.57C496.616 281.67 499.526 278.67 503.246 276.57C506.966 274.41 511.226 273.33 516.026 273.33C522.206 273.33 527.306 274.89 531.326 278.01C535.406 281.07 538.136 285.39 539.516 290.97H525.926C525.206 288.81 523.976 287.13 522.236 285.93C520.556 284.67 518.456 284.04 515.936 284.04C512.336 284.04 509.486 285.36 507.386 288C505.286 290.58 504.236 294.27 504.236 299.07C504.236 303.81 505.286 307.5 507.386 310.14C509.486 312.72 512.336 314.01 515.936 314.01C521.036 314.01 524.366 311.73 525.926 307.17H539.516C538.136 312.57 535.406 316.86 531.326 320.04C527.246 323.22 522.146 324.81 516.026 324.81C511.226 324.81 506.966 323.76 503.246 321.66C499.526 319.5 496.616 316.5 494.516 312.66C492.416 308.76 491.366 304.23 491.366 299.07ZM563.417 284.49V308.61C563.417 310.29 563.807 311.52 564.587 312.3C565.427 313.02 566.807 313.38 568.727 313.38H574.577V324H566.657C556.037 324 550.727 318.84 550.727 308.52V284.49H544.787V274.14H550.727V261.81H563.417V274.14H574.577V284.49H563.417ZM590.03 268.2C587.81 268.2 585.95 267.51 584.45 266.13C583.01 264.69 582.29 262.92 582.29 260.82C582.29 258.72 583.01 256.98 584.45 255.6C585.95 254.16 587.81 253.44 590.03 253.44C592.25 253.44 594.08 254.16 595.52 255.6C597.02 256.98 597.77 258.72 597.77 260.82C597.77 262.92 597.02 264.69 595.52 266.13C594.08 267.51 592.25 268.2 590.03 268.2ZM596.24 274.14V324H583.64V274.14H596.24ZM629.479 312.39L642.079 274.14H655.489L637.039 324H621.739L603.379 274.14H616.879L629.479 312.39ZM708.915 297.99C708.915 299.79 708.795 301.41 708.555 302.85H672.105C672.405 306.45 673.665 309.27 675.885 311.31C678.105 313.35 680.835 314.37 684.075 314.37C688.755 314.37 692.085 312.36 694.065 308.34H707.655C706.215 313.14 703.455 317.1 699.375 320.22C695.295 323.28 690.285 324.81 684.345 324.81C679.545 324.81 675.225 323.76 671.385 321.66C667.605 319.5 664.635 316.47 662.475 312.57C660.375 308.67 659.325 304.17 659.325 299.07C659.325 293.91 660.375 289.38 662.475 285.48C664.575 281.58 667.515 278.58 671.295 276.48C675.075 274.38 679.425 273.33 684.345 273.33C689.085 273.33 693.315 274.35 697.035 276.39C700.815 278.43 703.725 281.34 705.765 285.12C707.865 288.84 708.915 293.13 708.915 297.99ZM695.865 294.39C695.805 291.15 694.635 288.57 692.355 286.65C690.075 284.67 687.285 283.68 683.985 283.68C680.865 283.68 678.225 284.64 676.065 286.56C673.965 288.42 672.675 291.03 672.195 294.39H695.865ZM776.188 261.18V305.28C776.188 311.4 774.418 316.17 770.878 319.59C767.338 322.95 762.598 324.63 756.658 324.63C750.658 324.63 745.798 322.89 742.078 319.41C738.418 315.93 736.588 311.07 736.588 304.83H749.188C749.248 307.53 749.878 309.63 751.078 311.13C752.338 312.63 754.138 313.38 756.478 313.38C758.758 313.38 760.498 312.66 761.698 311.22C762.898 309.78 763.498 307.8 763.498 305.28V261.18H776.188ZM813.026 324.81C808.226 324.81 803.906 323.76 800.066 321.66C796.226 319.5 793.196 316.47 790.976 312.57C788.816 308.67 787.736 304.17 787.736 299.07C787.736 293.97 788.846 289.47 791.066 285.57C793.346 281.67 796.436 278.67 800.336 276.57C804.236 274.41 808.586 273.33 813.386 273.33C818.186 273.33 822.536 274.41 826.436 276.57C830.336 278.67 833.396 281.67 835.616 285.57C837.896 289.47 839.036 293.97 839.036 299.07C839.036 304.17 837.866 308.67 835.526 312.57C833.246 316.47 830.126 319.5 826.166 321.66C822.266 323.76 817.886 324.81 813.026 324.81ZM813.026 313.83C815.306 313.83 817.436 313.29 819.416 312.21C821.456 311.07 823.076 309.39 824.276 307.17C825.476 304.95 826.076 302.25 826.076 299.07C826.076 294.33 824.816 290.7 822.296 288.18C819.836 285.6 816.806 284.31 813.206 284.31C809.606 284.31 806.576 285.6 804.116 288.18C801.716 290.7 800.516 294.33 800.516 299.07C800.516 303.81 801.686 307.47 804.026 310.05C806.426 312.57 809.426 313.83 813.026 313.83ZM860.878 281.43C862.498 279.03 864.718 277.08 867.538 275.58C870.418 274.08 873.688 273.33 877.348 273.33C881.608 273.33 885.448 274.38 888.868 276.48C892.348 278.58 895.078 281.58 897.058 285.48C899.098 289.32 900.118 293.79 900.118 298.89C900.118 303.99 899.098 308.52 897.058 312.48C895.078 316.38 892.348 319.41 888.868 321.57C885.448 323.73 881.608 324.81 877.348 324.81C873.628 324.81 870.358 324.09 867.538 322.65C864.778 321.15 862.558 319.23 860.878 316.89V324H848.278V257.4H860.878V281.43ZM887.248 298.89C887.248 295.89 886.618 293.31 885.358 291.15C884.158 288.93 882.538 287.25 880.498 286.11C878.518 284.97 876.358 284.4 874.018 284.4C871.738 284.4 869.578 285 867.538 286.2C865.558 287.34 863.938 289.02 862.678 291.24C861.478 293.46 860.878 296.07 860.878 299.07C860.878 302.07 861.478 304.68 862.678 306.9C863.938 309.12 865.558 310.83 867.538 312.03C869.578 313.17 871.738 313.74 874.018 313.74C876.358 313.74 878.518 313.14 880.498 311.94C882.538 310.74 884.158 309.03 885.358 306.81C886.618 304.59 887.248 301.95 887.248 298.89ZM928.354 324.81C924.274 324.81 920.614 324.09 917.374 322.65C914.134 321.15 911.554 319.14 909.634 316.62C907.774 314.1 906.754 311.31 906.574 308.25H919.264C919.504 310.17 920.434 311.76 922.054 313.02C923.734 314.28 925.804 314.91 928.264 314.91C930.664 314.91 932.524 314.43 933.844 313.47C935.224 312.51 935.914 311.28 935.914 309.78C935.914 308.16 935.074 306.96 933.394 306.18C931.774 305.34 929.164 304.44 925.564 303.48C921.844 302.58 918.784 301.65 916.384 300.69C914.044 299.73 912.004 298.26 910.264 296.28C908.584 294.3 907.744 291.63 907.744 288.27C907.744 285.51 908.524 282.99 910.084 280.71C911.704 278.43 913.984 276.63 916.924 275.31C919.924 273.99 923.434 273.33 927.454 273.33C933.394 273.33 938.134 274.83 941.674 277.83C945.214 280.77 947.164 284.76 947.524 289.8H935.464C935.284 287.82 934.444 286.26 932.944 285.12C931.504 283.92 929.554 283.32 927.094 283.32C924.814 283.32 923.044 283.74 921.784 284.58C920.584 285.42 919.984 286.59 919.984 288.09C919.984 289.77 920.824 291.06 922.504 291.96C924.184 292.8 926.794 293.67 930.334 294.57C933.934 295.47 936.904 296.4 939.244 297.36C941.584 298.32 943.594 299.82 945.274 301.86C947.014 303.84 947.914 306.48 947.974 309.78C947.974 312.66 947.164 315.24 945.544 317.52C943.984 319.8 941.704 321.6 938.704 322.92C935.764 324.18 932.314 324.81 928.354 324.81ZM1002.62 284.49H993.893V324H981.113V284.49H975.443V274.14H981.113V271.62C981.113 265.5 982.853 261 986.333 258.12C989.813 255.24 995.063 253.89 1002.08 254.07V264.69C999.023 264.63 996.893 265.14 995.693 266.22C994.493 267.3 993.893 269.25 993.893 272.07V274.14H1002.62V284.49ZM1032.93 324.81C1028.13 324.81 1023.81 323.76 1019.97 321.66C1016.13 319.5 1013.1 316.47 1010.88 312.57C1008.72 308.67 1007.64 304.17 1007.64 299.07C1007.64 293.97 1008.75 289.47 1010.97 285.57C1013.25 281.67 1016.34 278.67 1020.24 276.57C1024.14 274.41 1028.49 273.33 1033.29 273.33C1038.09 273.33 1042.44 274.41 1046.34 276.57C1050.24 278.67 1053.3 281.67 1055.52 285.57C1057.8 289.47 1058.94 293.97 1058.94 299.07C1058.94 304.17 1057.77 308.67 1055.43 312.57C1053.15 316.47 1050.03 319.5 1046.07 321.66C1042.17 323.76 1037.79 324.81 1032.93 324.81ZM1032.93 313.83C1035.21 313.83 1037.34 313.29 1039.32 312.21C1041.36 311.07 1042.98 309.39 1044.18 307.17C1045.38 304.95 1045.98 302.25 1045.98 299.07C1045.98 294.33 1044.72 290.7 1042.2 288.18C1039.74 285.6 1036.71 284.31 1033.11 284.31C1029.51 284.31 1026.48 285.6 1024.02 288.18C1021.62 290.7 1020.42 294.33 1020.42 299.07C1020.42 303.81 1021.59 307.47 1023.93 310.05C1026.33 312.57 1029.33 313.83 1032.93 313.83ZM1080.78 281.88C1082.4 279.24 1084.5 277.17 1087.08 275.67C1089.72 274.17 1092.72 273.42 1096.08 273.42V286.65H1092.75C1088.79 286.65 1085.79 287.58 1083.75 289.44C1081.77 291.3 1080.78 294.54 1080.78 299.16V324H1068.18V274.14H1080.78V281.88ZM89.97 433.89C89.97 428.85 90.96 424.38 92.94 420.48C94.98 416.58 97.71 413.58 101.13 411.48C104.61 409.38 108.48 408.33 112.74 408.33C116.46 408.33 119.7 409.08 122.46 410.58C125.28 412.08 127.53 413.97 129.21 416.25V409.14H141.9V459H129.21V451.71C127.59 454.05 125.34 456 122.46 457.56C119.64 459.06 116.37 459.81 112.65 459.81C108.45 459.81 104.61 458.73 101.13 456.57C97.71 454.41 94.98 451.38 92.94 447.48C90.96 443.52 89.97 438.99 89.97 433.89ZM129.21 434.07C129.21 431.01 128.61 428.4 127.41 426.24C126.21 424.02 124.59 422.34 122.55 421.2C120.51 420 118.32 419.4 115.98 419.4C113.64 419.4 111.48 419.97 109.5 421.11C107.52 422.25 105.9 423.93 104.64 426.15C103.44 428.31 102.84 430.89 102.84 433.89C102.84 436.89 103.44 439.53 104.64 441.81C105.9 444.03 107.52 445.74 109.5 446.94C111.54 448.14 113.7 448.74 115.98 448.74C118.32 448.74 120.51 448.17 122.55 447.03C124.59 445.83 126.21 444.15 127.41 441.99C128.61 439.77 129.21 437.13 129.21 434.07ZM166.806 392.4V459H154.206V392.4H166.806ZM191.855 392.4V459H179.255V392.4H191.855ZM245.279 408.33C248.999 408.33 252.269 409.08 255.089 410.58C257.909 412.02 260.129 413.91 261.749 416.25V409.14H274.439V459.36C274.439 463.98 273.509 468.09 271.649 471.69C269.789 475.35 266.999 478.23 263.279 480.33C259.559 482.49 255.059 483.57 249.779 483.57C242.699 483.57 236.879 481.92 232.319 478.62C227.819 475.32 225.269 470.82 224.669 465.12H237.179C237.839 467.4 239.249 469.2 241.409 470.52C243.629 471.9 246.299 472.59 249.419 472.59C253.079 472.59 256.049 471.48 258.329 469.26C260.609 467.1 261.749 463.8 261.749 459.36V451.62C260.129 453.96 257.879 455.91 254.999 457.47C252.179 459.03 248.939 459.81 245.279 459.81C241.079 459.81 237.239 458.73 233.759 456.57C230.279 454.41 227.519 451.38 225.479 447.48C223.499 443.52 222.509 438.99 222.509 433.89C222.509 428.85 223.499 424.38 225.479 420.48C227.519 416.58 230.249 413.58 233.669 411.48C237.149 409.38 241.019 408.33 245.279 408.33ZM261.749 434.07C261.749 431.01 261.149 428.4 259.949 426.24C258.749 424.02 257.129 422.34 255.089 421.2C253.049 420 250.859 419.4 248.519 419.4C246.179 419.4 244.019 419.97 242.039 421.11C240.059 422.25 238.439 423.93 237.179 426.15C235.979 428.31 235.379 430.89 235.379 433.89C235.379 436.89 235.979 439.53 237.179 441.81C238.439 444.03 240.059 445.74 242.039 446.94C244.079 448.14 246.239 448.74 248.519 448.74C250.859 448.74 253.049 448.17 255.089 447.03C257.129 445.83 258.749 444.15 259.949 441.99C261.149 439.77 261.749 437.13 261.749 434.07ZM299.345 416.88C300.965 414.24 303.065 412.17 305.645 410.67C308.285 409.17 311.285 408.42 314.645 408.42V421.65H311.315C307.355 421.65 304.355 422.58 302.315 424.44C300.335 426.3 299.345 429.54 299.345 434.16V459H286.745V409.14H299.345V416.88ZM319.892 433.89C319.892 428.85 320.882 424.38 322.862 420.48C324.902 416.58 327.632 413.58 331.052 411.48C334.532 409.38 338.402 408.33 342.662 408.33C346.382 408.33 349.622 409.08 352.382 410.58C355.202 412.08 357.452 413.97 359.132 416.25V409.14H371.822V459H359.132V451.71C357.512 454.05 355.262 456 352.382 457.56C349.562 459.06 346.292 459.81 342.572 459.81C338.372 459.81 334.532 458.73 331.052 456.57C327.632 454.41 324.902 451.38 322.862 447.48C320.882 443.52 319.892 438.99 319.892 433.89ZM359.132 434.07C359.132 431.01 358.532 428.4 357.332 426.24C356.132 424.02 354.512 422.34 352.472 421.2C350.432 420 348.242 419.4 345.902 419.4C343.562 419.4 341.402 419.97 339.422 421.11C337.442 422.25 335.822 423.93 334.562 426.15C333.362 428.31 332.762 430.89 332.762 433.89C332.762 436.89 333.362 439.53 334.562 441.81C335.822 444.03 337.442 445.74 339.422 446.94C341.462 448.14 343.622 448.74 345.902 448.74C348.242 448.74 350.432 448.17 352.472 447.03C354.512 445.83 356.132 444.15 357.332 441.99C358.532 439.77 359.132 437.13 359.132 434.07ZM380.888 433.89C380.888 428.85 381.878 424.38 383.858 420.48C385.898 416.58 388.658 413.58 392.138 411.48C395.618 409.38 399.488 408.33 403.748 408.33C406.988 408.33 410.078 409.05 413.018 410.49C415.958 411.87 418.298 413.73 420.038 416.07V392.4H432.818V459H420.038V451.62C418.478 454.08 416.288 456.06 413.468 457.56C410.648 459.06 407.378 459.81 403.658 459.81C399.458 459.81 395.618 458.73 392.138 456.57C388.658 454.41 385.898 451.38 383.858 447.48C381.878 443.52 380.888 438.99 380.888 433.89ZM420.128 434.07C420.128 431.01 419.528 428.4 418.328 426.24C417.128 424.02 415.508 422.34 413.468 421.2C411.428 420 409.238 419.4 406.898 419.4C404.558 419.4 402.398 419.97 400.418 421.11C398.438 422.25 396.818 423.93 395.558 426.15C394.358 428.31 393.758 430.89 393.758 433.89C393.758 436.89 394.358 439.53 395.558 441.81C396.818 444.03 398.438 445.74 400.418 446.94C402.458 448.14 404.618 448.74 406.898 448.74C409.238 448.74 411.428 448.17 413.468 447.03C415.508 445.83 417.128 444.15 418.328 441.99C419.528 439.77 420.128 437.13 420.128 434.07ZM492.194 409.14V459H479.504V452.7C477.884 454.86 475.754 456.57 473.114 457.83C470.534 459.03 467.714 459.63 464.654 459.63C460.754 459.63 457.304 458.82 454.304 457.2C451.304 455.52 448.934 453.09 447.194 449.91C445.514 446.67 444.674 442.83 444.674 438.39V409.14H457.274V436.59C457.274 440.55 458.264 443.61 460.244 445.77C462.224 447.87 464.924 448.92 468.344 448.92C471.824 448.92 474.554 447.87 476.534 445.77C478.514 443.61 479.504 440.55 479.504 436.59V409.14H492.194ZM501.386 433.89C501.386 428.85 502.376 424.38 504.356 420.48C506.396 416.58 509.126 413.58 512.546 411.48C516.026 409.38 519.896 408.33 524.156 408.33C527.876 408.33 531.116 409.08 533.876 410.58C536.696 412.08 538.946 413.97 540.626 416.25V409.14H553.316V459H540.626V451.71C539.006 454.05 536.756 456 533.876 457.56C531.056 459.06 527.786 459.81 524.066 459.81C519.866 459.81 516.026 458.73 512.546 456.57C509.126 454.41 506.396 451.38 504.356 447.48C502.376 443.52 501.386 438.99 501.386 433.89ZM540.626 434.07C540.626 431.01 540.026 428.4 538.826 426.24C537.626 424.02 536.006 422.34 533.966 421.2C531.926 420 529.736 419.4 527.396 419.4C525.056 419.4 522.896 419.97 520.916 421.11C518.936 422.25 517.316 423.93 516.056 426.15C514.856 428.31 514.256 430.89 514.256 433.89C514.256 436.89 514.856 439.53 516.056 441.81C517.316 444.03 518.936 445.74 520.916 446.94C522.956 448.14 525.116 448.74 527.396 448.74C529.736 448.74 531.926 448.17 533.966 447.03C536.006 445.83 537.626 444.15 538.826 441.99C540.026 439.77 540.626 437.13 540.626 434.07ZM580.292 419.49V443.61C580.292 445.29 580.682 446.52 581.462 447.3C582.302 448.02 583.682 448.38 585.602 448.38H591.452V459H583.532C572.912 459 567.602 453.84 567.602 443.52V419.49H561.662V409.14H567.602V396.81H580.292V409.14H591.452V419.49H580.292ZM646.865 432.99C646.865 434.79 646.745 436.41 646.505 437.85H610.055C610.355 441.45 611.615 444.27 613.835 446.31C616.055 448.35 618.785 449.37 622.025 449.37C626.705 449.37 630.035 447.36 632.015 443.34H645.605C644.165 448.14 641.405 452.1 637.325 455.22C633.245 458.28 628.235 459.81 622.295 459.81C617.495 459.81 613.175 458.76 609.335 456.66C605.555 454.5 602.585 451.47 600.425 447.57C598.325 443.67 597.275 439.17 597.275 434.07C597.275 428.91 598.325 424.38 600.425 420.48C602.525 416.58 605.465 413.58 609.245 411.48C613.025 409.38 617.375 408.33 622.295 408.33C627.035 408.33 631.265 409.35 634.985 411.39C638.765 413.43 641.675 416.34 643.715 420.12C645.815 423.84 646.865 428.13 646.865 432.99ZM633.815 429.39C633.755 426.15 632.585 423.57 630.305 421.65C628.025 419.67 625.235 418.68 621.935 418.68C618.815 418.68 616.175 419.64 614.015 421.56C611.915 423.42 610.625 426.03 610.145 429.39H633.815ZM675.142 459.81C671.062 459.81 667.402 459.09 664.162 457.65C660.922 456.15 658.342 454.14 656.422 451.62C654.562 449.1 653.542 446.31 653.362 443.25H666.052C666.292 445.17 667.222 446.76 668.842 448.02C670.522 449.28 672.592 449.91 675.052 449.91C677.452 449.91 679.312 449.43 680.632 448.47C682.012 447.51 682.702 446.28 682.702 444.78C682.702 443.16 681.862 441.96 680.182 441.18C678.562 440.34 675.952 439.44 672.352 438.48C668.632 437.58 665.572 436.65 663.172 435.69C660.832 434.73 658.792 433.26 657.052 431.28C655.372 429.3 654.532 426.63 654.532 423.27C654.532 420.51 655.312 417.99 656.872 415.71C658.492 413.43 660.772 411.63 663.712 410.31C666.712 408.99 670.222 408.33 674.242 408.33C680.182 408.33 684.922 409.83 688.462 412.83C692.002 415.77 693.952 419.76 694.312 424.8H682.252C682.072 422.82 681.232 421.26 679.732 420.12C678.292 418.92 676.342 418.32 673.882 418.32C671.602 418.32 669.832 418.74 668.572 419.58C667.372 420.42 666.772 421.59 666.772 423.09C666.772 424.77 667.612 426.06 669.292 426.96C670.972 427.8 673.582 428.67 677.122 429.57C680.722 430.47 683.692 431.4 686.032 432.36C688.372 433.32 690.382 434.82 692.062 436.86C693.802 438.84 694.702 441.48 694.762 444.78C694.762 447.66 693.952 450.24 692.332 452.52C690.772 454.8 688.492 456.6 685.492 457.92C682.552 459.18 679.102 459.81 675.142 459.81ZM710.685 459.63C708.405 459.63 706.515 458.94 705.015 457.56C703.575 456.12 702.855 454.35 702.855 452.25C702.855 450.15 703.575 448.41 705.015 447.03C706.515 445.59 708.405 444.87 710.685 444.87C712.905 444.87 714.735 445.59 716.175 447.03C717.615 448.41 718.335 450.15 718.335 452.25C718.335 454.35 717.615 456.12 716.175 457.56C714.735 458.94 712.905 459.63 710.685 459.63Z" fill="black"/>
<rect x="91" y="570" width="413" height="90" rx="45" fill="#6E00BE"/>
<path d="M157.947 625.882H145.159L143.043 632H136.281L147.827 599.846H155.325L166.871 632H160.063L157.947 625.882ZM156.199 620.73L151.553 607.298L146.907 620.73H156.199ZM177.627 610.196C178.455 609.031 179.589 608.065 181.031 607.298C182.503 606.501 184.174 606.102 186.045 606.102C188.222 606.102 190.185 606.639 191.933 607.712C193.711 608.785 195.107 610.319 196.119 612.312C197.161 614.275 197.683 616.559 197.683 619.166C197.683 621.773 197.161 624.088 196.119 626.112C195.107 628.105 193.711 629.654 191.933 630.758C190.185 631.862 188.222 632.414 186.045 632.414C184.174 632.414 182.518 632.031 181.077 631.264C179.666 630.497 178.516 629.531 177.627 628.366V644.144H171.187V606.516H177.627V610.196ZM191.105 619.166C191.105 617.633 190.783 616.314 190.139 615.21C189.525 614.075 188.697 613.217 187.655 612.634C186.643 612.051 185.539 611.76 184.343 611.76C183.177 611.76 182.073 612.067 181.031 612.68C180.019 613.263 179.191 614.121 178.547 615.256C177.933 616.391 177.627 617.725 177.627 619.258C177.627 620.791 177.933 622.125 178.547 623.26C179.191 624.395 180.019 625.269 181.031 625.882C182.073 626.465 183.177 626.756 184.343 626.756C185.539 626.756 186.643 626.449 187.655 625.836C188.697 625.223 189.525 624.349 190.139 623.214C190.783 622.079 191.105 620.73 191.105 619.166ZM208.802 610.196C209.63 609.031 210.765 608.065 212.206 607.298C213.678 606.501 215.35 606.102 217.22 606.102C219.398 606.102 221.36 606.639 223.108 607.712C224.887 608.785 226.282 610.319 227.294 612.312C228.337 614.275 228.858 616.559 228.858 619.166C228.858 621.773 228.337 624.088 227.294 626.112C226.282 628.105 224.887 629.654 223.108 630.758C221.36 631.862 219.398 632.414 217.22 632.414C215.35 632.414 213.694 632.031 212.252 631.264C210.842 630.497 209.692 629.531 208.802 628.366V644.144H202.362V606.516H208.802V610.196ZM222.28 619.166C222.28 617.633 221.958 616.314 221.314 615.21C220.701 614.075 219.873 613.217 218.83 612.634C217.818 612.051 216.714 611.76 215.518 611.76C214.353 611.76 213.249 612.067 212.206 612.68C211.194 613.263 210.366 614.121 209.722 615.256C209.109 616.391 208.802 617.725 208.802 619.258C208.802 620.791 209.109 622.125 209.722 623.26C210.366 624.395 211.194 625.269 212.206 625.882C213.249 626.465 214.353 626.756 215.518 626.756C216.714 626.756 217.818 626.449 218.83 625.836C219.873 625.223 220.701 624.349 221.314 623.214C221.958 622.079 222.28 620.73 222.28 619.166ZM239.978 597.96V632H233.538V597.96H239.978ZM270.721 606.516L254.943 644.052H248.089L253.609 631.356L243.397 606.516H250.619L257.197 624.318L263.867 606.516H270.721ZM296.837 611.806H292.375V632H285.843V611.806H282.945V606.516H285.843V605.228C285.843 602.1 286.733 599.8 288.511 598.328C290.29 596.856 292.973 596.166 296.561 596.258V601.686C294.997 601.655 293.909 601.916 293.295 602.468C292.682 603.02 292.375 604.017 292.375 605.458V606.516H296.837V611.806ZM312.327 632.414C309.874 632.414 307.666 631.877 305.703 630.804C303.74 629.7 302.192 628.151 301.057 626.158C299.953 624.165 299.401 621.865 299.401 619.258C299.401 616.651 299.968 614.351 301.103 612.358C302.268 610.365 303.848 608.831 305.841 607.758C307.834 606.654 310.058 606.102 312.511 606.102C314.964 606.102 317.188 606.654 319.181 607.758C321.174 608.831 322.738 610.365 323.873 612.358C325.038 614.351 325.621 616.651 325.621 619.258C325.621 621.865 325.023 624.165 323.827 626.158C322.662 628.151 321.067 629.7 319.043 630.804C317.05 631.877 314.811 632.414 312.327 632.414ZM312.327 626.802C313.492 626.802 314.581 626.526 315.593 625.974C316.636 625.391 317.464 624.533 318.077 623.398C318.69 622.263 318.997 620.883 318.997 619.258C318.997 616.835 318.353 614.98 317.065 613.692C315.808 612.373 314.259 611.714 312.419 611.714C310.579 611.714 309.03 612.373 307.773 613.692C306.546 614.98 305.933 616.835 305.933 619.258C305.933 621.681 306.531 623.551 307.727 624.87C308.954 626.158 310.487 626.802 312.327 626.802ZM336.785 610.472C337.613 609.123 338.686 608.065 340.005 607.298C341.354 606.531 342.888 606.148 344.605 606.148V612.91H342.903C340.879 612.91 339.346 613.385 338.303 614.336C337.291 615.287 336.785 616.943 336.785 619.304V632H330.345V606.516H336.785V610.472ZM371.587 611.806H367.125V632H360.593V611.806H357.695V606.516H360.593V605.228C360.593 602.1 361.483 599.8 363.261 598.328C365.04 596.856 367.723 596.166 371.311 596.258V601.686C369.747 601.655 368.659 601.916 368.045 602.468C367.432 603.02 367.125 604.017 367.125 605.458V606.516H371.587V611.806ZM382.201 610.472C383.029 609.123 384.102 608.065 385.421 607.298C386.77 606.531 388.304 606.148 390.021 606.148V612.91H388.319C386.295 612.91 384.762 613.385 383.719 614.336C382.707 615.287 382.201 616.943 382.201 619.304V632H375.761V606.516H382.201V610.472ZM418.049 618.706C418.049 619.626 417.987 620.454 417.865 621.19H399.235C399.388 623.03 400.032 624.471 401.167 625.514C402.301 626.557 403.697 627.078 405.353 627.078C407.745 627.078 409.447 626.051 410.459 623.996H417.405C416.669 626.449 415.258 628.473 413.173 630.068C411.087 631.632 408.527 632.414 405.491 632.414C403.037 632.414 400.829 631.877 398.867 630.804C396.935 629.7 395.417 628.151 394.313 626.158C393.239 624.165 392.703 621.865 392.703 619.258C392.703 616.621 393.239 614.305 394.313 612.312C395.386 610.319 396.889 608.785 398.821 607.712C400.753 606.639 402.976 606.102 405.491 606.102C407.913 606.102 410.075 606.623 411.977 607.666C413.909 608.709 415.396 610.196 416.439 612.128C417.512 614.029 418.049 616.222 418.049 618.706ZM411.379 616.866C411.348 615.21 410.75 613.891 409.585 612.91C408.419 611.898 406.993 611.392 405.307 611.392C403.712 611.392 402.363 611.883 401.259 612.864C400.185 613.815 399.526 615.149 399.281 616.866H411.379ZM446.439 618.706C446.439 619.626 446.378 620.454 446.255 621.19H427.625C427.779 623.03 428.423 624.471 429.557 625.514C430.692 626.557 432.087 627.078 433.743 627.078C436.135 627.078 437.837 626.051 438.849 623.996H445.795C445.059 626.449 443.649 628.473 441.563 630.068C439.478 631.632 436.917 632.414 433.881 632.414C431.428 632.414 429.22 631.877 427.257 630.804C425.325 629.7 423.807 628.151 422.703 626.158C421.63 624.165 421.093 621.865 421.093 619.258C421.093 616.621 421.63 614.305 422.703 612.312C423.777 610.319 425.279 608.785 427.211 607.712C429.143 606.639 431.367 606.102 433.881 606.102C436.304 606.102 438.466 606.623 440.367 607.666C442.299 608.709 443.787 610.196 444.829 612.128C445.903 614.029 446.439 616.222 446.439 618.706ZM439.769 616.866C439.739 615.21 439.141 613.891 437.975 612.91C436.81 611.898 435.384 611.392 433.697 611.392C432.103 611.392 430.753 611.883 429.649 612.864C428.576 613.815 427.917 615.149 427.671 616.866H439.769ZM453.992 632.322C452.826 632.322 451.86 631.969 451.094 631.264C450.358 630.528 449.99 629.623 449.99 628.55C449.99 627.477 450.358 626.587 451.094 625.882C451.86 625.146 452.826 624.778 453.992 624.778C455.126 624.778 456.062 625.146 456.798 625.882C457.534 626.587 457.902 627.477 457.902 628.55C457.902 629.623 457.534 630.528 456.798 631.264C456.062 631.969 455.126 632.322 453.992 632.322Z" fill="white"/>
</svg>
