<svg width="1021" height="452" viewBox="0 0 1021 452" fill="none" xmlns="http://www.w3.org/2000/svg">
<rect width="1021" height="452" fill="#F8F2FC"/>
<path d="M78 53.08V57.6H66.36V64.76H75.28V69.2H66.36V81H60.76V53.08H78ZM84.8109 56.2C83.8243 56.2 82.9976 55.8933 82.3309 55.28C81.6909 54.64 81.3709 53.8533 81.3709 52.92C81.3709 51.9867 81.6909 51.2133 82.3309 50.6C82.9976 49.96 83.8243 49.64 84.8109 49.64C85.7976 49.64 86.6109 49.96 87.2509 50.6C87.9176 51.2133 88.2509 51.9867 88.2509 52.92C88.2509 53.8533 87.9176 54.64 87.2509 55.28C86.6109 55.8933 85.7976 56.2 84.8109 56.2ZM87.5709 58.84V81H81.9709V58.84H87.5709ZM105.384 58.52C108.024 58.52 110.157 59.36 111.784 61.04C113.41 62.6933 114.224 65.0133 114.224 68V81H108.624V68.76C108.624 67 108.184 65.6533 107.304 64.72C106.424 63.76 105.224 63.28 103.704 63.28C102.157 63.28 100.93 63.76 100.024 64.72C99.1438 65.6533 98.7038 67 98.7038 68.76V81H93.1038V58.84H98.7038V61.6C99.4504 60.64 100.397 59.8933 101.544 59.36C102.717 58.8 103.997 58.52 105.384 58.52ZM118.109 69.84C118.109 67.6 118.549 65.6133 119.429 63.88C120.336 62.1467 121.562 60.8133 123.109 59.88C124.656 58.9467 126.376 58.48 128.269 58.48C129.709 58.48 131.082 58.8 132.389 59.44C133.696 60.0533 134.736 60.88 135.509 61.92V51.4H141.189V81H135.509V77.72C134.816 78.8133 133.842 79.6933 132.589 80.36C131.336 81.0267 129.882 81.36 128.229 81.36C126.362 81.36 124.656 80.88 123.109 79.92C121.562 78.96 120.336 77.6133 119.429 75.88C118.549 74.12 118.109 72.1067 118.109 69.84ZM135.549 69.92C135.549 68.56 135.282 67.4 134.749 66.44C134.216 65.4533 133.496 64.7067 132.589 64.2C131.682 63.6667 130.709 63.4 129.669 63.4C128.629 63.4 127.669 63.6533 126.789 64.16C125.909 64.6667 125.189 65.4133 124.629 66.4C124.096 67.36 123.829 68.5067 123.829 69.84C123.829 71.1733 124.096 72.3467 124.629 73.36C125.189 74.3467 125.909 75.1067 126.789 75.64C127.696 76.1733 128.656 76.44 129.669 76.44C130.709 76.44 131.682 76.1867 132.589 75.68C133.496 75.1467 134.216 74.4 134.749 73.44C135.282 72.4533 135.549 71.28 135.549 69.92ZM162.71 63.44V74.16C162.71 74.9067 162.883 75.4533 163.23 75.8C163.603 76.12 164.216 76.28 165.07 76.28H167.67V81H164.15C159.43 81 157.07 78.7067 157.07 74.12V63.44H154.43V58.84H157.07V53.36H162.71V58.84H167.67V63.44H162.71ZM184.178 58.52C185.858 58.52 187.351 58.8933 188.658 59.64C189.964 60.36 190.978 61.44 191.698 62.88C192.444 64.2933 192.818 66 192.818 68V81H187.218V68.76C187.218 67 186.778 65.6533 185.898 64.72C185.018 63.76 183.818 63.28 182.298 63.28C180.751 63.28 179.524 63.76 178.618 64.72C177.738 65.6533 177.298 67 177.298 68.76V81H171.698V51.4H177.298V61.6C178.018 60.64 178.978 59.8933 180.178 59.36C181.378 58.8 182.711 58.52 184.178 58.52ZM218.743 69.44C218.743 70.24 218.689 70.96 218.583 71.6H202.383C202.516 73.2 203.076 74.4533 204.063 75.36C205.049 76.2667 206.263 76.72 207.703 76.72C209.783 76.72 211.263 75.8267 212.143 74.04H218.183C217.543 76.1733 216.316 77.9333 214.503 79.32C212.689 80.68 210.463 81.36 207.823 81.36C205.689 81.36 203.769 80.8933 202.063 79.96C200.383 79 199.063 77.6533 198.103 75.92C197.169 74.1867 196.703 72.1867 196.703 69.92C196.703 67.6267 197.169 65.6133 198.103 63.88C199.036 62.1467 200.343 60.8133 202.023 59.88C203.703 58.9467 205.636 58.48 207.823 58.48C209.929 58.48 211.809 58.9333 213.463 59.84C215.143 60.7467 216.436 62.04 217.343 63.72C218.276 65.3733 218.743 67.28 218.743 69.44ZM212.943 67.84C212.916 66.4 212.396 65.2533 211.383 64.4C210.369 63.52 209.129 63.08 207.663 63.08C206.276 63.08 205.103 63.5067 204.143 64.36C203.209 65.1867 202.636 66.3467 202.423 67.84H212.943ZM235.202 56.2C234.188 56.2 233.348 55.8933 232.682 55.28C232.042 54.64 231.722 53.8533 231.722 52.92C231.722 51.9867 232.042 51.2133 232.682 50.6C233.348 49.96 234.188 49.64 235.202 49.64C236.188 49.64 237.002 49.96 237.642 50.6C238.282 51.2133 238.602 51.9867 238.602 52.92C238.602 53.8533 238.282 54.64 237.642 55.28C237.002 55.8933 236.188 56.2 235.202 56.2ZM237.962 84.64C237.962 87.0933 237.348 88.8533 236.122 89.92C234.922 91.0133 233.188 91.56 230.922 91.56H228.442V86.8H230.042C230.895 86.8 231.495 86.6267 231.842 86.28C232.188 85.96 232.362 85.4267 232.362 84.68V58.84H237.962V84.64ZM253.334 81.36C251.201 81.36 249.281 80.8933 247.574 79.96C245.868 79 244.521 77.6533 243.534 75.92C242.574 74.1867 242.094 72.1867 242.094 69.92C242.094 67.6533 242.588 65.6533 243.574 63.92C244.588 62.1867 245.961 60.8533 247.694 59.92C249.428 58.96 251.361 58.48 253.494 58.48C255.628 58.48 257.561 58.96 259.294 59.92C261.028 60.8533 262.388 62.1867 263.374 63.92C264.388 65.6533 264.894 67.6533 264.894 69.92C264.894 72.1867 264.374 74.1867 263.334 75.92C262.321 77.6533 260.934 79 259.174 79.96C257.441 80.8933 255.494 81.36 253.334 81.36ZM253.334 76.48C254.348 76.48 255.294 76.24 256.174 75.76C257.081 75.2533 257.801 74.5067 258.334 73.52C258.868 72.5333 259.134 71.3333 259.134 69.92C259.134 67.8133 258.574 66.2 257.454 65.08C256.361 63.9333 255.014 63.36 253.414 63.36C251.814 63.36 250.468 63.9333 249.374 65.08C248.308 66.2 247.774 67.8133 247.774 69.92C247.774 72.0267 248.294 73.6533 249.334 74.8C250.401 75.92 251.734 76.48 253.334 76.48ZM274.602 62.08C275.322 61.0133 276.309 60.1467 277.562 59.48C278.842 58.8133 280.296 58.48 281.922 58.48C283.816 58.48 285.522 58.9467 287.042 59.88C288.589 60.8133 289.802 62.1467 290.682 63.88C291.589 65.5867 292.042 67.5733 292.042 69.84C292.042 72.1067 291.589 74.12 290.682 75.88C289.802 77.6133 288.589 78.96 287.042 79.92C285.522 80.88 283.816 81.36 281.922 81.36C280.269 81.36 278.816 81.04 277.562 80.4C276.336 79.7333 275.349 78.88 274.602 77.84V81H269.002V51.4H274.602V62.08ZM286.322 69.84C286.322 68.5067 286.042 67.36 285.482 66.4C284.949 65.4133 284.229 64.6667 283.322 64.16C282.442 63.6533 281.482 63.4 280.442 63.4C279.429 63.4 278.469 63.6667 277.562 64.2C276.682 64.7067 275.962 65.4533 275.402 66.44C274.869 67.4267 274.602 68.5867 274.602 69.92C274.602 71.2533 274.869 72.4133 275.402 73.4C275.962 74.3867 276.682 75.1467 277.562 75.68C278.469 76.1867 279.429 76.44 280.442 76.44C281.482 76.44 282.442 76.1733 283.322 75.64C284.229 75.1067 284.949 74.3467 285.482 73.36C286.042 72.3733 286.322 71.2 286.322 69.84ZM312.163 63.44V74.16C312.163 74.9067 312.336 75.4533 312.683 75.8C313.056 76.12 313.669 76.28 314.523 76.28H317.123V81H313.603C308.883 81 306.523 78.7067 306.523 74.12V63.44H303.883V58.84H306.523V53.36H312.163V58.84H317.123V63.44H312.163ZM333.631 58.52C335.311 58.52 336.804 58.8933 338.111 59.64C339.417 60.36 340.431 61.44 341.151 62.88C341.897 64.2933 342.271 66 342.271 68V81H336.671V68.76C336.671 67 336.231 65.6533 335.351 64.72C334.471 63.76 333.271 63.28 331.751 63.28C330.204 63.28 328.977 63.76 328.071 64.72C327.191 65.6533 326.751 67 326.751 68.76V81H321.151V51.4H326.751V61.6C327.471 60.64 328.431 59.8933 329.631 59.36C330.831 58.8 332.164 58.52 333.631 58.52ZM346.156 69.84C346.156 67.6 346.596 65.6133 347.476 63.88C348.383 62.1467 349.596 60.8133 351.116 59.88C352.663 58.9467 354.383 58.48 356.276 58.48C357.929 58.48 359.369 58.8133 360.596 59.48C361.849 60.1467 362.849 60.9867 363.596 62V58.84H369.236V81H363.596V77.76C362.876 78.8 361.876 79.6667 360.596 80.36C359.343 81.0267 357.889 81.36 356.236 81.36C354.369 81.36 352.663 80.88 351.116 79.92C349.596 78.96 348.383 77.6133 347.476 75.88C346.596 74.12 346.156 72.1067 346.156 69.84ZM363.596 69.92C363.596 68.56 363.329 67.4 362.796 66.44C362.263 65.4533 361.543 64.7067 360.636 64.2C359.729 63.6667 358.756 63.4 357.716 63.4C356.676 63.4 355.716 63.6533 354.836 64.16C353.956 64.6667 353.236 65.4133 352.676 66.4C352.143 67.36 351.876 68.5067 351.876 69.84C351.876 71.1733 352.143 72.3467 352.676 73.36C353.236 74.3467 353.956 75.1067 354.836 75.64C355.743 76.1733 356.703 76.44 357.716 76.44C358.756 76.44 359.729 76.1867 360.636 75.68C361.543 75.1467 362.263 74.4 362.796 73.44C363.329 72.4533 363.596 71.28 363.596 69.92ZM381.225 63.44V74.16C381.225 74.9067 381.399 75.4533 381.745 75.8C382.119 76.12 382.732 76.28 383.585 76.28H386.185V81H382.665C377.945 81 375.585 78.7067 375.585 74.12V63.44H372.945V58.84H375.585V53.36H381.225V58.84H386.185V63.44H381.225ZM402.584 56.2C401.598 56.2 400.771 55.8933 400.104 55.28C399.464 54.64 399.144 53.8533 399.144 52.92C399.144 51.9867 399.464 51.2133 400.104 50.6C400.771 49.96 401.598 49.64 402.584 49.64C403.571 49.64 404.384 49.96 405.024 50.6C405.691 51.2133 406.024 51.9867 406.024 52.92C406.024 53.8533 405.691 54.64 405.024 55.28C404.384 55.8933 403.571 56.2 402.584 56.2ZM405.344 58.84V81H399.744V58.84H405.344ZM419.357 81.36C417.544 81.36 415.917 81.04 414.477 80.4C413.037 79.7333 411.891 78.84 411.037 77.72C410.211 76.6 409.757 75.36 409.677 74H415.317C415.424 74.8533 415.837 75.56 416.557 76.12C417.304 76.68 418.224 76.96 419.317 76.96C420.384 76.96 421.211 76.7467 421.797 76.32C422.411 75.8933 422.717 75.3467 422.717 74.68C422.717 73.96 422.344 73.4267 421.597 73.08C420.877 72.7067 419.717 72.3067 418.117 71.88C416.464 71.48 415.104 71.0667 414.037 70.64C412.997 70.2133 412.091 69.56 411.317 68.68C410.571 67.8 410.197 66.6133 410.197 65.12C410.197 63.8933 410.544 62.7733 411.237 61.76C411.957 60.7467 412.971 59.9467 414.277 59.36C415.611 58.7733 417.171 58.48 418.957 58.48C421.597 58.48 423.704 59.1467 425.277 60.48C426.851 61.7867 427.717 63.56 427.877 65.8H422.517C422.437 64.92 422.064 64.2267 421.397 63.72C420.757 63.1867 419.891 62.92 418.797 62.92C417.784 62.92 416.997 63.1067 416.437 63.48C415.904 63.8533 415.637 64.3733 415.637 65.04C415.637 65.7867 416.011 66.36 416.757 66.76C417.504 67.1333 418.664 67.52 420.237 67.92C421.837 68.32 423.157 68.7333 424.197 69.16C425.237 69.5867 426.131 70.2533 426.877 71.16C427.651 72.04 428.051 73.2133 428.077 74.68C428.077 75.96 427.717 77.1067 426.997 78.12C426.304 79.1333 425.291 79.9333 423.957 80.52C422.651 81.08 421.117 81.36 419.357 81.36ZM447.805 62.04C448.525 61.0267 449.512 60.1867 450.765 59.52C452.045 58.8267 453.499 58.48 455.125 58.48C457.019 58.48 458.725 58.9467 460.245 59.88C461.792 60.8133 463.005 62.1467 463.885 63.88C464.792 65.5867 465.245 67.5733 465.245 69.84C465.245 72.1067 464.792 74.12 463.885 75.88C463.005 77.6133 461.792 78.96 460.245 79.92C458.725 80.88 457.019 81.36 455.125 81.36C453.499 81.36 452.059 81.0267 450.805 80.36C449.579 79.6933 448.579 78.8533 447.805 77.84V91.56H442.205V58.84H447.805V62.04ZM459.525 69.84C459.525 68.5067 459.245 67.36 458.685 66.4C458.152 65.4133 457.432 64.6667 456.525 64.16C455.645 63.6533 454.685 63.4 453.645 63.4C452.632 63.4 451.672 63.6667 450.765 64.2C449.885 64.7067 449.165 65.4533 448.605 66.44C448.072 67.4267 447.805 68.5867 447.805 69.92C447.805 71.2533 448.072 72.4133 448.605 73.4C449.165 74.3867 449.885 75.1467 450.765 75.68C451.672 76.1867 452.632 76.44 453.645 76.44C454.685 76.44 455.645 76.1733 456.525 75.64C457.432 75.1067 458.152 74.3467 458.685 73.36C459.245 72.3733 459.525 71.2 459.525 69.84ZM489.915 69.44C489.915 70.24 489.861 70.96 489.755 71.6H473.555C473.688 73.2 474.248 74.4533 475.235 75.36C476.221 76.2667 477.435 76.72 478.875 76.72C480.955 76.72 482.435 75.8267 483.315 74.04H489.355C488.715 76.1733 487.488 77.9333 485.675 79.32C483.861 80.68 481.635 81.36 478.995 81.36C476.861 81.36 474.941 80.8933 473.235 79.96C471.555 79 470.235 77.6533 469.275 75.92C468.341 74.1867 467.875 72.1867 467.875 69.92C467.875 67.6267 468.341 65.6133 469.275 63.88C470.208 62.1467 471.515 60.8133 473.195 59.88C474.875 58.9467 476.808 58.48 478.995 58.48C481.101 58.48 482.981 58.9333 484.635 59.84C486.315 60.7467 487.608 62.04 488.515 63.72C489.448 65.3733 489.915 67.28 489.915 69.44ZM484.115 67.84C484.088 66.4 483.568 65.2533 482.555 64.4C481.541 63.52 480.301 63.08 478.835 63.08C477.448 63.08 476.275 63.5067 475.315 64.36C474.381 65.1867 473.808 66.3467 473.595 67.84H484.115ZM499.602 62.28C500.322 61.1067 501.256 60.1867 502.402 59.52C503.576 58.8533 504.909 58.52 506.402 58.52V64.4H504.922C503.162 64.4 501.829 64.8133 500.922 65.64C500.042 66.4667 499.602 67.9067 499.602 69.96V81H494.002V58.84H499.602V62.28ZM520.334 63.44H516.454V81H510.774V63.44H508.254V58.84H510.774V57.72C510.774 55 511.547 53 513.094 51.72C514.641 50.44 516.974 49.84 520.094 49.92V54.64C518.734 54.6133 517.787 54.84 517.254 55.32C516.721 55.8 516.454 56.6667 516.454 57.92V58.84H520.334V63.44ZM544.563 69.44C544.563 70.24 544.51 70.96 544.403 71.6H528.203C528.336 73.2 528.896 74.4533 529.883 75.36C530.87 76.2667 532.083 76.72 533.523 76.72C535.603 76.72 537.083 75.8267 537.963 74.04H544.003C543.363 76.1733 542.136 77.9333 540.323 79.32C538.51 80.68 536.283 81.36 533.643 81.36C531.51 81.36 529.59 80.8933 527.883 79.96C526.203 79 524.883 77.6533 523.923 75.92C522.99 74.1867 522.523 72.1867 522.523 69.92C522.523 67.6267 522.99 65.6133 523.923 63.88C524.856 62.1467 526.163 60.8133 527.843 59.88C529.523 58.9467 531.456 58.48 533.643 58.48C535.75 58.48 537.63 58.9333 539.283 59.84C540.963 60.7467 542.256 62.04 543.163 63.72C544.096 65.3733 544.563 67.28 544.563 69.44ZM538.763 67.84C538.736 66.4 538.216 65.2533 537.203 64.4C536.19 63.52 534.95 63.08 533.483 63.08C532.096 63.08 530.923 63.5067 529.963 64.36C529.03 65.1867 528.456 66.3467 528.243 67.84H538.763ZM547.211 69.92C547.211 67.6267 547.677 65.6267 548.611 63.92C549.544 62.1867 550.837 60.8533 552.491 59.92C554.144 58.96 556.037 58.48 558.171 58.48C560.917 58.48 563.184 59.1733 564.971 60.56C566.784 61.92 567.997 63.84 568.611 66.32H562.571C562.251 65.36 561.704 64.6133 560.931 64.08C560.184 63.52 559.251 63.24 558.131 63.24C556.531 63.24 555.264 63.8267 554.331 65C553.397 66.1467 552.931 67.7867 552.931 69.92C552.931 72.0267 553.397 73.6667 554.331 74.84C555.264 75.9867 556.531 76.56 558.131 76.56C560.397 76.56 561.877 75.5467 562.571 73.52H568.611C567.997 75.92 566.784 77.8267 564.971 79.24C563.157 80.6533 560.891 81.36 558.171 81.36C556.037 81.36 554.144 80.8933 552.491 79.96C550.837 79 549.544 77.6667 548.611 75.96C547.677 74.2267 547.211 72.2133 547.211 69.92ZM579.233 63.44V74.16C579.233 74.9067 579.406 75.4533 579.753 75.8C580.126 76.12 580.74 76.28 581.593 76.28H584.193V81H580.673C575.953 81 573.593 78.7067 573.593 74.12V63.44H570.953V58.84H573.593V53.36H579.233V58.84H584.193V63.44H579.233ZM607.912 63.44H604.032V81H598.352V63.44H595.832V58.84H598.352V57.72C598.352 55 599.126 53 600.672 51.72C602.219 50.44 604.552 49.84 607.672 49.92V54.64C606.312 54.6133 605.366 54.84 604.832 55.32C604.299 55.8 604.032 56.6667 604.032 57.92V58.84H607.912V63.44ZM621.381 81.36C619.248 81.36 617.328 80.8933 615.621 79.96C613.915 79 612.568 77.6533 611.581 75.92C610.621 74.1867 610.141 72.1867 610.141 69.92C610.141 67.6533 610.635 65.6533 611.621 63.92C612.635 62.1867 614.008 60.8533 615.741 59.92C617.475 58.96 619.408 58.48 621.541 58.48C623.675 58.48 625.608 58.96 627.341 59.92C629.075 60.8533 630.435 62.1867 631.421 63.92C632.435 65.6533 632.941 67.6533 632.941 69.92C632.941 72.1867 632.421 74.1867 631.381 75.92C630.368 77.6533 628.981 79 627.221 79.96C625.488 80.8933 623.541 81.36 621.381 81.36ZM621.381 76.48C622.395 76.48 623.341 76.24 624.221 75.76C625.128 75.2533 625.848 74.5067 626.381 73.52C626.915 72.5333 627.181 71.3333 627.181 69.92C627.181 67.8133 626.621 66.2 625.501 65.08C624.408 63.9333 623.061 63.36 621.461 63.36C619.861 63.36 618.515 63.9333 617.421 65.08C616.355 66.2 615.821 67.8133 615.821 69.92C615.821 72.0267 616.341 73.6533 617.381 74.8C618.448 75.92 619.781 76.48 621.381 76.48ZM642.649 62.28C643.369 61.1067 644.302 60.1867 645.449 59.52C646.622 58.8533 647.956 58.52 649.449 58.52V64.4H647.969C646.209 64.4 644.876 64.8133 643.969 65.64C643.089 66.4667 642.649 67.9067 642.649 69.96V81H637.049V58.84H642.649V62.28Z" fill="black"/>
<path d="M686.552 52.92L676.832 71.72V81H669.992V71.72L660.272 52.92H668.032L673.472 64.68L678.872 52.92H686.552ZM699.468 81.32C697.281 81.32 695.308 80.8533 693.548 79.92C691.815 78.9867 690.441 77.6533 689.428 75.92C688.441 74.1867 687.948 72.16 687.948 69.84C687.948 67.5467 688.455 65.5333 689.468 63.8C690.481 62.04 691.868 60.6933 693.628 59.76C695.388 58.8267 697.361 58.36 699.548 58.36C701.735 58.36 703.708 58.8267 705.468 59.76C707.228 60.6933 708.615 62.04 709.628 63.8C710.641 65.5333 711.148 67.5467 711.148 69.84C711.148 72.1333 710.628 74.16 709.588 75.92C708.575 77.6533 707.175 78.9867 705.388 79.92C703.628 80.8533 701.655 81.32 699.468 81.32ZM699.468 75.4C700.775 75.4 701.881 74.92 702.788 73.96C703.721 73 704.188 71.6267 704.188 69.84C704.188 68.0533 703.735 66.68 702.828 65.72C701.948 64.76 700.855 64.28 699.548 64.28C698.215 64.28 697.108 64.76 696.228 65.72C695.348 66.6533 694.908 68.0267 694.908 69.84C694.908 71.6267 695.335 73 696.188 73.96C697.068 74.92 698.161 75.4 699.468 75.4ZM736.817 58.68V81H729.977V77.96C729.284 78.9467 728.337 79.7467 727.137 80.36C725.964 80.9467 724.657 81.24 723.217 81.24C721.51 81.24 720.004 80.8667 718.697 80.12C717.39 79.3467 716.377 78.24 715.657 76.8C714.937 75.36 714.577 73.6667 714.577 71.72V58.68H721.377V70.8C721.377 72.2933 721.764 73.4533 722.537 74.28C723.31 75.1067 724.35 75.52 725.657 75.52C726.99 75.52 728.044 75.1067 728.817 74.28C729.59 73.4533 729.977 72.2933 729.977 70.8V58.68H736.817Z" fill="#6E00BE"/>
<path d="M97.72 161.52H72.76V172.56C73.8267 171.387 75.32 170.427 77.24 169.68C79.16 168.933 81.24 168.56 83.48 168.56C87.48 168.56 90.7867 169.467 93.4 171.28C96.0667 173.093 98.0133 175.44 99.24 178.32C100.467 181.2 101.08 184.32 101.08 187.68C101.08 193.92 99.32 198.88 95.8 202.56C92.28 206.187 87.32 208 80.92 208C76.6533 208 72.9467 207.28 69.8 205.84C66.6533 204.347 64.2267 202.293 62.52 199.68C60.8133 197.067 59.88 194.053 59.72 190.64H73.08C73.4 192.293 74.1733 193.68 75.4 194.8C76.6267 195.867 78.3067 196.4 80.44 196.4C82.9467 196.4 84.8133 195.6 86.04 194C87.2667 192.4 87.88 190.267 87.88 187.6C87.88 184.987 87.24 182.987 85.96 181.6C84.68 180.213 82.8133 179.52 80.36 179.52C78.5467 179.52 77.0533 179.973 75.88 180.88C74.7067 181.733 73.9333 182.88 73.56 184.32H60.36V149.52H97.72V161.52ZM123.671 148.8V208H109.991V148.8H123.671ZM130.865 185.6C130.865 181.013 131.718 176.987 133.425 173.52C135.185 170.053 137.558 167.387 140.545 165.52C143.532 163.653 146.865 162.72 150.545 162.72C153.692 162.72 156.438 163.36 158.785 164.64C161.185 165.92 163.025 167.6 164.305 169.68V163.36H177.985V208H164.305V201.68C162.972 203.76 161.105 205.44 158.705 206.72C156.358 208 153.612 208.64 150.465 208.64C146.838 208.64 143.532 207.707 140.545 205.84C137.558 203.92 135.185 201.227 133.425 197.76C131.718 194.24 130.865 190.187 130.865 185.6ZM164.305 185.68C164.305 182.267 163.345 179.573 161.425 177.6C159.558 175.627 157.265 174.64 154.545 174.64C151.825 174.64 149.505 175.627 147.585 177.6C145.718 179.52 144.785 182.187 144.785 185.6C144.785 189.013 145.718 191.733 147.585 193.76C149.505 195.733 151.825 196.72 154.545 196.72C157.265 196.72 159.558 195.733 161.425 193.76C163.345 191.787 164.305 189.093 164.305 185.68ZM215.162 208L201.562 189.28V208H187.882V148.8H201.562V181.52L215.082 163.36H231.962L213.402 185.76L232.122 208H215.162ZM264.775 162.88C269.895 162.88 274.002 164.587 277.095 168C280.188 171.36 281.735 176 281.735 181.92V208H268.135V183.76C268.135 180.773 267.362 178.453 265.815 176.8C264.268 175.147 262.188 174.32 259.575 174.32C256.962 174.32 254.882 175.147 253.335 176.8C251.788 178.453 251.015 180.773 251.015 183.76V208H237.335V148.8H251.015V169.36C252.402 167.387 254.295 165.813 256.695 164.64C259.095 163.467 261.788 162.88 264.775 162.88ZM331.801 186.16H317.881V200.4H304.921V186.16H291.001V173.92H304.921V159.6H317.881V173.92H331.801V186.16Z" fill="#6E00BE"/>
<path d="M358.218 185.68C358.218 181.2 359.098 177.227 360.858 173.76C362.671 170.293 365.098 167.627 368.138 165.76C371.231 163.893 374.671 162.96 378.458 162.96C381.765 162.96 384.645 163.627 387.098 164.96C389.605 166.293 391.605 167.973 393.098 170V163.68H404.378V208H393.098V201.52C391.658 203.6 389.658 205.333 387.098 206.72C384.591 208.053 381.685 208.72 378.378 208.72C374.645 208.72 371.231 207.76 368.138 205.84C365.098 203.92 362.671 201.227 360.858 197.76C359.098 194.24 358.218 190.213 358.218 185.68ZM393.098 185.84C393.098 183.12 392.565 180.8 391.498 178.88C390.431 176.907 388.991 175.413 387.178 174.4C385.365 173.333 383.418 172.8 381.338 172.8C379.258 172.8 377.338 173.307 375.578 174.32C373.818 175.333 372.378 176.827 371.258 178.8C370.191 180.72 369.658 183.013 369.658 185.68C369.658 188.347 370.191 190.693 371.258 192.72C372.378 194.693 373.818 196.213 375.578 197.28C377.391 198.347 379.311 198.88 381.338 198.88C383.418 198.88 385.365 198.373 387.178 197.36C388.991 196.293 390.431 194.8 391.498 192.88C392.565 190.907 393.098 188.56 393.098 185.84ZM412.437 185.84C412.437 181.253 413.37 177.253 415.237 173.84C417.104 170.373 419.69 167.707 422.997 165.84C426.304 163.92 430.09 162.96 434.357 162.96C439.85 162.96 444.384 164.347 447.957 167.12C451.584 169.84 454.01 173.68 455.237 178.64H443.157C442.517 176.72 441.424 175.227 439.877 174.16C438.384 173.04 436.517 172.48 434.277 172.48C431.077 172.48 428.544 173.653 426.677 176C424.81 178.293 423.877 181.573 423.877 185.84C423.877 190.053 424.81 193.333 426.677 195.68C428.544 197.973 431.077 199.12 434.277 199.12C438.81 199.12 441.77 197.093 443.157 193.04H455.237C454.01 197.84 451.584 201.653 447.957 204.48C444.33 207.307 439.797 208.72 434.357 208.72C430.09 208.72 426.304 207.787 422.997 205.92C419.69 204 417.104 201.333 415.237 197.92C413.37 194.453 412.437 190.427 412.437 185.84ZM476.482 172.88V194.32C476.482 195.813 476.829 196.907 477.522 197.6C478.269 198.24 479.495 198.56 481.202 198.56H486.402V208H479.362C469.922 208 465.202 203.413 465.202 194.24V172.88H459.922V163.68H465.202V152.72H476.482V163.68H486.402V172.88H476.482ZM500.138 158.4C498.164 158.4 496.511 157.787 495.178 156.56C493.898 155.28 493.258 153.707 493.258 151.84C493.258 149.973 493.898 148.427 495.178 147.2C496.511 145.92 498.164 145.28 500.138 145.28C502.111 145.28 503.738 145.92 505.018 147.2C506.351 148.427 507.018 149.973 507.018 151.84C507.018 153.707 506.351 155.28 505.018 156.56C503.738 157.787 502.111 158.4 500.138 158.4ZM505.658 163.68V208H494.458V163.68H505.658ZM535.203 197.68L546.403 163.68H558.323L541.923 208H528.323L512.003 163.68H524.003L535.203 197.68ZM605.814 184.88C605.814 186.48 605.707 187.92 605.494 189.2H573.094C573.36 192.4 574.48 194.907 576.454 196.72C578.427 198.533 580.854 199.44 583.734 199.44C587.894 199.44 590.854 197.653 592.614 194.08H604.694C603.414 198.347 600.96 201.867 597.334 204.64C593.707 207.36 589.254 208.72 583.974 208.72C579.707 208.72 575.867 207.787 572.454 205.92C569.094 204 566.454 201.307 564.534 197.84C562.667 194.373 561.734 190.373 561.734 185.84C561.734 181.253 562.667 177.227 564.534 173.76C566.4 170.293 569.014 167.627 572.374 165.76C575.734 163.893 579.6 162.96 583.974 162.96C588.187 162.96 591.947 163.867 595.254 165.68C598.614 167.493 601.2 170.08 603.014 173.44C604.88 176.747 605.814 180.56 605.814 184.88ZM594.214 181.68C594.16 178.8 593.12 176.507 591.094 174.8C589.067 173.04 586.587 172.16 583.654 172.16C580.88 172.16 578.534 173.013 576.614 174.72C574.747 176.373 573.6 178.693 573.174 181.68H594.214ZM665.611 152.16V191.36C665.611 196.8 664.038 201.04 660.891 204.08C657.745 207.067 653.531 208.56 648.251 208.56C642.918 208.56 638.598 207.013 635.291 203.92C632.038 200.827 630.411 196.507 630.411 190.96H641.611C641.665 193.36 642.225 195.227 643.291 196.56C644.411 197.893 646.011 198.56 648.091 198.56C650.118 198.56 651.665 197.92 652.731 196.64C653.798 195.36 654.331 193.6 654.331 191.36V152.16H665.611ZM698.356 208.72C694.09 208.72 690.25 207.787 686.836 205.92C683.423 204 680.73 201.307 678.756 197.84C676.836 194.373 675.876 190.373 675.876 185.84C675.876 181.307 676.863 177.307 678.836 173.84C680.863 170.373 683.61 167.707 687.076 165.84C690.543 163.92 694.41 162.96 698.676 162.96C702.943 162.96 706.81 163.92 710.276 165.84C713.743 167.707 716.463 170.373 718.436 173.84C720.463 177.307 721.476 181.307 721.476 185.84C721.476 190.373 720.436 194.373 718.356 197.84C716.33 201.307 713.556 204 710.036 205.92C706.57 207.787 702.676 208.72 698.356 208.72ZM698.356 198.96C700.383 198.96 702.276 198.48 704.036 197.52C705.85 196.507 707.29 195.013 708.356 193.04C709.423 191.067 709.956 188.667 709.956 185.84C709.956 181.627 708.836 178.4 706.596 176.16C704.41 173.867 701.716 172.72 698.516 172.72C695.316 172.72 692.623 173.867 690.436 176.16C688.303 178.4 687.236 181.627 687.236 185.84C687.236 190.053 688.276 193.307 690.356 195.6C692.49 197.84 695.156 198.96 698.356 198.96ZM740.892 170.16C742.332 168.027 744.305 166.293 746.812 164.96C749.372 163.627 752.279 162.96 755.532 162.96C759.319 162.96 762.732 163.893 765.772 165.76C768.865 167.627 771.292 170.293 773.052 173.76C774.865 177.173 775.772 181.147 775.772 185.68C775.772 190.213 774.865 194.24 773.052 197.76C771.292 201.227 768.865 203.92 765.772 205.84C762.732 207.76 759.319 208.72 755.532 208.72C752.225 208.72 749.319 208.08 746.812 206.8C744.359 205.467 742.385 203.76 740.892 201.68V208H729.692V148.8H740.892V170.16ZM764.332 185.68C764.332 183.013 763.772 180.72 762.652 178.8C761.585 176.827 760.145 175.333 758.332 174.32C756.572 173.307 754.652 172.8 752.572 172.8C750.545 172.8 748.625 173.333 746.812 174.4C745.052 175.413 743.612 176.907 742.492 178.88C741.425 180.853 740.892 183.173 740.892 185.84C740.892 188.507 741.425 190.827 742.492 192.8C743.612 194.773 745.052 196.293 746.812 197.36C748.625 198.373 750.545 198.88 752.572 198.88C754.652 198.88 756.572 198.347 758.332 197.28C760.145 196.213 761.585 194.693 762.652 192.72C763.772 190.747 764.332 188.4 764.332 185.68ZM800.871 208.72C797.244 208.72 793.991 208.08 791.111 206.8C788.231 205.467 785.937 203.68 784.231 201.44C782.577 199.2 781.671 196.72 781.511 194H792.791C793.004 195.707 793.831 197.12 795.271 198.24C796.764 199.36 798.604 199.92 800.791 199.92C802.924 199.92 804.577 199.493 805.751 198.64C806.977 197.787 807.591 196.693 807.591 195.36C807.591 193.92 806.844 192.853 805.351 192.16C803.911 191.413 801.591 190.613 798.391 189.76C795.084 188.96 792.364 188.133 790.231 187.28C788.151 186.427 786.337 185.12 784.791 183.36C783.297 181.6 782.551 179.227 782.551 176.24C782.551 173.787 783.244 171.547 784.631 169.52C786.071 167.493 788.097 165.893 790.711 164.72C793.377 163.547 796.497 162.96 800.071 162.96C805.351 162.96 809.564 164.293 812.711 166.96C815.857 169.573 817.591 173.12 817.911 177.6H807.191C807.031 175.84 806.284 174.453 804.951 173.44C803.671 172.373 801.937 171.84 799.751 171.84C797.724 171.84 796.151 172.213 795.031 172.96C793.964 173.707 793.431 174.747 793.431 176.08C793.431 177.573 794.177 178.72 795.671 179.52C797.164 180.267 799.484 181.04 802.631 181.84C805.831 182.64 808.471 183.467 810.551 184.32C812.631 185.173 814.417 186.507 815.911 188.32C817.457 190.08 818.257 192.427 818.311 195.36C818.311 197.92 817.591 200.213 816.151 202.24C814.764 204.267 812.737 205.867 810.071 207.04C807.457 208.16 804.391 208.72 800.871 208.72ZM866.887 172.88H859.127V208H847.767V172.88H842.727V163.68H847.767V161.44C847.767 156 849.314 152 852.407 149.44C855.5 146.88 860.167 145.68 866.407 145.84V155.28C863.687 155.227 861.794 155.68 860.727 156.64C859.66 157.6 859.127 159.333 859.127 161.84V163.68H866.887V172.88ZM893.825 208.72C889.558 208.72 885.718 207.787 882.305 205.92C878.892 204 876.198 201.307 874.225 197.84C872.305 194.373 871.345 190.373 871.345 185.84C871.345 181.307 872.332 177.307 874.305 173.84C876.332 170.373 879.078 167.707 882.545 165.84C886.012 163.92 889.878 162.96 894.145 162.96C898.412 162.96 902.278 163.92 905.745 165.84C909.212 167.707 911.932 170.373 913.905 173.84C915.932 177.307 916.945 181.307 916.945 185.84C916.945 190.373 915.905 194.373 913.825 197.84C911.798 201.307 909.025 204 905.505 205.92C902.038 207.787 898.145 208.72 893.825 208.72ZM893.825 198.96C895.852 198.96 897.745 198.48 899.505 197.52C901.318 196.507 902.758 195.013 903.825 193.04C904.892 191.067 905.425 188.667 905.425 185.84C905.425 181.627 904.305 178.4 902.065 176.16C899.878 173.867 897.185 172.72 893.985 172.72C890.785 172.72 888.092 173.867 885.905 176.16C883.772 178.4 882.705 181.627 882.705 185.84C882.705 190.053 883.745 193.307 885.825 195.6C887.958 197.84 890.625 198.96 893.825 198.96ZM936.361 170.56C937.801 168.213 939.667 166.373 941.961 165.04C944.307 163.707 946.974 163.04 949.961 163.04V174.8H947.001C943.481 174.8 940.814 175.627 939.001 177.28C937.241 178.933 936.361 181.813 936.361 185.92V208H925.161V163.68H936.361V170.56ZM55.64 295.68C55.64 291.2 56.52 287.227 58.28 283.76C60.0933 280.293 62.52 277.627 65.56 275.76C68.6533 273.893 72.0933 272.96 75.88 272.96C79.1867 272.96 82.0667 273.627 84.52 274.96C87.0267 276.293 89.0267 277.973 90.52 280V273.68H101.8V318H90.52V311.52C89.08 313.6 87.08 315.333 84.52 316.72C82.0133 318.053 79.1067 318.72 75.8 318.72C72.0667 318.72 68.6533 317.76 65.56 315.84C62.52 313.92 60.0933 311.227 58.28 307.76C56.52 304.24 55.64 300.213 55.64 295.68ZM90.52 295.84C90.52 293.12 89.9867 290.8 88.92 288.88C87.8533 286.907 86.4133 285.413 84.6 284.4C82.7867 283.333 80.84 282.8 78.76 282.8C76.68 282.8 74.76 283.307 73 284.32C71.24 285.333 69.8 286.827 68.68 288.8C67.6133 290.72 67.08 293.013 67.08 295.68C67.08 298.347 67.6133 300.693 68.68 302.72C69.8 304.693 71.24 306.213 73 307.28C74.8133 308.347 76.7333 308.88 78.76 308.88C80.84 308.88 82.7867 308.373 84.6 307.36C86.4133 306.293 87.8533 304.8 88.92 302.88C89.9867 300.907 90.52 298.56 90.52 295.84ZM123.939 258.8V318H112.739V258.8H123.939ZM146.204 258.8V318H135.004V258.8H146.204ZM193.693 272.96C196.999 272.96 199.906 273.627 202.413 274.96C204.919 276.24 206.893 277.92 208.333 280V273.68H219.613V318.32C219.613 322.427 218.786 326.08 217.133 329.28C215.479 332.533 212.999 335.093 209.693 336.96C206.386 338.88 202.386 339.84 197.693 339.84C191.399 339.84 186.226 338.373 182.173 335.44C178.173 332.507 175.906 328.507 175.373 323.44H186.493C187.079 325.467 188.333 327.067 190.253 328.24C192.226 329.467 194.599 330.08 197.373 330.08C200.626 330.08 203.266 329.093 205.293 327.12C207.319 325.2 208.333 322.267 208.333 318.32V311.44C206.893 313.52 204.893 315.253 202.333 316.64C199.826 318.027 196.946 318.72 193.693 318.72C189.959 318.72 186.546 317.76 183.453 315.84C180.359 313.92 177.906 311.227 176.092 307.76C174.332 304.24 173.452 300.213 173.452 295.68C173.452 291.2 174.332 287.227 176.092 283.76C177.906 280.293 180.333 277.627 183.373 275.76C186.466 273.893 189.906 272.96 193.693 272.96ZM208.333 295.84C208.333 293.12 207.799 290.8 206.733 288.88C205.666 286.907 204.226 285.413 202.413 284.4C200.599 283.333 198.653 282.8 196.573 282.8C194.493 282.8 192.573 283.307 190.812 284.32C189.053 285.333 187.613 286.827 186.493 288.8C185.426 290.72 184.893 293.013 184.893 295.68C184.893 298.347 185.426 300.693 186.493 302.72C187.613 304.693 189.053 306.213 190.812 307.28C192.626 308.347 194.546 308.88 196.573 308.88C198.653 308.88 200.599 308.373 202.413 307.36C204.226 306.293 205.666 304.8 206.733 302.88C207.799 300.907 208.333 298.56 208.333 295.84ZM241.751 280.56C243.191 278.213 245.058 276.373 247.351 275.04C249.698 273.707 252.365 273.04 255.351 273.04V284.8H252.391C248.871 284.8 246.205 285.627 244.391 287.28C242.631 288.933 241.751 291.813 241.751 295.92V318H230.551V273.68H241.751V280.56ZM260.015 295.68C260.015 291.2 260.895 287.227 262.655 283.76C264.468 280.293 266.895 277.627 269.935 275.76C273.028 273.893 276.468 272.96 280.255 272.96C283.562 272.96 286.442 273.627 288.895 274.96C291.402 276.293 293.402 277.973 294.895 280V273.68H306.175V318H294.895V311.52C293.455 313.6 291.455 315.333 288.895 316.72C286.388 318.053 283.482 318.72 280.175 318.72C276.442 318.72 273.028 317.76 269.935 315.84C266.895 313.92 264.468 311.227 262.655 307.76C260.895 304.24 260.015 300.213 260.015 295.68ZM294.895 295.84C294.895 293.12 294.362 290.8 293.295 288.88C292.228 286.907 290.788 285.413 288.975 284.4C287.162 283.333 285.215 282.8 283.135 282.8C281.055 282.8 279.135 283.307 277.375 284.32C275.615 285.333 274.175 286.827 273.055 288.8C271.988 290.72 271.455 293.013 271.455 295.68C271.455 298.347 271.988 300.693 273.055 302.72C274.175 304.693 275.615 306.213 277.375 307.28C279.188 308.347 281.108 308.88 283.135 308.88C285.215 308.88 287.162 308.373 288.975 307.36C290.788 306.293 292.228 304.8 293.295 302.88C294.362 300.907 294.895 298.56 294.895 295.84ZM314.234 295.68C314.234 291.2 315.114 287.227 316.874 283.76C318.687 280.293 321.14 277.627 324.234 275.76C327.327 273.893 330.767 272.96 334.554 272.96C337.434 272.96 340.18 273.6 342.794 274.88C345.407 276.107 347.487 277.76 349.034 279.84V258.8H360.394V318H349.034V311.44C347.647 313.627 345.7 315.387 343.194 316.72C340.687 318.053 337.78 318.72 334.474 318.72C330.74 318.72 327.327 317.76 324.234 315.84C321.14 313.92 318.687 311.227 316.874 307.76C315.114 304.24 314.234 300.213 314.234 295.68ZM349.114 295.84C349.114 293.12 348.58 290.8 347.514 288.88C346.447 286.907 345.007 285.413 343.194 284.4C341.38 283.333 339.434 282.8 337.354 282.8C335.274 282.8 333.354 283.307 331.594 284.32C329.834 285.333 328.394 286.827 327.274 288.8C326.207 290.72 325.674 293.013 325.674 295.68C325.674 298.347 326.207 300.693 327.274 302.72C328.394 304.693 329.834 306.213 331.594 307.28C333.407 308.347 335.327 308.88 337.354 308.88C339.434 308.88 341.38 308.373 343.194 307.36C345.007 306.293 346.447 304.8 347.514 302.88C348.58 300.907 349.114 298.56 349.114 295.84ZM413.173 273.68V318H401.893V312.4C400.453 314.32 398.559 315.84 396.213 316.96C393.919 318.027 391.413 318.56 388.693 318.56C385.226 318.56 382.159 317.84 379.493 316.4C376.826 314.907 374.719 312.747 373.173 309.92C371.679 307.04 370.933 303.627 370.933 299.68V273.68H382.133V298.08C382.133 301.6 383.013 304.32 384.773 306.24C386.533 308.107 388.933 309.04 391.973 309.04C395.066 309.04 397.493 308.107 399.253 306.24C401.013 304.32 401.893 301.6 401.893 298.08V273.68H413.173ZM421.343 295.68C421.343 291.2 422.223 287.227 423.983 283.76C425.796 280.293 428.223 277.627 431.263 275.76C434.356 273.893 437.796 272.96 441.583 272.96C444.89 272.96 447.77 273.627 450.223 274.96C452.73 276.293 454.73 277.973 456.223 280V273.68H467.503V318H456.223V311.52C454.783 313.6 452.783 315.333 450.223 316.72C447.716 318.053 444.81 318.72 441.503 318.72C437.77 318.72 434.356 317.76 431.263 315.84C428.223 313.92 425.796 311.227 423.983 307.76C422.223 304.24 421.343 300.213 421.343 295.68ZM456.223 295.84C456.223 293.12 455.69 290.8 454.623 288.88C453.556 286.907 452.116 285.413 450.303 284.4C448.49 283.333 446.543 282.8 444.463 282.8C442.383 282.8 440.463 283.307 438.703 284.32C436.943 285.333 435.503 286.827 434.383 288.8C433.316 290.72 432.783 293.013 432.783 295.68C432.783 298.347 433.316 300.693 434.383 302.72C435.503 304.693 436.943 306.213 438.703 307.28C440.516 308.347 442.436 308.88 444.463 308.88C446.543 308.88 448.49 308.373 450.303 307.36C452.116 306.293 453.556 304.8 454.623 302.88C455.69 300.907 456.223 298.56 456.223 295.84ZM491.482 282.88V304.32C491.482 305.813 491.829 306.907 492.522 307.6C493.269 308.24 494.495 308.56 496.202 308.56H501.402V318H494.362C484.922 318 480.202 313.413 480.202 304.24V282.88H474.922V273.68H480.202V262.72H491.482V273.68H501.402V282.88H491.482ZM550.658 294.88C550.658 296.48 550.551 297.92 550.338 299.2H517.938C518.204 302.4 519.324 304.907 521.298 306.72C523.271 308.533 525.698 309.44 528.578 309.44C532.738 309.44 535.698 307.653 537.458 304.08H549.538C548.258 308.347 545.804 311.867 542.178 314.64C538.551 317.36 534.098 318.72 528.818 318.72C524.551 318.72 520.711 317.787 517.298 315.92C513.938 314 511.298 311.307 509.378 307.84C507.511 304.373 506.577 300.373 506.577 295.84C506.577 291.253 507.511 287.227 509.378 283.76C511.244 280.293 513.858 277.627 517.218 275.76C520.578 273.893 524.444 272.96 528.818 272.96C533.031 272.96 536.791 273.867 540.098 275.68C543.458 277.493 546.044 280.08 547.858 283.44C549.724 286.747 550.658 290.56 550.658 294.88ZM539.058 291.68C539.004 288.8 537.964 286.507 535.938 284.8C533.911 283.04 531.431 282.16 528.498 282.16C525.724 282.16 523.378 283.013 521.458 284.72C519.591 286.373 518.444 288.693 518.018 291.68H539.058ZM575.793 318.72C572.166 318.72 568.913 318.08 566.033 316.8C563.153 315.467 560.859 313.68 559.153 311.44C557.499 309.2 556.593 306.72 556.433 304H567.713C567.926 305.707 568.753 307.12 570.193 308.24C571.686 309.36 573.526 309.92 575.713 309.92C577.846 309.92 579.499 309.493 580.673 308.64C581.899 307.787 582.513 306.693 582.513 305.36C582.513 303.92 581.766 302.853 580.273 302.16C578.833 301.413 576.513 300.613 573.312 299.76C570.006 298.96 567.286 298.133 565.153 297.28C563.073 296.427 561.259 295.12 559.713 293.36C558.219 291.6 557.473 289.227 557.473 286.24C557.473 283.787 558.166 281.547 559.553 279.52C560.993 277.493 563.019 275.893 565.633 274.72C568.299 273.547 571.419 272.96 574.993 272.96C580.273 272.96 584.486 274.293 587.633 276.96C590.779 279.573 592.513 283.12 592.833 287.6H582.113C581.953 285.84 581.206 284.453 579.873 283.44C578.593 282.373 576.859 281.84 574.673 281.84C572.646 281.84 571.073 282.213 569.953 282.96C568.886 283.707 568.353 284.747 568.353 286.08C568.353 287.573 569.099 288.72 570.593 289.52C572.086 290.267 574.406 291.04 577.553 291.84C580.753 292.64 583.393 293.467 585.473 294.32C587.553 295.173 589.339 296.507 590.833 298.32C592.379 300.08 593.179 302.427 593.233 305.36C593.233 307.92 592.513 310.213 591.073 312.24C589.686 314.267 587.659 315.867 584.993 317.04C582.379 318.16 579.313 318.72 575.793 318.72ZM607.386 318.56C605.36 318.56 603.68 317.947 602.346 316.72C601.066 315.44 600.426 313.867 600.426 312C600.426 310.133 601.066 308.587 602.346 307.36C603.68 306.08 605.36 305.44 607.386 305.44C609.36 305.44 610.986 306.08 612.266 307.36C613.546 308.587 614.186 310.133 614.186 312C614.186 313.867 613.546 315.44 612.266 316.72C610.986 317.947 609.36 318.56 607.386 318.56Z" fill="black"/>
<rect x="706" y="344" width="292" height="71" rx="35.5" fill="#6E00BE"/>
<path d="M754.92 385.744H746.024L744.552 390H739.848L747.88 367.632H753.096L761.128 390H756.392L754.92 385.744ZM753.704 382.16L750.472 372.816L747.24 382.16H753.704ZM768.61 374.832C769.186 374.021 769.975 373.349 770.978 372.816C772.002 372.261 773.165 371.984 774.466 371.984C775.981 371.984 777.346 372.357 778.562 373.104C779.799 373.851 780.77 374.917 781.474 376.304C782.199 377.669 782.562 379.259 782.562 381.072C782.562 382.885 782.199 384.496 781.474 385.904C780.77 387.291 779.799 388.368 778.562 389.136C777.346 389.904 775.981 390.288 774.466 390.288C773.165 390.288 772.013 390.021 771.01 389.488C770.029 388.955 769.229 388.283 768.61 387.472V398.448H764.13V372.272H768.61V374.832ZM777.986 381.072C777.986 380.005 777.762 379.088 777.314 378.32C776.887 377.531 776.311 376.933 775.586 376.528C774.882 376.123 774.114 375.92 773.282 375.92C772.471 375.92 771.703 376.133 770.978 376.56C770.274 376.965 769.698 377.563 769.25 378.352C768.823 379.141 768.61 380.069 768.61 381.136C768.61 382.203 768.823 383.131 769.25 383.92C769.698 384.709 770.274 385.317 770.978 385.744C771.703 386.149 772.471 386.352 773.282 386.352C774.114 386.352 774.882 386.139 775.586 385.712C776.311 385.285 776.887 384.677 777.314 383.888C777.762 383.099 777.986 382.16 777.986 381.072ZM790.297 374.832C790.873 374.021 791.663 373.349 792.665 372.816C793.689 372.261 794.852 371.984 796.153 371.984C797.668 371.984 799.033 372.357 800.249 373.104C801.487 373.851 802.457 374.917 803.161 376.304C803.887 377.669 804.249 379.259 804.249 381.072C804.249 382.885 803.887 384.496 803.161 385.904C802.457 387.291 801.487 388.368 800.249 389.136C799.033 389.904 797.668 390.288 796.153 390.288C794.852 390.288 793.7 390.021 792.697 389.488C791.716 388.955 790.916 388.283 790.297 387.472V398.448H785.817V372.272H790.297V374.832ZM799.673 381.072C799.673 380.005 799.449 379.088 799.001 378.32C798.575 377.531 797.999 376.933 797.273 376.528C796.569 376.123 795.801 375.92 794.969 375.92C794.159 375.92 793.391 376.133 792.665 376.56C791.961 376.965 791.385 377.563 790.937 378.352C790.511 379.141 790.297 380.069 790.297 381.136C790.297 382.203 790.511 383.131 790.937 383.92C791.385 384.709 791.961 385.317 792.665 385.744C793.391 386.149 794.159 386.352 794.969 386.352C795.801 386.352 796.569 386.139 797.273 385.712C797.999 385.285 798.575 384.677 799.001 383.888C799.449 383.099 799.673 382.16 799.673 381.072ZM811.985 366.32V390H807.505V366.32H811.985ZM833.371 372.272L822.395 398.384H817.627L821.467 389.552L814.363 372.272H819.387L823.963 384.656L828.603 372.272H833.371ZM851.539 375.952H848.435V390H843.891V375.952H841.875V372.272H843.891V371.376C843.891 369.2 844.51 367.6 845.747 366.576C846.984 365.552 848.851 365.072 851.347 365.136V368.912C850.259 368.891 849.502 369.072 849.075 369.456C848.648 369.84 848.435 370.533 848.435 371.536V372.272H851.539V375.952ZM862.314 390.288C860.608 390.288 859.072 389.915 857.706 389.168C856.341 388.4 855.264 387.323 854.474 385.936C853.706 384.549 853.322 382.949 853.322 381.136C853.322 379.323 853.717 377.723 854.506 376.336C855.317 374.949 856.416 373.883 857.802 373.136C859.189 372.368 860.736 371.984 862.442 371.984C864.149 371.984 865.696 372.368 867.082 373.136C868.469 373.883 869.557 374.949 870.346 376.336C871.157 377.723 871.562 379.323 871.562 381.136C871.562 382.949 871.146 384.549 870.314 385.936C869.504 387.323 868.394 388.4 866.986 389.168C865.6 389.915 864.042 390.288 862.314 390.288ZM862.314 386.384C863.125 386.384 863.882 386.192 864.586 385.808C865.312 385.403 865.888 384.805 866.314 384.016C866.741 383.227 866.954 382.267 866.954 381.136C866.954 379.451 866.506 378.16 865.61 377.264C864.736 376.347 863.658 375.888 862.378 375.888C861.098 375.888 860.021 376.347 859.146 377.264C858.293 378.16 857.866 379.451 857.866 381.136C857.866 382.821 858.282 384.123 859.114 385.04C859.968 385.936 861.034 386.384 862.314 386.384ZM879.329 375.024C879.905 374.085 880.651 373.349 881.569 372.816C882.507 372.283 883.574 372.016 884.769 372.016V376.72H883.585C882.177 376.72 881.11 377.051 880.385 377.712C879.681 378.373 879.329 379.525 879.329 381.168V390H874.849V372.272H879.329V375.024ZM903.539 375.952H900.435V390H895.891V375.952H893.875V372.272H895.891V371.376C895.891 369.2 896.51 367.6 897.747 366.576C898.984 365.552 900.851 365.072 903.347 365.136V368.912C902.259 368.891 901.502 369.072 901.075 369.456C900.648 369.84 900.435 370.533 900.435 371.536V372.272H903.539V375.952ZM910.922 375.024C911.498 374.085 912.245 373.349 913.162 372.816C914.101 372.283 915.168 372.016 916.362 372.016V376.72H915.178C913.77 376.72 912.704 377.051 911.978 377.712C911.274 378.373 910.922 379.525 910.922 381.168V390H906.442V372.272H910.922V375.024ZM935.86 380.752C935.86 381.392 935.817 381.968 935.732 382.48H922.772C922.879 383.76 923.327 384.763 924.116 385.488C924.905 386.213 925.876 386.576 927.028 386.576C928.692 386.576 929.876 385.861 930.58 384.432H935.412C934.9 386.139 933.919 387.547 932.468 388.656C931.017 389.744 929.236 390.288 927.124 390.288C925.417 390.288 923.881 389.915 922.516 389.168C921.172 388.4 920.116 387.323 919.348 385.936C918.601 384.549 918.228 382.949 918.228 381.136C918.228 379.301 918.601 377.691 919.348 376.304C920.095 374.917 921.14 373.851 922.484 373.104C923.828 372.357 925.375 371.984 927.124 371.984C928.809 371.984 930.313 372.347 931.636 373.072C932.98 373.797 934.015 374.832 934.74 376.176C935.487 377.499 935.86 379.024 935.86 380.752ZM931.22 379.472C931.199 378.32 930.783 377.403 929.972 376.72C929.161 376.016 928.169 375.664 926.996 375.664C925.887 375.664 924.948 376.005 924.18 376.688C923.433 377.349 922.975 378.277 922.804 379.472H931.22ZM955.61 380.752C955.61 381.392 955.567 381.968 955.482 382.48H942.522C942.629 383.76 943.077 384.763 943.866 385.488C944.655 386.213 945.626 386.576 946.778 386.576C948.442 386.576 949.626 385.861 950.33 384.432H955.162C954.65 386.139 953.669 387.547 952.218 388.656C950.767 389.744 948.986 390.288 946.874 390.288C945.167 390.288 943.631 389.915 942.266 389.168C940.922 388.4 939.866 387.323 939.098 385.936C938.351 384.549 937.978 382.949 937.978 381.136C937.978 379.301 938.351 377.691 939.098 376.304C939.845 374.917 940.89 373.851 942.234 373.104C943.578 372.357 945.125 371.984 946.874 371.984C948.559 371.984 950.063 372.347 951.386 373.072C952.73 373.797 953.765 374.832 954.49 376.176C955.237 377.499 955.61 379.024 955.61 380.752ZM950.97 379.472C950.949 378.32 950.533 377.403 949.722 376.72C948.911 376.016 947.919 375.664 946.746 375.664C945.637 375.664 944.698 376.005 943.93 376.688C943.183 377.349 942.725 378.277 942.554 379.472H950.97ZM960.864 390.224C960.053 390.224 959.381 389.979 958.848 389.488C958.336 388.976 958.08 388.347 958.08 387.6C958.08 386.853 958.336 386.235 958.848 385.744C959.381 385.232 960.053 384.976 960.864 384.976C961.653 384.976 962.304 385.232 962.816 385.744C963.328 386.235 963.584 386.853 963.584 387.6C963.584 388.347 963.328 388.976 962.816 389.488C962.304 389.979 961.653 390.224 960.864 390.224Z" fill="white"/>
</svg>
