<svg width="1021" height="335" viewBox="0 0 1021 335" fill="none" xmlns="http://www.w3.org/2000/svg">
<rect width="1021" height="335" fill="#6E00BE"/>
<path d="M97.72 67.52H72.76V78.56C73.8267 77.3867 75.32 76.4267 77.24 75.68C79.16 74.9333 81.24 74.56 83.48 74.56C87.48 74.56 90.7867 75.4667 93.4 77.28C96.0667 79.0933 98.0133 81.44 99.24 84.32C100.467 87.2 101.08 90.32 101.08 93.68C101.08 99.92 99.32 104.88 95.8 108.56C92.28 112.187 87.32 114 80.92 114C76.6533 114 72.9467 113.28 69.8 111.84C66.6533 110.347 64.2267 108.293 62.52 105.68C60.8133 103.067 59.88 100.053 59.72 96.64H73.08C73.4 98.2933 74.1733 99.68 75.4 100.8C76.6267 101.867 78.3067 102.4 80.44 102.4C82.9467 102.4 84.8133 101.6 86.04 100C87.2667 98.4 87.88 96.2667 87.88 93.6C87.88 90.9867 87.24 88.9867 85.96 87.6C84.68 86.2133 82.8133 85.52 80.36 85.52C78.5467 85.52 77.0533 85.9733 75.88 86.88C74.7067 87.7333 73.9333 88.88 73.56 90.32H60.36V55.52H97.72V67.52ZM123.671 54.8V114H109.991V54.8H123.671ZM130.865 91.6C130.865 87.0133 131.718 82.9867 133.425 79.52C135.185 76.0533 137.558 73.3867 140.545 71.52C143.532 69.6533 146.865 68.72 150.545 68.72C153.692 68.72 156.438 69.36 158.785 70.64C161.185 71.92 163.025 73.6 164.305 75.68V69.36H177.985V114H164.305V107.68C162.972 109.76 161.105 111.44 158.705 112.72C156.358 114 153.612 114.64 150.465 114.64C146.838 114.64 143.532 113.707 140.545 111.84C137.558 109.92 135.185 107.227 133.425 103.76C131.718 100.24 130.865 96.1867 130.865 91.6ZM164.305 91.68C164.305 88.2667 163.345 85.5733 161.425 83.6C159.558 81.6267 157.265 80.64 154.545 80.64C151.825 80.64 149.505 81.6267 147.585 83.6C145.718 85.52 144.785 88.1867 144.785 91.6C144.785 95.0133 145.718 97.7333 147.585 99.76C149.505 101.733 151.825 102.72 154.545 102.72C157.265 102.72 159.558 101.733 161.425 99.76C163.345 97.7867 164.305 95.0933 164.305 91.68ZM215.162 114L201.562 95.28V114H187.882V54.8H201.562V87.52L215.082 69.36H231.962L213.402 91.76L232.122 114H215.162ZM264.775 68.88C269.895 68.88 274.002 70.5867 277.095 74C280.188 77.36 281.735 82 281.735 87.92V114H268.135V89.76C268.135 86.7733 267.362 84.4533 265.815 82.8C264.268 81.1467 262.188 80.32 259.575 80.32C256.962 80.32 254.882 81.1467 253.335 82.8C251.788 84.4533 251.015 86.7733 251.015 89.76V114H237.335V54.8H251.015V75.36C252.402 73.3867 254.295 71.8133 256.695 70.64C259.095 69.4667 261.788 68.88 264.775 68.88ZM331.801 92.16H317.881V106.4H304.921V92.16H291.001V79.92H304.921V65.6H317.881V79.92H331.801V92.16ZM358.218 91.68C358.218 87.2 359.098 83.2267 360.858 79.76C362.671 76.2933 365.098 73.6267 368.138 71.76C371.231 69.8933 374.671 68.96 378.458 68.96C381.765 68.96 384.645 69.6267 387.098 70.96C389.605 72.2933 391.605 73.9733 393.098 76V69.68H404.378V114H393.098V107.52C391.658 109.6 389.658 111.333 387.098 112.72C384.591 114.053 381.685 114.72 378.378 114.72C374.645 114.72 371.231 113.76 368.138 111.84C365.098 109.92 362.671 107.227 360.858 103.76C359.098 100.24 358.218 96.2133 358.218 91.68ZM393.098 91.84C393.098 89.12 392.565 86.8 391.498 84.88C390.431 82.9067 388.991 81.4133 387.178 80.4C385.365 79.3333 383.418 78.8 381.338 78.8C379.258 78.8 377.338 79.3067 375.578 80.32C373.818 81.3333 372.378 82.8267 371.258 84.8C370.191 86.72 369.658 89.0133 369.658 91.68C369.658 94.3467 370.191 96.6933 371.258 98.72C372.378 100.693 373.818 102.213 375.578 103.28C377.391 104.347 379.311 104.88 381.338 104.88C383.418 104.88 385.365 104.373 387.178 103.36C388.991 102.293 390.431 100.8 391.498 98.88C392.565 96.9067 393.098 94.56 393.098 91.84ZM412.437 91.84C412.437 87.2533 413.37 83.2533 415.237 79.84C417.104 76.3733 419.69 73.7067 422.997 71.84C426.304 69.92 430.09 68.96 434.357 68.96C439.85 68.96 444.384 70.3467 447.957 73.12C451.584 75.84 454.01 79.68 455.237 84.64H443.157C442.517 82.72 441.424 81.2267 439.877 80.16C438.384 79.04 436.517 78.48 434.277 78.48C431.077 78.48 428.544 79.6533 426.677 82C424.81 84.2933 423.877 87.5733 423.877 91.84C423.877 96.0533 424.81 99.3333 426.677 101.68C428.544 103.973 431.077 105.12 434.277 105.12C438.81 105.12 441.77 103.093 443.157 99.04H455.237C454.01 103.84 451.584 107.653 447.957 110.48C444.33 113.307 439.797 114.72 434.357 114.72C430.09 114.72 426.304 113.787 422.997 111.92C419.69 110 417.104 107.333 415.237 103.92C413.37 100.453 412.437 96.4267 412.437 91.84ZM476.482 78.88V100.32C476.482 101.813 476.829 102.907 477.522 103.6C478.269 104.24 479.495 104.56 481.202 104.56H486.402V114H479.362C469.922 114 465.202 109.413 465.202 100.24V78.88H459.922V69.68H465.202V58.72H476.482V69.68H486.402V78.88H476.482ZM500.138 64.4C498.164 64.4 496.511 63.7867 495.178 62.56C493.898 61.28 493.258 59.7067 493.258 57.84C493.258 55.9733 493.898 54.4267 495.178 53.2C496.511 51.92 498.164 51.28 500.138 51.28C502.111 51.28 503.738 51.92 505.018 53.2C506.351 54.4267 507.018 55.9733 507.018 57.84C507.018 59.7067 506.351 61.28 505.018 62.56C503.738 63.7867 502.111 64.4 500.138 64.4ZM505.658 69.68V114H494.458V69.68H505.658ZM535.203 103.68L546.403 69.68H558.323L541.923 114H528.323L512.003 69.68H524.003L535.203 103.68ZM605.814 90.88C605.814 92.48 605.707 93.92 605.494 95.2H573.094C573.36 98.4 574.48 100.907 576.454 102.72C578.427 104.533 580.854 105.44 583.734 105.44C587.894 105.44 590.854 103.653 592.614 100.08H604.694C603.414 104.347 600.96 107.867 597.334 110.64C593.707 113.36 589.254 114.72 583.974 114.72C579.707 114.72 575.867 113.787 572.454 111.92C569.094 110 566.454 107.307 564.534 103.84C562.667 100.373 561.734 96.3733 561.734 91.84C561.734 87.2533 562.667 83.2267 564.534 79.76C566.4 76.2933 569.014 73.6267 572.374 71.76C575.734 69.8933 579.6 68.96 583.974 68.96C588.187 68.96 591.947 69.8667 595.254 71.68C598.614 73.4933 601.2 76.08 603.014 79.44C604.88 82.7467 605.814 86.56 605.814 90.88ZM594.214 87.68C594.16 84.8 593.12 82.5067 591.094 80.8C589.067 79.04 586.587 78.16 583.654 78.16C580.88 78.16 578.534 79.0133 576.614 80.72C574.747 82.3733 573.6 84.6933 573.174 87.68H594.214ZM665.611 58.16V97.36C665.611 102.8 664.038 107.04 660.891 110.08C657.745 113.067 653.531 114.56 648.251 114.56C642.918 114.56 638.598 113.013 635.291 109.92C632.038 106.827 630.411 102.507 630.411 96.96H641.611C641.665 99.36 642.225 101.227 643.291 102.56C644.411 103.893 646.011 104.56 648.091 104.56C650.118 104.56 651.665 103.92 652.731 102.64C653.798 101.36 654.331 99.6 654.331 97.36V58.16H665.611ZM698.356 114.72C694.09 114.72 690.25 113.787 686.836 111.92C683.423 110 680.73 107.307 678.756 103.84C676.836 100.373 675.876 96.3733 675.876 91.84C675.876 87.3067 676.863 83.3067 678.836 79.84C680.863 76.3733 683.61 73.7067 687.076 71.84C690.543 69.92 694.41 68.96 698.676 68.96C702.943 68.96 706.81 69.92 710.276 71.84C713.743 73.7067 716.463 76.3733 718.436 79.84C720.463 83.3067 721.476 87.3067 721.476 91.84C721.476 96.3733 720.436 100.373 718.356 103.84C716.33 107.307 713.556 110 710.036 111.92C706.57 113.787 702.676 114.72 698.356 114.72ZM698.356 104.96C700.383 104.96 702.276 104.48 704.036 103.52C705.85 102.507 707.29 101.013 708.356 99.04C709.423 97.0667 709.956 94.6667 709.956 91.84C709.956 87.6267 708.836 84.4 706.596 82.16C704.41 79.8667 701.716 78.72 698.516 78.72C695.316 78.72 692.623 79.8667 690.436 82.16C688.303 84.4 687.236 87.6267 687.236 91.84C687.236 96.0533 688.276 99.3067 690.356 101.6C692.49 103.84 695.156 104.96 698.356 104.96ZM740.892 76.16C742.332 74.0267 744.305 72.2933 746.812 70.96C749.372 69.6267 752.279 68.96 755.532 68.96C759.319 68.96 762.732 69.8933 765.772 71.76C768.865 73.6267 771.292 76.2933 773.052 79.76C774.865 83.1733 775.772 87.1467 775.772 91.68C775.772 96.2133 774.865 100.24 773.052 103.76C771.292 107.227 768.865 109.92 765.772 111.84C762.732 113.76 759.319 114.72 755.532 114.72C752.225 114.72 749.319 114.08 746.812 112.8C744.359 111.467 742.385 109.76 740.892 107.68V114H729.692V54.8H740.892V76.16ZM764.332 91.68C764.332 89.0133 763.772 86.72 762.652 84.8C761.585 82.8267 760.145 81.3333 758.332 80.32C756.572 79.3067 754.652 78.8 752.572 78.8C750.545 78.8 748.625 79.3333 746.812 80.4C745.052 81.4133 743.612 82.9067 742.492 84.88C741.425 86.8533 740.892 89.1733 740.892 91.84C740.892 94.5067 741.425 96.8267 742.492 98.8C743.612 100.773 745.052 102.293 746.812 103.36C748.625 104.373 750.545 104.88 752.572 104.88C754.652 104.88 756.572 104.347 758.332 103.28C760.145 102.213 761.585 100.693 762.652 98.72C763.772 96.7467 764.332 94.4 764.332 91.68ZM800.871 114.72C797.244 114.72 793.991 114.08 791.111 112.8C788.231 111.467 785.937 109.68 784.231 107.44C782.577 105.2 781.671 102.72 781.511 100H792.791C793.004 101.707 793.831 103.12 795.271 104.24C796.764 105.36 798.604 105.92 800.791 105.92C802.924 105.92 804.577 105.493 805.751 104.64C806.977 103.787 807.591 102.693 807.591 101.36C807.591 99.92 806.844 98.8533 805.351 98.16C803.911 97.4133 801.591 96.6133 798.391 95.76C795.084 94.96 792.364 94.1333 790.231 93.28C788.151 92.4267 786.337 91.12 784.791 89.36C783.297 87.6 782.551 85.2267 782.551 82.24C782.551 79.7867 783.244 77.5467 784.631 75.52C786.071 73.4933 788.097 71.8933 790.711 70.72C793.377 69.5467 796.497 68.96 800.071 68.96C805.351 68.96 809.564 70.2933 812.711 72.96C815.857 75.5733 817.591 79.12 817.911 83.6H807.191C807.031 81.84 806.284 80.4533 804.951 79.44C803.671 78.3733 801.937 77.84 799.751 77.84C797.724 77.84 796.151 78.2133 795.031 78.96C793.964 79.7067 793.431 80.7467 793.431 82.08C793.431 83.5733 794.177 84.72 795.671 85.52C797.164 86.2667 799.484 87.04 802.631 87.84C805.831 88.64 808.471 89.4667 810.551 90.32C812.631 91.1733 814.417 92.5067 815.911 94.32C817.457 96.08 818.257 98.4267 818.311 101.36C818.311 103.92 817.591 106.213 816.151 108.24C814.764 110.267 812.737 111.867 810.071 113.04C807.457 114.16 804.391 114.72 800.871 114.72ZM866.887 78.88H859.127V114H847.767V78.88H842.727V69.68H847.767V67.44C847.767 62 849.314 58 852.407 55.44C855.5 52.88 860.167 51.68 866.407 51.84V61.28C863.687 61.2267 861.794 61.68 860.727 62.64C859.66 63.6 859.127 65.3333 859.127 67.84V69.68H866.887V78.88ZM893.825 114.72C889.558 114.72 885.718 113.787 882.305 111.92C878.892 110 876.198 107.307 874.225 103.84C872.305 100.373 871.345 96.3733 871.345 91.84C871.345 87.3067 872.332 83.3067 874.305 79.84C876.332 76.3733 879.078 73.7067 882.545 71.84C886.012 69.92 889.878 68.96 894.145 68.96C898.412 68.96 902.278 69.92 905.745 71.84C909.212 73.7067 911.932 76.3733 913.905 79.84C915.932 83.3067 916.945 87.3067 916.945 91.84C916.945 96.3733 915.905 100.373 913.825 103.84C911.798 107.307 909.025 110 905.505 111.92C902.038 113.787 898.145 114.72 893.825 114.72ZM893.825 104.96C895.852 104.96 897.745 104.48 899.505 103.52C901.318 102.507 902.758 101.013 903.825 99.04C904.892 97.0667 905.425 94.6667 905.425 91.84C905.425 87.6267 904.305 84.4 902.065 82.16C899.878 79.8667 897.185 78.72 893.985 78.72C890.785 78.72 888.092 79.8667 885.905 82.16C883.772 84.4 882.705 87.6267 882.705 91.84C882.705 96.0533 883.745 99.3067 885.825 101.6C887.958 103.84 890.625 104.96 893.825 104.96ZM936.361 76.56C937.801 74.2133 939.667 72.3733 941.961 71.04C944.307 69.7067 946.974 69.04 949.961 69.04V80.8H947.001C943.481 80.8 940.814 81.6267 939.001 83.28C937.241 84.9333 936.361 87.8133 936.361 91.92V114H925.161V69.68H936.361V76.56ZM55.64 201.68C55.64 197.2 56.52 193.227 58.28 189.76C60.0933 186.293 62.52 183.627 65.56 181.76C68.6533 179.893 72.0933 178.96 75.88 178.96C79.1867 178.96 82.0667 179.627 84.52 180.96C87.0267 182.293 89.0267 183.973 90.52 186V179.68H101.8V224H90.52V217.52C89.08 219.6 87.08 221.333 84.52 222.72C82.0133 224.053 79.1067 224.72 75.8 224.72C72.0667 224.72 68.6533 223.76 65.56 221.84C62.52 219.92 60.0933 217.227 58.28 213.76C56.52 210.24 55.64 206.213 55.64 201.68ZM90.52 201.84C90.52 199.12 89.9867 196.8 88.92 194.88C87.8533 192.907 86.4133 191.413 84.6 190.4C82.7867 189.333 80.84 188.8 78.76 188.8C76.68 188.8 74.76 189.307 73 190.32C71.24 191.333 69.8 192.827 68.68 194.8C67.6133 196.72 67.08 199.013 67.08 201.68C67.08 204.347 67.6133 206.693 68.68 208.72C69.8 210.693 71.24 212.213 73 213.28C74.8133 214.347 76.7333 214.88 78.76 214.88C80.84 214.88 82.7867 214.373 84.6 213.36C86.4133 212.293 87.8533 210.8 88.92 208.88C89.9867 206.907 90.52 204.56 90.52 201.84ZM123.939 164.8V224H112.739V164.8H123.939ZM146.204 164.8V224H135.004V164.8H146.204ZM193.693 178.96C196.999 178.96 199.906 179.627 202.413 180.96C204.919 182.24 206.893 183.92 208.333 186V179.68H219.613V224.32C219.613 228.427 218.786 232.08 217.133 235.28C215.479 238.533 212.999 241.093 209.693 242.96C206.386 244.88 202.386 245.84 197.693 245.84C191.399 245.84 186.226 244.373 182.173 241.44C178.173 238.507 175.906 234.507 175.373 229.44H186.493C187.079 231.467 188.333 233.067 190.253 234.24C192.226 235.467 194.599 236.08 197.373 236.08C200.626 236.08 203.266 235.093 205.293 233.12C207.319 231.2 208.333 228.267 208.333 224.32V217.44C206.893 219.52 204.893 221.253 202.333 222.64C199.826 224.027 196.946 224.72 193.693 224.72C189.959 224.72 186.546 223.76 183.453 221.84C180.359 219.92 177.906 217.227 176.092 213.76C174.332 210.24 173.452 206.213 173.452 201.68C173.452 197.2 174.332 193.227 176.092 189.76C177.906 186.293 180.333 183.627 183.373 181.76C186.466 179.893 189.906 178.96 193.693 178.96ZM208.333 201.84C208.333 199.12 207.799 196.8 206.733 194.88C205.666 192.907 204.226 191.413 202.413 190.4C200.599 189.333 198.653 188.8 196.573 188.8C194.493 188.8 192.573 189.307 190.812 190.32C189.053 191.333 187.613 192.827 186.493 194.8C185.426 196.72 184.893 199.013 184.893 201.68C184.893 204.347 185.426 206.693 186.493 208.72C187.613 210.693 189.053 212.213 190.812 213.28C192.626 214.347 194.546 214.88 196.573 214.88C198.653 214.88 200.599 214.373 202.413 213.36C204.226 212.293 205.666 210.8 206.733 208.88C207.799 206.907 208.333 204.56 208.333 201.84ZM241.751 186.56C243.191 184.213 245.058 182.373 247.351 181.04C249.698 179.707 252.365 179.04 255.351 179.04V190.8H252.391C248.871 190.8 246.205 191.627 244.391 193.28C242.631 194.933 241.751 197.813 241.751 201.92V224H230.551V179.68H241.751V186.56ZM260.015 201.68C260.015 197.2 260.895 193.227 262.655 189.76C264.468 186.293 266.895 183.627 269.935 181.76C273.028 179.893 276.468 178.96 280.255 178.96C283.562 178.96 286.442 179.627 288.895 180.96C291.402 182.293 293.402 183.973 294.895 186V179.68H306.175V224H294.895V217.52C293.455 219.6 291.455 221.333 288.895 222.72C286.388 224.053 283.482 224.72 280.175 224.72C276.442 224.72 273.028 223.76 269.935 221.84C266.895 219.92 264.468 217.227 262.655 213.76C260.895 210.24 260.015 206.213 260.015 201.68ZM294.895 201.84C294.895 199.12 294.362 196.8 293.295 194.88C292.228 192.907 290.788 191.413 288.975 190.4C287.162 189.333 285.215 188.8 283.135 188.8C281.055 188.8 279.135 189.307 277.375 190.32C275.615 191.333 274.175 192.827 273.055 194.8C271.988 196.72 271.455 199.013 271.455 201.68C271.455 204.347 271.988 206.693 273.055 208.72C274.175 210.693 275.615 212.213 277.375 213.28C279.188 214.347 281.108 214.88 283.135 214.88C285.215 214.88 287.162 214.373 288.975 213.36C290.788 212.293 292.228 210.8 293.295 208.88C294.362 206.907 294.895 204.56 294.895 201.84ZM314.234 201.68C314.234 197.2 315.114 193.227 316.874 189.76C318.687 186.293 321.14 183.627 324.234 181.76C327.327 179.893 330.767 178.96 334.554 178.96C337.434 178.96 340.18 179.6 342.794 180.88C345.407 182.107 347.487 183.76 349.034 185.84V164.8H360.394V224H349.034V217.44C347.647 219.627 345.7 221.387 343.194 222.72C340.687 224.053 337.78 224.72 334.474 224.72C330.74 224.72 327.327 223.76 324.234 221.84C321.14 219.92 318.687 217.227 316.874 213.76C315.114 210.24 314.234 206.213 314.234 201.68ZM349.114 201.84C349.114 199.12 348.58 196.8 347.514 194.88C346.447 192.907 345.007 191.413 343.194 190.4C341.38 189.333 339.434 188.8 337.354 188.8C335.274 188.8 333.354 189.307 331.594 190.32C329.834 191.333 328.394 192.827 327.274 194.8C326.207 196.72 325.674 199.013 325.674 201.68C325.674 204.347 326.207 206.693 327.274 208.72C328.394 210.693 329.834 212.213 331.594 213.28C333.407 214.347 335.327 214.88 337.354 214.88C339.434 214.88 341.38 214.373 343.194 213.36C345.007 212.293 346.447 210.8 347.514 208.88C348.58 206.907 349.114 204.56 349.114 201.84ZM413.173 179.68V224H401.893V218.4C400.453 220.32 398.559 221.84 396.213 222.96C393.919 224.027 391.413 224.56 388.693 224.56C385.226 224.56 382.159 223.84 379.493 222.4C376.826 220.907 374.719 218.747 373.173 215.92C371.679 213.04 370.933 209.627 370.933 205.68V179.68H382.133V204.08C382.133 207.6 383.013 210.32 384.773 212.24C386.533 214.107 388.933 215.04 391.973 215.04C395.066 215.04 397.493 214.107 399.253 212.24C401.013 210.32 401.893 207.6 401.893 204.08V179.68H413.173ZM421.343 201.68C421.343 197.2 422.223 193.227 423.983 189.76C425.796 186.293 428.223 183.627 431.263 181.76C434.356 179.893 437.796 178.96 441.583 178.96C444.89 178.96 447.77 179.627 450.223 180.96C452.73 182.293 454.73 183.973 456.223 186V179.68H467.503V224H456.223V217.52C454.783 219.6 452.783 221.333 450.223 222.72C447.716 224.053 444.81 224.72 441.503 224.72C437.77 224.72 434.356 223.76 431.263 221.84C428.223 219.92 425.796 217.227 423.983 213.76C422.223 210.24 421.343 206.213 421.343 201.68ZM456.223 201.84C456.223 199.12 455.69 196.8 454.623 194.88C453.556 192.907 452.116 191.413 450.303 190.4C448.49 189.333 446.543 188.8 444.463 188.8C442.383 188.8 440.463 189.307 438.703 190.32C436.943 191.333 435.503 192.827 434.383 194.8C433.316 196.72 432.783 199.013 432.783 201.68C432.783 204.347 433.316 206.693 434.383 208.72C435.503 210.693 436.943 212.213 438.703 213.28C440.516 214.347 442.436 214.88 444.463 214.88C446.543 214.88 448.49 214.373 450.303 213.36C452.116 212.293 453.556 210.8 454.623 208.88C455.69 206.907 456.223 204.56 456.223 201.84ZM491.482 188.88V210.32C491.482 211.813 491.829 212.907 492.522 213.6C493.269 214.24 494.495 214.56 496.202 214.56H501.402V224H494.362C484.922 224 480.202 219.413 480.202 210.24V188.88H474.922V179.68H480.202V168.72H491.482V179.68H501.402V188.88H491.482ZM550.658 200.88C550.658 202.48 550.551 203.92 550.338 205.2H517.938C518.204 208.4 519.324 210.907 521.298 212.72C523.271 214.533 525.698 215.44 528.578 215.44C532.738 215.44 535.698 213.653 537.458 210.08H549.538C548.258 214.347 545.804 217.867 542.178 220.64C538.551 223.36 534.098 224.72 528.818 224.72C524.551 224.72 520.711 223.787 517.298 221.92C513.938 220 511.298 217.307 509.378 213.84C507.511 210.373 506.577 206.373 506.577 201.84C506.577 197.253 507.511 193.227 509.378 189.76C511.244 186.293 513.858 183.627 517.218 181.76C520.578 179.893 524.444 178.96 528.818 178.96C533.031 178.96 536.791 179.867 540.098 181.68C543.458 183.493 546.044 186.08 547.858 189.44C549.724 192.747 550.658 196.56 550.658 200.88ZM539.058 197.68C539.004 194.8 537.964 192.507 535.938 190.8C533.911 189.04 531.431 188.16 528.498 188.16C525.724 188.16 523.378 189.013 521.458 190.72C519.591 192.373 518.444 194.693 518.018 197.68H539.058ZM575.793 224.72C572.166 224.72 568.913 224.08 566.033 222.8C563.153 221.467 560.859 219.68 559.153 217.44C557.499 215.2 556.593 212.72 556.433 210H567.713C567.926 211.707 568.753 213.12 570.193 214.24C571.686 215.36 573.526 215.92 575.713 215.92C577.846 215.92 579.499 215.493 580.673 214.64C581.899 213.787 582.513 212.693 582.513 211.36C582.513 209.92 581.766 208.853 580.273 208.16C578.833 207.413 576.513 206.613 573.312 205.76C570.006 204.96 567.286 204.133 565.153 203.28C563.073 202.427 561.259 201.12 559.713 199.36C558.219 197.6 557.473 195.227 557.473 192.24C557.473 189.787 558.166 187.547 559.553 185.52C560.993 183.493 563.019 181.893 565.633 180.72C568.299 179.547 571.419 178.96 574.993 178.96C580.273 178.96 584.486 180.293 587.633 182.96C590.779 185.573 592.513 189.12 592.833 193.6H582.113C581.953 191.84 581.206 190.453 579.873 189.44C578.593 188.373 576.859 187.84 574.673 187.84C572.646 187.84 571.073 188.213 569.953 188.96C568.886 189.707 568.353 190.747 568.353 192.08C568.353 193.573 569.099 194.72 570.593 195.52C572.086 196.267 574.406 197.04 577.553 197.84C580.753 198.64 583.393 199.467 585.473 200.32C587.553 201.173 589.339 202.507 590.833 204.32C592.379 206.08 593.179 208.427 593.233 211.36C593.233 213.92 592.513 216.213 591.073 218.24C589.686 220.267 587.659 221.867 584.993 223.04C582.379 224.16 579.313 224.72 575.793 224.72ZM607.386 224.56C605.36 224.56 603.68 223.947 602.346 222.72C601.066 221.44 600.426 219.867 600.426 218C600.426 216.133 601.066 214.587 602.346 213.36C603.68 212.08 605.36 211.44 607.386 211.44C609.36 211.44 610.986 212.08 612.266 213.36C613.546 214.587 614.186 216.133 614.186 218C614.186 219.867 613.546 221.44 612.266 222.72C610.986 223.947 609.36 224.56 607.386 224.56Z" fill="white"/>
<rect x="698" y="226" width="292" height="71" rx="35.5" fill="black"/>
<path d="M746.92 267.744H738.024L736.552 272H731.848L739.88 249.632H745.096L753.128 272H748.392L746.92 267.744ZM745.704 264.16L742.472 254.816L739.24 264.16H745.704ZM760.61 256.832C761.186 256.021 761.975 255.349 762.978 254.816C764.002 254.261 765.165 253.984 766.466 253.984C767.981 253.984 769.346 254.357 770.562 255.104C771.799 255.851 772.77 256.917 773.474 258.304C774.199 259.669 774.562 261.259 774.562 263.072C774.562 264.885 774.199 266.496 773.474 267.904C772.77 269.291 771.799 270.368 770.562 271.136C769.346 271.904 767.981 272.288 766.466 272.288C765.165 272.288 764.013 272.021 763.01 271.488C762.029 270.955 761.229 270.283 760.61 269.472V280.448H756.13V254.272H760.61V256.832ZM769.986 263.072C769.986 262.005 769.762 261.088 769.314 260.32C768.887 259.531 768.311 258.933 767.586 258.528C766.882 258.123 766.114 257.92 765.282 257.92C764.471 257.92 763.703 258.133 762.978 258.56C762.274 258.965 761.698 259.563 761.25 260.352C760.823 261.141 760.61 262.069 760.61 263.136C760.61 264.203 760.823 265.131 761.25 265.92C761.698 266.709 762.274 267.317 762.978 267.744C763.703 268.149 764.471 268.352 765.282 268.352C766.114 268.352 766.882 268.139 767.586 267.712C768.311 267.285 768.887 266.677 769.314 265.888C769.762 265.099 769.986 264.16 769.986 263.072ZM782.297 256.832C782.873 256.021 783.663 255.349 784.665 254.816C785.689 254.261 786.852 253.984 788.153 253.984C789.668 253.984 791.033 254.357 792.249 255.104C793.487 255.851 794.457 256.917 795.161 258.304C795.887 259.669 796.249 261.259 796.249 263.072C796.249 264.885 795.887 266.496 795.161 267.904C794.457 269.291 793.487 270.368 792.249 271.136C791.033 271.904 789.668 272.288 788.153 272.288C786.852 272.288 785.7 272.021 784.697 271.488C783.716 270.955 782.916 270.283 782.297 269.472V280.448H777.817V254.272H782.297V256.832ZM791.673 263.072C791.673 262.005 791.449 261.088 791.001 260.32C790.575 259.531 789.999 258.933 789.273 258.528C788.569 258.123 787.801 257.92 786.969 257.92C786.159 257.92 785.391 258.133 784.665 258.56C783.961 258.965 783.385 259.563 782.937 260.352C782.511 261.141 782.297 262.069 782.297 263.136C782.297 264.203 782.511 265.131 782.937 265.92C783.385 266.709 783.961 267.317 784.665 267.744C785.391 268.149 786.159 268.352 786.969 268.352C787.801 268.352 788.569 268.139 789.273 267.712C789.999 267.285 790.575 266.677 791.001 265.888C791.449 265.099 791.673 264.16 791.673 263.072ZM803.985 248.32V272H799.505V248.32H803.985ZM825.371 254.272L814.395 280.384H809.627L813.467 271.552L806.363 254.272H811.387L815.963 266.656L820.603 254.272H825.371ZM843.539 257.952H840.435V272H835.891V257.952H833.875V254.272H835.891V253.376C835.891 251.2 836.51 249.6 837.747 248.576C838.984 247.552 840.851 247.072 843.347 247.136V250.912C842.259 250.891 841.502 251.072 841.075 251.456C840.648 251.84 840.435 252.533 840.435 253.536V254.272H843.539V257.952ZM854.314 272.288C852.608 272.288 851.072 271.915 849.706 271.168C848.341 270.4 847.264 269.323 846.474 267.936C845.706 266.549 845.322 264.949 845.322 263.136C845.322 261.323 845.717 259.723 846.506 258.336C847.317 256.949 848.416 255.883 849.802 255.136C851.189 254.368 852.736 253.984 854.442 253.984C856.149 253.984 857.696 254.368 859.082 255.136C860.469 255.883 861.557 256.949 862.346 258.336C863.157 259.723 863.562 261.323 863.562 263.136C863.562 264.949 863.146 266.549 862.314 267.936C861.504 269.323 860.394 270.4 858.986 271.168C857.6 271.915 856.042 272.288 854.314 272.288ZM854.314 268.384C855.125 268.384 855.882 268.192 856.586 267.808C857.312 267.403 857.888 266.805 858.314 266.016C858.741 265.227 858.954 264.267 858.954 263.136C858.954 261.451 858.506 260.16 857.61 259.264C856.736 258.347 855.658 257.888 854.378 257.888C853.098 257.888 852.021 258.347 851.146 259.264C850.293 260.16 849.866 261.451 849.866 263.136C849.866 264.821 850.282 266.123 851.114 267.04C851.968 267.936 853.034 268.384 854.314 268.384ZM871.329 257.024C871.905 256.085 872.651 255.349 873.569 254.816C874.507 254.283 875.574 254.016 876.769 254.016V258.72H875.585C874.177 258.72 873.11 259.051 872.385 259.712C871.681 260.373 871.329 261.525 871.329 263.168V272H866.849V254.272H871.329V257.024ZM895.539 257.952H892.435V272H887.891V257.952H885.875V254.272H887.891V253.376C887.891 251.2 888.51 249.6 889.747 248.576C890.984 247.552 892.851 247.072 895.347 247.136V250.912C894.259 250.891 893.502 251.072 893.075 251.456C892.648 251.84 892.435 252.533 892.435 253.536V254.272H895.539V257.952ZM902.922 257.024C903.498 256.085 904.245 255.349 905.162 254.816C906.101 254.283 907.168 254.016 908.362 254.016V258.72H907.178C905.77 258.72 904.704 259.051 903.978 259.712C903.274 260.373 902.922 261.525 902.922 263.168V272H898.442V254.272H902.922V257.024ZM927.86 262.752C927.86 263.392 927.817 263.968 927.732 264.48H914.772C914.879 265.76 915.327 266.763 916.116 267.488C916.905 268.213 917.876 268.576 919.028 268.576C920.692 268.576 921.876 267.861 922.58 266.432H927.412C926.9 268.139 925.919 269.547 924.468 270.656C923.017 271.744 921.236 272.288 919.124 272.288C917.417 272.288 915.881 271.915 914.516 271.168C913.172 270.4 912.116 269.323 911.348 267.936C910.601 266.549 910.228 264.949 910.228 263.136C910.228 261.301 910.601 259.691 911.348 258.304C912.095 256.917 913.14 255.851 914.484 255.104C915.828 254.357 917.375 253.984 919.124 253.984C920.809 253.984 922.313 254.347 923.636 255.072C924.98 255.797 926.015 256.832 926.74 258.176C927.487 259.499 927.86 261.024 927.86 262.752ZM923.22 261.472C923.199 260.32 922.783 259.403 921.972 258.72C921.161 258.016 920.169 257.664 918.996 257.664C917.887 257.664 916.948 258.005 916.18 258.688C915.433 259.349 914.975 260.277 914.804 261.472H923.22ZM947.61 262.752C947.61 263.392 947.567 263.968 947.482 264.48H934.522C934.629 265.76 935.077 266.763 935.866 267.488C936.655 268.213 937.626 268.576 938.778 268.576C940.442 268.576 941.626 267.861 942.33 266.432H947.162C946.65 268.139 945.669 269.547 944.218 270.656C942.767 271.744 940.986 272.288 938.874 272.288C937.167 272.288 935.631 271.915 934.266 271.168C932.922 270.4 931.866 269.323 931.098 267.936C930.351 266.549 929.978 264.949 929.978 263.136C929.978 261.301 930.351 259.691 931.098 258.304C931.845 256.917 932.89 255.851 934.234 255.104C935.578 254.357 937.125 253.984 938.874 253.984C940.559 253.984 942.063 254.347 943.386 255.072C944.73 255.797 945.765 256.832 946.49 258.176C947.237 259.499 947.61 261.024 947.61 262.752ZM942.97 261.472C942.949 260.32 942.533 259.403 941.722 258.72C940.911 258.016 939.919 257.664 938.746 257.664C937.637 257.664 936.698 258.005 935.93 258.688C935.183 259.349 934.725 260.277 934.554 261.472H942.97ZM952.864 272.224C952.053 272.224 951.381 271.979 950.848 271.488C950.336 270.976 950.08 270.347 950.08 269.6C950.08 268.853 950.336 268.235 950.848 267.744C951.381 267.232 952.053 266.976 952.864 266.976C953.653 266.976 954.304 267.232 954.816 267.744C955.328 268.235 955.584 268.853 955.584 269.6C955.584 270.347 955.328 270.976 954.816 271.488C954.304 271.979 953.653 272.224 952.864 272.224Z" fill="white"/>
</svg>
