<svg width="1021" height="569" viewBox="0 0 1021 569" fill="none" xmlns="http://www.w3.org/2000/svg">
<rect width="1021" height="569" fill="#F8F2FC"/>
<path d="M78 61.08V65.6H66.36V72.76H75.28V77.2H66.36V89H60.76V61.08H78ZM84.8109 64.2C83.8243 64.2 82.9976 63.8933 82.3309 63.28C81.6909 62.64 81.3709 61.8533 81.3709 60.92C81.3709 59.9867 81.6909 59.2133 82.3309 58.6C82.9976 57.96 83.8243 57.64 84.8109 57.64C85.7976 57.64 86.6109 57.96 87.2509 58.6C87.9176 59.2133 88.2509 59.9867 88.2509 60.92C88.2509 61.8533 87.9176 62.64 87.2509 63.28C86.6109 63.8933 85.7976 64.2 84.8109 64.2ZM87.5709 66.84V89H81.9709V66.84H87.5709ZM105.384 66.52C108.024 66.52 110.157 67.36 111.784 69.04C113.41 70.6933 114.224 73.0133 114.224 76V89H108.624V76.76C108.624 75 108.184 73.6533 107.304 72.72C106.424 71.76 105.224 71.28 103.704 71.28C102.157 71.28 100.93 71.76 100.024 72.72C99.1438 73.6533 98.7038 75 98.7038 76.76V89H93.1038V66.84H98.7038V69.6C99.4504 68.64 100.397 67.8933 101.544 67.36C102.717 66.8 103.997 66.52 105.384 66.52ZM118.109 77.84C118.109 75.6 118.549 73.6133 119.429 71.88C120.336 70.1467 121.562 68.8133 123.109 67.88C124.656 66.9467 126.376 66.48 128.269 66.48C129.709 66.48 131.082 66.8 132.389 67.44C133.696 68.0533 134.736 68.88 135.509 69.92V59.4H141.189V89H135.509V85.72C134.816 86.8133 133.842 87.6933 132.589 88.36C131.336 89.0267 129.882 89.36 128.229 89.36C126.362 89.36 124.656 88.88 123.109 87.92C121.562 86.96 120.336 85.6133 119.429 83.88C118.549 82.12 118.109 80.1067 118.109 77.84ZM135.549 77.92C135.549 76.56 135.282 75.4 134.749 74.44C134.216 73.4533 133.496 72.7067 132.589 72.2C131.682 71.6667 130.709 71.4 129.669 71.4C128.629 71.4 127.669 71.6533 126.789 72.16C125.909 72.6667 125.189 73.4133 124.629 74.4C124.096 75.36 123.829 76.5067 123.829 77.84C123.829 79.1733 124.096 80.3467 124.629 81.36C125.189 82.3467 125.909 83.1067 126.789 83.64C127.696 84.1733 128.656 84.44 129.669 84.44C130.709 84.44 131.682 84.1867 132.589 83.68C133.496 83.1467 134.216 82.4 134.749 81.44C135.282 80.4533 135.549 79.28 135.549 77.92ZM162.71 71.44V82.16C162.71 82.9067 162.883 83.4533 163.23 83.8C163.603 84.12 164.216 84.28 165.07 84.28H167.67V89H164.15C159.43 89 157.07 86.7067 157.07 82.12V71.44H154.43V66.84H157.07V61.36H162.71V66.84H167.67V71.44H162.71ZM184.178 66.52C185.858 66.52 187.351 66.8933 188.658 67.64C189.964 68.36 190.978 69.44 191.698 70.88C192.444 72.2933 192.818 74 192.818 76V89H187.218V76.76C187.218 75 186.778 73.6533 185.898 72.72C185.018 71.76 183.818 71.28 182.298 71.28C180.751 71.28 179.524 71.76 178.618 72.72C177.738 73.6533 177.298 75 177.298 76.76V89H171.698V59.4H177.298V69.6C178.018 68.64 178.978 67.8933 180.178 67.36C181.378 66.8 182.711 66.52 184.178 66.52ZM218.743 77.44C218.743 78.24 218.689 78.96 218.583 79.6H202.383C202.516 81.2 203.076 82.4533 204.063 83.36C205.049 84.2667 206.263 84.72 207.703 84.72C209.783 84.72 211.263 83.8267 212.143 82.04H218.183C217.543 84.1733 216.316 85.9333 214.503 87.32C212.689 88.68 210.463 89.36 207.823 89.36C205.689 89.36 203.769 88.8933 202.063 87.96C200.383 87 199.063 85.6533 198.103 83.92C197.169 82.1867 196.703 80.1867 196.703 77.92C196.703 75.6267 197.169 73.6133 198.103 71.88C199.036 70.1467 200.343 68.8133 202.023 67.88C203.703 66.9467 205.636 66.48 207.823 66.48C209.929 66.48 211.809 66.9333 213.463 67.84C215.143 68.7467 216.436 70.04 217.343 71.72C218.276 73.3733 218.743 75.28 218.743 77.44ZM212.943 75.84C212.916 74.4 212.396 73.2533 211.383 72.4C210.369 71.52 209.129 71.08 207.663 71.08C206.276 71.08 205.103 71.5067 204.143 72.36C203.209 73.1867 202.636 74.3467 202.423 75.84H212.943ZM235.202 64.2C234.188 64.2 233.348 63.8933 232.682 63.28C232.042 62.64 231.722 61.8533 231.722 60.92C231.722 59.9867 232.042 59.2133 232.682 58.6C233.348 57.96 234.188 57.64 235.202 57.64C236.188 57.64 237.002 57.96 237.642 58.6C238.282 59.2133 238.602 59.9867 238.602 60.92C238.602 61.8533 238.282 62.64 237.642 63.28C237.002 63.8933 236.188 64.2 235.202 64.2ZM237.962 92.64C237.962 95.0933 237.348 96.8533 236.122 97.92C234.922 99.0133 233.188 99.56 230.922 99.56H228.442V94.8H230.042C230.895 94.8 231.495 94.6267 231.842 94.28C232.188 93.96 232.362 93.4267 232.362 92.68V66.84H237.962V92.64ZM253.334 89.36C251.201 89.36 249.281 88.8933 247.574 87.96C245.868 87 244.521 85.6533 243.534 83.92C242.574 82.1867 242.094 80.1867 242.094 77.92C242.094 75.6533 242.588 73.6533 243.574 71.92C244.588 70.1867 245.961 68.8533 247.694 67.92C249.428 66.96 251.361 66.48 253.494 66.48C255.628 66.48 257.561 66.96 259.294 67.92C261.028 68.8533 262.388 70.1867 263.374 71.92C264.388 73.6533 264.894 75.6533 264.894 77.92C264.894 80.1867 264.374 82.1867 263.334 83.92C262.321 85.6533 260.934 87 259.174 87.96C257.441 88.8933 255.494 89.36 253.334 89.36ZM253.334 84.48C254.348 84.48 255.294 84.24 256.174 83.76C257.081 83.2533 257.801 82.5067 258.334 81.52C258.868 80.5333 259.134 79.3333 259.134 77.92C259.134 75.8133 258.574 74.2 257.454 73.08C256.361 71.9333 255.014 71.36 253.414 71.36C251.814 71.36 250.468 71.9333 249.374 73.08C248.308 74.2 247.774 75.8133 247.774 77.92C247.774 80.0267 248.294 81.6533 249.334 82.8C250.401 83.92 251.734 84.48 253.334 84.48ZM274.602 70.08C275.322 69.0133 276.309 68.1467 277.562 67.48C278.842 66.8133 280.296 66.48 281.922 66.48C283.816 66.48 285.522 66.9467 287.042 67.88C288.589 68.8133 289.802 70.1467 290.682 71.88C291.589 73.5867 292.042 75.5733 292.042 77.84C292.042 80.1067 291.589 82.12 290.682 83.88C289.802 85.6133 288.589 86.96 287.042 87.92C285.522 88.88 283.816 89.36 281.922 89.36C280.269 89.36 278.816 89.04 277.562 88.4C276.336 87.7333 275.349 86.88 274.602 85.84V89H269.002V59.4H274.602V70.08ZM286.322 77.84C286.322 76.5067 286.042 75.36 285.482 74.4C284.949 73.4133 284.229 72.6667 283.322 72.16C282.442 71.6533 281.482 71.4 280.442 71.4C279.429 71.4 278.469 71.6667 277.562 72.2C276.682 72.7067 275.962 73.4533 275.402 74.44C274.869 75.4267 274.602 76.5867 274.602 77.92C274.602 79.2533 274.869 80.4133 275.402 81.4C275.962 82.3867 276.682 83.1467 277.562 83.68C278.469 84.1867 279.429 84.44 280.442 84.44C281.482 84.44 282.442 84.1733 283.322 83.64C284.229 83.1067 284.949 82.3467 285.482 81.36C286.042 80.3733 286.322 79.2 286.322 77.84ZM312.163 71.44V82.16C312.163 82.9067 312.336 83.4533 312.683 83.8C313.056 84.12 313.669 84.28 314.523 84.28H317.123V89H313.603C308.883 89 306.523 86.7067 306.523 82.12V71.44H303.883V66.84H306.523V61.36H312.163V66.84H317.123V71.44H312.163ZM333.631 66.52C335.311 66.52 336.804 66.8933 338.111 67.64C339.417 68.36 340.431 69.44 341.151 70.88C341.897 72.2933 342.271 74 342.271 76V89H336.671V76.76C336.671 75 336.231 73.6533 335.351 72.72C334.471 71.76 333.271 71.28 331.751 71.28C330.204 71.28 328.977 71.76 328.071 72.72C327.191 73.6533 326.751 75 326.751 76.76V89H321.151V59.4H326.751V69.6C327.471 68.64 328.431 67.8933 329.631 67.36C330.831 66.8 332.164 66.52 333.631 66.52ZM346.156 77.84C346.156 75.6 346.596 73.6133 347.476 71.88C348.383 70.1467 349.596 68.8133 351.116 67.88C352.663 66.9467 354.383 66.48 356.276 66.48C357.929 66.48 359.369 66.8133 360.596 67.48C361.849 68.1467 362.849 68.9867 363.596 70V66.84H369.236V89H363.596V85.76C362.876 86.8 361.876 87.6667 360.596 88.36C359.343 89.0267 357.889 89.36 356.236 89.36C354.369 89.36 352.663 88.88 351.116 87.92C349.596 86.96 348.383 85.6133 347.476 83.88C346.596 82.12 346.156 80.1067 346.156 77.84ZM363.596 77.92C363.596 76.56 363.329 75.4 362.796 74.44C362.263 73.4533 361.543 72.7067 360.636 72.2C359.729 71.6667 358.756 71.4 357.716 71.4C356.676 71.4 355.716 71.6533 354.836 72.16C353.956 72.6667 353.236 73.4133 352.676 74.4C352.143 75.36 351.876 76.5067 351.876 77.84C351.876 79.1733 352.143 80.3467 352.676 81.36C353.236 82.3467 353.956 83.1067 354.836 83.64C355.743 84.1733 356.703 84.44 357.716 84.44C358.756 84.44 359.729 84.1867 360.636 83.68C361.543 83.1467 362.263 82.4 362.796 81.44C363.329 80.4533 363.596 79.28 363.596 77.92ZM381.225 71.44V82.16C381.225 82.9067 381.399 83.4533 381.745 83.8C382.119 84.12 382.732 84.28 383.585 84.28H386.185V89H382.665C377.945 89 375.585 86.7067 375.585 82.12V71.44H372.945V66.84H375.585V61.36H381.225V66.84H386.185V71.44H381.225ZM402.584 64.2C401.598 64.2 400.771 63.8933 400.104 63.28C399.464 62.64 399.144 61.8533 399.144 60.92C399.144 59.9867 399.464 59.2133 400.104 58.6C400.771 57.96 401.598 57.64 402.584 57.64C403.571 57.64 404.384 57.96 405.024 58.6C405.691 59.2133 406.024 59.9867 406.024 60.92C406.024 61.8533 405.691 62.64 405.024 63.28C404.384 63.8933 403.571 64.2 402.584 64.2ZM405.344 66.84V89H399.744V66.84H405.344ZM419.357 89.36C417.544 89.36 415.917 89.04 414.477 88.4C413.037 87.7333 411.891 86.84 411.037 85.72C410.211 84.6 409.757 83.36 409.677 82H415.317C415.424 82.8533 415.837 83.56 416.557 84.12C417.304 84.68 418.224 84.96 419.317 84.96C420.384 84.96 421.211 84.7467 421.797 84.32C422.411 83.8933 422.717 83.3467 422.717 82.68C422.717 81.96 422.344 81.4267 421.597 81.08C420.877 80.7067 419.717 80.3067 418.117 79.88C416.464 79.48 415.104 79.0667 414.037 78.64C412.997 78.2133 412.091 77.56 411.317 76.68C410.571 75.8 410.197 74.6133 410.197 73.12C410.197 71.8933 410.544 70.7733 411.237 69.76C411.957 68.7467 412.971 67.9467 414.277 67.36C415.611 66.7733 417.171 66.48 418.957 66.48C421.597 66.48 423.704 67.1467 425.277 68.48C426.851 69.7867 427.717 71.56 427.877 73.8H422.517C422.437 72.92 422.064 72.2267 421.397 71.72C420.757 71.1867 419.891 70.92 418.797 70.92C417.784 70.92 416.997 71.1067 416.437 71.48C415.904 71.8533 415.637 72.3733 415.637 73.04C415.637 73.7867 416.011 74.36 416.757 74.76C417.504 75.1333 418.664 75.52 420.237 75.92C421.837 76.32 423.157 76.7333 424.197 77.16C425.237 77.5867 426.131 78.2533 426.877 79.16C427.651 80.04 428.051 81.2133 428.077 82.68C428.077 83.96 427.717 85.1067 426.997 86.12C426.304 87.1333 425.291 87.9333 423.957 88.52C422.651 89.08 421.117 89.36 419.357 89.36ZM447.805 70.04C448.525 69.0267 449.512 68.1867 450.765 67.52C452.045 66.8267 453.499 66.48 455.125 66.48C457.019 66.48 458.725 66.9467 460.245 67.88C461.792 68.8133 463.005 70.1467 463.885 71.88C464.792 73.5867 465.245 75.5733 465.245 77.84C465.245 80.1067 464.792 82.12 463.885 83.88C463.005 85.6133 461.792 86.96 460.245 87.92C458.725 88.88 457.019 89.36 455.125 89.36C453.499 89.36 452.059 89.0267 450.805 88.36C449.579 87.6933 448.579 86.8533 447.805 85.84V99.56H442.205V66.84H447.805V70.04ZM459.525 77.84C459.525 76.5067 459.245 75.36 458.685 74.4C458.152 73.4133 457.432 72.6667 456.525 72.16C455.645 71.6533 454.685 71.4 453.645 71.4C452.632 71.4 451.672 71.6667 450.765 72.2C449.885 72.7067 449.165 73.4533 448.605 74.44C448.072 75.4267 447.805 76.5867 447.805 77.92C447.805 79.2533 448.072 80.4133 448.605 81.4C449.165 82.3867 449.885 83.1467 450.765 83.68C451.672 84.1867 452.632 84.44 453.645 84.44C454.685 84.44 455.645 84.1733 456.525 83.64C457.432 83.1067 458.152 82.3467 458.685 81.36C459.245 80.3733 459.525 79.2 459.525 77.84ZM489.915 77.44C489.915 78.24 489.861 78.96 489.755 79.6H473.555C473.688 81.2 474.248 82.4533 475.235 83.36C476.221 84.2667 477.435 84.72 478.875 84.72C480.955 84.72 482.435 83.8267 483.315 82.04H489.355C488.715 84.1733 487.488 85.9333 485.675 87.32C483.861 88.68 481.635 89.36 478.995 89.36C476.861 89.36 474.941 88.8933 473.235 87.96C471.555 87 470.235 85.6533 469.275 83.92C468.341 82.1867 467.875 80.1867 467.875 77.92C467.875 75.6267 468.341 73.6133 469.275 71.88C470.208 70.1467 471.515 68.8133 473.195 67.88C474.875 66.9467 476.808 66.48 478.995 66.48C481.101 66.48 482.981 66.9333 484.635 67.84C486.315 68.7467 487.608 70.04 488.515 71.72C489.448 73.3733 489.915 75.28 489.915 77.44ZM484.115 75.84C484.088 74.4 483.568 73.2533 482.555 72.4C481.541 71.52 480.301 71.08 478.835 71.08C477.448 71.08 476.275 71.5067 475.315 72.36C474.381 73.1867 473.808 74.3467 473.595 75.84H484.115ZM499.602 70.28C500.322 69.1067 501.256 68.1867 502.402 67.52C503.576 66.8533 504.909 66.52 506.402 66.52V72.4H504.922C503.162 72.4 501.829 72.8133 500.922 73.64C500.042 74.4667 499.602 75.9067 499.602 77.96V89H494.002V66.84H499.602V70.28ZM520.334 71.44H516.454V89H510.774V71.44H508.254V66.84H510.774V65.72C510.774 63 511.547 61 513.094 59.72C514.641 58.44 516.974 57.84 520.094 57.92V62.64C518.734 62.6133 517.787 62.84 517.254 63.32C516.721 63.8 516.454 64.6667 516.454 65.92V66.84H520.334V71.44ZM544.563 77.44C544.563 78.24 544.51 78.96 544.403 79.6H528.203C528.336 81.2 528.896 82.4533 529.883 83.36C530.87 84.2667 532.083 84.72 533.523 84.72C535.603 84.72 537.083 83.8267 537.963 82.04H544.003C543.363 84.1733 542.136 85.9333 540.323 87.32C538.51 88.68 536.283 89.36 533.643 89.36C531.51 89.36 529.59 88.8933 527.883 87.96C526.203 87 524.883 85.6533 523.923 83.92C522.99 82.1867 522.523 80.1867 522.523 77.92C522.523 75.6267 522.99 73.6133 523.923 71.88C524.856 70.1467 526.163 68.8133 527.843 67.88C529.523 66.9467 531.456 66.48 533.643 66.48C535.75 66.48 537.63 66.9333 539.283 67.84C540.963 68.7467 542.256 70.04 543.163 71.72C544.096 73.3733 544.563 75.28 544.563 77.44ZM538.763 75.84C538.736 74.4 538.216 73.2533 537.203 72.4C536.19 71.52 534.95 71.08 533.483 71.08C532.096 71.08 530.923 71.5067 529.963 72.36C529.03 73.1867 528.456 74.3467 528.243 75.84H538.763ZM547.211 77.92C547.211 75.6267 547.677 73.6267 548.611 71.92C549.544 70.1867 550.837 68.8533 552.491 67.92C554.144 66.96 556.037 66.48 558.171 66.48C560.917 66.48 563.184 67.1733 564.971 68.56C566.784 69.92 567.997 71.84 568.611 74.32H562.571C562.251 73.36 561.704 72.6133 560.931 72.08C560.184 71.52 559.251 71.24 558.131 71.24C556.531 71.24 555.264 71.8267 554.331 73C553.397 74.1467 552.931 75.7867 552.931 77.92C552.931 80.0267 553.397 81.6667 554.331 82.84C555.264 83.9867 556.531 84.56 558.131 84.56C560.397 84.56 561.877 83.5467 562.571 81.52H568.611C567.997 83.92 566.784 85.8267 564.971 87.24C563.157 88.6533 560.891 89.36 558.171 89.36C556.037 89.36 554.144 88.8933 552.491 87.96C550.837 87 549.544 85.6667 548.611 83.96C547.677 82.2267 547.211 80.2133 547.211 77.92ZM579.233 71.44V82.16C579.233 82.9067 579.406 83.4533 579.753 83.8C580.126 84.12 580.74 84.28 581.593 84.28H584.193V89H580.673C575.953 89 573.593 86.7067 573.593 82.12V71.44H570.953V66.84H573.593V61.36H579.233V66.84H584.193V71.44H579.233ZM607.912 71.44H604.032V89H598.352V71.44H595.832V66.84H598.352V65.72C598.352 63 599.126 61 600.672 59.72C602.219 58.44 604.552 57.84 607.672 57.92V62.64C606.312 62.6133 605.366 62.84 604.832 63.32C604.299 63.8 604.032 64.6667 604.032 65.92V66.84H607.912V71.44ZM621.381 89.36C619.248 89.36 617.328 88.8933 615.621 87.96C613.915 87 612.568 85.6533 611.581 83.92C610.621 82.1867 610.141 80.1867 610.141 77.92C610.141 75.6533 610.635 73.6533 611.621 71.92C612.635 70.1867 614.008 68.8533 615.741 67.92C617.475 66.96 619.408 66.48 621.541 66.48C623.675 66.48 625.608 66.96 627.341 67.92C629.075 68.8533 630.435 70.1867 631.421 71.92C632.435 73.6533 632.941 75.6533 632.941 77.92C632.941 80.1867 632.421 82.1867 631.381 83.92C630.368 85.6533 628.981 87 627.221 87.96C625.488 88.8933 623.541 89.36 621.381 89.36ZM621.381 84.48C622.395 84.48 623.341 84.24 624.221 83.76C625.128 83.2533 625.848 82.5067 626.381 81.52C626.915 80.5333 627.181 79.3333 627.181 77.92C627.181 75.8133 626.621 74.2 625.501 73.08C624.408 71.9333 623.061 71.36 621.461 71.36C619.861 71.36 618.515 71.9333 617.421 73.08C616.355 74.2 615.821 75.8133 615.821 77.92C615.821 80.0267 616.341 81.6533 617.381 82.8C618.448 83.92 619.781 84.48 621.381 84.48ZM642.649 70.28C643.369 69.1067 644.302 68.1867 645.449 67.52C646.622 66.8533 647.956 66.52 649.449 66.52V72.4H647.969C646.209 72.4 644.876 72.8133 643.969 73.64C643.089 74.4667 642.649 75.9067 642.649 77.96V89H637.049V66.84H642.649V70.28Z" fill="black"/>
<path d="M686.552 60.92L676.832 79.72V89H669.992V79.72L660.272 60.92H668.032L673.472 72.68L678.872 60.92H686.552ZM699.468 89.32C697.281 89.32 695.308 88.8533 693.548 87.92C691.815 86.9867 690.441 85.6533 689.428 83.92C688.441 82.1867 687.948 80.16 687.948 77.84C687.948 75.5467 688.455 73.5333 689.468 71.8C690.481 70.04 691.868 68.6933 693.628 67.76C695.388 66.8267 697.361 66.36 699.548 66.36C701.735 66.36 703.708 66.8267 705.468 67.76C707.228 68.6933 708.615 70.04 709.628 71.8C710.641 73.5333 711.148 75.5467 711.148 77.84C711.148 80.1333 710.628 82.16 709.588 83.92C708.575 85.6533 707.175 86.9867 705.388 87.92C703.628 88.8533 701.655 89.32 699.468 89.32ZM699.468 83.4C700.775 83.4 701.881 82.92 702.788 81.96C703.721 81 704.188 79.6267 704.188 77.84C704.188 76.0533 703.735 74.68 702.828 73.72C701.948 72.76 700.855 72.28 699.548 72.28C698.215 72.28 697.108 72.76 696.228 73.72C695.348 74.6533 694.908 76.0267 694.908 77.84C694.908 79.6267 695.335 81 696.188 81.96C697.068 82.92 698.161 83.4 699.468 83.4ZM736.817 66.68V89H729.977V85.96C729.284 86.9467 728.337 87.7467 727.137 88.36C725.964 88.9467 724.657 89.24 723.217 89.24C721.51 89.24 720.004 88.8667 718.697 88.12C717.39 87.3467 716.377 86.24 715.657 84.8C714.937 83.36 714.577 81.6667 714.577 79.72V66.68H721.377V78.8C721.377 80.2933 721.764 81.4533 722.537 82.28C723.31 83.1067 724.35 83.52 725.657 83.52C726.99 83.52 728.044 83.1067 728.817 82.28C729.59 81.4533 729.977 80.2933 729.977 78.8V66.68H736.817Z" fill="#6E00BE"/>
<path d="M95.72 206.52H70.76V217.56C71.8267 216.387 73.32 215.427 75.24 214.68C77.16 213.933 79.24 213.56 81.48 213.56C85.48 213.56 88.7867 214.467 91.4 216.28C94.0667 218.093 96.0133 220.44 97.24 223.32C98.4667 226.2 99.08 229.32 99.08 232.68C99.08 238.92 97.32 243.88 93.8 247.56C90.28 251.187 85.32 253 78.92 253C74.6533 253 70.9467 252.28 67.8 250.84C64.6533 249.347 62.2267 247.293 60.52 244.68C58.8133 242.067 57.88 239.053 57.72 235.64H71.08C71.4 237.293 72.1733 238.68 73.4 239.8C74.6267 240.867 76.3067 241.4 78.44 241.4C80.9467 241.4 82.8133 240.6 84.04 239C85.2667 237.4 85.88 235.267 85.88 232.6C85.88 229.987 85.24 227.987 83.96 226.6C82.68 225.213 80.8133 224.52 78.36 224.52C76.5467 224.52 75.0533 224.973 73.88 225.88C72.7067 226.733 71.9333 227.88 71.56 229.32H58.36V194.52H95.72V206.52ZM121.671 193.8V253H107.991V193.8H121.671ZM128.865 230.6C128.865 226.013 129.718 221.987 131.425 218.52C133.185 215.053 135.558 212.387 138.545 210.52C141.532 208.653 144.865 207.72 148.545 207.72C151.692 207.72 154.438 208.36 156.785 209.64C159.185 210.92 161.025 212.6 162.305 214.68V208.36H175.985V253H162.305V246.68C160.972 248.76 159.105 250.44 156.705 251.72C154.358 253 151.612 253.64 148.465 253.64C144.838 253.64 141.532 252.707 138.545 250.84C135.558 248.92 133.185 246.227 131.425 242.76C129.718 239.24 128.865 235.187 128.865 230.6ZM162.305 230.68C162.305 227.267 161.345 224.573 159.425 222.6C157.558 220.627 155.265 219.64 152.545 219.64C149.825 219.64 147.505 220.627 145.585 222.6C143.718 224.52 142.785 227.187 142.785 230.6C142.785 234.013 143.718 236.733 145.585 238.76C147.505 240.733 149.825 241.72 152.545 241.72C155.265 241.72 157.558 240.733 159.425 238.76C161.345 236.787 162.305 234.093 162.305 230.68ZM213.162 253L199.562 234.28V253H185.882V193.8H199.562V226.52L213.082 208.36H229.962L211.402 230.76L230.122 253H213.162ZM262.775 207.88C267.895 207.88 272.002 209.587 275.095 213C278.188 216.36 279.735 221 279.735 226.92V253H266.135V228.76C266.135 225.773 265.362 223.453 263.815 221.8C262.268 220.147 260.188 219.32 257.575 219.32C254.962 219.32 252.882 220.147 251.335 221.8C249.788 223.453 249.015 225.773 249.015 228.76V253H235.335V193.8H249.015V214.36C250.402 212.387 252.295 210.813 254.695 209.64C257.095 208.467 259.788 207.88 262.775 207.88ZM329.801 231.16H315.881V245.4H302.921V231.16H289.001V218.92H302.921V204.6H315.881V218.92H329.801V231.16Z" fill="#6E00BE"/>
<path d="M356.218 230.68C356.218 226.2 357.098 222.227 358.858 218.76C360.671 215.293 363.098 212.627 366.138 210.76C369.231 208.893 372.671 207.96 376.458 207.96C379.765 207.96 382.645 208.627 385.098 209.96C387.605 211.293 389.605 212.973 391.098 215V208.68H402.378V253H391.098V246.52C389.658 248.6 387.658 250.333 385.098 251.72C382.591 253.053 379.685 253.72 376.378 253.72C372.645 253.72 369.231 252.76 366.138 250.84C363.098 248.92 360.671 246.227 358.858 242.76C357.098 239.24 356.218 235.213 356.218 230.68ZM391.098 230.84C391.098 228.12 390.565 225.8 389.498 223.88C388.431 221.907 386.991 220.413 385.178 219.4C383.365 218.333 381.418 217.8 379.338 217.8C377.258 217.8 375.338 218.307 373.578 219.32C371.818 220.333 370.378 221.827 369.258 223.8C368.191 225.72 367.658 228.013 367.658 230.68C367.658 233.347 368.191 235.693 369.258 237.72C370.378 239.693 371.818 241.213 373.578 242.28C375.391 243.347 377.311 243.88 379.338 243.88C381.418 243.88 383.365 243.373 385.178 242.36C386.991 241.293 388.431 239.8 389.498 237.88C390.565 235.907 391.098 233.56 391.098 230.84ZM410.437 230.84C410.437 226.253 411.37 222.253 413.237 218.84C415.104 215.373 417.69 212.707 420.997 210.84C424.304 208.92 428.09 207.96 432.357 207.96C437.85 207.96 442.384 209.347 445.957 212.12C449.584 214.84 452.01 218.68 453.237 223.64H441.157C440.517 221.72 439.424 220.227 437.877 219.16C436.384 218.04 434.517 217.48 432.277 217.48C429.077 217.48 426.544 218.653 424.677 221C422.81 223.293 421.877 226.573 421.877 230.84C421.877 235.053 422.81 238.333 424.677 240.68C426.544 242.973 429.077 244.12 432.277 244.12C436.81 244.12 439.77 242.093 441.157 238.04H453.237C452.01 242.84 449.584 246.653 445.957 249.48C442.33 252.307 437.797 253.72 432.357 253.72C428.09 253.72 424.304 252.787 420.997 250.92C417.69 249 415.104 246.333 413.237 242.92C411.37 239.453 410.437 235.427 410.437 230.84ZM474.482 217.88V239.32C474.482 240.813 474.829 241.907 475.522 242.6C476.269 243.24 477.495 243.56 479.202 243.56H484.402V253H477.362C467.922 253 463.202 248.413 463.202 239.24V217.88H457.922V208.68H463.202V197.72H474.482V208.68H484.402V217.88H474.482ZM498.138 203.4C496.164 203.4 494.511 202.787 493.178 201.56C491.898 200.28 491.258 198.707 491.258 196.84C491.258 194.973 491.898 193.427 493.178 192.2C494.511 190.92 496.164 190.28 498.138 190.28C500.111 190.28 501.738 190.92 503.018 192.2C504.351 193.427 505.018 194.973 505.018 196.84C505.018 198.707 504.351 200.28 503.018 201.56C501.738 202.787 500.111 203.4 498.138 203.4ZM503.658 208.68V253H492.458V208.68H503.658ZM533.203 242.68L544.403 208.68H556.323L539.923 253H526.323L510.003 208.68H522.003L533.203 242.68ZM603.814 229.88C603.814 231.48 603.707 232.92 603.494 234.2H571.094C571.36 237.4 572.48 239.907 574.454 241.72C576.427 243.533 578.854 244.44 581.734 244.44C585.894 244.44 588.854 242.653 590.614 239.08H602.694C601.414 243.347 598.96 246.867 595.334 249.64C591.707 252.36 587.254 253.72 581.974 253.72C577.707 253.72 573.867 252.787 570.454 250.92C567.094 249 564.454 246.307 562.534 242.84C560.667 239.373 559.734 235.373 559.734 230.84C559.734 226.253 560.667 222.227 562.534 218.76C564.4 215.293 567.014 212.627 570.374 210.76C573.734 208.893 577.6 207.96 581.974 207.96C586.187 207.96 589.947 208.867 593.254 210.68C596.614 212.493 599.2 215.08 601.014 218.44C602.88 221.747 603.814 225.56 603.814 229.88ZM592.214 226.68C592.16 223.8 591.12 221.507 589.094 219.8C587.067 218.04 584.587 217.16 581.654 217.16C578.88 217.16 576.534 218.013 574.614 219.72C572.747 221.373 571.6 223.693 571.174 226.68H592.214ZM663.611 197.16V236.36C663.611 241.8 662.038 246.04 658.891 249.08C655.745 252.067 651.531 253.56 646.251 253.56C640.918 253.56 636.598 252.013 633.291 248.92C630.038 245.827 628.411 241.507 628.411 235.96H639.611C639.665 238.36 640.225 240.227 641.291 241.56C642.411 242.893 644.011 243.56 646.091 243.56C648.118 243.56 649.665 242.92 650.731 241.64C651.798 240.36 652.331 238.6 652.331 236.36V197.16H663.611ZM696.356 253.72C692.09 253.72 688.25 252.787 684.836 250.92C681.423 249 678.73 246.307 676.756 242.84C674.836 239.373 673.876 235.373 673.876 230.84C673.876 226.307 674.863 222.307 676.836 218.84C678.863 215.373 681.61 212.707 685.076 210.84C688.543 208.92 692.41 207.96 696.676 207.96C700.943 207.96 704.81 208.92 708.276 210.84C711.743 212.707 714.463 215.373 716.436 218.84C718.463 222.307 719.476 226.307 719.476 230.84C719.476 235.373 718.436 239.373 716.356 242.84C714.33 246.307 711.556 249 708.036 250.92C704.57 252.787 700.676 253.72 696.356 253.72ZM696.356 243.96C698.383 243.96 700.276 243.48 702.036 242.52C703.85 241.507 705.29 240.013 706.356 238.04C707.423 236.067 707.956 233.667 707.956 230.84C707.956 226.627 706.836 223.4 704.596 221.16C702.41 218.867 699.716 217.72 696.516 217.72C693.316 217.72 690.623 218.867 688.436 221.16C686.303 223.4 685.236 226.627 685.236 230.84C685.236 235.053 686.276 238.307 688.356 240.6C690.49 242.84 693.156 243.96 696.356 243.96ZM738.892 215.16C740.332 213.027 742.305 211.293 744.812 209.96C747.372 208.627 750.279 207.96 753.532 207.96C757.319 207.96 760.732 208.893 763.772 210.76C766.865 212.627 769.292 215.293 771.052 218.76C772.865 222.173 773.772 226.147 773.772 230.68C773.772 235.213 772.865 239.24 771.052 242.76C769.292 246.227 766.865 248.92 763.772 250.84C760.732 252.76 757.319 253.72 753.532 253.72C750.225 253.72 747.319 253.08 744.812 251.8C742.359 250.467 740.385 248.76 738.892 246.68V253H727.692V193.8H738.892V215.16ZM762.332 230.68C762.332 228.013 761.772 225.72 760.652 223.8C759.585 221.827 758.145 220.333 756.332 219.32C754.572 218.307 752.652 217.8 750.572 217.8C748.545 217.8 746.625 218.333 744.812 219.4C743.052 220.413 741.612 221.907 740.492 223.88C739.425 225.853 738.892 228.173 738.892 230.84C738.892 233.507 739.425 235.827 740.492 237.8C741.612 239.773 743.052 241.293 744.812 242.36C746.625 243.373 748.545 243.88 750.572 243.88C752.652 243.88 754.572 243.347 756.332 242.28C758.145 241.213 759.585 239.693 760.652 237.72C761.772 235.747 762.332 233.4 762.332 230.68ZM798.871 253.72C795.244 253.72 791.991 253.08 789.111 251.8C786.231 250.467 783.937 248.68 782.231 246.44C780.577 244.2 779.671 241.72 779.511 239H790.791C791.004 240.707 791.831 242.12 793.271 243.24C794.764 244.36 796.604 244.92 798.791 244.92C800.924 244.92 802.577 244.493 803.751 243.64C804.977 242.787 805.591 241.693 805.591 240.36C805.591 238.92 804.844 237.853 803.351 237.16C801.911 236.413 799.591 235.613 796.391 234.76C793.084 233.96 790.364 233.133 788.231 232.28C786.151 231.427 784.337 230.12 782.791 228.36C781.297 226.6 780.551 224.227 780.551 221.24C780.551 218.787 781.244 216.547 782.631 214.52C784.071 212.493 786.097 210.893 788.711 209.72C791.377 208.547 794.497 207.96 798.071 207.96C803.351 207.96 807.564 209.293 810.711 211.96C813.857 214.573 815.591 218.12 815.911 222.6H805.191C805.031 220.84 804.284 219.453 802.951 218.44C801.671 217.373 799.937 216.84 797.751 216.84C795.724 216.84 794.151 217.213 793.031 217.96C791.964 218.707 791.431 219.747 791.431 221.08C791.431 222.573 792.177 223.72 793.671 224.52C795.164 225.267 797.484 226.04 800.631 226.84C803.831 227.64 806.471 228.467 808.551 229.32C810.631 230.173 812.417 231.507 813.911 233.32C815.457 235.08 816.257 237.427 816.311 240.36C816.311 242.92 815.591 245.213 814.151 247.24C812.764 249.267 810.737 250.867 808.071 252.04C805.457 253.16 802.391 253.72 798.871 253.72ZM864.887 217.88H857.127V253H845.767V217.88H840.727V208.68H845.767V206.44C845.767 201 847.314 197 850.407 194.44C853.5 191.88 858.167 190.68 864.407 190.84V200.28C861.687 200.227 859.794 200.68 858.727 201.64C857.66 202.6 857.127 204.333 857.127 206.84V208.68H864.887V217.88ZM891.825 253.72C887.558 253.72 883.718 252.787 880.305 250.92C876.892 249 874.198 246.307 872.225 242.84C870.305 239.373 869.345 235.373 869.345 230.84C869.345 226.307 870.332 222.307 872.305 218.84C874.332 215.373 877.078 212.707 880.545 210.84C884.012 208.92 887.878 207.96 892.145 207.96C896.412 207.96 900.278 208.92 903.745 210.84C907.212 212.707 909.932 215.373 911.905 218.84C913.932 222.307 914.945 226.307 914.945 230.84C914.945 235.373 913.905 239.373 911.825 242.84C909.798 246.307 907.025 249 903.505 250.92C900.038 252.787 896.145 253.72 891.825 253.72ZM891.825 243.96C893.852 243.96 895.745 243.48 897.505 242.52C899.318 241.507 900.758 240.013 901.825 238.04C902.892 236.067 903.425 233.667 903.425 230.84C903.425 226.627 902.305 223.4 900.065 221.16C897.878 218.867 895.185 217.72 891.985 217.72C888.785 217.72 886.092 218.867 883.905 221.16C881.772 223.4 880.705 226.627 880.705 230.84C880.705 235.053 881.745 238.307 883.825 240.6C885.958 242.84 888.625 243.96 891.825 243.96ZM934.361 215.56C935.801 213.213 937.667 211.373 939.961 210.04C942.307 208.707 944.974 208.04 947.961 208.04V219.8H945.001C941.481 219.8 938.814 220.627 937.001 222.28C935.241 223.933 934.361 226.813 934.361 230.92V253H923.161V208.68H934.361V215.56ZM53.64 340.68C53.64 336.2 54.52 332.227 56.28 328.76C58.0933 325.293 60.52 322.627 63.56 320.76C66.6533 318.893 70.0933 317.96 73.88 317.96C77.1867 317.96 80.0667 318.627 82.52 319.96C85.0267 321.293 87.0267 322.973 88.52 325V318.68H99.8V363H88.52V356.52C87.08 358.6 85.08 360.333 82.52 361.72C80.0133 363.053 77.1067 363.72 73.8 363.72C70.0667 363.72 66.6533 362.76 63.56 360.84C60.52 358.92 58.0933 356.227 56.28 352.76C54.52 349.24 53.64 345.213 53.64 340.68ZM88.52 340.84C88.52 338.12 87.9867 335.8 86.92 333.88C85.8533 331.907 84.4133 330.413 82.6 329.4C80.7867 328.333 78.84 327.8 76.76 327.8C74.68 327.8 72.76 328.307 71 329.32C69.24 330.333 67.8 331.827 66.68 333.8C65.6133 335.72 65.08 338.013 65.08 340.68C65.08 343.347 65.6133 345.693 66.68 347.72C67.8 349.693 69.24 351.213 71 352.28C72.8133 353.347 74.7333 353.88 76.76 353.88C78.84 353.88 80.7867 353.373 82.6 352.36C84.4133 351.293 85.8533 349.8 86.92 347.88C87.9867 345.907 88.52 343.56 88.52 340.84ZM121.939 303.8V363H110.739V303.8H121.939ZM144.204 303.8V363H133.004V303.8H144.204ZM191.693 317.96C194.999 317.96 197.906 318.627 200.413 319.96C202.919 321.24 204.893 322.92 206.333 325V318.68H217.613V363.32C217.613 367.427 216.786 371.08 215.133 374.28C213.479 377.533 210.999 380.093 207.693 381.96C204.386 383.88 200.386 384.84 195.693 384.84C189.399 384.84 184.226 383.373 180.173 380.44C176.173 377.507 173.906 373.507 173.373 368.44H184.493C185.079 370.467 186.333 372.067 188.253 373.24C190.226 374.467 192.599 375.08 195.373 375.08C198.626 375.08 201.266 374.093 203.293 372.12C205.319 370.2 206.333 367.267 206.333 363.32V356.44C204.893 358.52 202.893 360.253 200.333 361.64C197.826 363.027 194.946 363.72 191.693 363.72C187.959 363.72 184.546 362.76 181.453 360.84C178.359 358.92 175.906 356.227 174.092 352.76C172.332 349.24 171.452 345.213 171.452 340.68C171.452 336.2 172.332 332.227 174.092 328.76C175.906 325.293 178.333 322.627 181.373 320.76C184.466 318.893 187.906 317.96 191.693 317.96ZM206.333 340.84C206.333 338.12 205.799 335.8 204.733 333.88C203.666 331.907 202.226 330.413 200.413 329.4C198.599 328.333 196.653 327.8 194.573 327.8C192.493 327.8 190.573 328.307 188.812 329.32C187.053 330.333 185.613 331.827 184.493 333.8C183.426 335.72 182.893 338.013 182.893 340.68C182.893 343.347 183.426 345.693 184.493 347.72C185.613 349.693 187.053 351.213 188.812 352.28C190.626 353.347 192.546 353.88 194.573 353.88C196.653 353.88 198.599 353.373 200.413 352.36C202.226 351.293 203.666 349.8 204.733 347.88C205.799 345.907 206.333 343.56 206.333 340.84ZM239.751 325.56C241.191 323.213 243.058 321.373 245.351 320.04C247.698 318.707 250.365 318.04 253.351 318.04V329.8H250.391C246.871 329.8 244.205 330.627 242.391 332.28C240.631 333.933 239.751 336.813 239.751 340.92V363H228.551V318.68H239.751V325.56ZM258.015 340.68C258.015 336.2 258.895 332.227 260.655 328.76C262.468 325.293 264.895 322.627 267.935 320.76C271.028 318.893 274.468 317.96 278.255 317.96C281.562 317.96 284.442 318.627 286.895 319.96C289.402 321.293 291.402 322.973 292.895 325V318.68H304.175V363H292.895V356.52C291.455 358.6 289.455 360.333 286.895 361.72C284.388 363.053 281.482 363.72 278.175 363.72C274.442 363.72 271.028 362.76 267.935 360.84C264.895 358.92 262.468 356.227 260.655 352.76C258.895 349.24 258.015 345.213 258.015 340.68ZM292.895 340.84C292.895 338.12 292.362 335.8 291.295 333.88C290.228 331.907 288.788 330.413 286.975 329.4C285.162 328.333 283.215 327.8 281.135 327.8C279.055 327.8 277.135 328.307 275.375 329.32C273.615 330.333 272.175 331.827 271.055 333.8C269.988 335.72 269.455 338.013 269.455 340.68C269.455 343.347 269.988 345.693 271.055 347.72C272.175 349.693 273.615 351.213 275.375 352.28C277.188 353.347 279.108 353.88 281.135 353.88C283.215 353.88 285.162 353.373 286.975 352.36C288.788 351.293 290.228 349.8 291.295 347.88C292.362 345.907 292.895 343.56 292.895 340.84ZM312.234 340.68C312.234 336.2 313.114 332.227 314.874 328.76C316.687 325.293 319.14 322.627 322.234 320.76C325.327 318.893 328.767 317.96 332.554 317.96C335.434 317.96 338.18 318.6 340.794 319.88C343.407 321.107 345.487 322.76 347.034 324.84V303.8H358.394V363H347.034V356.44C345.647 358.627 343.7 360.387 341.194 361.72C338.687 363.053 335.78 363.72 332.474 363.72C328.74 363.72 325.327 362.76 322.234 360.84C319.14 358.92 316.687 356.227 314.874 352.76C313.114 349.24 312.234 345.213 312.234 340.68ZM347.114 340.84C347.114 338.12 346.58 335.8 345.514 333.88C344.447 331.907 343.007 330.413 341.194 329.4C339.38 328.333 337.434 327.8 335.354 327.8C333.274 327.8 331.354 328.307 329.594 329.32C327.834 330.333 326.394 331.827 325.274 333.8C324.207 335.72 323.674 338.013 323.674 340.68C323.674 343.347 324.207 345.693 325.274 347.72C326.394 349.693 327.834 351.213 329.594 352.28C331.407 353.347 333.327 353.88 335.354 353.88C337.434 353.88 339.38 353.373 341.194 352.36C343.007 351.293 344.447 349.8 345.514 347.88C346.58 345.907 347.114 343.56 347.114 340.84ZM411.173 318.68V363H399.893V357.4C398.453 359.32 396.559 360.84 394.213 361.96C391.919 363.027 389.413 363.56 386.693 363.56C383.226 363.56 380.159 362.84 377.493 361.4C374.826 359.907 372.719 357.747 371.173 354.92C369.679 352.04 368.933 348.627 368.933 344.68V318.68H380.133V343.08C380.133 346.6 381.013 349.32 382.773 351.24C384.533 353.107 386.933 354.04 389.973 354.04C393.066 354.04 395.493 353.107 397.253 351.24C399.013 349.32 399.893 346.6 399.893 343.08V318.68H411.173ZM419.343 340.68C419.343 336.2 420.223 332.227 421.983 328.76C423.796 325.293 426.223 322.627 429.263 320.76C432.356 318.893 435.796 317.96 439.583 317.96C442.89 317.96 445.77 318.627 448.223 319.96C450.73 321.293 452.73 322.973 454.223 325V318.68H465.503V363H454.223V356.52C452.783 358.6 450.783 360.333 448.223 361.72C445.716 363.053 442.81 363.72 439.503 363.72C435.77 363.72 432.356 362.76 429.263 360.84C426.223 358.92 423.796 356.227 421.983 352.76C420.223 349.24 419.343 345.213 419.343 340.68ZM454.223 340.84C454.223 338.12 453.69 335.8 452.623 333.88C451.556 331.907 450.116 330.413 448.303 329.4C446.49 328.333 444.543 327.8 442.463 327.8C440.383 327.8 438.463 328.307 436.703 329.32C434.943 330.333 433.503 331.827 432.383 333.8C431.316 335.72 430.783 338.013 430.783 340.68C430.783 343.347 431.316 345.693 432.383 347.72C433.503 349.693 434.943 351.213 436.703 352.28C438.516 353.347 440.436 353.88 442.463 353.88C444.543 353.88 446.49 353.373 448.303 352.36C450.116 351.293 451.556 349.8 452.623 347.88C453.69 345.907 454.223 343.56 454.223 340.84ZM489.482 327.88V349.32C489.482 350.813 489.829 351.907 490.522 352.6C491.269 353.24 492.495 353.56 494.202 353.56H499.402V363H492.362C482.922 363 478.202 358.413 478.202 349.24V327.88H472.922V318.68H478.202V307.72H489.482V318.68H499.402V327.88H489.482ZM548.658 339.88C548.658 341.48 548.551 342.92 548.338 344.2H515.938C516.204 347.4 517.324 349.907 519.298 351.72C521.271 353.533 523.698 354.44 526.578 354.44C530.738 354.44 533.698 352.653 535.458 349.08H547.538C546.258 353.347 543.804 356.867 540.178 359.64C536.551 362.36 532.098 363.72 526.818 363.72C522.551 363.72 518.711 362.787 515.298 360.92C511.938 359 509.298 356.307 507.378 352.84C505.511 349.373 504.577 345.373 504.577 340.84C504.577 336.253 505.511 332.227 507.378 328.76C509.244 325.293 511.858 322.627 515.218 320.76C518.578 318.893 522.444 317.96 526.818 317.96C531.031 317.96 534.791 318.867 538.098 320.68C541.458 322.493 544.044 325.08 545.858 328.44C547.724 331.747 548.658 335.56 548.658 339.88ZM537.058 336.68C537.004 333.8 535.964 331.507 533.938 329.8C531.911 328.04 529.431 327.16 526.498 327.16C523.724 327.16 521.378 328.013 519.458 329.72C517.591 331.373 516.444 333.693 516.018 336.68H537.058ZM573.793 363.72C570.166 363.72 566.913 363.08 564.033 361.8C561.153 360.467 558.859 358.68 557.153 356.44C555.499 354.2 554.593 351.72 554.433 349H565.713C565.926 350.707 566.753 352.12 568.193 353.24C569.686 354.36 571.526 354.92 573.713 354.92C575.846 354.92 577.499 354.493 578.673 353.64C579.899 352.787 580.513 351.693 580.513 350.36C580.513 348.92 579.766 347.853 578.273 347.16C576.833 346.413 574.513 345.613 571.312 344.76C568.006 343.96 565.286 343.133 563.153 342.28C561.073 341.427 559.259 340.12 557.713 338.36C556.219 336.6 555.473 334.227 555.473 331.24C555.473 328.787 556.166 326.547 557.553 324.52C558.993 322.493 561.019 320.893 563.633 319.72C566.299 318.547 569.419 317.96 572.993 317.96C578.273 317.96 582.486 319.293 585.633 321.96C588.779 324.573 590.513 328.12 590.833 332.6H580.113C579.953 330.84 579.206 329.453 577.873 328.44C576.593 327.373 574.859 326.84 572.673 326.84C570.646 326.84 569.073 327.213 567.953 327.96C566.886 328.707 566.353 329.747 566.353 331.08C566.353 332.573 567.099 333.72 568.593 334.52C570.086 335.267 572.406 336.04 575.553 336.84C578.753 337.64 581.393 338.467 583.473 339.32C585.553 340.173 587.339 341.507 588.833 343.32C590.379 345.08 591.179 347.427 591.233 350.36C591.233 352.92 590.513 355.213 589.073 357.24C587.686 359.267 585.659 360.867 582.993 362.04C580.379 363.16 577.313 363.72 573.793 363.72ZM605.386 363.56C603.36 363.56 601.68 362.947 600.346 361.72C599.066 360.44 598.426 358.867 598.426 357C598.426 355.133 599.066 353.587 600.346 352.36C601.68 351.08 603.36 350.44 605.386 350.44C607.36 350.44 608.986 351.08 610.266 352.36C611.546 353.587 612.186 355.133 612.186 357C612.186 358.867 611.546 360.44 610.266 361.72C608.986 362.947 607.36 363.56 605.386 363.56Z" fill="black"/>
<rect x="51" y="452" width="314" height="71" rx="35.5" fill="#6E00BE"/>
<path d="M110.92 493.744H102.024L100.552 498H95.8476L103.88 475.632H109.096L117.128 498H112.392L110.92 493.744ZM109.704 490.16L106.472 480.816L103.24 490.16H109.704ZM124.61 482.832C125.186 482.021 125.975 481.349 126.978 480.816C128.002 480.261 129.165 479.984 130.466 479.984C131.981 479.984 133.346 480.357 134.562 481.104C135.799 481.851 136.77 482.917 137.474 484.304C138.199 485.669 138.562 487.259 138.562 489.072C138.562 490.885 138.199 492.496 137.474 493.904C136.77 495.291 135.799 496.368 134.562 497.136C133.346 497.904 131.981 498.288 130.466 498.288C129.165 498.288 128.013 498.021 127.01 497.488C126.029 496.955 125.229 496.283 124.61 495.472V506.448H120.13V480.272H124.61V482.832ZM133.986 489.072C133.986 488.005 133.762 487.088 133.314 486.32C132.887 485.531 132.311 484.933 131.586 484.528C130.882 484.123 130.114 483.92 129.282 483.92C128.471 483.92 127.703 484.133 126.978 484.56C126.274 484.965 125.698 485.563 125.25 486.352C124.823 487.141 124.61 488.069 124.61 489.136C124.61 490.203 124.823 491.131 125.25 491.92C125.698 492.709 126.274 493.317 126.978 493.744C127.703 494.149 128.471 494.352 129.282 494.352C130.114 494.352 130.882 494.139 131.586 493.712C132.311 493.285 132.887 492.677 133.314 491.888C133.762 491.099 133.986 490.16 133.986 489.072ZM146.297 482.832C146.873 482.021 147.663 481.349 148.665 480.816C149.689 480.261 150.852 479.984 152.153 479.984C153.668 479.984 155.033 480.357 156.249 481.104C157.487 481.851 158.457 482.917 159.161 484.304C159.887 485.669 160.249 487.259 160.249 489.072C160.249 490.885 159.887 492.496 159.161 493.904C158.457 495.291 157.487 496.368 156.249 497.136C155.033 497.904 153.668 498.288 152.153 498.288C150.852 498.288 149.7 498.021 148.697 497.488C147.716 496.955 146.916 496.283 146.297 495.472V506.448H141.817V480.272H146.297V482.832ZM155.673 489.072C155.673 488.005 155.449 487.088 155.001 486.32C154.575 485.531 153.999 484.933 153.273 484.528C152.569 484.123 151.801 483.92 150.969 483.92C150.159 483.92 149.391 484.133 148.665 484.56C147.961 484.965 147.385 485.563 146.937 486.352C146.511 487.141 146.297 488.069 146.297 489.136C146.297 490.203 146.511 491.131 146.937 491.92C147.385 492.709 147.961 493.317 148.665 493.744C149.391 494.149 150.159 494.352 150.969 494.352C151.801 494.352 152.569 494.139 153.273 493.712C153.999 493.285 154.575 492.677 155.001 491.888C155.449 491.099 155.673 490.16 155.673 489.072ZM167.985 474.32V498H163.505V474.32H167.985ZM189.371 480.272L178.395 506.384H173.627L177.467 497.552L170.363 480.272H175.387L179.963 492.656L184.603 480.272H189.371ZM207.539 483.952H204.435V498H199.891V483.952H197.875V480.272H199.891V479.376C199.891 477.2 200.51 475.6 201.747 474.576C202.984 473.552 204.851 473.072 207.347 473.136V476.912C206.259 476.891 205.502 477.072 205.075 477.456C204.648 477.84 204.435 478.533 204.435 479.536V480.272H207.539V483.952ZM218.314 498.288C216.608 498.288 215.072 497.915 213.706 497.168C212.341 496.4 211.264 495.323 210.474 493.936C209.706 492.549 209.322 490.949 209.322 489.136C209.322 487.323 209.717 485.723 210.506 484.336C211.317 482.949 212.416 481.883 213.802 481.136C215.189 480.368 216.736 479.984 218.442 479.984C220.149 479.984 221.696 480.368 223.082 481.136C224.469 481.883 225.557 482.949 226.346 484.336C227.157 485.723 227.562 487.323 227.562 489.136C227.562 490.949 227.146 492.549 226.314 493.936C225.504 495.323 224.394 496.4 222.986 497.168C221.6 497.915 220.042 498.288 218.314 498.288ZM218.314 494.384C219.125 494.384 219.882 494.192 220.586 493.808C221.312 493.403 221.888 492.805 222.314 492.016C222.741 491.227 222.954 490.267 222.954 489.136C222.954 487.451 222.506 486.16 221.61 485.264C220.736 484.347 219.658 483.888 218.378 483.888C217.098 483.888 216.021 484.347 215.146 485.264C214.293 486.16 213.866 487.451 213.866 489.136C213.866 490.821 214.282 492.123 215.114 493.04C215.968 493.936 217.034 494.384 218.314 494.384ZM235.329 483.024C235.905 482.085 236.651 481.349 237.569 480.816C238.507 480.283 239.574 480.016 240.769 480.016V484.72H239.585C238.177 484.72 237.11 485.051 236.385 485.712C235.681 486.373 235.329 487.525 235.329 489.168V498H230.849V480.272H235.329V483.024ZM259.539 483.952H256.435V498H251.891V483.952H249.875V480.272H251.891V479.376C251.891 477.2 252.51 475.6 253.747 474.576C254.984 473.552 256.851 473.072 259.347 473.136V476.912C258.259 476.891 257.502 477.072 257.075 477.456C256.648 477.84 256.435 478.533 256.435 479.536V480.272H259.539V483.952ZM266.922 483.024C267.498 482.085 268.245 481.349 269.162 480.816C270.101 480.283 271.168 480.016 272.362 480.016V484.72H271.178C269.77 484.72 268.704 485.051 267.978 485.712C267.274 486.373 266.922 487.525 266.922 489.168V498H262.442V480.272H266.922V483.024ZM291.86 488.752C291.86 489.392 291.817 489.968 291.732 490.48H278.772C278.879 491.76 279.327 492.763 280.116 493.488C280.905 494.213 281.876 494.576 283.028 494.576C284.692 494.576 285.876 493.861 286.58 492.432H291.412C290.9 494.139 289.919 495.547 288.468 496.656C287.017 497.744 285.236 498.288 283.124 498.288C281.417 498.288 279.881 497.915 278.516 497.168C277.172 496.4 276.116 495.323 275.348 493.936C274.601 492.549 274.228 490.949 274.228 489.136C274.228 487.301 274.601 485.691 275.348 484.304C276.095 482.917 277.14 481.851 278.484 481.104C279.828 480.357 281.375 479.984 283.124 479.984C284.809 479.984 286.313 480.347 287.636 481.072C288.98 481.797 290.015 482.832 290.74 484.176C291.487 485.499 291.86 487.024 291.86 488.752ZM287.22 487.472C287.199 486.32 286.783 485.403 285.972 484.72C285.161 484.016 284.169 483.664 282.996 483.664C281.887 483.664 280.948 484.005 280.18 484.688C279.433 485.349 278.975 486.277 278.804 487.472H287.22ZM311.61 488.752C311.61 489.392 311.567 489.968 311.482 490.48H298.522C298.629 491.76 299.077 492.763 299.866 493.488C300.655 494.213 301.626 494.576 302.778 494.576C304.442 494.576 305.626 493.861 306.33 492.432H311.162C310.65 494.139 309.669 495.547 308.218 496.656C306.767 497.744 304.986 498.288 302.874 498.288C301.167 498.288 299.631 497.915 298.266 497.168C296.922 496.4 295.866 495.323 295.098 493.936C294.351 492.549 293.978 490.949 293.978 489.136C293.978 487.301 294.351 485.691 295.098 484.304C295.845 482.917 296.89 481.851 298.234 481.104C299.578 480.357 301.125 479.984 302.874 479.984C304.559 479.984 306.063 480.347 307.386 481.072C308.73 481.797 309.765 482.832 310.49 484.176C311.237 485.499 311.61 487.024 311.61 488.752ZM306.97 487.472C306.949 486.32 306.533 485.403 305.722 484.72C304.911 484.016 303.919 483.664 302.746 483.664C301.637 483.664 300.698 484.005 299.93 484.688C299.183 485.349 298.725 486.277 298.554 487.472H306.97ZM316.864 498.224C316.053 498.224 315.381 497.979 314.848 497.488C314.336 496.976 314.08 496.347 314.08 495.6C314.08 494.853 314.336 494.235 314.848 493.744C315.381 493.232 316.053 492.976 316.864 492.976C317.653 492.976 318.304 493.232 318.816 493.744C319.328 494.235 319.584 494.853 319.584 495.6C319.584 496.347 319.328 496.976 318.816 497.488C318.304 497.979 317.653 498.224 316.864 498.224Z" fill="white"/>
</svg>
