<svg xmlns="http://www.w3.org/2000/svg" width="489" height="90" fill="none"><g clip-path="url(#a)"><path fill="#fff" d="M0 0h489v90H0z"/><mask id="b" width="300" height="63" x="1" y="18" fill="#000" maskUnits="userSpaceOnUse"><path fill="#fff" d="M1 18h300v63H1z"/><path d="M19.759 66.692c-3.54 0-6.579-.777-9.118-2.33-2.524-1.555-4.47-3.702-5.84-6.44-1.354-2.755-2.031-5.925-2.031-9.51 0-3.602.692-6.78 2.077-9.534 1.385-2.77 3.34-4.924 5.863-6.463 2.54-1.554 5.54-2.331 9.002-2.331 2.878 0 5.425.53 7.64 1.593 2.232 1.046 4.01 2.53 5.333 4.454 1.323 1.908 2.077 4.14 2.262 6.694H26.96c-.323-1.708-1.092-3.131-2.308-4.27-1.2-1.154-2.808-1.731-4.824-1.731-1.708 0-3.209.462-4.501 1.385-1.293.908-2.3 2.216-3.024 3.924-.708 1.708-1.062 3.755-1.062 6.14 0 2.416.354 4.493 1.062 6.232.708 1.723 1.7 3.054 2.977 3.993 1.293.924 2.809 1.385 4.548 1.385 1.23 0 2.331-.23 3.3-.692a6.638 6.638 0 0 0 2.47-2.055c.662-.892 1.116-1.977 1.362-3.254h7.987c-.2 2.508-.939 4.732-2.216 6.67-1.277 1.924-3.016 3.432-5.217 4.525-2.2 1.077-4.785 1.615-7.755 1.615Zm32.251.024c-2.246 0-4.27-.4-6.07-1.2-1.785-.816-3.201-2.017-4.247-3.602-1.032-1.585-1.547-3.539-1.547-5.863 0-2 .37-3.654 1.108-4.962a8.574 8.574 0 0 1 3.024-3.14c1.277-.784 2.716-1.377 4.316-1.777a35.107 35.107 0 0 1 5.01-.9c2.077-.215 3.761-.408 5.054-.577 1.293-.185 2.231-.462 2.816-.831.6-.385.9-.977.9-1.777v-.139c0-1.739-.515-3.085-1.546-4.04-1.031-.953-2.516-1.43-4.455-1.43-2.047 0-3.67.446-4.87 1.338-1.185.893-1.986 1.947-2.401 3.163L41.3 39.87c.616-2.155 1.631-3.955 3.047-5.402 1.416-1.461 3.147-2.554 5.194-3.277 2.046-.739 4.308-1.108 6.786-1.108 1.708 0 3.408.2 5.101.6 1.693.4 3.24 1.062 4.64 1.985 1.4.908 2.523 2.147 3.37 3.716.861 1.57 1.292 3.532 1.292 5.886V66h-8.033v-4.87h-.277c-.507.984-1.223 1.908-2.146 2.77-.908.846-2.055 1.53-3.44 2.054-1.369.508-2.977.762-4.824.762Zm2.17-6.14c1.678 0 3.132-.331 4.363-.993 1.23-.677 2.177-1.57 2.839-2.677a6.82 6.82 0 0 0 1.016-3.624v-4.178c-.262.215-.708.415-1.34.6-.615.184-1.307.346-2.077.485-.77.138-1.53.261-2.285.369-.754.108-1.408.2-1.962.277-1.246.17-2.362.446-3.347.83-.985.386-1.762.924-2.331 1.617-.57.677-.854 1.554-.854 2.631 0 1.539.562 2.7 1.685 3.485 1.123.785 2.554 1.178 4.293 1.178ZM79.132 66V30.546h8.102v5.909h.37c.646-2.047 1.754-3.624 3.323-4.732 1.585-1.124 3.393-1.685 5.425-1.685.461 0 .977.023 1.546.069.585.03 1.07.085 1.454.162v7.686c-.354-.123-.915-.23-1.685-.323a15.506 15.506 0 0 0-2.192-.162c-1.524 0-2.893.331-4.11.993a7.263 7.263 0 0 0-2.838 2.7c-.693 1.155-1.039 2.486-1.039 3.994V66h-8.356Zm40.008.692c-3.555 0-6.625-.738-9.21-2.215-2.57-1.493-4.547-3.601-5.932-6.325-1.385-2.74-2.078-5.963-2.078-9.672 0-3.646.693-6.847 2.078-9.602 1.4-2.77 3.354-4.924 5.863-6.463 2.508-1.554 5.455-2.331 8.84-2.331 2.185 0 4.247.354 6.186 1.062a13.98 13.98 0 0 1 5.171 3.231c1.508 1.462 2.693 3.324 3.554 5.586.862 2.247 1.293 4.924 1.293 8.033v2.562h-29.061v-5.632h21.051c-.015-1.6-.361-3.024-1.038-4.27a7.557 7.557 0 0 0-2.839-2.978c-1.201-.723-2.601-1.085-4.201-1.085-1.709 0-3.209.415-4.501 1.246a8.584 8.584 0 0 0-3.024 3.232c-.708 1.323-1.07 2.778-1.085 4.363v4.916c0 2.062.377 3.832 1.131 5.31.754 1.461 1.808 2.584 3.162 3.37 1.354.768 2.939 1.153 4.755 1.153 1.216 0 2.316-.169 3.301-.508a7.32 7.32 0 0 0 2.562-1.546c.723-.677 1.27-1.516 1.639-2.516l7.802.877c-.493 2.062-1.431 3.862-2.816 5.401-1.37 1.524-3.124 2.709-5.263 3.555-2.139.831-4.586 1.246-7.34 1.246Zm38.53 0c-3.555 0-6.625-.738-9.21-2.215-2.57-1.493-4.547-3.601-5.932-6.325-1.385-2.74-2.077-5.963-2.077-9.672 0-3.646.692-6.847 2.077-9.602 1.4-2.77 3.355-4.924 5.863-6.463 2.508-1.554 5.455-2.331 8.84-2.331 2.186 0 4.248.354 6.187 1.062a13.985 13.985 0 0 1 5.17 3.231c1.508 1.462 2.693 3.324 3.555 5.586.861 2.247 1.292 4.924 1.292 8.033v2.562h-29.06v-5.632h21.051c-.016-1.6-.362-3.024-1.039-4.27a7.55 7.55 0 0 0-2.839-2.978c-1.2-.723-2.601-1.085-4.201-1.085-1.708 0-3.209.415-4.501 1.246a8.584 8.584 0 0 0-3.024 3.232c-.708 1.323-1.069 2.778-1.085 4.363v4.916c0 2.062.377 3.832 1.131 5.31.754 1.461 1.808 2.584 3.162 3.37 1.355.768 2.94 1.153 4.755 1.153 1.216 0 2.316-.169 3.301-.508a7.32 7.32 0 0 0 2.562-1.546c.724-.677 1.27-1.516 1.639-2.516l7.802.877c-.492 2.062-1.431 3.862-2.816 5.401-1.37 1.524-3.124 2.709-5.263 3.555-2.139.831-4.585 1.246-7.34 1.246ZM180.504 66V30.546h8.102v5.909h.369c.647-2.047 1.755-3.624 3.324-4.732 1.585-1.124 3.393-1.685 5.425-1.685.461 0 .977.023 1.546.069.585.03 1.07.085 1.454.162v7.686c-.353-.123-.915-.23-1.685-.323a15.505 15.505 0 0 0-2.192-.162c-1.524 0-2.893.331-4.109.993a7.261 7.261 0 0 0-2.839 2.7c-.693 1.155-1.039 2.486-1.039 3.994V66h-8.356Zm53.794-26.083-7.617.83a6.14 6.14 0 0 0-1.131-2.169c-.524-.677-1.232-1.223-2.124-1.639-.893-.415-1.985-.623-3.278-.623-1.739 0-3.2.377-4.385 1.131-1.17.754-1.747 1.731-1.732 2.931-.015 1.032.362 1.87 1.131 2.517.785.646 2.078 1.177 3.878 1.592l6.048 1.293c3.355.723 5.847 1.87 7.479 3.44 1.646 1.569 2.477 3.623 2.492 6.162-.015 2.231-.669 4.201-1.962 5.91-1.277 1.692-3.054 3.015-5.332 3.97-2.277.953-4.893 1.43-7.848 1.43-4.339 0-7.832-.907-10.479-2.723-2.647-1.831-4.224-4.378-4.732-7.64l8.148-.785c.37 1.6 1.154 2.808 2.355 3.624 1.2.815 2.762 1.223 4.685 1.223 1.985 0 3.578-.408 4.778-1.223 1.216-.816 1.824-1.824 1.824-3.024 0-1.016-.392-1.855-1.177-2.516-.77-.662-1.97-1.17-3.601-1.524l-6.048-1.27c-3.401-.707-5.917-1.9-7.548-3.577-1.631-1.693-2.439-3.832-2.423-6.417-.016-2.185.577-4.078 1.777-5.678 1.216-1.616 2.901-2.862 5.055-3.74 2.17-.892 4.67-1.338 7.502-1.338 4.155 0 7.425.885 9.81 2.654 2.4 1.77 3.885 4.163 4.455 7.179Zm37.359 39.332c-4.848 0-9.156-.661-12.927-1.985-3.754-1.308-6.924-3.239-9.509-5.793-2.586-2.54-4.548-5.64-5.886-9.303-1.339-3.662-2.016-7.848-2.032-12.556.016-4.602.7-8.749 2.055-12.442 1.354-3.709 3.331-6.879 5.932-9.51 2.6-2.647 5.778-4.678 9.533-6.094 3.755-1.415 8.025-2.123 12.811-2.123 4.508 0 8.502.685 11.979 2.054 3.493 1.37 6.44 3.278 8.841 5.725 2.416 2.43 4.239 5.278 5.47 8.54 1.247 3.247 1.87 6.77 1.87 10.572 0 2.631-.2 5.124-.6 7.478-.4 2.34-1.085 4.417-2.054 6.233-.955 1.816-2.255 3.262-3.901 4.34-1.647 1.061-3.709 1.638-6.186 1.73-1.555.077-2.917-.069-4.086-.438-1.17-.37-2.116-.947-2.839-1.731-.708-.8-1.154-1.778-1.339-2.932h-.277c-.354.923-1.023 1.77-2.008 2.54-.97.753-2.17 1.346-3.601 1.777-1.431.415-3.024.584-4.778.507-1.877-.092-3.616-.523-5.217-1.292a12.893 12.893 0 0 1-4.154-3.278c-1.17-1.416-2.078-3.124-2.724-5.124-.646-2-.97-4.27-.97-6.81 0-2.477.354-4.662 1.062-6.555.708-1.893 1.654-3.508 2.839-4.847 1.201-1.339 2.555-2.385 4.063-3.14a14.445 14.445 0 0 1 4.662-1.477c1.662-.23 3.224-.207 4.686.07 1.462.277 2.678.7 3.647 1.27.985.569 1.601 1.192 1.847 1.869h.323v-2.585h6.44v21.974c.015 1.154.292 2.085.831 2.793.554.708 1.323 1.062 2.308 1.062 1.231 0 2.224-.485 2.978-1.454.769-.985 1.323-2.493 1.662-4.525.354-2.046.523-4.662.507-7.848.016-2.616-.33-4.985-1.038-7.109-.693-2.139-1.678-4.016-2.955-5.632a16.994 16.994 0 0 0-4.593-4.04c-1.77-1.092-3.74-1.915-5.909-2.47-2.17-.553-4.486-.83-6.948-.83-3.77 0-7.086.577-9.949 1.73-2.862 1.14-5.262 2.763-7.201 4.871-1.924 2.108-3.378 4.61-4.363 7.502-.969 2.878-1.454 6.063-1.454 9.556 0 3.74.508 7.056 1.523 9.949 1.031 2.877 2.539 5.3 4.525 7.27 1.985 1.97 4.439 3.463 7.363 4.479 2.939 1.015 6.317 1.523 10.133 1.523 1.754 0 3.47-.138 5.147-.415a44.18 44.18 0 0 0 4.525-.97c1.338-.37 2.369-.692 3.093-.97l1.962 5.864c-.955.492-2.247.969-3.878 1.43-1.616.462-3.401.84-5.355 1.132a39.418 39.418 0 0 1-5.886.438Zm-1.616-20.035c1.954 0 3.516-.377 4.686-1.131 1.169-.77 2.008-1.908 2.516-3.416.507-1.509.754-3.386.738-5.633 0-2.092-.261-3.808-.785-5.147-.523-1.339-1.361-2.331-2.516-2.978-1.154-.646-2.685-.969-4.593-.969-1.723 0-3.193.392-4.409 1.177-1.2.785-2.123 1.87-2.77 3.255-.631 1.37-.946 2.931-.946 4.685 0 1.755.254 3.409.762 4.963.523 1.54 1.369 2.793 2.539 3.763 1.185.954 2.777 1.43 4.778 1.43Z"/></mask><path fill="#000" d="M19.759 66.692c-3.54 0-6.579-.777-9.118-2.33-2.524-1.555-4.47-3.702-5.84-6.44-1.354-2.755-2.031-5.925-2.031-9.51 0-3.602.692-6.78 2.077-9.534 1.385-2.77 3.34-4.924 5.863-6.463 2.54-1.554 5.54-2.331 9.002-2.331 2.878 0 5.425.53 7.64 1.593 2.232 1.046 4.01 2.53 5.333 4.454 1.323 1.908 2.077 4.14 2.262 6.694H26.96c-.323-1.708-1.092-3.131-2.308-4.27-1.2-1.154-2.808-1.731-4.824-1.731-1.708 0-3.209.462-4.501 1.385-1.293.908-2.3 2.216-3.024 3.924-.708 1.708-1.062 3.755-1.062 6.14 0 2.416.354 4.493 1.062 6.232.708 1.723 1.7 3.054 2.977 3.993 1.293.924 2.809 1.385 4.548 1.385 1.23 0 2.331-.23 3.3-.692a6.638 6.638 0 0 0 2.47-2.055c.662-.892 1.116-1.977 1.362-3.254h7.987c-.2 2.508-.939 4.732-2.216 6.67-1.277 1.924-3.016 3.432-5.217 4.525-2.2 1.077-4.785 1.615-7.755 1.615Zm32.251.024c-2.246 0-4.27-.4-6.07-1.2-1.785-.816-3.201-2.017-4.247-3.602-1.032-1.585-1.547-3.539-1.547-5.863 0-2 .37-3.654 1.108-4.962a8.574 8.574 0 0 1 3.024-3.14c1.277-.784 2.716-1.377 4.316-1.777a35.107 35.107 0 0 1 5.01-.9c2.077-.215 3.761-.408 5.054-.577 1.293-.185 2.231-.462 2.816-.831.6-.385.9-.977.9-1.777v-.139c0-1.739-.515-3.085-1.546-4.04-1.031-.953-2.516-1.43-4.455-1.43-2.047 0-3.67.446-4.87 1.338-1.185.893-1.986 1.947-2.401 3.163L41.3 39.87c.616-2.155 1.631-3.955 3.047-5.402 1.416-1.461 3.147-2.554 5.194-3.277 2.046-.739 4.308-1.108 6.786-1.108 1.708 0 3.408.2 5.101.6 1.693.4 3.24 1.062 4.64 1.985 1.4.908 2.523 2.147 3.37 3.716.861 1.57 1.292 3.532 1.292 5.886V66h-8.033v-4.87h-.277c-.507.984-1.223 1.908-2.146 2.77-.908.846-2.055 1.53-3.44 2.054-1.369.508-2.977.762-4.824.762Zm2.17-6.14c1.678 0 3.132-.331 4.363-.993 1.23-.677 2.177-1.57 2.839-2.677a6.82 6.82 0 0 0 1.016-3.624v-4.178c-.262.215-.708.415-1.34.6-.615.184-1.307.346-2.077.485-.77.138-1.53.261-2.285.369-.754.108-1.408.2-1.962.277-1.246.17-2.362.446-3.347.83-.985.386-1.762.924-2.331 1.617-.57.677-.854 1.554-.854 2.631 0 1.539.562 2.7 1.685 3.485 1.123.785 2.554 1.178 4.293 1.178ZM79.132 66V30.546h8.102v5.909h.37c.646-2.047 1.754-3.624 3.323-4.732 1.585-1.124 3.393-1.685 5.425-1.685.461 0 .977.023 1.546.069.585.03 1.07.085 1.454.162v7.686c-.354-.123-.915-.23-1.685-.323a15.506 15.506 0 0 0-2.192-.162c-1.524 0-2.893.331-4.11.993a7.263 7.263 0 0 0-2.838 2.7c-.693 1.155-1.039 2.486-1.039 3.994V66h-8.356Zm40.008.692c-3.555 0-6.625-.738-9.21-2.215-2.57-1.493-4.547-3.601-5.932-6.325-1.385-2.74-2.078-5.963-2.078-9.672 0-3.646.693-6.847 2.078-9.602 1.4-2.77 3.354-4.924 5.863-6.463 2.508-1.554 5.455-2.331 8.84-2.331 2.185 0 4.247.354 6.186 1.062a13.98 13.98 0 0 1 5.171 3.231c1.508 1.462 2.693 3.324 3.554 5.586.862 2.247 1.293 4.924 1.293 8.033v2.562h-29.061v-5.632h21.051c-.015-1.6-.361-3.024-1.038-4.27a7.557 7.557 0 0 0-2.839-2.978c-1.201-.723-2.601-1.085-4.201-1.085-1.709 0-3.209.415-4.501 1.246a8.584 8.584 0 0 0-3.024 3.232c-.708 1.323-1.07 2.778-1.085 4.363v4.916c0 2.062.377 3.832 1.131 5.31.754 1.461 1.808 2.584 3.162 3.37 1.354.768 2.939 1.153 4.755 1.153 1.216 0 2.316-.169 3.301-.508a7.32 7.32 0 0 0 2.562-1.546c.723-.677 1.27-1.516 1.639-2.516l7.802.877c-.493 2.062-1.431 3.862-2.816 5.401-1.37 1.524-3.124 2.709-5.263 3.555-2.139.831-4.586 1.246-7.34 1.246Zm38.53 0c-3.555 0-6.625-.738-9.21-2.215-2.57-1.493-4.547-3.601-5.932-6.325-1.385-2.74-2.077-5.963-2.077-9.672 0-3.646.692-6.847 2.077-9.602 1.4-2.77 3.355-4.924 5.863-6.463 2.508-1.554 5.455-2.331 8.84-2.331 2.186 0 4.248.354 6.187 1.062a13.985 13.985 0 0 1 5.17 3.231c1.508 1.462 2.693 3.324 3.555 5.586.861 2.247 1.292 4.924 1.292 8.033v2.562h-29.06v-5.632h21.051c-.016-1.6-.362-3.024-1.039-4.27a7.55 7.55 0 0 0-2.839-2.978c-1.2-.723-2.601-1.085-4.201-1.085-1.708 0-3.209.415-4.501 1.246a8.584 8.584 0 0 0-3.024 3.232c-.708 1.323-1.069 2.778-1.085 4.363v4.916c0 2.062.377 3.832 1.131 5.31.754 1.461 1.808 2.584 3.162 3.37 1.355.768 2.94 1.153 4.755 1.153 1.216 0 2.316-.169 3.301-.508a7.32 7.32 0 0 0 2.562-1.546c.724-.677 1.27-1.516 1.639-2.516l7.802.877c-.492 2.062-1.431 3.862-2.816 5.401-1.37 1.524-3.124 2.709-5.263 3.555-2.139.831-4.585 1.246-7.34 1.246ZM180.504 66V30.546h8.102v5.909h.369c.647-2.047 1.755-3.624 3.324-4.732 1.585-1.124 3.393-1.685 5.425-1.685.461 0 .977.023 1.546.069.585.03 1.07.085 1.454.162v7.686c-.353-.123-.915-.23-1.685-.323a15.505 15.505 0 0 0-2.192-.162c-1.524 0-2.893.331-4.109.993a7.261 7.261 0 0 0-2.839 2.7c-.693 1.155-1.039 2.486-1.039 3.994V66h-8.356Zm53.794-26.083-7.617.83a6.14 6.14 0 0 0-1.131-2.169c-.524-.677-1.232-1.223-2.124-1.639-.893-.415-1.985-.623-3.278-.623-1.739 0-3.2.377-4.385 1.131-1.17.754-1.747 1.731-1.732 2.931-.015 1.032.362 1.87 1.131 2.517.785.646 2.078 1.177 3.878 1.592l6.048 1.293c3.355.723 5.847 1.87 7.479 3.44 1.646 1.569 2.477 3.623 2.492 6.162-.015 2.231-.669 4.201-1.962 5.91-1.277 1.692-3.054 3.015-5.332 3.97-2.277.953-4.893 1.43-7.848 1.43-4.339 0-7.832-.907-10.479-2.723-2.647-1.831-4.224-4.378-4.732-7.64l8.148-.785c.37 1.6 1.154 2.808 2.355 3.624 1.2.815 2.762 1.223 4.685 1.223 1.985 0 3.578-.408 4.778-1.223 1.216-.816 1.824-1.824 1.824-3.024 0-1.016-.392-1.855-1.177-2.516-.77-.662-1.97-1.17-3.601-1.524l-6.048-1.27c-3.401-.707-5.917-1.9-7.548-3.577-1.631-1.693-2.439-3.832-2.423-6.417-.016-2.185.577-4.078 1.777-5.678 1.216-1.616 2.901-2.862 5.055-3.74 2.17-.892 4.67-1.338 7.502-1.338 4.155 0 7.425.885 9.81 2.654 2.4 1.77 3.885 4.163 4.455 7.179Zm37.359 39.332c-4.848 0-9.156-.661-12.927-1.985-3.754-1.308-6.924-3.239-9.509-5.793-2.586-2.54-4.548-5.64-5.886-9.303-1.339-3.662-2.016-7.848-2.032-12.556.016-4.602.7-8.749 2.055-12.442 1.354-3.709 3.331-6.879 5.932-9.51 2.6-2.647 5.778-4.678 9.533-6.094 3.755-1.415 8.025-2.123 12.811-2.123 4.508 0 8.502.685 11.979 2.054 3.493 1.37 6.44 3.278 8.841 5.725 2.416 2.43 4.239 5.278 5.47 8.54 1.247 3.247 1.87 6.77 1.87 10.572 0 2.631-.2 5.124-.6 7.478-.4 2.34-1.085 4.417-2.054 6.233-.955 1.816-2.255 3.262-3.901 4.34-1.647 1.061-3.709 1.638-6.186 1.73-1.555.077-2.917-.069-4.086-.438-1.17-.37-2.116-.947-2.839-1.731-.708-.8-1.154-1.778-1.339-2.932h-.277c-.354.923-1.023 1.77-2.008 2.54-.97.753-2.17 1.346-3.601 1.777-1.431.415-3.024.584-4.778.507-1.877-.092-3.616-.523-5.217-1.292a12.893 12.893 0 0 1-4.154-3.278c-1.17-1.416-2.078-3.124-2.724-5.124-.646-2-.97-4.27-.97-6.81 0-2.477.354-4.662 1.062-6.555.708-1.893 1.654-3.508 2.839-4.847 1.201-1.339 2.555-2.385 4.063-3.14a14.445 14.445 0 0 1 4.662-1.477c1.662-.23 3.224-.207 4.686.07 1.462.277 2.678.7 3.647 1.27.985.569 1.601 1.192 1.847 1.869h.323v-2.585h6.44v21.974c.015 1.154.292 2.085.831 2.793.554.708 1.323 1.062 2.308 1.062 1.231 0 2.224-.485 2.978-1.454.769-.985 1.323-2.493 1.662-4.525.354-2.046.523-4.662.507-7.848.016-2.616-.33-4.985-1.038-7.109-.693-2.139-1.678-4.016-2.955-5.632a16.994 16.994 0 0 0-4.593-4.04c-1.77-1.092-3.74-1.915-5.909-2.47-2.17-.553-4.486-.83-6.948-.83-3.77 0-7.086.577-9.949 1.73-2.862 1.14-5.262 2.763-7.201 4.871-1.924 2.108-3.378 4.61-4.363 7.502-.969 2.878-1.454 6.063-1.454 9.556 0 3.74.508 7.056 1.523 9.949 1.031 2.877 2.539 5.3 4.525 7.27 1.985 1.97 4.439 3.463 7.363 4.479 2.939 1.015 6.317 1.523 10.133 1.523 1.754 0 3.47-.138 5.147-.415a44.18 44.18 0 0 0 4.525-.97c1.338-.37 2.369-.692 3.093-.97l1.962 5.864c-.955.492-2.247.969-3.878 1.43-1.616.462-3.401.84-5.355 1.132a39.418 39.418 0 0 1-5.886.438Zm-1.616-20.035c1.954 0 3.516-.377 4.686-1.131 1.169-.77 2.008-1.908 2.516-3.416.507-1.509.754-3.386.738-5.633 0-2.092-.261-3.808-.785-5.147-.523-1.339-1.361-2.331-2.516-2.978-1.154-.646-2.685-.969-4.593-.969-1.723 0-3.193.392-4.409 1.177-1.2.785-2.123 1.87-2.77 3.255-.631 1.37-.946 2.931-.946 4.685 0 1.755.254 3.409.762 4.963.523 1.54 1.369 2.793 2.539 3.763 1.185.954 2.777 1.43 4.778 1.43Z"/><path fill="#fff" d="m10.641 64.361-.524.852.002.001.522-.853Zm-5.84-6.44-.897.441.003.006.894-.447Zm.046-19.043.894.45v-.003l-.894-.447Zm5.863-6.463.52.854.002-.001-.522-.853Zm16.643-.738-.433.901.008.004.425-.905Zm5.332 4.454-.824.567.002.003.822-.57Zm2.262 6.694v1h1.075l-.078-1.072-.997.072Zm-7.987 0-.982.186.154.814h.828v-1Zm-2.308-4.27-.693.72.01.01.683-.73Zm-9.325-.346.575.818.006-.005-.581-.813Zm-3.024 3.924-.921-.39-.003.007.924.383Zm0 12.372-.926.377v.003l.926-.38Zm2.977 3.993-.592.806.011.008.582-.814Zm7.849.693.43.903.005-.003-.435-.9Zm2.47-2.055-.804-.595.803.595Zm1.361-3.254v-1h-.825l-.157.81.982.19Zm7.987 0 .997.08.086-1.08h-1.083v1Zm-2.216 6.67.833.554.002-.003-.835-.55Zm-5.217 4.525.44.898.005-.003-.445-.895Zm-7.755.615c-3.39 0-6.242-.742-8.596-2.184l-1.044 1.706c2.724 1.667 5.951 2.478 9.64 2.478v-2Zm-8.594-2.182c-2.36-1.453-4.18-3.458-5.47-6.036l-1.788.894c1.45 2.9 3.522 5.19 6.21 6.845l1.048-1.703ZM5.7 57.48c-1.277-2.596-1.93-5.61-1.93-9.069h-2c0 3.713.703 7.038 2.135 9.951l1.795-.882Zm-1.93-9.069c0-3.47.668-6.49 1.972-9.084l-1.787-.898c-1.466 2.915-2.184 6.252-2.184 9.982h2Zm1.973-9.086c1.305-2.61 3.133-4.62 5.489-6.056L10.19 31.56c-2.692 1.642-4.772 3.94-6.237 6.87l1.789.894Zm5.49-6.057c2.358-1.443 5.172-2.184 8.48-2.184v-2c-3.616 0-6.803.813-9.524 2.478l1.044 1.706Zm8.48-2.184c2.754 0 5.149.507 7.209 1.494l.864-1.803c-2.372-1.137-5.07-1.691-8.073-1.691v2Zm7.216 1.498c2.08.975 3.716 2.347 4.933 4.116l1.647-1.133c-1.43-2.078-3.348-3.676-5.73-4.794l-.85 1.81Zm4.935 4.12c1.211 1.745 1.913 3.8 2.086 6.195l1.995-.144c-.196-2.714-1.002-5.121-2.438-7.191l-1.643 1.14Zm3.084 5.123H26.96v2h7.987v-2Zm-7.004.814c-.361-1.906-1.23-3.523-2.607-4.814l-1.368 1.46c1.054.987 1.724 2.217 2.01 3.726l1.965-.372Zm-2.598-4.805c-1.424-1.37-3.3-2.01-5.517-2.01v2c1.815 0 3.155.513 4.13 1.452l1.387-1.442Zm-5.517-2.01c-1.9 0-3.607.517-5.082 1.571l1.162 1.627c1.11-.792 2.403-1.198 3.92-1.198v-2Zm-5.076 1.567c-1.47 1.033-2.587 2.502-3.37 4.352l1.842.78c.663-1.567 1.563-2.713 2.678-3.496l-1.15-1.636Zm-3.373 4.359c-.77 1.86-1.138 4.043-1.138 6.523h2c0-2.29.34-4.2.986-5.757l-1.848-.766Zm-1.138 6.523c0 2.51.367 4.721 1.136 6.609l1.852-.754c-.647-1.59-.988-3.533-.988-5.855h-2Zm1.137 6.612c.765 1.863 1.86 3.354 3.31 4.419l1.185-1.612c-1.105-.812-1.995-1.983-2.645-3.567l-1.85.76Zm3.321 4.427c1.479 1.056 3.202 1.571 5.129 1.571v-2c-1.551 0-2.86-.408-3.966-1.199l-1.163 1.628Zm5.129 1.571c1.358 0 2.608-.255 3.73-.79l-.86-1.805c-.816.389-1.766.595-2.87.595v2Zm3.736-.792a7.638 7.638 0 0 0 2.838-2.36l-1.607-1.19a5.639 5.639 0 0 1-2.102 1.75l.871 1.8Zm2.838-2.36c.765-1.03 1.27-2.26 1.54-3.66l-1.964-.378c-.222 1.155-.625 2.095-1.183 2.848l1.607 1.19Zm.558-2.85h7.987v-2H26.96v2Zm6.99-1.079c-.188 2.355-.877 4.414-2.054 6.2l1.67 1.1c1.377-2.09 2.165-4.479 2.378-7.14l-1.994-.16ZM31.898 60c-1.174 1.768-2.775 3.162-4.828 4.182l.889 1.791c2.347-1.165 4.224-2.787 5.605-4.866l-1.666-1.107Zm-4.823 4.18c-2.038.997-4.467 1.513-7.316 1.513v2c3.09 0 5.831-.56 8.195-1.717l-.88-1.796Zm18.865 1.336-.416.91.01.004.406-.914Zm-4.247-3.6-.839.545.004.005.835-.55Zm-.439-10.826-.87-.492.87.492Zm3.024-3.14-.524-.851.524.852Zm4.316-1.777.243.97.006-.001-.249-.969Zm5.01-.9-.104-.995h-.004l.107.995Zm5.054-.577.13.992.012-.002-.142-.99Zm2.816-.831.534.846.006-.004-.54-.842Zm-.646-5.955.679-.734-.68.734Zm-9.325-.093-.597-.802-.005.004.602.798Zm-2.401 3.163-.14.99.819.116.267-.783-.946-.323ZM41.3 39.87l-.961-.275-.316 1.104 1.137.16.14-.99Zm3.047-5.402.715.7.003-.004-.718-.696Zm5.194-3.277.333.943.006-.003-.34-.94Zm16.527 1.477-.55.835.005.004.545-.839Zm3.37 3.716-.88.475.003.007.877-.482ZM70.73 66v1h1v-1h-1Zm-8.033 0h-1v1h1v-1Zm0-4.87h1v-1h-1v1Zm-.277 0v-1h-.609l-.28.541.89.459Zm-2.146 2.77.682.731-.682-.731Zm-3.44 2.054.348.938.006-.003-.353-.935Zm1.709-6.37.473.88.009-.005-.482-.876Zm2.839-2.678-.853-.522-.006.009.859.513Zm1.016-7.802h1v-2.12l-1.636 1.348.636.772Zm-1.34.6-.28-.96-.007.002.288.958Zm-2.077.485.177.984-.177-.984Zm-4.247.646.135.99h.003l-.138-.99Zm-3.347.83-.364-.93.364.93Zm-2.331 1.617.765.643.007-.008-.772-.635Zm.83 6.116-.572.82.573-.82Zm2.124 6.318c-2.126 0-4.008-.379-5.664-1.114l-.812 1.827c1.945.864 4.11 1.287 6.476 1.287v-2Zm-5.655-1.11c-1.62-.74-2.888-1.82-3.828-3.242l-1.669 1.101c1.153 1.747 2.717 3.07 4.666 3.96l.831-1.82Zm-3.824-3.237c-.904-1.389-1.385-3.143-1.385-5.318h-2c0 2.473.55 4.628 1.708 6.409l1.677-1.09Zm-1.385-5.318c0-1.883.348-3.354.979-4.47l-1.742-.984c-.847 1.5-1.237 3.337-1.237 5.454h2Zm.979-4.47A7.576 7.576 0 0 1 44.8 48.8l-1.047-1.703a9.574 9.574 0 0 0-3.37 3.5l1.74.983ZM44.8 48.8c1.182-.726 2.525-1.28 4.036-1.659l-.485-1.94c-1.69.422-3.225 1.052-4.598 1.896l1.047 1.704Zm4.042-1.66a34.1 34.1 0 0 1 4.867-.875l-.214-1.988c-1.77.19-3.486.498-5.15.926l.497 1.937Zm4.863-.874c2.082-.216 3.777-.41 5.082-.58l-.26-1.984c-1.28.168-2.955.36-5.028.574l.206 1.99Zm5.093-.582c1.33-.19 2.441-.49 3.21-.976l-1.069-1.69c-.401.253-1.168.507-2.423.686l.282 1.98Zm3.215-.98c.926-.593 1.36-1.527 1.36-2.618h-2c0 .508-.165.76-.44.935l1.08 1.684Zm1.36-2.618v-.139h-2v.139h2Zm0-.139c0-1.946-.585-3.587-1.867-4.773l-1.358 1.468c.78.721 1.225 1.774 1.225 3.305h2Zm-1.867-4.773c-1.276-1.181-3.04-1.697-5.134-1.697v2c1.784 0 2.99.438 3.776 1.165l1.358-1.468Zm-5.134-1.697c-2.184 0-4.04.475-5.467 1.536l1.193 1.605c.975-.725 2.365-1.141 4.274-1.141v-2Zm-5.472 1.54c-1.32.993-2.256 2.204-2.745 3.637l1.892.647c.341-.998 1.006-1.896 2.056-2.687l-1.203-1.597Zm-1.658 2.97-7.802-1.107-.281 1.98 7.801 1.108.282-1.98Zm-6.981.157c.575-2.011 1.512-3.66 2.8-4.976l-1.43-1.399c-1.544 1.578-2.637 3.53-3.293 5.826l1.923.55Zm2.803-4.98c1.302-1.343 2.898-2.355 4.809-3.03l-.667-1.886c-2.182.771-4.048 1.945-5.578 3.525l1.436 1.391Zm4.815-3.033c1.924-.694 4.07-1.048 6.447-1.048v-2c-2.578 0-4.956.384-7.126 1.167l.679 1.881Zm6.447-1.048c1.629 0 3.252.19 4.871.573l.46-1.946a23.105 23.105 0 0 0-5.331-.627v2Zm4.871.573c1.583.374 3.02.99 4.32 1.847l1.1-1.67a15.35 15.35 0 0 0-4.96-2.123l-.46 1.946Zm4.325 1.851c1.25.81 2.262 1.92 3.034 3.352l1.76-.95c-.92-1.706-2.155-3.075-3.705-4.08l-1.088 1.678Zm3.038 3.359c.76 1.383 1.17 3.167 1.17 5.404h2c0-2.471-.453-4.61-1.417-6.367l-1.753.963Zm1.17 5.404V66h2V42.271h-2Zm1 22.729h-8.033v2h8.032v-2Zm-7.033 1v-4.87h-2V66h2Zm-1-5.87h-.278v2h.277v-2Zm-1.166.541c-.449.87-1.09 1.703-1.94 2.497l1.364 1.463c.996-.93 1.786-1.943 2.353-3.043l-1.777-.917Zm-1.94 2.497c-.796.742-1.825 1.364-3.11 1.85l.706 1.871c1.484-.56 2.748-1.308 3.768-2.258l-1.364-1.463Zm-3.105 1.848c-1.233.457-2.719.7-4.477.7v2c1.936 0 3.666-.266 5.172-.825l-.695-1.875Zm-2.307-3.44c1.81 0 3.433-.358 4.836-1.112l-.947-1.762c-1.059.57-2.344.874-3.889.874v2Zm4.845-1.117c1.372-.755 2.455-1.767 3.215-3.04l-1.717-1.026c-.562.942-1.373 1.715-2.462 2.314l.964 1.752Zm3.21-3.032a7.82 7.82 0 0 0 1.163-4.145h-2a5.822 5.822 0 0 1-.87 3.102l1.707 1.043Zm1.163-4.145v-4.178h-2v4.178h2Zm-1.636-4.95c-.1.082-.384.236-.984.412l.562 1.92c.661-.194 1.27-.44 1.693-.788l-1.271-1.544Zm-.99.414c-.573.172-1.228.325-1.968.458l.354 1.969c.8-.144 1.53-.314 2.188-.511l-.575-1.916Zm-1.968.458c-.758.137-1.508.258-2.25.364l.283 1.98c.767-.11 1.54-.235 2.321-.375l-.354-1.969Zm-2.25.364c-.753.108-1.405.2-1.958.276l.276 1.981c.555-.077 1.21-.17 1.965-.277l-.282-1.98Zm-1.955.276c-1.31.178-2.505.472-3.576.89l.728 1.863c.899-.35 1.935-.61 3.118-.771l-.27-1.982Zm-3.576.89c-1.115.436-2.044 1.066-2.74 1.913l1.545 1.27c.443-.539 1.069-.986 1.923-1.32l-.728-1.863Zm-2.733 1.904c-.752.894-1.088 2.016-1.088 3.275h2c0-.895.232-1.528.62-1.988l-1.532-1.287Zm-1.088 3.275c0 1.819.685 3.308 2.112 4.305l1.145-1.64c-.819-.572-1.257-1.406-1.257-2.665h-2Zm2.112 4.305c1.332.93 2.978 1.358 4.866 1.358v-2c-1.59 0-2.805-.358-3.72-.997l-1.146 1.64ZM79.132 66h-1v1h1v-1Zm0-35.454v-1h-1v1h1Zm8.102 0h1v-1h-1v1Zm0 5.909h-1v1h1v-1Zm.37 0v1h.732l.221-.7-.954-.3Zm3.323-4.732.577.817.001-.002-.578-.815Zm6.971-1.616-.08.997h.014l.014.002.052-1Zm1.454.162h1v-.82l-.803-.161-.197.98Zm0 7.686-.328.944 1.328.462v-1.406h-1Zm-1.685-.323-.141.99.011.001.011.002.12-.993Zm-6.301.83.474.881.004-.002-.478-.878ZM87.488 66v1h1v-1h-1Zm-7.356 0V30.546h-2V66h2Zm-1-34.454h8.102v-2h-8.102v2Zm7.102-1v5.909h2v-5.91h-2Zm1 6.909h.37v-2h-.37v2Zm1.323-.7c.589-1.863 1.577-3.248 2.947-4.215l-1.153-1.634c-1.77 1.248-2.997 3.018-3.701 5.247l1.907.603Zm2.948-4.217c1.409-.997 3.013-1.5 4.847-1.5v-2c-2.229 0-4.24.62-6.003 1.869l1.156 1.631Zm4.847-1.5c.429 0 .917.021 1.465.066l.162-1.994a20.269 20.269 0 0 0-1.627-.072v2Zm1.494.067c.557.03.99.08 1.31.144l.392-1.961c-.448-.09-.985-.148-1.597-.18l-.105 1.997Zm.506-.837v7.687h2v-7.686h-2Zm1.329 6.742c-.461-.16-1.112-.277-1.894-.371l-.239 1.986c.757.09 1.23.189 1.476.274l.657-1.889Zm-1.872-.368a16.506 16.506 0 0 0-2.334-.172v2c.657 0 1.34.05 2.05.152l.284-1.98Zm-2.334-.172c-1.674 0-3.21.365-4.587 1.114l.956 1.757c1.055-.574 2.257-.87 3.63-.87v-2Zm-4.583 1.112a8.263 8.263 0 0 0-3.223 3.067l1.715 1.029a6.264 6.264 0 0 1 2.456-2.335l-.948-1.76Zm-3.223 3.067c-.796 1.328-1.181 2.84-1.181 4.508h2c0-1.35.308-2.499.896-3.48L87.67 40.65Zm-1.181 4.508V66h2V45.157h-2Zm1 19.843h-8.356v2h8.356v-2Zm22.442-.523-.502.864.006.004.496-.868Zm-5.932-6.325-.893.451.001.002.892-.453Zm0-19.274-.893-.451-.001.002.894.45Zm5.863-6.463.523.852.003-.002-.526-.85Zm15.026-1.27-.343.94.009.003.334-.942Zm5.171 3.232-.7.715.004.003.696-.718Zm3.554 5.586-.934.356.001.002.933-.358Zm1.293 10.595v1h1v-1h-1Zm-29.061 0h-1v1h1v-1Zm0-5.632v-1h-1v1h1Zm21.051 0v1h1.01l-.01-1.01-1 .01Zm-1.038-4.27-.881.472.002.005.879-.477Zm-2.839-2.978-.517.856.005.003.512-.86Zm-8.702.162.533.845.007-.004-.54-.841Zm-3.024 3.231-.88-.475-.002.003.882.472Zm-1.085 4.363-1-.01v.01h1Zm1.131 10.225-.891.455.002.004.889-.459Zm3.162 3.37-.501.865.007.005.494-.87Zm8.056.646.325.946.013-.005-.338-.94Zm2.562-1.546-.683-.73.683.73Zm1.639-2.516.112-.994-.779-.087-.271.735.938.346Zm7.802.877.972.232.263-1.1-1.124-.126-.111.994Zm-2.816 5.401-.744-.669.744.67Zm-5.263 3.555.362.932.006-.002-.368-.93Zm-7.34.246c-3.415 0-6.307-.708-8.714-2.084l-.992 1.737c2.763 1.579 6.011 2.347 9.706 2.347v-2Zm-8.708-2.08c-2.398-1.393-4.243-3.356-5.543-5.913l-1.783.906c1.47 2.89 3.58 5.144 6.322 6.736l1.004-1.73ZM104.89 57.7c-1.301-2.573-1.97-5.636-1.97-9.22h-2c0 3.832.716 7.217 2.185 10.122l1.785-.902Zm-1.97-9.22c0-3.52.668-6.562 1.971-9.154l-1.787-.898c-1.466 2.917-2.184 6.277-2.184 10.051h2Zm1.97-9.152c1.322-2.614 3.152-4.625 5.494-6.062l-1.046-1.704c-2.675 1.64-4.754 3.938-6.233 6.864l1.785.902Zm5.497-6.064c2.328-1.442 5.087-2.181 8.314-2.181v-2c-3.543 0-6.678.815-9.367 2.481l1.053 1.7Zm8.314-2.181c2.075 0 4.021.335 5.843 1.001l.686-1.879c-2.055-.75-4.234-1.122-6.529-1.122v2Zm5.852 1.004a12.986 12.986 0 0 1 4.805 3.004l1.399-1.43a14.97 14.97 0 0 0-5.536-3.459l-.668 1.885Zm4.809 3.007c1.388 1.346 2.498 3.078 3.316 5.224l1.869-.712c-.906-2.378-2.165-4.37-3.793-5.948l-1.392 1.436Zm3.317 5.226c.807 2.105 1.226 4.655 1.226 7.675h2c0-3.197-.443-6.002-1.359-8.391l-1.867.716Zm1.226 7.675v2.562h2v-2.562h-2Zm1 1.562h-29.061v2h29.061v-2Zm-28.061 1v-5.632h-2v5.632h2Zm-1-4.632h21.051v-2h-21.051v2Zm22.051-1.01c-.016-1.742-.395-3.33-1.16-4.738l-1.757.955c.589 1.085.903 2.344.917 3.802l2-.019Zm-1.157-4.733a8.552 8.552 0 0 0-3.209-3.364l-1.023 1.718a6.556 6.556 0 0 1 2.47 2.591l1.762-.945Zm-3.204-3.362c-1.378-.83-2.962-1.228-4.717-1.228v2c1.444 0 2.661.325 3.684.941l1.033-1.713Zm-4.717-1.228c-1.878 0-3.571.46-5.042 1.405l1.081 1.683c1.114-.716 2.422-1.088 3.961-1.088v-2Zm-5.035 1.4a9.588 9.588 0 0 0-3.37 3.603l1.76.95a7.585 7.585 0 0 1 2.677-2.86l-1.067-1.692ZM110.41 40.6c-.788 1.474-1.186 3.088-1.203 4.825l2 .02c.014-1.434.339-2.728.967-3.901l-1.764-.944Zm-1.203 4.835v4.916h2v-4.916h-2Zm0 4.916c0 2.182.399 4.116 1.24 5.764l1.782-.91c-.667-1.306-1.022-2.912-1.022-4.854h-2Zm1.242 5.767c.837 1.623 2.022 2.892 3.55 3.777l1.003-1.73c-1.181-.684-2.104-1.662-2.775-2.963l-1.778.916Zm3.557 3.782c1.528.868 3.289 1.284 5.249 1.284v-2c-1.671 0-3.081-.353-4.261-1.023l-.988 1.739Zm5.249 1.284c1.308 0 2.521-.182 3.626-.562l-.65-1.891c-.865.297-1.853.453-2.976.453v2Zm3.639-.566a8.318 8.318 0 0 0 2.907-1.758l-1.366-1.46a6.334 6.334 0 0 1-2.217 1.335l.676 1.883Zm2.907-1.758c.846-.791 1.475-1.765 1.894-2.9l-1.876-.692c-.32.865-.783 1.57-1.384 2.132l1.366 1.46Zm.844-2.252 7.802.877.223-1.988-7.801-.877-.224 1.988Zm6.941-.35c-.454 1.904-1.316 3.554-2.587 4.965l1.487 1.338c1.499-1.666 2.515-3.617 3.045-5.838l-1.945-.464Zm-2.587 4.966c-1.254 1.395-2.874 2.497-4.887 3.293l.736 1.86c2.265-.896 4.153-2.164 5.638-3.816l-1.487-1.337Zm-4.881 3.29c-2.003.779-4.323 1.18-6.978 1.18v2c2.854 0 5.427-.431 7.702-1.315l-.724-1.864Zm22.342-.036-.502.864.006.004.496-.868Zm-5.932-6.325-.892.451.001.002.891-.453Zm0-19.274-.892-.451-.001.002.893.45Zm5.863-6.463.523.852.004-.002-.527-.85Zm15.027-1.27-.343.94.009.003.334-.942Zm5.17 3.232-.7.715.004.003.696-.718Zm3.555 5.586-.935.356.001.002.934-.358Zm1.292 10.595v1h1v-1h-1Zm-29.06 0h-1v1h1v-1Zm0-5.632v-1h-1v1h1Zm21.051 0v1h1.009l-.009-1.01-1 .01Zm-1.039-4.27-.881.472.002.005.879-.477Zm-2.839-2.978-.516.856.005.003.511-.86Zm-8.702.162.533.845.008-.004-.541-.841Zm-3.024 3.231-.88-.475-.002.003.882.472Zm-1.085 4.363-1-.01v.01h1Zm1.131 10.225-.891.455.002.004.889-.459Zm3.162 3.37-.501.865.007.005.494-.87Zm8.056.646.325.946.013-.005-.338-.94Zm2.562-1.546-.683-.73.683.73Zm1.639-2.516.112-.994-.779-.087-.271.735.938.346Zm7.802.877.973.232.262-1.1-1.123-.126-.112.994Zm-2.816 5.401-.743-.669h-.001l.744.67Zm-5.263 3.555.362.932.006-.002-.368-.93Zm-7.34.246c-3.414 0-6.306-.708-8.714-2.084l-.992 1.737c2.763 1.579 6.011 2.347 9.706 2.347v-2Zm-8.708-2.08c-2.398-1.393-4.242-3.356-5.543-5.913l-1.782.906c1.469 2.89 3.579 5.144 6.321 6.736l1.004-1.73ZM143.42 57.7c-1.301-2.573-1.969-5.636-1.969-9.22h-2c0 3.832.716 7.217 2.185 10.122l1.784-.902Zm-1.969-9.22c0-3.52.667-6.562 1.97-9.154l-1.786-.898c-1.467 2.917-2.184 6.277-2.184 10.051h2Zm1.969-9.152c1.322-2.614 3.152-4.625 5.494-6.062l-1.046-1.704c-2.675 1.64-4.753 3.938-6.232 6.864l1.784.902Zm5.498-6.064c2.327-1.442 5.086-2.181 8.313-2.181v-2c-3.543 0-6.678.815-9.367 2.481l1.054 1.7Zm8.313-2.181c2.076 0 4.021.335 5.844 1.001l.685-1.879c-2.055-.75-4.233-1.122-6.529-1.122v2Zm5.853 1.004a12.974 12.974 0 0 1 4.804 3.004l1.4-1.43a14.986 14.986 0 0 0-5.536-3.459l-.668 1.885Zm4.808 3.007c1.388 1.346 2.499 3.078 3.316 5.224l1.869-.712c-.906-2.378-2.165-4.37-3.793-5.948l-1.392 1.436Zm3.317 5.226c.807 2.105 1.226 4.655 1.226 7.675h2c0-3.197-.442-6.002-1.359-8.391l-1.867.716Zm1.226 7.675v2.562h2v-2.562h-2Zm1 1.562h-29.06v2h29.06v-2Zm-28.06 1v-5.632h-2v5.632h2Zm-1-4.632h21.051v-2h-21.051v2Zm22.051-1.01c-.017-1.742-.396-3.33-1.16-4.738l-1.758.955c.59 1.085.904 2.344.918 3.802l2-.019Zm-1.158-4.733a8.552 8.552 0 0 0-3.209-3.364l-1.022 1.718a6.554 6.554 0 0 1 2.469 2.591l1.762-.945Zm-3.204-3.362c-1.377-.83-2.961-1.228-4.717-1.228v2c1.445 0 2.661.325 3.685.941l1.032-1.713Zm-4.717-1.228c-1.878 0-3.57.46-5.042 1.405l1.082 1.683c1.113-.716 2.421-1.088 3.96-1.088v-2Zm-5.035 1.4a9.588 9.588 0 0 0-3.37 3.603l1.76.95a7.585 7.585 0 0 1 2.677-2.86l-1.067-1.692ZM148.94 40.6c-.788 1.474-1.186 3.088-1.203 4.825l2 .02c.014-1.434.339-2.728.967-3.901l-1.764-.944Zm-1.203 4.835v4.916h2v-4.916h-2Zm0 4.916c0 2.182.399 4.116 1.24 5.764l1.782-.91c-.667-1.306-1.022-2.912-1.022-4.854h-2Zm1.242 5.767c.837 1.623 2.022 2.892 3.55 3.777l1.003-1.73c-1.18-.684-2.104-1.662-2.775-2.963l-1.778.916Zm3.557 3.782c1.529.868 3.289 1.284 5.249 1.284v-2c-1.671 0-3.08-.353-4.261-1.023l-.988 1.739Zm5.249 1.284c1.309 0 2.521-.182 3.626-.562l-.65-1.891c-.864.297-1.852.453-2.976.453v2Zm3.639-.566a8.332 8.332 0 0 0 2.908-1.758l-1.367-1.46a6.324 6.324 0 0 1-2.217 1.335l.676 1.883Zm2.908-1.758c.845-.791 1.474-1.765 1.893-2.9l-1.876-.692c-.32.865-.783 1.57-1.384 2.132l1.367 1.46Zm.843-2.252 7.802.877.224-1.988-7.802-.877-.224 1.988Zm6.941-.35c-.454 1.904-1.316 3.554-2.586 4.965l1.486 1.338c1.5-1.666 2.515-3.617 3.046-5.838l-1.946-.464Zm-2.587 4.966c-1.254 1.395-2.874 2.497-4.887 3.293l.736 1.86c2.265-.896 4.154-2.164 5.639-3.816l-1.488-1.337Zm-4.881 3.29c-2.003.779-4.323 1.18-6.978 1.18v2c2.854 0 5.427-.431 7.702-1.315l-.724-1.864ZM180.504 66h-1v1h1v-1Zm0-35.454v-1h-1v1h1Zm8.102 0h1v-1h-1v1Zm0 5.909h-1v1h1v-1Zm.369 0v1h.733l.221-.7-.954-.3Zm3.324-4.732.577.817.002-.002-.579-.815Zm6.971-1.616-.081.997h.015l.014.002.052-1Zm1.454.162h1v-.82l-.803-.161-.197.98Zm0 7.686-.328.944 1.328.462v-1.406h-1Zm-1.685-.323-.141.99.011.001.011.002.119-.993Zm-6.301.83.474.881.004-.002-.478-.878ZM188.86 66v1h1v-1h-1Zm-7.356 0V30.546h-2V66h2Zm-1-34.454h8.102v-2h-8.102v2Zm7.102-1v5.909h2v-5.91h-2Zm1 6.909h.369v-2h-.369v2Zm1.323-.7c.589-1.863 1.577-3.248 2.947-4.215l-1.153-1.634c-1.769 1.248-2.997 3.018-3.701 5.247l1.907.603Zm2.949-4.217c1.408-.997 3.012-1.5 4.846-1.5v-2c-2.229 0-4.241.62-6.003 1.869l1.157 1.631Zm4.846-1.5c.429 0 .917.021 1.465.066l.162-1.994a20.258 20.258 0 0 0-1.627-.072v2Zm1.494.067c.557.03.99.08 1.31.144l.393-1.961a11.38 11.38 0 0 0-1.598-.18l-.105 1.997Zm.506-.837v7.687h2v-7.686h-2Zm1.329 6.742c-.461-.16-1.112-.277-1.894-.371l-.239 1.986c.757.09 1.229.189 1.476.274l.657-1.889Zm-1.872-.368a16.515 16.515 0 0 0-2.334-.172v2c.657 0 1.34.05 2.051.152l.283-1.98Zm-2.334-.172c-1.674 0-3.21.365-4.587 1.114l.956 1.757c1.055-.574 2.257-.87 3.631-.87v-2Zm-4.583 1.112a8.266 8.266 0 0 0-3.223 3.067l1.715 1.029a6.268 6.268 0 0 1 2.456-2.335l-.948-1.76Zm-3.223 3.067c-.796 1.328-1.181 2.84-1.181 4.508h2c0-1.35.308-2.499.896-3.48l-1.715-1.028Zm-1.181 4.508V66h2V45.157h-2Zm1 19.843h-8.356v2h8.356v-2Zm45.438-25.083.108.994 1.075-.117-.201-1.063-.982.186Zm-7.617.83-.963.27.228.817.843-.092-.108-.994Zm-1.131-2.169-.792.612.009.01.783-.622Zm-2.124-1.639.422-.906-.422.906Zm-7.663.508-.537-.844-.005.004.542.84Zm-1.732 2.931 1 .016.001-.014-.001-.014-1 .013Zm1.131 2.517-.643.765.008.007.635-.773Zm3.878 1.592-.225.975.008.001.008.002.209-.978Zm6.048 1.293.211-.978h-.002l-.209.978Zm7.479 3.44-.694.72.004.003.69-.724Zm2.492 6.162 1.001.007-.001-.013-1 .006Zm-1.962 5.91-.797-.604h-.001l.798.603Zm-5.332 3.97.387.922-.387-.923Zm-18.327-1.293-.569.822.003.002.566-.824Zm-4.732-7.64-.096-.996-1.055.102.163 1.047.988-.154Zm8.148-.785.975-.225-.198-.855-.873.084.096.996Zm2.355 3.624.562-.828-.562.828Zm9.463 0-.557-.83-.005.002.562.828Zm.647-5.54-.652.758.007.006.645-.764Zm-3.601-1.524.212-.977-.007-.001-.205.978Zm-6.048-1.27.206-.978h-.002l-.204.979Zm-7.548-3.577-.72.694.003.003.717-.697Zm-2.423-6.417 1 .006v-.013l-1 .007Zm1.777-5.678-.799-.601h-.001l.8.6Zm5.055-3.74.377.927.003-.002-.38-.924Zm17.312 1.316-.596.803.002.002.594-.805Zm4.346 6.185-7.617.83.217 1.989 7.617-.831-.217-1.988Zm-6.545 1.555a7.128 7.128 0 0 0-1.312-2.522l-1.565 1.245c.462.581.774 1.186.951 1.816l1.926-.539Zm-1.303-2.511c-.635-.822-1.478-1.462-2.493-1.934l-.844 1.813c.769.358 1.343.81 1.754 1.344l1.583-1.223Zm-2.493-1.934c-1.059-.493-2.305-.717-3.7-.717v2c1.191 0 2.13.192 2.856.53l.844-1.813Zm-3.7-.717c-1.884 0-3.543.41-4.922 1.287l1.073 1.688c.991-.63 2.255-.975 3.849-.975v-2Zm-4.927 1.29c-1.405.906-2.21 2.18-2.189 3.785l1.999-.025c-.01-.796.339-1.476 1.273-2.078l-1.083-1.681Zm-2.189 3.758c-.02 1.322.481 2.45 1.487 3.296l1.287-1.531c-.533-.447-.786-.996-.775-1.735l-1.999-.03Zm1.495 3.303c.966.795 2.441 1.368 4.288 1.795l.45-1.95c-1.754-.404-2.863-.892-3.467-1.39l-1.271 1.544Zm4.304 1.798 6.048 1.293.418-1.956-6.048-1.293-.418 1.956Zm6.046 1.292c3.26.703 5.551 1.792 6.996 3.183l1.387-1.441c-1.817-1.75-4.512-2.953-7.961-3.697l-.422 1.955Zm7 3.186c1.426 1.36 2.169 3.143 2.183 5.445l1.999-.012c-.016-2.776-.936-5.101-2.802-6.88l-1.38 1.447Zm2.183 5.432c-.014 2.026-.603 3.784-1.76 5.313l1.595 1.207c1.428-1.888 2.148-4.069 2.164-6.506l-1.999-.014Zm-1.761 5.314c-1.154 1.53-2.779 2.753-4.92 3.65l.773 1.845c2.413-1.011 4.344-2.435 5.744-4.29l-1.597-1.205Zm-4.92 3.65c-2.133.894-4.614 1.353-7.462 1.353v2c3.062 0 5.813-.494 8.235-1.508l-.773-1.845Zm-7.462 1.353c-4.207 0-7.482-.88-9.913-2.548l-1.132 1.65c2.863 1.963 6.574 2.898 11.045 2.898v-2Zm-9.91-2.546c-2.415-1.67-3.846-3.972-4.313-6.971l-1.976.307c.549 3.526 2.272 6.317 5.151 8.31l1.138-1.646Zm-5.205-5.822 8.148-.785-.192-1.99-8.148.784.192 1.99Zm7.078-1.555c.418 1.81 1.33 3.25 2.767 4.226l1.124-1.654c-.964-.656-1.622-1.633-1.942-3.022l-1.949.45Zm2.767 4.226c1.412.96 3.188 1.396 5.247 1.396v-2c-1.787 0-3.135-.379-4.123-1.05l-1.124 1.654Zm5.247 1.396c2.114 0 3.924-.433 5.34-1.396l-1.124-1.654c-.983.668-2.359 1.05-4.216 1.05v2Zm5.336-1.393c1.423-.955 2.266-2.245 2.266-3.854h-2c0 .791-.372 1.517-1.381 2.193l1.115 1.661Zm2.266-3.854c0-1.314-.525-2.431-1.533-3.28l-1.289 1.528c.562.474.822 1.035.822 1.752h2Zm-1.525-3.274c-.952-.82-2.34-1.374-4.041-1.743l-.424 1.955c1.561.338 2.574.8 3.161 1.304l1.304-1.516Zm-4.048-1.744-6.047-1.27-.411 1.957 6.047 1.27.411-1.957Zm-6.049-1.27c-3.295-.686-5.595-1.816-7.035-3.296l-1.434 1.394c1.823 1.874 4.555 3.13 8.061 3.86l.408-1.958Zm-7.032-3.293c-1.431-1.485-2.157-3.364-2.143-5.717l-2-.012c-.017 2.818.872 5.217 2.703 7.117l1.44-1.388Zm-2.143-5.73c-.014-1.988.52-3.662 1.577-5.071l-1.6-1.2c-1.344 1.792-1.994 3.903-1.977 6.285l2-.014Zm1.576-5.07c1.092-1.45 2.621-2.595 4.633-3.414l-.754-1.853c-2.296.935-4.137 2.284-5.477 4.065l1.598 1.202Zm4.636-3.416c2.027-.833 4.395-1.263 7.122-1.263v-2c-2.936 0-5.57.463-7.882 1.414l.76 1.85Zm7.122-1.263c4.024 0 7.058.858 9.214 2.457l1.192-1.606c-2.615-1.94-6.12-2.851-10.406-2.851v2Zm9.216 2.46c2.191 1.614 3.542 3.783 4.066 6.558l1.965-.37c-.614-3.257-2.233-5.874-4.844-7.799l-1.187 1.61Zm29.481 43.72.332-.943-.003-.001-.329.944Zm-9.509-5.793.702-.712-.002-.002-.7.713Zm-5.886-9.303.939-.343-.939.343Zm-2.032-12.556-1-.004v.007l1-.004Zm2.055-12.442.938.344h.001l-.939-.344Zm5.932-9.51.711.703.002-.002-.713-.7Zm9.533-6.094.353.936-.353-.936Zm24.79-.069-.366.93.001.001.365-.93Zm8.841 5.725-.714.7.004.004.71-.704Zm5.47 8.54-.935.353.002.005.933-.358Zm1.27 18.05.986.17v-.002l-.986-.167Zm-2.054 6.233-.883-.471-.003.006.886.465Zm-3.901 4.34.542.84.005-.004-.547-.837Zm-6.186 1.73-.038-.999h-.012l.05 1Zm-4.086-.438-.301.953.301-.953Zm-2.839-1.731-.749.662.007.008.006.007.736-.677Zm-1.339-2.932.988-.158-.135-.842h-.853v1Zm-.277 0v-1h-.688l-.246.642.934.358Zm-2.008 2.54.614.789.002-.002-.616-.788Zm-3.601 1.777.279.96.009-.003-.288-.957Zm-4.778.507-.049 1h.005l.044-1Zm-5.217-1.292-.443.896.01.005.433-.901Zm-4.154-3.278-.771.637.007.01.764-.647Zm-2.724-5.124.951-.308-.951.308Zm.092-13.365-.936-.35.936.35Zm2.839-4.847-.744-.668-.005.005.749.663Zm4.063-3.14.447.895.007-.004-.454-.89Zm4.662-1.477.134.991h.004l-.138-.99Zm4.686.07-.186.982.186-.982Zm3.647 1.27-.506.861.006.004.5-.866Zm1.847 1.869-.94.341.239.659h.701v-1Zm.323 0v1h1v-1h-1Zm0-2.585v-1h-1v1h1Zm6.44 0h1v-1h-1v1Zm0 21.974h-1v.013l1-.013Zm.831 2.793-.796.605.008.011.788-.616Zm5.286-.392-.788-.616-.002.002.79.614Zm1.662-4.525-.986-.17-.001.006.987.164Zm.507-7.848-1-.006v.011l1-.005Zm-1.038-7.109-.952.308.003.008.949-.316Zm-2.955-5.632-.784.62.784-.62Zm-4.593-4.04-.526.851.009.006.517-.857Zm-5.909-2.47.247-.968-.247.969Zm-16.897.9.37.93.004-.002-.374-.927Zm-7.201 4.871-.736-.677-.003.003.739.674Zm-4.363 7.502-.946-.322-.002.003.948.32Zm.069 19.505-.943.33.002.007.941-.337Zm4.525 7.27.704-.71-.704.71Zm7.363 4.479-.328.944h.001l.327-.944Zm22.898-.831.948-.318-.331-.99-.975.374.358.934Zm1.962 5.863.458.888.762-.393-.272-.813-.948.318Zm-3.878 1.43-.273-.962-.002.001.275.962Zm-5.355 1.132-.148-.99h-.001l.149.99Zm-2.816-20.728.541.84.008-.005-.549-.835Zm3.254-9.049h-1v.007l1-.007Zm-3.301-8.125.489-.872-.489.872Zm-9.002.208-.542-.84-.005.003.547.837Zm-2.77 3.255-.906-.423-.002.004.908.419Zm-.184 9.648-.951.31.004.012.947-.322Zm2.539 3.763-.638.77.005.004.006.005.627-.78Zm6.394 20.466c-4.758 0-8.952-.65-12.595-1.928l-.663 1.887c3.897 1.368 8.321 2.041 13.258 2.041v-2Zm-12.598-1.93c-3.627-1.263-6.666-3.12-9.136-5.56l-1.405 1.423c2.7 2.668 6.002 4.674 9.883 6.026l.658-1.888Zm-9.138-5.562c-2.471-2.427-4.356-5.398-5.647-8.932l-1.879.687c1.386 3.79 3.426 7.021 6.125 9.672l1.401-1.427Zm-5.647-8.932c-1.292-3.534-1.956-7.6-1.971-12.217l-2 .007c.016 4.801.706 9.105 2.092 12.897l1.879-.687Zm-1.971-12.21c.015-4.504.686-8.534 1.993-12.1l-1.877-.69c-1.401 3.82-2.1 8.085-2.116 12.783l2 .007Zm1.994-12.102c1.308-3.583 3.211-6.627 5.704-9.15l-1.422-1.406c-2.709 2.74-4.761 6.036-6.161 9.87l1.879.686Zm5.706-9.152c2.491-2.535 5.542-4.49 9.173-5.859l-.706-1.871c-3.879 1.462-7.183 3.57-9.894 6.328l1.427 1.402Zm9.173-5.859c3.622-1.366 7.77-2.06 12.458-2.06v-2c-4.884 0-9.277.723-13.164 2.189l.706 1.871Zm12.458-2.06c4.408 0 8.273.67 11.613 1.986l.733-1.861c-3.616-1.424-7.738-2.124-12.346-2.124v2Zm11.614 1.986c3.375 1.323 6.199 3.157 8.492 5.494l1.428-1.4c-2.509-2.557-5.578-4.54-9.19-5.956l-.73 1.862Zm8.496 5.498c2.315 2.33 4.063 5.056 5.245 8.19l1.871-.707c-1.28-3.392-3.18-6.36-5.697-8.892l-1.419 1.41Zm5.247 8.195c1.198 3.122 1.803 6.523 1.803 10.213h2c0-3.912-.642-7.559-1.936-10.93l-1.867.716Zm1.803 10.213c0 2.58-.196 5.017-.586 7.311l1.972.335c.41-2.415.614-4.964.614-7.646h-2Zm-.586 7.31c-.385 2.25-1.039 4.222-1.951 5.93l1.765.942c1.027-1.924 1.742-4.106 2.158-6.535l-1.972-.337Zm-1.954 5.936c-.878 1.672-2.065 2.987-3.563 3.967l1.095 1.674c1.795-1.174 3.209-2.751 4.239-4.711l-1.771-.93Zm-3.557 3.964c-1.461.942-3.337 1.485-5.682 1.572l.075 1.999c2.61-.097 4.858-.709 6.691-1.89l-1.084-1.681Zm-5.694 1.573c-1.466.072-2.704-.068-3.735-.394l-.602 1.907c1.308.414 2.794.566 4.436.484l-.099-1.997Zm-3.735-.394c-1.028-.325-1.816-.817-2.405-1.455l-1.471 1.355c.859.931 1.963 1.593 3.274 2.007l.602-1.907Zm-2.391-1.44c-.571-.645-.943-1.442-1.1-2.427l-1.975.316c.211 1.323.731 2.48 1.577 3.436l1.498-1.325Zm-2.088-3.269h-.277v2h.277v-2Zm-1.211.642c-.274.715-.811 1.422-1.69 2.11l1.232 1.575c1.09-.852 1.892-1.837 2.326-2.969l-1.868-.716Zm-1.688 2.108c-.854.664-1.937 1.206-3.275 1.61l.576 1.914c1.525-.459 2.842-1.101 3.927-1.945l-1.228-1.58Zm-3.266 1.606c-1.309.38-2.791.542-4.455.47l-.088 1.998c1.844.08 3.548-.096 5.101-.547l-.558-1.92Zm-4.45.47c-1.752-.087-3.359-.487-4.832-1.195l-.867 1.802c1.728.83 3.598 1.292 5.601 1.39l.098-1.997Zm-4.822-1.19c-1.458-.722-2.735-1.728-3.835-3.028l-1.527 1.292c1.27 1.5 2.763 2.68 4.475 3.528l.887-1.792Zm-3.827-3.019c-1.079-1.305-1.931-2.897-2.544-4.795l-1.903.615c.68 2.104 1.644 3.928 2.905 5.454l1.542-1.274Zm-2.544-4.795c-.608-1.883-.921-4.046-.921-6.502h-2c0 2.623.334 5 1.018 7.117l1.903-.615Zm-.921-6.502c0-2.384.341-4.446.999-6.205l-1.873-.7c-.759 2.027-1.126 4.334-1.126 6.905h2Zm.999-6.205c.67-1.792 1.557-3.299 2.651-4.534l-1.498-1.326c-1.276 1.442-2.281 3.167-3.026 5.16l1.873.7Zm2.647-4.53c1.122-1.251 2.377-2.218 3.765-2.912l-.894-1.789c-1.628.814-3.082 1.94-4.36 3.366l1.489 1.335Zm3.772-2.916a13.454 13.454 0 0 1 4.342-1.377l-.267-1.982c-1.718.232-3.38.76-4.984 1.578l.909 1.781Zm4.346-1.377c1.568-.218 3.02-.193 4.362.061l.372-1.965c-1.581-.3-3.253-.321-5.009-.077l.275 1.98Zm4.362.061c1.383.262 2.483.654 3.327 1.15l1.013-1.725c-1.095-.643-2.427-1.098-3.968-1.39l-.372 1.965Zm3.333 1.153c.892.516 1.276.986 1.407 1.345l1.88-.683c-.362-.994-1.209-1.77-2.286-2.394l-1.001 1.732Zm2.347 2.004h.323v-2h-.323v2Zm1.323-1v-2.585h-2v2.585h2Zm-1-1.585h6.44v-2h-6.44v2Zm5.44-1v21.974h2V33.939h-2Zm0 21.987c.017 1.305.333 2.463 1.035 3.386l1.592-1.212c-.375-.492-.614-1.197-.627-2.2l-2 .026Zm1.043 3.396c.764.976 1.837 1.446 3.096 1.446v-2c-.711 0-1.176-.238-1.521-.678l-1.575 1.232Zm3.096 1.446c1.539 0 2.823-.627 3.767-1.84l-1.579-1.228c-.564.725-1.265 1.068-2.188 1.068v2Zm3.766-1.839c.918-1.175 1.51-2.874 1.86-4.975l-1.973-.329c-.327 1.961-.843 3.279-1.463 4.073l1.576 1.231Zm1.859-4.97c.368-2.126.538-4.806.522-8.022l-2 .01c.016 3.153-.153 5.705-.493 7.672l1.971.34Zm.522-8.012c.016-2.707-.342-5.188-1.09-7.431l-1.897.632c.668 2.004 1.002 4.263.988 6.787l1.999.012Zm-1.087-7.423c-.726-2.242-1.764-4.227-3.121-5.944l-1.569 1.24c1.197 1.514 2.128 3.284 2.787 5.32l1.903-.616Zm-3.121-5.944a18.01 18.01 0 0 0-4.861-4.276l-1.034 1.713a15.995 15.995 0 0 1 4.326 3.803l1.569-1.24Zm-4.853-4.27c-1.862-1.15-3.927-2.011-6.187-2.588l-.495 1.938c2.08.53 3.954 1.316 5.632 2.351l1.05-1.701Zm-6.187-2.588c-2.258-.577-4.658-.862-7.195-.862v2c2.387 0 4.619.268 6.7.8l.495-1.938Zm-7.195-.862c-3.871 0-7.318.592-10.323 1.803l.748 1.855c2.721-1.096 5.905-1.658 9.575-1.658v-2Zm-10.318 1.802c-2.991 1.19-5.52 2.895-7.568 5.122l1.472 1.354c1.83-1.99 4.102-3.53 6.835-4.618l-.739-1.858Zm-7.571 5.125c-2.023 2.217-3.544 4.84-4.57 7.854l1.893.644c.943-2.772 2.33-5.15 4.154-7.15l-1.477-1.348Zm-4.572 7.857c-1.008 2.994-1.506 6.29-1.506 9.875h2c0-3.4.472-6.476 1.402-9.237l-1.896-.638Zm-1.506 9.875c0 3.828.52 7.26 1.58 10.28l1.887-.663c-.971-2.766-1.467-5.966-1.467-9.617h-2Zm1.582 10.286c1.077 3.005 2.661 5.56 4.761 7.643l1.409-1.42c-1.87-1.855-3.302-4.147-4.287-6.898l-1.883.675Zm4.761 7.643c2.102 2.086 4.69 3.654 7.74 4.713l.656-1.889c-2.798-.972-5.119-2.39-6.987-4.243l-1.409 1.42Zm7.741 4.714c3.065 1.059 6.557 1.578 10.46 1.578v-2c-3.729 0-6.993-.496-9.807-1.468l-.653 1.89Zm10.46 1.578c1.807 0 3.577-.143 5.31-.429l-.326-1.973a30.524 30.524 0 0 1-4.984.402v2Zm5.31-.429a45.13 45.13 0 0 0 4.627-.992l-.531-1.928a43.217 43.217 0 0 1-4.422.947l.326 1.973Zm4.627-.992c1.35-.372 2.417-.705 3.185-1l-.715-1.867c-.679.26-1.673.573-3.001.94l.531 1.927Zm1.879-1.616 1.962 5.863 1.897-.635-1.962-5.863-1.897.635Zm2.452 4.657c-.871.45-2.092.905-3.692 1.358l.545 1.924c1.663-.47 3.027-.97 4.064-1.505l-.917-1.777Zm-3.694 1.358c-1.568.448-3.31.817-5.228 1.104l.296 1.978c1.989-.298 3.818-.683 5.481-1.159l-.549-1.923Zm-5.229 1.104a38.435 38.435 0 0 1-5.737.427v2c2.034 0 4.046-.15 6.035-.45l-.298-1.977Zm-7.353-17.608c2.072 0 3.843-.398 5.227-1.29l-1.083-1.682c-.955.616-2.308.972-4.144.972v2Zm5.235-1.296c1.381-.909 2.345-2.243 2.914-3.932l-1.895-.639c-.447 1.327-1.16 2.27-2.118 2.9l1.099 1.671Zm2.914-3.932c.555-1.647.807-3.643.791-5.958l-2 .013c.015 2.178-.225 3.937-.686 5.306l1.895.639Zm.791-5.952c0-2.165-.269-4.016-.853-5.51l-1.863.727c.462 1.183.716 2.763.716 4.783h2Zm-.853-5.51c-.6-1.535-1.585-2.718-2.959-3.487l-.977 1.745c.934.523 1.626 1.326 2.073 2.47l1.863-.729Zm-2.959-3.487c-1.355-.759-3.074-1.097-5.082-1.097v2c1.808 0 3.152.308 4.105.842l.977-1.745Zm-5.082-1.097c-1.879 0-3.545.43-4.951 1.337l1.085 1.68c1.025-.662 2.298-1.017 3.866-1.017v-2Zm-4.956 1.34c-1.366.894-2.409 2.127-3.129 3.669l1.813.846c.573-1.228 1.376-2.165 2.411-2.84l-1.095-1.675ZM262 43.953c-.7 1.52-1.038 3.23-1.038 5.104h2c0-1.633.293-3.048.855-4.267L262 43.953Zm-1.038 5.104c0 1.853.268 3.612.811 5.274l1.901-.621c-.472-1.447-.712-2.996-.712-4.653h-2Zm.815 5.285c.578 1.701 1.526 3.115 2.848 4.21l1.276-1.54c-1.017-.842-1.762-1.937-2.231-3.314l-1.893.644Zm2.859 4.22c1.411 1.136 3.249 1.652 5.405 1.652v-2c-1.845 0-3.193-.439-4.151-1.21l-1.254 1.558Z" mask="url(#b)"/><path fill="#0069FF" d="M310 0h179v90H310z"/><mask id="c" width="152" height="53" x="321" y="16" fill="#000" maskUnits="userSpaceOnUse"><path fill="#fff" d="M321 16h152v53H321z"/><path d="M344.855 29.04V67h-8.872V29.04h-13.13v-6.988h35.522l-.91 6.988h-12.61Zm27.665 23.367c.173 2.146.66 3.89 1.462 5.233.823 1.343 1.874 2.33 3.153 2.957 1.278.629 2.697.943 4.257.943 1.647 0 3.196-.26 4.648-.78 1.451-.52 2.881-1.246 4.29-2.177l3.575 4.907c-1.604 1.343-3.521 2.427-5.753 3.25-2.21.823-4.647 1.235-7.312 1.235-3.727 0-6.869-.77-9.425-2.307-2.535-1.539-4.453-3.673-5.753-6.403-1.3-2.73-1.95-5.872-1.95-9.425 0-3.423.639-6.51 1.918-9.263 1.278-2.751 3.12-4.929 5.525-6.532 2.405-1.625 5.308-2.438 8.71-2.438 3.163 0 5.893.694 8.19 2.08 2.296 1.387 4.073 3.38 5.33 5.98 1.256 2.579 1.885 5.688 1.885 9.328 0 .585-.022 1.18-.065 1.788a30.585 30.585 0 0 1-.098 1.624H372.52Zm7.377-14.754c-2.08 0-3.792.747-5.135 2.242-1.322 1.473-2.102 3.813-2.34 7.02h14.495c-.043-2.903-.65-5.167-1.82-6.792-1.148-1.647-2.882-2.47-5.2-2.47Zm41.607 23.432c1.517 0 2.936-.282 4.258-.845a20.575 20.575 0 0 0 3.867-2.145l3.9 5.492c-1.516 1.279-3.347 2.33-5.492 3.153s-4.442 1.235-6.89 1.235c-3.597 0-6.684-.747-9.263-2.242-2.556-1.517-4.528-3.619-5.915-6.306-1.365-2.708-2.047-5.85-2.047-9.425 0-3.531.693-6.684 2.08-9.457 1.408-2.795 3.401-4.983 5.98-6.565 2.6-1.582 5.698-2.372 9.295-2.372 2.47 0 4.701.357 6.695 1.072a17.485 17.485 0 0 1 5.525 3.12l-3.803 5.265c-1.278-.888-2.6-1.56-3.965-2.015a12.442 12.442 0 0 0-4.192-.715c-2.535 0-4.604.92-6.208 2.762-1.581 1.82-2.372 4.789-2.372 8.905 0 2.709.368 4.875 1.105 6.5.758 1.625 1.776 2.795 3.055 3.51 1.3.715 2.762 1.073 4.387 1.073Zm30.232-43.063V36.45c1.43-1.625 3.034-2.838 4.81-3.64a13.667 13.667 0 0 1 5.623-1.203c3.163 0 5.536.9 7.117 2.698 1.604 1.777 2.405 4.28 2.405 7.508V67h-8.58V43.73c0-2.08-.325-3.553-.975-4.42-.628-.867-1.711-1.3-3.25-1.3-.91 0-1.798.217-2.665.65a9.727 9.727 0 0 0-2.405 1.69 18.917 18.917 0 0 0-2.08 2.405V67h-8.58V18.867l8.58-.845Z"/></mask><path fill="#fff" d="M344.855 29.04V67h-8.872V29.04h-13.13v-6.988h35.522l-.91 6.988h-12.61Zm27.665 23.367c.173 2.146.66 3.89 1.462 5.233.823 1.343 1.874 2.33 3.153 2.957 1.278.629 2.697.943 4.257.943 1.647 0 3.196-.26 4.648-.78 1.451-.52 2.881-1.246 4.29-2.177l3.575 4.907c-1.604 1.343-3.521 2.427-5.753 3.25-2.21.823-4.647 1.235-7.312 1.235-3.727 0-6.869-.77-9.425-2.307-2.535-1.539-4.453-3.673-5.753-6.403-1.3-2.73-1.95-5.872-1.95-9.425 0-3.423.639-6.51 1.918-9.263 1.278-2.751 3.12-4.929 5.525-6.532 2.405-1.625 5.308-2.438 8.71-2.438 3.163 0 5.893.694 8.19 2.08 2.296 1.387 4.073 3.38 5.33 5.98 1.256 2.579 1.885 5.688 1.885 9.328 0 .585-.022 1.18-.065 1.788a30.585 30.585 0 0 1-.098 1.624H372.52Zm7.377-14.754c-2.08 0-3.792.747-5.135 2.242-1.322 1.473-2.102 3.813-2.34 7.02h14.495c-.043-2.903-.65-5.167-1.82-6.792-1.148-1.647-2.882-2.47-5.2-2.47Zm41.607 23.432c1.517 0 2.936-.282 4.258-.845a20.575 20.575 0 0 0 3.867-2.145l3.9 5.492c-1.516 1.279-3.347 2.33-5.492 3.153s-4.442 1.235-6.89 1.235c-3.597 0-6.684-.747-9.263-2.242-2.556-1.517-4.528-3.619-5.915-6.306-1.365-2.708-2.047-5.85-2.047-9.425 0-3.531.693-6.684 2.08-9.457 1.408-2.795 3.401-4.983 5.98-6.565 2.6-1.582 5.698-2.372 9.295-2.372 2.47 0 4.701.357 6.695 1.072a17.485 17.485 0 0 1 5.525 3.12l-3.803 5.265c-1.278-.888-2.6-1.56-3.965-2.015a12.442 12.442 0 0 0-4.192-.715c-2.535 0-4.604.92-6.208 2.762-1.581 1.82-2.372 4.789-2.372 8.905 0 2.709.368 4.875 1.105 6.5.758 1.625 1.776 2.795 3.055 3.51 1.3.715 2.762 1.073 4.387 1.073Zm30.232-43.063V36.45c1.43-1.625 3.034-2.838 4.81-3.64a13.667 13.667 0 0 1 5.623-1.203c3.163 0 5.536.9 7.117 2.698 1.604 1.777 2.405 4.28 2.405 7.508V67h-8.58V43.73c0-2.08-.325-3.553-.975-4.42-.628-.867-1.711-1.3-3.25-1.3-.91 0-1.798.217-2.665.65a9.727 9.727 0 0 0-2.405 1.69 18.917 18.917 0 0 0-2.08 2.405V67h-8.58V18.867l8.58-.845Z"/><path fill="#fff" d="M344.855 29.04v-1h-1v1h1Zm0 37.96v1h1v-1h-1Zm-8.872 0h-1v1h1v-1Zm0-37.96h1v-1h-1v1Zm-13.13 0h-1v1h1v-1Zm0-6.988v-1h-1v1h1Zm35.522 0 .992.13.147-1.13h-1.139v1Zm-.91 6.988v1h.878l.114-.87-.992-.13Zm-13.61 0V67h2V29.04h-2Zm1 36.96h-8.872v2h8.872v-2Zm-7.872 1V29.04h-2V67h2Zm-1-38.96h-13.13v2h13.13v-2Zm-12.13 1v-6.988h-2v6.988h2Zm-1-5.988h35.522v-2h-35.522v2Zm34.53-1.129-.91 6.988 1.984.258.91-6.987-1.984-.259Zm.082 6.117h-12.61v2h12.61v-2Zm15.055 24.367v-1h-1.084l.087 1.081.997-.08Zm1.462 5.233-.859.513.007.01.852-.523Zm3.153 2.957-.442.898.442-.898Zm8.905.163.337.941-.337-.941Zm4.29-2.177.808-.59-.563-.772-.797.528.552.834Zm3.575 4.907.642.767.716-.6-.55-.756-.808.589Zm-5.753 3.25-.346-.938h-.003l.349.938Zm-16.737-1.072-.519.854.003.002.516-.856Zm-5.753-6.403.903-.43-.903.43Zm-.032-18.688.907.422-.907-.422Zm5.525-6.532.554.832.005-.003-.559-.829Zm16.9-.358.516-.856-.516.856Zm5.33 5.98-.901.436.002.003.899-.439Zm1.82 11.115-.998-.07-.001.017-.001.018 1 .035Zm-.098 1.626v1h.913l.083-.91-.996-.09Zm-20.345-12.513-.744-.668.744.668Zm-2.34 7.02-.997-.074-.08 1.074h1.077v-1Zm14.495 0v1h1.015l-.015-1.015-1 .015Zm-1.82-6.792-.82.572.004.006.005.006.811-.584Zm-13.574 12.365c.181 2.243.696 4.15 1.6 5.665l1.718-1.026c-.7-1.172-1.159-2.754-1.325-4.8l-1.993.161Zm1.607 5.675c.911 1.487 2.098 2.611 3.563 3.332l.883-1.795c-1.091-.536-2.006-1.383-2.741-2.583l-1.705 1.046Zm3.563 3.332c1.429.702 3.001 1.045 4.699 1.045v-2c-1.422 0-2.688-.285-3.816-.84l-.883 1.795Zm4.699 1.045c1.754 0 3.418-.277 4.985-.839l-.675-1.882c-1.336.478-2.77.721-4.31.721v2Zm4.985-.839c1.534-.55 3.035-1.313 4.504-2.285l-1.103-1.667c-1.348.891-2.706 1.58-4.076 2.07l.675 1.882Zm3.144-2.53 3.575 4.908 1.617-1.178-3.575-4.907-1.617 1.177Zm3.741 3.553c-1.504 1.26-3.318 2.289-5.456 3.078l.692 1.876c2.325-.858 4.346-1.995 6.049-3.421l-1.285-1.534Zm-5.459 3.079c-2.085.777-4.402 1.172-6.963 1.172v2c2.768 0 5.326-.428 7.661-1.298l-.698-1.874Zm-6.963 1.172c-3.59 0-6.543-.74-8.91-2.164l-1.031 1.713c2.747 1.653 6.077 2.451 9.941 2.451v-2Zm-8.907-2.162c-2.364-1.436-4.15-3.42-5.368-5.978l-1.806.86c1.382 2.902 3.432 5.186 6.137 6.827l1.037-1.71Zm-5.368-5.978c-1.226-2.574-1.853-5.565-1.853-8.995h-2c0 3.676.673 6.97 2.047 9.855l1.806-.86Zm-1.853-8.995c0-3.297.615-6.238 1.825-8.841l-1.814-.843c-1.347 2.9-2.011 6.134-2.011 9.684h2Zm1.825-8.841c1.204-2.594 2.928-4.626 5.172-6.122l-1.109-1.664c-2.566 1.71-4.526 4.033-5.877 6.943l1.814.843Zm5.177-6.125c2.213-1.495 4.913-2.267 8.151-2.267v-2c-3.566 0-6.673.855-9.27 2.61l1.119 1.657Zm8.151-2.267c3.014 0 5.558.66 7.673 1.937l1.033-1.713c-2.478-1.496-5.394-2.224-8.706-2.224v2Zm7.673 1.937c2.118 1.278 3.767 3.12 4.946 5.559l1.801-.87c-1.334-2.761-3.238-4.907-5.714-6.402l-1.033 1.713Zm4.948 5.562c1.174 2.41 1.784 5.361 1.784 8.889h2c0-3.752-.648-7.02-1.986-9.766l-1.798.877Zm1.784 8.889c0 .56-.021 1.132-.063 1.716l1.995.143c.045-.63.068-1.25.068-1.859h-2Zm-.065 1.752a28.088 28.088 0 0 1-.094 1.57l1.992.181c.045-.499.079-1.06.101-1.68l-1.999-.071Zm.902.66H372.52v2h22.587v-2Zm-15.21-14.754c-2.352 0-4.338.86-5.879 2.574l1.488 1.336c1.146-1.275 2.584-1.91 4.391-1.91v-2Zm-5.879 2.574c-1.537 1.713-2.348 4.314-2.593 7.614l1.994.148c.232-3.113.98-5.192 2.087-6.426l-1.488-1.336Zm-1.596 8.688h14.495v-2h-14.495v2Zm15.495-1.015c-.045-3.02-.676-5.511-2.008-7.362l-1.623 1.169c1.007 1.4 1.59 3.436 1.631 6.223l2-.03Zm-2-7.35c-1.366-1.959-3.433-2.897-6.02-2.897v2c2.05 0 3.45.708 4.38 2.041l1.64-1.144Zm39.845 20.69-.387-.922-.005.002.392.92Zm3.867-2.145.816-.579-.576-.81-.814.57.574.819Zm3.9 5.492.645.765.703-.593-.532-.75-.816.578Zm-5.492 3.153.358.934-.358-.934Zm-16.153-1.007-.51.86.009.005.501-.865Zm-5.915-6.306-.893.45.005.01.888-.46Zm.033-18.882-.893-.45-.002.003.895.447Zm5.98-6.565-.52-.854-.003.002.523.852Zm15.99-1.3-.338.941.012.005.326-.946Zm5.525 3.12.81.586.547-.758-.718-.597-.639.769Zm-3.803 5.265-.57.821.806.56.575-.795-.811-.586Zm-3.965-2.015-.334.942.009.004.009.003.316-.949Zm-10.4 2.047-.754-.656h-.001l.755.656Zm-1.267 15.405-.911.413.005.01.906-.422Zm3.055 3.51-.488.873.006.004.482-.877Zm4.387 2.073c1.644 0 3.197-.306 4.65-.925l-.784-1.84c-1.191.508-2.476.765-3.866.765v2Zm4.644-.923a21.586 21.586 0 0 0 4.056-2.248l-1.149-1.638a19.585 19.585 0 0 1-3.68 2.042l.773 1.844Zm2.666-2.488 3.9 5.492 1.631-1.157-3.9-5.493-1.631 1.158Zm4.071 4.149c-1.419 1.196-3.15 2.194-5.207 2.983l.717 1.868c2.233-.858 4.164-1.961 5.779-3.322l-1.289-1.53Zm-5.207 2.983c-2.023.777-4.197 1.169-6.531 1.169v2c2.562 0 4.981-.431 7.248-1.301l-.717-1.868Zm-6.531 1.169c-3.457 0-6.364-.718-8.761-2.108l-1.003 1.73c2.759 1.6 6.027 2.378 9.764 2.378v-2Zm-8.753-2.103c-2.392-1.419-4.234-3.38-5.536-5.903l-1.777.917c1.471 2.85 3.572 5.092 6.293 6.707l1.02-1.72Zm-5.532-5.895c-1.283-2.545-1.94-5.528-1.94-8.974h-2c0 3.703.707 7.004 2.154 9.875l1.786-.9Zm-1.94-8.974c0-3.399.666-6.395 1.974-9.01l-1.789-.895c-1.465 2.93-2.185 6.24-2.185 9.904h2Zm1.973-9.008c1.328-2.635 3.195-4.682 5.61-6.163l-1.046-1.704c-2.743 1.682-4.861 4.012-6.35 6.967l1.786.9Zm5.606-6.16c2.417-1.471 5.329-2.227 8.776-2.227v-2c-3.747 0-7.032.825-9.815 2.518l1.039 1.708Zm8.776-2.227c2.373 0 4.488.343 6.357 1.013l.675-1.882c-2.118-.76-4.466-1.131-7.032-1.131v2Zm6.369 1.018a16.478 16.478 0 0 1 5.212 2.943l1.278-1.538a18.478 18.478 0 0 0-5.839-3.297l-.651 1.892Zm5.04 1.589-3.802 5.264 1.621 1.172 3.802-5.266-1.621-1.17Zm-2.421 5.029c-1.35-.938-2.757-1.655-4.22-2.143L425.413 40c1.267.422 2.504 1.049 3.711 1.887l1.141-1.642Zm-4.201-2.136a13.447 13.447 0 0 0-4.527-.773v2c1.34 0 2.624.22 3.858.657l.669-1.884Zm-4.527-.773c-2.812 0-5.161 1.037-6.962 3.106l1.508 1.313c1.406-1.614 3.195-2.419 5.454-2.419v-2Zm-6.963 3.106c-1.818 2.093-2.617 5.36-2.617 9.561h2c0-4.032.782-6.701 2.127-8.248l-1.51-1.313Zm-2.617 9.561c0 2.784.376 5.11 1.194 6.913l1.822-.825c-.656-1.446-1.016-3.455-1.016-6.088h-2Zm1.199 6.923c.826 1.772 1.973 3.122 3.473 3.96l.976-1.745c-1.058-.592-1.947-1.582-2.637-3.06l-1.812.845Zm3.479 3.964c1.461.803 3.092 1.196 4.869 1.196v-2c-1.473 0-2.767-.322-3.905-.949l-.964 1.753Zm35.101-42.867h1V16.92l-1.098.108.098.995Zm0 18.428h-1v2.65l1.751-1.99-.751-.66Zm4.81-3.64-.407-.913-.004.002.411.911Zm12.74 1.495-.751.66.009.01.742-.67ZM471.691 67v1h1v-1h-1Zm-8.58 0h-1v1h1v-1Zm-.975-27.69-.809.587.004.007.005.006.8-.6Zm-5.915-.65.438.899.01-.005-.448-.894Zm-2.405 1.69-.686-.728-.005.005-.005.005.696.718Zm-2.08 2.405-.807-.59-.193.263v.327h1Zm0 24.245v1h1v-1h-1Zm-8.58 0h-1v1h1v-1Zm0-48.133-.098-.995-.902.09v.905h1Zm7.58-.845V36.45h2V18.022h-2Zm1.751 19.089c1.346-1.53 2.837-2.652 4.471-3.39l-.823-1.822c-1.92.866-3.636 2.17-5.149 3.89l1.501 1.322Zm4.466-3.388a12.668 12.668 0 0 1 5.216-1.115v-2c-2.092 0-4.105.43-6.03 1.289l.814 1.826Zm5.216-1.115c2.973 0 5.031.839 6.366 2.357l1.502-1.32c-1.827-2.078-4.515-3.038-7.868-3.038v2Zm6.375 2.367c1.387 1.537 2.147 3.77 2.147 6.837h2c0-3.388-.843-6.16-2.662-8.177l-1.485 1.34Zm2.147 6.837V67h2V41.812h-2Zm1 24.188h-8.58v2h8.58v-2Zm-7.58 1V43.73h-2V67h2Zm0-23.27c0-2.127-.321-3.881-1.175-5.02l-1.6 1.2c.446.595.775 1.787.775 3.82h2Zm-1.165-5.007c-.889-1.227-2.349-1.713-4.06-1.713v2c1.367 0 2.073.38 2.441.887l1.619-1.174Zm-4.06-1.713a6.893 6.893 0 0 0-3.112.756l.895 1.788a4.896 4.896 0 0 1 2.217-.544v-2Zm-3.103.751a10.715 10.715 0 0 0-2.653 1.861l1.372 1.456a8.72 8.72 0 0 1 2.157-1.519l-.876-1.798Zm-2.663 1.871c-.78.757-1.51 1.602-2.191 2.532l1.614 1.181a17.892 17.892 0 0 1 1.97-2.277l-1.393-1.436Zm-2.384 3.123V67h2V42.755h-2Zm1 23.245h-8.58v2h8.58v-2Zm-7.58 1V18.867h-2V67h2Zm-.902-47.137 8.58-.845-.196-1.99-8.58.844.196 1.99Z" mask="url(#c)"/></g><defs><clipPath id="a"><path fill="#fff" d="M0 0h489v90H0z"/></clipPath></defs></svg>