<svg width="490" height="90" viewBox="0 0 490 90" fill="none" xmlns="http://www.w3.org/2000/svg">
<g clip-path="url(#clip0_221_242)">
<rect width="490" height="90" fill="white"/>
<mask id="path-1-outside-1_221_242" maskUnits="userSpaceOnUse" x="-1" y="17" width="306" height="64" fill="black">
<rect fill="white" x="-1" y="17" width="306" height="64"/>
<path d="M17.9432 66.6925C14.3116 66.6925 11.1877 65.9231 8.57173 64.3842C5.97112 62.83 3.97064 60.6757 2.57031 57.9212C1.18537 55.1667 0.492898 51.9967 0.492898 48.4112C0.492898 44.7796 1.19306 41.5942 2.5934 38.8551C4.00911 36.1006 6.01728 33.954 8.6179 32.4151C11.2185 30.8609 14.3116 30.0838 17.897 30.0838C20.9901 30.0838 23.6984 30.6455 26.022 31.7688C28.3456 32.8922 30.1845 34.4695 31.5387 36.5007C32.8929 38.532 33.6392 40.9171 33.7777 43.6562H24.4986C24.237 41.8866 23.5445 40.4632 22.4212 39.386C21.3132 38.2934 19.859 37.7472 18.0586 37.7472C16.5352 37.7472 15.2041 38.1626 14.0653 38.9936C12.942 39.8092 12.0649 41.0018 11.4339 42.5714C10.803 44.141 10.4876 46.0414 10.4876 48.2727C10.4876 50.5348 10.7953 52.4583 11.4109 54.0433C12.0418 55.6283 12.9266 56.8363 14.0653 57.6673C15.2041 58.4982 16.5352 58.9137 18.0586 58.9137C19.1819 58.9137 20.1899 58.6829 21.0824 58.2212C21.9903 57.7596 22.7366 57.0902 23.3214 56.2131C23.9215 55.3205 24.3139 54.2511 24.4986 53.0046H33.7777C33.6238 55.7129 32.8852 58.0981 31.5618 60.1602C30.2538 62.2068 28.4457 63.8072 26.1374 64.9613C23.8292 66.1154 21.0978 66.6925 17.9432 66.6925ZM50.1835 66.6694C47.9214 66.6694 45.9056 66.277 44.1359 65.4922C42.3663 64.692 40.9659 63.5148 39.9349 61.9606C38.9193 60.391 38.4115 58.4367 38.4115 56.0977C38.4115 54.128 38.7731 52.4737 39.4964 51.1349C40.2196 49.7962 41.2045 48.719 42.4509 47.9034C43.6974 47.0878 45.1131 46.4723 46.6981 46.0568C48.2984 45.6413 49.9758 45.349 51.73 45.1797C53.7921 44.9643 55.454 44.7642 56.7158 44.5795C57.9777 44.3795 58.8933 44.0871 59.4626 43.7024C60.032 43.3177 60.3167 42.7483 60.3167 41.9943V41.8558C60.3167 40.3939 59.855 39.2629 58.9317 38.4627C58.0238 37.6625 56.7312 37.2624 55.0539 37.2624C53.2842 37.2624 51.8762 37.6548 50.8298 38.4396C49.7834 39.209 49.0909 40.1785 48.7524 41.348L39.6579 40.6094C40.1196 38.455 41.0275 36.593 42.3817 35.0234C43.7358 33.4384 45.4824 32.2228 47.6214 31.3764C49.7757 30.5147 52.2686 30.0838 55.1001 30.0838C57.0698 30.0838 58.9548 30.3146 60.7552 30.7763C62.5711 31.2379 64.1791 31.9535 65.5795 32.9229C66.9952 33.8924 68.1108 35.1388 68.9264 36.6623C69.742 38.1703 70.1498 39.9785 70.1498 42.0866V66H60.8245V61.0835H60.5475C59.9781 62.1914 59.2164 63.1686 58.2623 64.0149C57.3083 64.8459 56.1618 65.4999 54.8231 65.9769C53.4843 66.4386 51.9378 66.6694 50.1835 66.6694ZM52.9996 59.8832C54.4461 59.8832 55.7233 59.5985 56.8312 59.0291C57.9392 58.4444 58.8086 57.6596 59.4395 56.6747C60.0705 55.6899 60.3859 54.5742 60.3859 53.3278V49.5653C60.0782 49.7654 59.655 49.95 59.1164 50.1193C58.5932 50.2732 58.0007 50.4194 57.339 50.5579C56.6774 50.681 56.0157 50.7964 55.354 50.9041C54.6923 50.9964 54.0921 51.0811 53.5535 51.158C52.3994 51.3273 51.3915 51.5966 50.5297 51.9659C49.668 52.3352 48.9986 52.8353 48.5216 53.4663C48.0445 54.0818 47.806 54.8512 47.806 55.7745C47.806 57.1133 48.2907 58.1366 49.2602 58.8445C50.2451 59.5369 51.4915 59.8832 52.9996 59.8832ZM77.7785 66V30.5455H87.3115V36.7315H87.6808C88.3271 34.531 89.412 32.8691 90.9355 31.7457C92.4589 30.607 94.2132 30.0376 96.1982 30.0376C96.6907 30.0376 97.2216 30.0684 97.7909 30.13C98.3603 30.1915 98.8604 30.2762 99.2913 30.3839V39.109C98.8296 38.9705 98.191 38.8474 97.3754 38.7397C96.5599 38.632 95.8135 38.5781 95.1365 38.5781C93.69 38.5781 92.3973 38.8936 91.2586 39.5245C90.1353 40.14 89.2427 41.0018 88.5811 42.1097C87.9347 43.2177 87.6116 44.4949 87.6116 45.9414V66H77.7785ZM118.882 66.6925C115.235 66.6925 112.096 65.9538 109.465 64.4766C106.849 62.9839 104.833 60.8757 103.417 58.152C102.002 55.4129 101.294 52.1736 101.294 48.4343C101.294 44.7873 102.002 41.5865 103.417 38.832C104.833 36.0775 106.826 33.9309 109.396 32.392C111.981 30.8532 115.012 30.0838 118.49 30.0838C120.829 30.0838 123.007 30.4608 125.022 31.2148C127.054 31.9535 128.823 33.0691 130.331 34.5618C131.855 36.0545 133.04 37.9318 133.886 40.1939C134.732 42.4406 135.156 45.072 135.156 48.0881V50.7887H105.218V44.695H125.9C125.9 43.2792 125.592 42.0251 124.976 40.9325C124.361 39.84 123.507 38.9859 122.414 38.3704C121.337 37.7395 120.083 37.424 118.652 37.424C117.159 37.424 115.836 37.7702 114.681 38.4627C113.543 39.1398 112.65 40.0554 112.004 41.2095C111.358 42.3482 111.027 43.6178 111.011 45.0181V50.8118C111.011 52.5661 111.335 54.0818 111.981 55.359C112.643 56.6362 113.574 57.6211 114.774 58.3136C115.974 59.006 117.397 59.3523 119.044 59.3523C120.137 59.3523 121.137 59.1984 122.045 58.8906C122.953 58.5829 123.73 58.1212 124.376 57.5057C125.022 56.8902 125.515 56.1361 125.853 55.2436L134.948 55.8438C134.486 58.0289 133.54 59.937 132.109 61.5682C130.693 63.1839 128.862 64.4458 126.615 65.3537C124.384 66.2462 121.806 66.6925 118.882 66.6925ZM157.73 66.6925C154.083 66.6925 150.944 65.9538 148.312 64.4766C145.696 62.9839 143.681 60.8757 142.265 58.152C140.849 55.4129 140.141 52.1736 140.141 48.4343C140.141 44.7873 140.849 41.5865 142.265 38.832C143.681 36.0775 145.673 33.9309 148.243 32.392C150.828 30.8532 153.86 30.0838 157.338 30.0838C159.677 30.0838 161.854 30.4608 163.87 31.2148C165.901 31.9535 167.671 33.0691 169.179 34.5618C170.702 36.0545 171.887 37.9318 172.734 40.1939C173.58 42.4406 174.003 45.072 174.003 48.0881V50.7887H144.065V44.695H164.747C164.747 43.2792 164.439 42.0251 163.824 40.9325C163.208 39.84 162.354 38.9859 161.262 38.3704C160.185 37.7395 158.93 37.424 157.499 37.424C156.007 37.424 154.683 37.7702 153.529 38.4627C152.39 39.1398 151.498 40.0554 150.852 41.2095C150.205 42.3482 149.874 43.6178 149.859 45.0181V50.8118C149.859 52.5661 150.182 54.0818 150.828 55.359C151.49 56.6362 152.421 57.6211 153.621 58.3136C154.822 59.006 156.245 59.3523 157.892 59.3523C158.984 59.3523 159.984 59.1984 160.892 58.8906C161.8 58.5829 162.577 58.1212 163.224 57.5057C163.87 56.8902 164.362 56.1361 164.701 55.2436L173.795 55.8438C173.334 58.0289 172.387 59.937 170.956 61.5682C169.541 63.1839 167.709 64.4458 165.463 65.3537C163.231 66.2462 160.654 66.6925 157.73 66.6925ZM180.42 66V30.5455H189.953V36.7315H190.322C190.969 34.531 192.054 32.8691 193.577 31.7457C195.1 30.607 196.855 30.0376 198.84 30.0376C199.332 30.0376 199.863 30.0684 200.433 30.13C201.002 30.1915 201.502 30.2762 201.933 30.3839V39.109C201.471 38.9705 200.833 38.8474 200.017 38.7397C199.201 38.632 198.455 38.5781 197.778 38.5781C196.332 38.5781 195.039 38.8936 193.9 39.5245C192.777 40.14 191.884 41.0018 191.223 42.1097C190.576 43.2177 190.253 44.4949 190.253 45.9414V66H180.42ZM236.516 40.6555L227.514 41.2095C227.36 40.4401 227.029 39.7476 226.521 39.1321C226.014 38.5012 225.344 38.0011 224.513 37.6317C223.698 37.247 222.72 37.0547 221.582 37.0547C220.058 37.0547 218.773 37.3778 217.727 38.0241C216.681 38.6551 216.157 39.5014 216.157 40.5632C216.157 41.4096 216.496 42.1251 217.173 42.7099C217.85 43.2946 219.012 43.764 220.658 44.1179L227.075 45.4105C230.522 46.1184 233.092 47.2571 234.785 48.8267C236.478 50.3963 237.324 52.4583 237.324 55.0128C237.324 57.3364 236.639 59.3754 235.27 61.1296C233.915 62.8839 232.053 64.2534 229.684 65.2383C227.329 66.2077 224.613 66.6925 221.536 66.6925C216.842 66.6925 213.103 65.7153 210.318 63.761C207.548 61.7913 205.924 59.1138 205.447 55.7283L215.119 55.2205C215.411 56.6516 216.119 57.7442 217.242 58.4982C218.366 59.2369 219.804 59.6062 221.559 59.6062C223.282 59.6062 224.667 59.2753 225.714 58.6136C226.775 57.9366 227.314 57.0671 227.329 56.0053C227.314 55.1128 226.937 54.3819 226.198 53.8125C225.46 53.2277 224.321 52.7815 222.782 52.4737L216.642 51.2504C213.18 50.5579 210.602 49.3576 208.91 47.6495C207.232 45.9414 206.394 43.764 206.394 41.1172C206.394 38.8397 207.009 36.8777 208.24 35.2312C209.487 33.5846 211.233 32.3151 213.48 31.4226C215.742 30.5301 218.389 30.0838 221.42 30.0838C225.898 30.0838 229.422 31.0302 231.992 32.9229C234.577 34.8157 236.085 37.3932 236.516 40.6555ZM274.469 79.6186C269.56 79.6186 265.19 78.9492 261.358 77.6104C257.527 76.2871 254.288 74.3404 251.641 71.7706C248.994 69.2161 246.978 66.0923 245.593 62.3991C244.208 58.706 243.516 54.505 243.516 49.7962C243.516 45.1489 244.208 40.9325 245.593 37.147C246.994 33.3615 249.032 30.1146 251.71 27.4062C254.388 24.6825 257.658 22.5897 261.52 21.1278C265.398 19.666 269.814 18.935 274.769 18.935C279.355 18.935 283.448 19.6044 287.049 20.9432C290.665 22.282 293.728 24.1901 296.236 26.6676C298.76 29.1297 300.675 32.0612 301.983 35.462C303.307 38.8474 303.961 42.5945 303.945 46.7031C303.961 49.5346 303.715 52.1352 303.207 54.505C302.699 56.8748 301.899 58.9445 300.806 60.7141C299.729 62.4684 298.313 63.861 296.559 64.892C294.805 65.9077 292.681 66.4847 290.188 66.6232C288.403 66.7617 286.957 66.6309 285.849 66.2308C284.741 65.8307 283.895 65.2383 283.31 64.4535C282.74 63.6533 282.371 62.7223 282.202 61.6605H281.925C281.556 62.5838 280.832 63.4225 279.755 64.1765C278.678 64.9151 277.362 65.4922 275.808 65.9077C274.269 66.3078 272.63 66.454 270.892 66.3462C269.076 66.2385 267.352 65.8153 265.721 65.0767C264.105 64.3381 262.666 63.2686 261.405 61.8683C260.158 60.4679 259.173 58.7367 258.45 56.6747C257.742 54.6127 257.381 52.2275 257.365 49.5192C257.381 46.8416 257.758 44.5103 258.496 42.5252C259.25 40.5401 260.243 38.8705 261.474 37.5163C262.72 36.1622 264.105 35.1004 265.629 34.331C267.152 33.5616 268.683 33.0691 270.222 32.8537C271.961 32.5921 273.608 32.5921 275.162 32.8537C276.716 33.1153 278.024 33.5385 279.086 34.1232C280.163 34.708 280.832 35.3389 281.094 36.016H281.417V33.4308H288.642V55.9592C288.657 57.021 288.896 57.8442 289.357 58.429C289.819 59.0137 290.442 59.3061 291.227 59.3061C292.289 59.3061 293.174 58.8368 293.882 57.8981C294.605 56.9594 295.143 55.5206 295.497 53.5817C295.867 51.6428 296.051 49.1729 296.051 46.1722C296.051 43.2792 295.667 40.7402 294.897 38.555C294.143 36.3545 293.081 34.4848 291.712 32.946C290.358 31.3918 288.78 30.13 286.98 29.1605C285.18 28.191 283.225 27.4832 281.117 27.0369C279.024 26.5907 276.87 26.3675 274.654 26.3675C270.822 26.3675 267.475 26.9523 264.613 28.1218C261.751 29.2759 259.366 30.8994 257.458 32.9922C255.549 35.085 254.118 37.5394 253.164 40.3555C252.226 43.1561 251.749 46.2107 251.733 49.5192C251.749 53.1662 252.256 56.3977 253.257 59.2138C254.272 62.0144 255.765 64.3688 257.735 66.277C259.704 68.1851 262.136 69.6316 265.029 70.6165C267.922 71.6013 271.245 72.0938 275 72.0938C276.77 72.0938 278.501 71.9629 280.194 71.7013C281.886 71.4551 283.418 71.1474 284.787 70.7781C286.157 70.4241 287.257 70.0779 288.088 69.7393L290.373 76.4332C289.404 76.9872 288.088 77.5027 286.426 77.9798C284.779 78.4722 282.917 78.8646 280.84 79.157C278.778 79.4647 276.654 79.6186 274.469 79.6186ZM273.407 58.7521C275.285 58.7521 276.778 58.3905 277.885 57.6673C279.009 56.944 279.809 55.8745 280.286 54.4588C280.778 53.0277 281.009 51.2657 280.979 49.1729C280.963 47.3263 280.725 45.7644 280.263 44.4872C279.817 43.1946 279.04 42.2174 277.932 41.5558C276.839 40.8787 275.316 40.5401 273.361 40.5401C271.653 40.5401 270.199 40.9018 268.999 41.625C267.814 42.3482 266.906 43.3639 266.275 44.6719C265.66 45.9645 265.344 47.4879 265.329 49.2422C265.344 50.8733 265.606 52.4199 266.113 53.8817C266.621 55.3282 267.46 56.5054 268.629 57.4134C269.799 58.3059 271.392 58.7521 273.407 58.7521Z"/>
</mask>
<path d="M17.9432 66.6925C14.3116 66.6925 11.1877 65.9231 8.57173 64.3842C5.97112 62.83 3.97064 60.6757 2.57031 57.9212C1.18537 55.1667 0.492898 51.9967 0.492898 48.4112C0.492898 44.7796 1.19306 41.5942 2.5934 38.8551C4.00911 36.1006 6.01728 33.954 8.6179 32.4151C11.2185 30.8609 14.3116 30.0838 17.897 30.0838C20.9901 30.0838 23.6984 30.6455 26.022 31.7688C28.3456 32.8922 30.1845 34.4695 31.5387 36.5007C32.8929 38.532 33.6392 40.9171 33.7777 43.6562H24.4986C24.237 41.8866 23.5445 40.4632 22.4212 39.386C21.3132 38.2934 19.859 37.7472 18.0586 37.7472C16.5352 37.7472 15.2041 38.1626 14.0653 38.9936C12.942 39.8092 12.0649 41.0018 11.4339 42.5714C10.803 44.141 10.4876 46.0414 10.4876 48.2727C10.4876 50.5348 10.7953 52.4583 11.4109 54.0433C12.0418 55.6283 12.9266 56.8363 14.0653 57.6673C15.2041 58.4982 16.5352 58.9137 18.0586 58.9137C19.1819 58.9137 20.1899 58.6829 21.0824 58.2212C21.9903 57.7596 22.7366 57.0902 23.3214 56.2131C23.9215 55.3205 24.3139 54.2511 24.4986 53.0046H33.7777C33.6238 55.7129 32.8852 58.0981 31.5618 60.1602C30.2538 62.2068 28.4457 63.8072 26.1374 64.9613C23.8292 66.1154 21.0978 66.6925 17.9432 66.6925ZM50.1835 66.6694C47.9214 66.6694 45.9056 66.277 44.1359 65.4922C42.3663 64.692 40.9659 63.5148 39.9349 61.9606C38.9193 60.391 38.4115 58.4367 38.4115 56.0977C38.4115 54.128 38.7731 52.4737 39.4964 51.1349C40.2196 49.7962 41.2045 48.719 42.4509 47.9034C43.6974 47.0878 45.1131 46.4723 46.6981 46.0568C48.2984 45.6413 49.9758 45.349 51.73 45.1797C53.7921 44.9643 55.454 44.7642 56.7158 44.5795C57.9777 44.3795 58.8933 44.0871 59.4626 43.7024C60.032 43.3177 60.3167 42.7483 60.3167 41.9943V41.8558C60.3167 40.3939 59.855 39.2629 58.9317 38.4627C58.0238 37.6625 56.7312 37.2624 55.0539 37.2624C53.2842 37.2624 51.8762 37.6548 50.8298 38.4396C49.7834 39.209 49.0909 40.1785 48.7524 41.348L39.6579 40.6094C40.1196 38.455 41.0275 36.593 42.3817 35.0234C43.7358 33.4384 45.4824 32.2228 47.6214 31.3764C49.7757 30.5147 52.2686 30.0838 55.1001 30.0838C57.0698 30.0838 58.9548 30.3146 60.7552 30.7763C62.5711 31.2379 64.1791 31.9535 65.5795 32.9229C66.9952 33.8924 68.1108 35.1388 68.9264 36.6623C69.742 38.1703 70.1498 39.9785 70.1498 42.0866V66H60.8245V61.0835H60.5475C59.9781 62.1914 59.2164 63.1686 58.2623 64.0149C57.3083 64.8459 56.1618 65.4999 54.8231 65.9769C53.4843 66.4386 51.9378 66.6694 50.1835 66.6694ZM52.9996 59.8832C54.4461 59.8832 55.7233 59.5985 56.8312 59.0291C57.9392 58.4444 58.8086 57.6596 59.4395 56.6747C60.0705 55.6899 60.3859 54.5742 60.3859 53.3278V49.5653C60.0782 49.7654 59.655 49.95 59.1164 50.1193C58.5932 50.2732 58.0007 50.4194 57.339 50.5579C56.6774 50.681 56.0157 50.7964 55.354 50.9041C54.6923 50.9964 54.0921 51.0811 53.5535 51.158C52.3994 51.3273 51.3915 51.5966 50.5297 51.9659C49.668 52.3352 48.9986 52.8353 48.5216 53.4663C48.0445 54.0818 47.806 54.8512 47.806 55.7745C47.806 57.1133 48.2907 58.1366 49.2602 58.8445C50.2451 59.5369 51.4915 59.8832 52.9996 59.8832ZM77.7785 66V30.5455H87.3115V36.7315H87.6808C88.3271 34.531 89.412 32.8691 90.9355 31.7457C92.4589 30.607 94.2132 30.0376 96.1982 30.0376C96.6907 30.0376 97.2216 30.0684 97.7909 30.13C98.3603 30.1915 98.8604 30.2762 99.2913 30.3839V39.109C98.8296 38.9705 98.191 38.8474 97.3754 38.7397C96.5599 38.632 95.8135 38.5781 95.1365 38.5781C93.69 38.5781 92.3973 38.8936 91.2586 39.5245C90.1353 40.14 89.2427 41.0018 88.5811 42.1097C87.9347 43.2177 87.6116 44.4949 87.6116 45.9414V66H77.7785ZM118.882 66.6925C115.235 66.6925 112.096 65.9538 109.465 64.4766C106.849 62.9839 104.833 60.8757 103.417 58.152C102.002 55.4129 101.294 52.1736 101.294 48.4343C101.294 44.7873 102.002 41.5865 103.417 38.832C104.833 36.0775 106.826 33.9309 109.396 32.392C111.981 30.8532 115.012 30.0838 118.49 30.0838C120.829 30.0838 123.007 30.4608 125.022 31.2148C127.054 31.9535 128.823 33.0691 130.331 34.5618C131.855 36.0545 133.04 37.9318 133.886 40.1939C134.732 42.4406 135.156 45.072 135.156 48.0881V50.7887H105.218V44.695H125.9C125.9 43.2792 125.592 42.0251 124.976 40.9325C124.361 39.84 123.507 38.9859 122.414 38.3704C121.337 37.7395 120.083 37.424 118.652 37.424C117.159 37.424 115.836 37.7702 114.681 38.4627C113.543 39.1398 112.65 40.0554 112.004 41.2095C111.358 42.3482 111.027 43.6178 111.011 45.0181V50.8118C111.011 52.5661 111.335 54.0818 111.981 55.359C112.643 56.6362 113.574 57.6211 114.774 58.3136C115.974 59.006 117.397 59.3523 119.044 59.3523C120.137 59.3523 121.137 59.1984 122.045 58.8906C122.953 58.5829 123.73 58.1212 124.376 57.5057C125.022 56.8902 125.515 56.1361 125.853 55.2436L134.948 55.8438C134.486 58.0289 133.54 59.937 132.109 61.5682C130.693 63.1839 128.862 64.4458 126.615 65.3537C124.384 66.2462 121.806 66.6925 118.882 66.6925ZM157.73 66.6925C154.083 66.6925 150.944 65.9538 148.312 64.4766C145.696 62.9839 143.681 60.8757 142.265 58.152C140.849 55.4129 140.141 52.1736 140.141 48.4343C140.141 44.7873 140.849 41.5865 142.265 38.832C143.681 36.0775 145.673 33.9309 148.243 32.392C150.828 30.8532 153.86 30.0838 157.338 30.0838C159.677 30.0838 161.854 30.4608 163.87 31.2148C165.901 31.9535 167.671 33.0691 169.179 34.5618C170.702 36.0545 171.887 37.9318 172.734 40.1939C173.58 42.4406 174.003 45.072 174.003 48.0881V50.7887H144.065V44.695H164.747C164.747 43.2792 164.439 42.0251 163.824 40.9325C163.208 39.84 162.354 38.9859 161.262 38.3704C160.185 37.7395 158.93 37.424 157.499 37.424C156.007 37.424 154.683 37.7702 153.529 38.4627C152.39 39.1398 151.498 40.0554 150.852 41.2095C150.205 42.3482 149.874 43.6178 149.859 45.0181V50.8118C149.859 52.5661 150.182 54.0818 150.828 55.359C151.49 56.6362 152.421 57.6211 153.621 58.3136C154.822 59.006 156.245 59.3523 157.892 59.3523C158.984 59.3523 159.984 59.1984 160.892 58.8906C161.8 58.5829 162.577 58.1212 163.224 57.5057C163.87 56.8902 164.362 56.1361 164.701 55.2436L173.795 55.8438C173.334 58.0289 172.387 59.937 170.956 61.5682C169.541 63.1839 167.709 64.4458 165.463 65.3537C163.231 66.2462 160.654 66.6925 157.73 66.6925ZM180.42 66V30.5455H189.953V36.7315H190.322C190.969 34.531 192.054 32.8691 193.577 31.7457C195.1 30.607 196.855 30.0376 198.84 30.0376C199.332 30.0376 199.863 30.0684 200.433 30.13C201.002 30.1915 201.502 30.2762 201.933 30.3839V39.109C201.471 38.9705 200.833 38.8474 200.017 38.7397C199.201 38.632 198.455 38.5781 197.778 38.5781C196.332 38.5781 195.039 38.8936 193.9 39.5245C192.777 40.14 191.884 41.0018 191.223 42.1097C190.576 43.2177 190.253 44.4949 190.253 45.9414V66H180.42ZM236.516 40.6555L227.514 41.2095C227.36 40.4401 227.029 39.7476 226.521 39.1321C226.014 38.5012 225.344 38.0011 224.513 37.6317C223.698 37.247 222.72 37.0547 221.582 37.0547C220.058 37.0547 218.773 37.3778 217.727 38.0241C216.681 38.6551 216.157 39.5014 216.157 40.5632C216.157 41.4096 216.496 42.1251 217.173 42.7099C217.85 43.2946 219.012 43.764 220.658 44.1179L227.075 45.4105C230.522 46.1184 233.092 47.2571 234.785 48.8267C236.478 50.3963 237.324 52.4583 237.324 55.0128C237.324 57.3364 236.639 59.3754 235.27 61.1296C233.915 62.8839 232.053 64.2534 229.684 65.2383C227.329 66.2077 224.613 66.6925 221.536 66.6925C216.842 66.6925 213.103 65.7153 210.318 63.761C207.548 61.7913 205.924 59.1138 205.447 55.7283L215.119 55.2205C215.411 56.6516 216.119 57.7442 217.242 58.4982C218.366 59.2369 219.804 59.6062 221.559 59.6062C223.282 59.6062 224.667 59.2753 225.714 58.6136C226.775 57.9366 227.314 57.0671 227.329 56.0053C227.314 55.1128 226.937 54.3819 226.198 53.8125C225.46 53.2277 224.321 52.7815 222.782 52.4737L216.642 51.2504C213.18 50.5579 210.602 49.3576 208.91 47.6495C207.232 45.9414 206.394 43.764 206.394 41.1172C206.394 38.8397 207.009 36.8777 208.24 35.2312C209.487 33.5846 211.233 32.3151 213.48 31.4226C215.742 30.5301 218.389 30.0838 221.42 30.0838C225.898 30.0838 229.422 31.0302 231.992 32.9229C234.577 34.8157 236.085 37.3932 236.516 40.6555ZM274.469 79.6186C269.56 79.6186 265.19 78.9492 261.358 77.6104C257.527 76.2871 254.288 74.3404 251.641 71.7706C248.994 69.2161 246.978 66.0923 245.593 62.3991C244.208 58.706 243.516 54.505 243.516 49.7962C243.516 45.1489 244.208 40.9325 245.593 37.147C246.994 33.3615 249.032 30.1146 251.71 27.4062C254.388 24.6825 257.658 22.5897 261.52 21.1278C265.398 19.666 269.814 18.935 274.769 18.935C279.355 18.935 283.448 19.6044 287.049 20.9432C290.665 22.282 293.728 24.1901 296.236 26.6676C298.76 29.1297 300.675 32.0612 301.983 35.462C303.307 38.8474 303.961 42.5945 303.945 46.7031C303.961 49.5346 303.715 52.1352 303.207 54.505C302.699 56.8748 301.899 58.9445 300.806 60.7141C299.729 62.4684 298.313 63.861 296.559 64.892C294.805 65.9077 292.681 66.4847 290.188 66.6232C288.403 66.7617 286.957 66.6309 285.849 66.2308C284.741 65.8307 283.895 65.2383 283.31 64.4535C282.74 63.6533 282.371 62.7223 282.202 61.6605H281.925C281.556 62.5838 280.832 63.4225 279.755 64.1765C278.678 64.9151 277.362 65.4922 275.808 65.9077C274.269 66.3078 272.63 66.454 270.892 66.3462C269.076 66.2385 267.352 65.8153 265.721 65.0767C264.105 64.3381 262.666 63.2686 261.405 61.8683C260.158 60.4679 259.173 58.7367 258.45 56.6747C257.742 54.6127 257.381 52.2275 257.365 49.5192C257.381 46.8416 257.758 44.5103 258.496 42.5252C259.25 40.5401 260.243 38.8705 261.474 37.5163C262.72 36.1622 264.105 35.1004 265.629 34.331C267.152 33.5616 268.683 33.0691 270.222 32.8537C271.961 32.5921 273.608 32.5921 275.162 32.8537C276.716 33.1153 278.024 33.5385 279.086 34.1232C280.163 34.708 280.832 35.3389 281.094 36.016H281.417V33.4308H288.642V55.9592C288.657 57.021 288.896 57.8442 289.357 58.429C289.819 59.0137 290.442 59.3061 291.227 59.3061C292.289 59.3061 293.174 58.8368 293.882 57.8981C294.605 56.9594 295.143 55.5206 295.497 53.5817C295.867 51.6428 296.051 49.1729 296.051 46.1722C296.051 43.2792 295.667 40.7402 294.897 38.555C294.143 36.3545 293.081 34.4848 291.712 32.946C290.358 31.3918 288.78 30.13 286.98 29.1605C285.18 28.191 283.225 27.4832 281.117 27.0369C279.024 26.5907 276.87 26.3675 274.654 26.3675C270.822 26.3675 267.475 26.9523 264.613 28.1218C261.751 29.2759 259.366 30.8994 257.458 32.9922C255.549 35.085 254.118 37.5394 253.164 40.3555C252.226 43.1561 251.749 46.2107 251.733 49.5192C251.749 53.1662 252.256 56.3977 253.257 59.2138C254.272 62.0144 255.765 64.3688 257.735 66.277C259.704 68.1851 262.136 69.6316 265.029 70.6165C267.922 71.6013 271.245 72.0938 275 72.0938C276.77 72.0938 278.501 71.9629 280.194 71.7013C281.886 71.4551 283.418 71.1474 284.787 70.7781C286.157 70.4241 287.257 70.0779 288.088 69.7393L290.373 76.4332C289.404 76.9872 288.088 77.5027 286.426 77.9798C284.779 78.4722 282.917 78.8646 280.84 79.157C278.778 79.4647 276.654 79.6186 274.469 79.6186ZM273.407 58.7521C275.285 58.7521 276.778 58.3905 277.885 57.6673C279.009 56.944 279.809 55.8745 280.286 54.4588C280.778 53.0277 281.009 51.2657 280.979 49.1729C280.963 47.3263 280.725 45.7644 280.263 44.4872C279.817 43.1946 279.04 42.2174 277.932 41.5558C276.839 40.8787 275.316 40.5401 273.361 40.5401C271.653 40.5401 270.199 40.9018 268.999 41.625C267.814 42.3482 266.906 43.3639 266.275 44.6719C265.66 45.9645 265.344 47.4879 265.329 49.2422C265.344 50.8733 265.606 52.4199 266.113 53.8817C266.621 55.3282 267.46 56.5054 268.629 57.4134C269.799 58.3059 271.392 58.7521 273.407 58.7521Z" fill="black"/>
<path d="M8.57173 64.3842L8.05872 65.2426L8.06471 65.2462L8.57173 64.3842ZM2.57031 57.9212L1.67688 58.3704L1.67889 58.3743L2.57031 57.9212ZM2.5934 38.8551L1.70399 38.398L1.70301 38.3999L2.5934 38.8551ZM8.6179 32.4151L9.12715 33.2758L9.1309 33.2735L8.6179 32.4151ZM26.022 31.7688L26.4573 30.8685L26.4573 30.8685L26.022 31.7688ZM31.5387 36.5007L30.7067 37.0554L31.5387 36.5007ZM33.7777 43.6562V44.6562H34.8295L34.7764 43.6058L33.7777 43.6562ZM24.4986 43.6562L23.5093 43.8025L23.6355 44.6562H24.4986V43.6562ZM22.4212 39.386L21.719 40.0981L21.729 40.1078L22.4212 39.386ZM14.0653 38.9936L14.6529 39.8028L14.6548 39.8014L14.0653 38.9936ZM11.4109 54.0433L10.4787 54.4053L10.4818 54.4132L11.4109 54.0433ZM14.0653 57.6673L14.6548 56.8595L14.6548 56.8595L14.0653 57.6673ZM21.0824 58.2212L20.6291 57.3298L20.623 57.333L21.0824 58.2212ZM23.3214 56.2131L22.4915 55.6551L22.4893 55.6584L23.3214 56.2131ZM24.4986 53.0046V52.0046H23.6358L23.5094 52.8581L24.4986 53.0046ZM33.7777 53.0046L34.7761 53.0613L34.8361 52.0046H33.7777V53.0046ZM31.5618 60.1602L30.7202 59.62L30.7192 59.6216L31.5618 60.1602ZM26.1374 64.9613L25.6902 64.0669L25.6902 64.0669L26.1374 64.9613ZM17.9432 65.6925C14.4547 65.6925 11.5134 64.9544 9.07875 63.5223L8.06471 65.2462C10.8621 66.8917 14.1684 67.6925 17.9432 67.6925V65.6925ZM9.08473 63.5258C6.6493 62.0703 4.77844 60.058 3.46173 57.468L1.67889 58.3743C3.16285 61.2933 5.29293 63.5897 8.05873 65.2426L9.08473 63.5258ZM3.46374 57.472C2.15946 54.8779 1.4929 51.8661 1.4929 48.4112H-0.507102C-0.507102 52.1273 0.21128 55.4554 1.67689 58.3704L3.46374 57.472ZM1.4929 48.4112C1.4929 44.9094 2.16742 41.8852 3.48378 39.3103L1.70301 38.3999C0.218703 41.3033 -0.507102 44.6498 -0.507102 48.4112H1.4929ZM3.4828 39.3122C4.81462 36.721 6.69295 34.7161 9.12714 33.2757L8.10865 31.5545C5.34161 33.1918 3.20361 35.4803 1.70399 38.398L3.4828 39.3122ZM9.1309 33.2735C11.5501 31.8277 14.4588 31.0838 17.897 31.0838V29.0838C14.1643 29.0838 10.887 29.8941 8.1049 31.5567L9.1309 33.2735ZM17.897 31.0838C20.8689 31.0838 23.4232 31.6231 25.5868 32.6691L26.4573 30.8685C23.9736 29.6678 21.1113 29.0838 17.897 29.0838V31.0838ZM25.5868 32.6691C27.7592 33.7194 29.4573 35.1813 30.7067 37.0554L32.3708 35.946C30.9118 33.7576 28.9321 32.0649 26.4573 30.8685L25.5868 32.6691ZM30.7067 37.0554C31.9489 38.9188 32.6484 41.1249 32.779 43.7067L34.7764 43.6058C34.63 40.7094 33.8368 38.1451 32.3708 35.946L30.7067 37.0554ZM33.7777 42.6562H24.4986V44.6562H33.7777V42.6562ZM25.4878 43.51C25.1989 41.5552 24.4201 39.9174 23.1133 38.6642L21.729 40.1078C22.6689 41.009 23.2751 42.218 23.5093 43.8025L25.4878 43.51ZM23.1233 38.674C21.7987 37.3678 20.0772 36.7472 18.0586 36.7472V38.7472C19.6408 38.7472 20.8277 39.2191 21.719 40.098L23.1233 38.674ZM18.0586 36.7472C16.3413 36.7472 14.7998 37.2197 13.4759 38.1858L14.6548 39.8014C15.6083 39.1056 16.729 38.7472 18.0586 38.7472V36.7472ZM13.4778 38.1844C12.172 39.1325 11.1918 40.4926 10.5061 42.1984L12.3618 42.9443C12.938 41.511 13.712 40.4859 14.6529 39.8028L13.4778 38.1844ZM10.5061 42.1984C9.81498 43.9178 9.48757 45.9523 9.48757 48.2727H11.4876C11.4876 46.1306 11.7911 44.3642 12.3618 42.9443L10.5061 42.1984ZM9.48757 48.2727C9.48757 50.6201 9.80622 52.6737 10.4787 54.4053L12.343 53.6813C11.7845 52.243 11.4876 50.4495 11.4876 48.2727H9.48757ZM10.4818 54.4132C11.1676 56.1362 12.1557 57.5117 13.4759 58.475L14.6548 56.8595C13.6976 56.1609 12.9159 55.1204 12.34 53.6735L10.4818 54.4132ZM13.4759 58.475C14.7998 59.4412 16.3413 59.9137 18.0586 59.9137V57.9137C16.729 57.9137 15.6083 57.5553 14.6548 56.8595L13.4759 58.475ZM18.0586 59.9137C19.3227 59.9137 20.4912 59.6529 21.5418 59.1095L20.623 57.333C19.8885 57.7129 19.0412 57.9137 18.0586 57.9137V59.9137ZM21.5356 59.1126C22.6021 58.5703 23.4769 57.7826 24.1534 56.7678L22.4893 55.6584C21.9964 56.3978 21.3785 56.9488 20.6291 57.3299L21.5356 59.1126ZM24.1512 56.7711C24.8475 55.7355 25.285 54.5198 25.4878 53.1512L23.5094 52.8581C23.3428 53.9823 22.9955 54.9056 22.4915 55.6551L24.1512 56.7711ZM24.4986 54.0046H33.7777V52.0046H24.4986V54.0046ZM32.7793 52.9479C32.6341 55.5031 31.9409 57.7181 30.7202 59.62L32.4034 60.7003C33.8295 58.4782 34.6135 55.9228 34.7761 53.0613L32.7793 52.9479ZM30.7192 59.6216C29.5146 61.5065 27.8474 62.9883 25.6902 64.0669L26.5846 65.8557C29.0439 64.6261 30.993 62.9071 32.4044 60.6987L30.7192 59.6216ZM25.6902 64.0669C23.5483 65.1378 20.9765 65.6925 17.9432 65.6925V67.6925C21.219 67.6925 24.1101 67.093 26.5846 65.8557L25.6902 64.0669ZM44.1359 65.4922L43.7239 66.4034L43.7305 66.4063L44.1359 65.4922ZM39.9349 61.9606L39.0953 62.5039L39.1016 62.5134L39.9349 61.9606ZM39.4964 51.1349L38.6165 50.6596L38.6165 50.6596L39.4964 51.1349ZM42.4509 47.9034L41.9034 47.0666L41.9034 47.0666L42.4509 47.9034ZM46.6981 46.0568L46.4468 45.0889L46.4445 45.0895L46.6981 46.0568ZM51.73 45.1797L51.8261 46.1751L51.8339 46.1743L51.73 45.1797ZM56.7158 44.5795L56.8606 45.5691L56.8724 45.5672L56.7158 44.5795ZM59.4626 43.7024L58.9028 42.8738L58.9028 42.8738L59.4626 43.7024ZM58.9317 38.4627L58.2705 39.2129L58.2768 39.2184L58.9317 38.4627ZM50.8298 38.4396L51.4222 39.2453L51.4298 39.2396L50.8298 38.4396ZM48.7524 41.348L48.6714 42.3447L49.4858 42.4109L49.713 41.6261L48.7524 41.348ZM39.6579 40.6094L38.6801 40.3998L38.4414 41.5139L39.577 41.6061L39.6579 40.6094ZM42.3817 35.0234L43.1388 35.6767L43.142 35.673L42.3817 35.0234ZM47.6214 31.3764L47.9893 32.3063L47.9928 32.3049L47.6214 31.3764ZM60.7552 30.7763L60.5069 31.7449L60.5088 31.7454L60.7552 30.7763ZM65.5795 32.9229L65.0102 33.7451L65.0145 33.748L65.5795 32.9229ZM68.9264 36.6623L68.0448 37.1343L68.0468 37.138L68.9264 36.6623ZM70.1498 66V67H71.1498V66H70.1498ZM60.8245 66H59.8245V67H60.8245V66ZM60.8245 61.0835H61.8245V60.0835H60.8245V61.0835ZM60.5475 61.0835V60.0835H59.9371L59.6581 60.6264L60.5475 61.0835ZM58.2623 64.0149L58.9191 64.769L58.926 64.763L58.2623 64.0149ZM54.8231 65.9769L55.1491 66.9223L55.1587 66.9189L54.8231 65.9769ZM56.8312 59.0291L57.2883 59.9186L57.298 59.9135L56.8312 59.0291ZM59.4395 56.6747L58.5975 56.1353L58.5975 56.1353L59.4395 56.6747ZM60.3859 49.5653H61.3859V47.7227L59.8409 48.7269L60.3859 49.5653ZM59.1164 50.1193L59.3986 51.0787L59.4074 51.0761L59.4162 51.0733L59.1164 50.1193ZM57.339 50.5579L57.522 51.541L57.533 51.539L57.5439 51.5367L57.339 50.5579ZM55.354 50.9041L55.4922 51.8945L55.5034 51.893L55.5146 51.8911L55.354 50.9041ZM53.5535 51.158L53.4121 50.1681L53.4084 50.1686L53.5535 51.158ZM50.5297 51.9659L50.9237 52.8851L50.9237 52.8851L50.5297 51.9659ZM48.5216 53.4663L49.312 54.0789L49.3192 54.0694L48.5216 53.4663ZM49.2602 58.8445L48.6705 59.6521L48.6777 59.6574L48.685 59.6625L49.2602 58.8445ZM50.1835 65.6694C48.0378 65.6694 46.1636 65.2975 44.5413 64.578L43.7305 66.4063C45.6475 67.2565 47.8051 67.6694 50.1835 67.6694V65.6694ZM44.5479 64.581C42.9422 63.8549 41.6909 62.7986 40.7682 61.4078L39.1016 62.5134C40.241 64.231 41.7904 65.5291 43.7239 66.4034L44.5479 64.581ZM40.7745 61.4173C39.8871 60.0459 39.4115 58.2922 39.4115 56.0977H37.4115C37.4115 58.5811 37.9515 60.7361 39.0954 62.5038L40.7745 61.4173ZM39.4115 56.0977C39.4115 54.2464 39.7517 52.7663 40.3762 51.6102L38.6165 50.6596C37.7946 52.1811 37.4115 54.0095 37.4115 56.0977H39.4115ZM40.3762 51.6102C41.0222 50.4144 41.8942 49.4627 42.9984 48.7402L41.9034 47.0666C40.5148 47.9752 39.417 49.1779 38.6165 50.6596L40.3762 51.6102ZM42.9984 48.7402C44.146 47.9893 45.4606 47.415 46.9516 47.0241L46.4445 45.0895C44.7655 45.5296 43.2487 46.1864 41.9034 47.0666L42.9984 48.7402ZM46.9494 47.0247C48.4956 46.6233 50.1208 46.3396 51.8261 46.1751L51.634 44.1843C49.8307 44.3583 48.1013 44.6594 46.4468 45.0889L46.9494 47.0247ZM51.8339 46.1743C53.9023 45.9582 55.5795 45.7565 56.8606 45.569L56.571 43.5901C55.3285 43.7719 53.6818 43.9703 51.6261 44.1851L51.8339 46.1743ZM56.8724 45.5672C58.1754 45.3606 59.2679 45.0409 60.0225 44.531L58.9028 42.8738C58.5186 43.1334 57.7799 43.3984 56.5592 43.5919L56.8724 45.5672ZM60.0225 44.531C60.8972 43.94 61.3167 43.0424 61.3167 41.9943H59.3167C59.3167 42.4543 59.1668 42.6954 58.9028 42.8738L60.0225 44.531ZM61.3167 41.9943V41.8558H59.3167V41.9943H61.3167ZM61.3167 41.8558C61.3167 40.1664 60.7723 38.7346 59.5867 37.707L58.2768 39.2184C58.9377 39.7912 59.3167 40.6215 59.3167 41.8558H61.3167ZM59.5929 37.7125C58.4424 36.6985 56.8807 36.2624 55.0539 36.2624V38.2624C56.5817 38.2624 57.6052 38.6265 58.2705 39.2129L59.5929 37.7125ZM55.0539 36.2624C53.1433 36.2624 51.5012 36.6861 50.2298 37.6396L51.4298 39.2396C52.2512 38.6236 53.4252 38.2624 55.0539 38.2624V36.2624ZM50.2374 37.634C49.0262 38.5246 48.1959 39.6742 47.7918 41.07L49.713 41.6261C49.986 40.6828 50.5406 39.8935 51.4222 39.2453L50.2374 37.634ZM48.8333 40.3513L39.7389 39.6127L39.577 41.6061L48.6714 42.3447L48.8333 40.3513ZM40.6357 40.8189C41.0645 38.818 41.9012 37.1112 43.1388 35.6767L41.6245 34.3702C40.1538 36.0748 39.1747 38.0921 38.6801 40.3998L40.6357 40.8189ZM43.142 35.673C44.3795 34.2245 45.986 33.0989 47.9893 32.3063L47.2534 30.4466C44.9788 31.3466 43.0921 32.6524 41.6214 34.3739L43.142 35.673ZM47.9928 32.3049C50.0061 31.4996 52.3686 31.0838 55.1001 31.0838V29.0838C52.1686 29.0838 49.5453 29.5298 47.25 30.4479L47.9928 32.3049ZM55.1001 31.0838C56.991 31.0838 58.7923 31.3053 60.5069 31.7449L61.0036 29.8076C59.1173 29.324 57.1485 29.0838 55.1001 29.0838V31.0838ZM60.5088 31.7454C62.2207 32.1807 63.7172 32.85 65.0102 33.7451L66.1487 32.1007C64.641 31.057 62.9214 30.2952 61.0016 29.8071L60.5088 31.7454ZM65.0145 33.748C66.2969 34.6262 67.3043 35.7512 68.0448 37.1343L69.808 36.1903C68.9173 34.5265 67.6935 33.1586 66.1445 32.0979L65.0145 33.748ZM68.0468 37.138C68.7672 38.47 69.1498 40.1069 69.1498 42.0866H71.1498C71.1498 39.85 70.7168 37.8706 69.806 36.1866L68.0468 37.138ZM69.1498 42.0866V66H71.1498V42.0866H69.1498ZM70.1498 65H60.8245V67H70.1498V65ZM61.8245 66V61.0835H59.8245V66H61.8245ZM60.8245 60.0835H60.5475V62.0835H60.8245V60.0835ZM59.6581 60.6264C59.1467 61.6215 58.4624 62.5007 57.5987 63.2668L58.926 64.763C59.9704 63.8365 60.8096 62.7613 61.4369 61.5405L59.6581 60.6264ZM57.6056 63.2608C56.7568 64.0001 55.7228 64.5947 54.4874 65.0349L55.1587 66.9189C56.6009 66.405 57.8598 65.6916 58.9191 64.769L57.6056 63.2608ZM54.4971 65.0315C53.2848 65.4496 51.8523 65.6694 50.1835 65.6694V67.6694C52.0233 67.6694 53.6838 67.4276 55.1491 66.9223L54.4971 65.0315ZM52.9996 60.8832C54.5794 60.8832 56.0178 60.5715 57.2883 59.9186L56.3742 58.1397C55.4288 58.6255 54.3127 58.8832 52.9996 58.8832V60.8832ZM57.298 59.9135C58.5475 59.254 59.5508 58.3548 60.2816 57.2141L58.5975 56.1353C58.0664 56.9643 57.3309 57.6347 56.3645 58.1447L57.298 59.9135ZM60.2816 57.2141C61.0225 56.0576 61.3859 54.7523 61.3859 53.3278H59.3859C59.3859 54.3961 59.1184 55.3222 58.5975 56.1353L60.2816 57.2141ZM61.3859 53.3278V49.5653H59.3859V53.3278H61.3859ZM59.8409 48.7269C59.6385 48.8585 59.3097 49.0103 58.8166 49.1653L59.4162 51.0733C60.0002 50.8898 60.5178 50.6723 60.9309 50.4038L59.8409 48.7269ZM58.8342 49.16C58.3417 49.3048 57.7757 49.4448 57.1342 49.5791L57.5439 51.5367C58.2257 51.394 58.8447 51.2416 59.3986 51.0787L58.8342 49.16ZM57.1561 49.5748C56.5018 49.6965 55.8475 49.8106 55.1933 49.9171L55.5146 51.8911C56.1838 51.7822 56.8529 51.6655 57.522 51.541L57.1561 49.5748ZM55.2158 49.9137C54.5532 50.0062 53.952 50.091 53.4121 50.1681L53.695 52.148C54.2323 52.0712 54.8313 51.9867 55.4922 51.8945L55.2158 49.9137ZM53.4084 50.1686C52.1886 50.3475 51.0937 50.6363 50.1358 51.0468L50.9237 52.8851C51.6893 52.5569 52.6103 52.3071 53.6986 52.1474L53.4084 50.1686ZM50.1358 51.0468C49.144 51.4718 48.3237 52.0699 47.7239 52.8632L49.3192 54.0694C49.6735 53.6008 50.192 53.1986 50.9237 52.8851L50.1358 51.0468ZM47.7312 52.8537C47.0943 53.6755 46.806 54.6721 46.806 55.7745H48.806C48.806 55.0303 48.9948 54.4881 49.312 54.0788L47.7312 52.8537ZM46.806 55.7745C46.806 57.39 47.4107 58.7322 48.6705 59.6521L49.8499 58.0368C49.1708 57.541 48.806 56.8365 48.806 55.7745H46.806ZM48.685 59.6625C49.8766 60.5003 51.338 60.8832 52.9996 60.8832V58.8832C51.645 58.8832 50.6135 58.5736 49.8354 58.0264L48.685 59.6625ZM77.7785 66H76.7785V67H77.7785V66ZM77.7785 30.5455V29.5455H76.7785V30.5455H77.7785ZM87.3115 30.5455H88.3115V29.5455H87.3115V30.5455ZM87.3115 36.7315H86.3115V37.7315H87.3115V36.7315ZM87.6808 36.7315V37.7315H88.4294L88.6403 37.0133L87.6808 36.7315ZM90.9355 31.7457L91.5289 32.5506L91.5342 32.5467L90.9355 31.7457ZM97.7909 30.13L97.8984 29.1358L97.8984 29.1358L97.7909 30.13ZM99.2913 30.3839H100.291V29.6031L99.5338 29.4137L99.2913 30.3839ZM99.2913 39.109L99.0039 40.0668L100.291 40.4531V39.109H99.2913ZM91.2586 39.5245L91.7392 40.4015L91.7433 40.3992L91.2586 39.5245ZM88.5811 42.1097L87.7225 41.597L87.7173 41.6059L88.5811 42.1097ZM87.6116 66V67H88.6116V66H87.6116ZM78.7785 66V30.5455H76.7785V66H78.7785ZM77.7785 31.5455H87.3115V29.5455H77.7785V31.5455ZM86.3115 30.5455V36.7315H88.3115V30.5455H86.3115ZM87.3115 37.7315H87.6808V35.7315H87.3115V37.7315ZM88.6403 37.0133C89.2384 34.9769 90.2161 33.5186 91.5289 32.5506L90.342 30.9409C88.6079 32.2195 87.4159 34.0851 86.7214 36.4497L88.6403 37.0133ZM91.5342 32.5467C92.8768 31.5431 94.4189 31.0376 96.1982 31.0376V29.0376C94.0074 29.0376 92.041 29.6709 90.3368 30.9448L91.5342 32.5467ZM96.1982 31.0376C96.6495 31.0376 97.1442 31.0659 97.6834 31.1242L97.8984 29.1358C97.2989 29.071 96.7318 29.0376 96.1982 29.0376V31.0376ZM97.6834 31.1242C98.2196 31.1821 98.6728 31.26 99.0488 31.354L99.5338 29.4137C99.048 29.2923 98.501 29.2009 97.8984 29.1358L97.6834 31.1242ZM98.2913 30.3839V39.109H100.291V30.3839H98.2913ZM99.5786 38.1512C99.0425 37.9903 98.3435 37.8589 97.5064 37.7483L97.2445 39.7311C98.0385 39.836 98.6168 39.9507 99.0039 40.0668L99.5786 38.1512ZM97.5064 37.7483C96.6563 37.636 95.8654 37.5781 95.1365 37.5781V39.5781C95.7616 39.5781 96.4635 39.6279 97.2445 39.7311L97.5064 37.7483ZM95.1365 37.5781C93.5396 37.5781 92.077 37.9279 90.774 38.6498L91.7433 40.3992C92.7177 39.8593 93.8403 39.5781 95.1365 39.5781V37.5781ZM90.7781 38.6475C89.4973 39.3493 88.4748 40.3373 87.7225 41.597L89.4396 42.6225C90.0107 41.6662 90.7732 40.9308 91.7391 40.4015L90.7781 38.6475ZM87.7173 41.6059C86.9708 42.8855 86.6116 44.3409 86.6116 45.9414H88.6116C88.6116 44.6489 88.8987 43.5498 89.4448 42.6136L87.7173 41.6059ZM86.6116 45.9414V66H88.6116V45.9414H86.6116ZM87.6116 65H77.7785V67H87.6116V65ZM109.465 64.4766L108.969 65.3451L108.975 65.3485L109.465 64.4766ZM103.417 58.152L102.529 58.6111L102.53 58.6132L103.417 58.152ZM103.417 38.832L102.528 38.3749L102.528 38.3749L103.417 38.832ZM109.396 32.392L108.884 31.5327L108.882 31.5341L109.396 32.392ZM125.022 31.2148L124.672 32.1515L124.681 32.1546L125.022 31.2148ZM130.331 34.5618L129.628 35.2725L129.631 35.2761L130.331 34.5618ZM133.886 40.1939L132.949 40.5443L132.95 40.5464L133.886 40.1939ZM135.156 50.7887V51.7887H136.156V50.7887H135.156ZM105.218 50.7887H104.218V51.7887H105.218V50.7887ZM105.218 44.695V43.695H104.218V44.695H105.218ZM125.9 44.695V45.695H126.9V44.695H125.9ZM124.976 40.9325L124.105 41.4234L124.105 41.4234L124.976 40.9325ZM122.414 38.3704L121.909 39.2333L121.916 39.2375L121.923 39.2416L122.414 38.3704ZM114.681 38.4627L115.193 39.3223L115.196 39.3202L114.681 38.4627ZM112.004 41.2095L112.874 41.7031L112.876 41.6981L112.004 41.2095ZM111.011 45.0181L110.011 45.0071V45.0181H111.011ZM111.981 55.359L111.089 55.8105L111.093 55.819L111.981 55.359ZM122.045 58.8906L121.724 57.9436L121.724 57.9436L122.045 58.8906ZM124.376 57.5057L123.686 56.7815L123.686 56.7815L124.376 57.5057ZM125.853 55.2436L125.919 54.2458L125.181 54.1971L124.918 54.889L125.853 55.2436ZM134.948 55.8438L135.926 56.0505L136.165 54.9219L135.014 54.8459L134.948 55.8438ZM132.109 61.5682L131.357 60.9087L131.357 60.9092L132.109 61.5682ZM126.615 65.3537L126.986 66.2822L126.99 66.2809L126.615 65.3537ZM118.882 65.6925C115.371 65.6925 112.408 64.9821 109.954 63.6046L108.975 65.3485C111.784 66.9256 115.1 67.6925 118.882 67.6925V65.6925ZM109.96 63.608C107.515 62.2126 105.633 60.2474 104.305 57.6908L102.53 58.6132C104.033 61.5041 106.183 63.7552 108.969 65.3451L109.96 63.608ZM104.306 57.6928C102.977 55.1228 102.294 52.0475 102.294 48.4343H100.294C100.294 52.2998 101.026 55.703 102.529 58.6111L104.306 57.6928ZM102.294 48.4343C102.294 44.9181 102.975 41.8792 104.307 39.2892L102.528 38.3749C101.028 41.2939 100.294 44.6565 100.294 48.4343H102.294ZM104.307 39.2892C105.64 36.6948 107.505 34.6895 109.909 33.25L108.882 31.5341C106.146 33.1722 104.026 35.4603 102.528 38.3749L104.307 39.2892ZM109.907 33.2513C112.315 31.8182 115.164 31.0838 118.49 31.0838V29.0838C114.861 29.0838 111.647 29.8883 108.884 31.5327L109.907 33.2513ZM118.49 31.0838C120.72 31.0838 122.778 31.4428 124.672 32.1515L125.373 30.2782C123.235 29.4788 120.938 29.0838 118.49 29.0838V31.0838ZM124.681 32.1546C126.579 32.8449 128.224 33.8834 129.628 35.2725L131.035 33.8511C129.422 32.2549 127.528 31.0621 125.364 30.2751L124.681 32.1546ZM129.631 35.2761C131.037 36.6535 132.148 38.4012 132.949 40.5443L134.823 39.8435C133.932 37.4624 132.672 35.4554 131.031 33.8475L129.631 35.2761ZM132.95 40.5464C133.745 42.6557 134.156 45.1628 134.156 48.0881H136.156C136.156 44.9812 135.72 42.2255 134.822 39.8414L132.95 40.5464ZM134.156 48.0881V50.7887H136.156V48.0881H134.156ZM135.156 49.7887H105.218V51.7887H135.156V49.7887ZM106.218 50.7887V44.695H104.218V50.7887H106.218ZM105.218 45.695H125.9V43.695H105.218V45.695ZM126.9 44.695C126.9 43.1298 126.558 41.7026 125.847 40.4417L124.105 41.4234C124.626 42.3476 124.9 43.4286 124.9 44.695H126.9ZM125.847 40.4417C125.142 39.1899 124.157 38.2043 122.905 37.4991L121.923 39.2416C122.857 39.7675 123.579 40.49 124.105 41.4234L125.847 40.4417ZM122.919 37.5075C121.668 36.7743 120.234 36.424 118.652 36.424V38.424C119.932 38.424 121.006 38.7046 121.909 39.2333L122.919 37.5075ZM118.652 36.424C116.998 36.424 115.493 36.8096 114.167 37.6052L115.196 39.3202C116.178 38.7309 117.32 38.424 118.652 38.424V36.424ZM114.17 37.6032C112.881 38.3699 111.864 39.4133 111.131 40.7209L112.876 41.6981C113.437 40.6975 114.205 39.9097 115.193 39.3222L114.17 37.6032ZM111.134 40.7159C110.399 42.0121 110.029 43.4496 110.011 45.0071L112.011 45.0291C112.025 43.7859 112.317 42.6844 112.874 41.7031L111.134 40.7159ZM110.011 45.0181V50.8118H112.011V45.0181H110.011ZM110.011 50.8118C110.011 52.6881 110.357 54.3653 111.089 55.8105L112.873 54.9075C112.312 53.7983 112.011 52.444 112.011 50.8118H110.011ZM111.093 55.819C111.839 57.2592 112.902 58.388 114.274 59.1798L115.274 57.4474C114.245 56.8542 113.446 56.0133 112.869 54.899L111.093 55.819ZM114.274 59.1798C115.653 59.9751 117.255 60.3523 119.044 60.3523V58.3523C117.54 58.3523 116.295 58.037 115.274 57.4474L114.274 59.1798ZM119.044 60.3523C120.231 60.3523 121.341 60.185 122.366 59.8377L121.724 57.9436C120.933 58.2118 120.042 58.3523 119.044 58.3523V60.3523ZM122.366 59.8377C123.401 59.4868 124.307 58.9528 125.066 58.2298L123.686 56.7815C123.153 57.2896 122.504 57.6789 121.724 57.9436L122.366 59.8377ZM125.066 58.2298C125.828 57.504 126.4 56.6208 126.788 55.5983L124.918 54.889C124.629 55.6514 124.217 56.2763 123.686 56.7815L125.066 58.2298ZM125.787 56.2414L134.882 56.8416L135.014 54.8459L125.919 54.2458L125.787 56.2414ZM133.969 55.637C133.542 57.6594 132.672 59.4104 131.357 60.9087L132.86 62.2277C134.408 60.4637 135.43 58.3984 135.926 56.0505L133.969 55.637ZM131.357 60.9092C130.056 62.3929 128.361 63.5697 126.24 64.4265L126.99 66.2809C129.363 65.3219 131.329 63.9749 132.861 62.2272L131.357 60.9092ZM126.244 64.4252C124.153 65.2615 121.706 65.6925 118.882 65.6925V67.6925C121.907 67.6925 124.614 67.231 126.986 66.2822L126.244 64.4252ZM148.312 64.4766L147.817 65.3451L147.823 65.3485L148.312 64.4766ZM142.265 58.152L141.377 58.6111L141.378 58.6132L142.265 58.152ZM142.265 38.832L141.376 38.3749L141.376 38.3749L142.265 38.832ZM148.243 32.392L147.732 31.5327L147.73 31.5341L148.243 32.392ZM163.87 31.2148L163.52 32.1515L163.528 32.1546L163.87 31.2148ZM169.179 34.5618L168.475 35.2725L168.479 35.2761L169.179 34.5618ZM172.734 40.1939L171.797 40.5443L171.798 40.5464L172.734 40.1939ZM174.003 50.7887V51.7887H175.003V50.7887H174.003ZM144.065 50.7887H143.065V51.7887H144.065V50.7887ZM144.065 44.695V43.695H143.065V44.695H144.065ZM164.747 44.695V45.695H165.747V44.695H164.747ZM163.824 40.9325L162.953 41.4234L162.953 41.4234L163.824 40.9325ZM161.262 38.3704L160.756 39.2333L160.764 39.2375L160.771 39.2416L161.262 38.3704ZM153.529 38.4627L154.04 39.3223L154.044 39.3202L153.529 38.4627ZM150.852 41.2095L151.721 41.7031L151.724 41.6981L150.852 41.2095ZM149.859 45.0181L148.859 45.0071V45.0181H149.859ZM150.828 55.359L149.936 55.8105L149.941 55.819L150.828 55.359ZM160.892 58.8906L160.571 57.9436L160.571 57.9436L160.892 58.8906ZM163.224 57.5057L162.534 56.7815L162.534 56.7815L163.224 57.5057ZM164.701 55.2436L164.767 54.2458L164.028 54.1971L163.766 54.889L164.701 55.2436ZM173.795 55.8438L174.774 56.0505L175.012 54.9219L173.861 54.8459L173.795 55.8438ZM170.956 61.5682L170.205 60.9087L170.204 60.9092L170.956 61.5682ZM165.463 65.3537L165.834 66.2822L165.837 66.2809L165.463 65.3537ZM157.73 65.6925C154.219 65.6925 151.256 64.9821 148.802 63.6046L147.823 65.3485C150.632 66.9256 153.947 67.6925 157.73 67.6925V65.6925ZM148.808 63.608C146.362 62.2126 144.481 60.2474 143.152 57.6908L141.378 58.6132C142.88 61.5041 145.031 63.7552 147.817 65.3451L148.808 63.608ZM143.153 57.6928C141.825 55.1228 141.141 52.0475 141.141 48.4343H139.141C139.141 52.2998 139.873 55.703 141.377 58.6111L143.153 57.6928ZM141.141 48.4343C141.141 44.9181 141.823 41.8792 143.154 39.2892L141.376 38.3749C139.875 41.2939 139.141 44.6565 139.141 48.4343H141.141ZM143.154 39.2892C144.488 36.6948 146.353 34.6895 148.757 33.25L147.73 31.5341C144.994 33.1722 142.874 35.4603 141.376 38.3749L143.154 39.2892ZM148.755 33.2513C151.162 31.8182 154.012 31.0838 157.338 31.0838V29.0838C153.708 29.0838 150.495 29.8883 147.732 31.5327L148.755 33.2513ZM157.338 31.0838C159.568 31.0838 161.625 31.4428 163.52 32.1515L164.22 30.2782C162.083 29.4788 159.786 29.0838 157.338 29.0838V31.0838ZM163.528 32.1546C165.426 32.8449 167.072 33.8834 168.476 35.2725L169.882 33.8511C168.27 32.2549 166.376 31.0621 164.212 30.2751L163.528 32.1546ZM168.479 35.2761C169.885 36.6535 170.995 38.4012 171.797 40.5443L173.67 39.8435C172.779 37.4624 171.52 35.4554 169.879 33.8475L168.479 35.2761ZM171.798 40.5464C172.592 42.6557 173.003 45.1628 173.003 48.0881H175.003C175.003 44.9812 174.568 42.2255 173.669 39.8414L171.798 40.5464ZM173.003 48.0881V50.7887H175.003V48.0881H173.003ZM174.003 49.7887H144.065V51.7887H174.003V49.7887ZM145.065 50.7887V44.695H143.065V50.7887H145.065ZM144.065 45.695H164.747V43.695H144.065V45.695ZM165.747 44.695C165.747 43.1298 165.405 41.7026 164.695 40.4417L162.953 41.4234C163.473 42.3476 163.747 43.4286 163.747 44.695H165.747ZM164.695 40.4417C163.99 39.1899 163.004 38.2043 161.753 37.4991L160.771 39.2416C161.704 39.7675 162.427 40.49 162.953 41.4234L164.695 40.4417ZM161.767 37.5075C160.515 36.7743 159.082 36.424 157.499 36.424V38.424C158.779 38.424 159.854 38.7046 160.756 39.2333L161.767 37.5075ZM157.499 36.424C155.846 36.424 154.341 36.8096 153.015 37.6052L154.044 39.3202C155.026 38.7309 156.168 38.424 157.499 38.424V36.424ZM153.018 37.6032C151.729 38.3699 150.711 39.4133 149.979 40.7209L151.724 41.6981C152.284 40.6975 153.052 39.9097 154.04 39.3222L153.018 37.6032ZM149.982 40.7159C149.246 42.0121 148.876 43.4496 148.859 45.0071L150.859 45.0291C150.873 43.7859 151.164 42.6844 151.721 41.7031L149.982 40.7159ZM148.859 45.0181V50.8118H150.859V45.0181H148.859ZM148.859 50.8118C148.859 52.6881 149.205 54.3653 149.936 55.8105L151.721 54.9075C151.159 53.7983 150.859 52.444 150.859 50.8118H148.859ZM149.941 55.819C150.687 57.2592 151.749 58.388 153.122 59.1798L154.121 57.4474C153.093 56.8542 152.294 56.0133 151.716 54.899L149.941 55.819ZM153.122 59.1798C154.5 59.9751 156.103 60.3523 157.892 60.3523V58.3523C156.387 58.3523 155.143 58.037 154.121 57.4474L153.122 59.1798ZM157.892 60.3523C159.078 60.3523 160.189 60.185 161.213 59.8377L160.571 57.9436C159.78 58.2118 158.89 58.3523 157.892 58.3523V60.3523ZM161.213 59.8377C162.249 59.4868 163.154 58.9528 163.913 58.2298L162.534 56.7815C162.001 57.2896 161.352 57.6789 160.571 57.9436L161.213 59.8377ZM163.913 58.2298C164.676 57.504 165.248 56.6208 165.636 55.5983L163.766 54.889C163.477 55.6514 163.065 56.2763 162.534 56.7815L163.913 58.2298ZM164.635 56.2414L173.73 56.8416L173.861 54.8459L164.767 54.2458L164.635 56.2414ZM172.817 55.637C172.39 57.6594 171.519 59.4104 170.205 60.9087L171.708 62.2277C173.256 60.4637 174.278 58.3984 174.774 56.0505L172.817 55.637ZM170.204 60.9092C168.904 62.3929 167.208 63.5697 165.088 64.4265L165.837 66.2809C168.21 65.3219 170.177 63.9749 171.708 62.2272L170.204 60.9092ZM165.091 64.4252C163.001 65.2615 160.553 65.6925 157.73 65.6925V67.6925C160.754 67.6925 163.462 67.231 165.834 66.2822L165.091 64.4252ZM180.42 66H179.42V67H180.42V66ZM180.42 30.5455V29.5455H179.42V30.5455H180.42ZM189.953 30.5455H190.953V29.5455H189.953V30.5455ZM189.953 36.7315H188.953V37.7315H189.953V36.7315ZM190.322 36.7315V37.7315H191.071L191.282 37.0133L190.322 36.7315ZM193.577 31.7457L194.171 32.5506L194.176 32.5467L193.577 31.7457ZM200.433 30.13L200.54 29.1358L200.54 29.1358L200.433 30.13ZM201.933 30.3839H202.933V29.6031L202.175 29.4137L201.933 30.3839ZM201.933 39.109L201.646 40.0668L202.933 40.4531V39.109H201.933ZM193.9 39.5245L194.381 40.4015L194.385 40.3992L193.9 39.5245ZM191.223 42.1097L190.364 41.597L190.359 41.6059L191.223 42.1097ZM190.253 66V67H191.253V66H190.253ZM181.42 66V30.5455H179.42V66H181.42ZM180.42 31.5455H189.953V29.5455H180.42V31.5455ZM188.953 30.5455V36.7315H190.953V30.5455H188.953ZM189.953 37.7315H190.322V35.7315H189.953V37.7315ZM191.282 37.0133C191.88 34.9769 192.858 33.5186 194.171 32.5506L192.984 30.9409C191.25 32.2195 190.057 34.0851 189.363 36.4497L191.282 37.0133ZM194.176 32.5467C195.518 31.5431 197.06 31.0376 198.84 31.0376V29.0376C196.649 29.0376 194.683 29.6709 192.978 30.9448L194.176 32.5467ZM198.84 31.0376C199.291 31.0376 199.786 31.0659 200.325 31.1242L200.54 29.1358C199.941 29.071 199.373 29.0376 198.84 29.0376V31.0376ZM200.325 31.1242C200.861 31.1821 201.314 31.26 201.69 31.354L202.175 29.4137C201.69 29.2923 201.143 29.2009 200.54 29.1358L200.325 31.1242ZM200.933 30.3839V39.109H202.933V30.3839H200.933ZM202.22 38.1512C201.684 37.9903 200.985 37.8589 200.148 37.7483L199.886 39.7311C200.68 39.836 201.258 39.9507 201.646 40.0668L202.22 38.1512ZM200.148 37.7483C199.298 37.636 198.507 37.5781 197.778 37.5781V39.5781C198.403 39.5781 199.105 39.6279 199.886 39.7311L200.148 37.7483ZM197.778 37.5781C196.181 37.5781 194.719 37.9279 193.416 38.6498L194.385 40.3992C195.359 39.8593 196.482 39.5781 197.778 39.5781V37.5781ZM193.42 38.6475C192.139 39.3493 191.116 40.3373 190.364 41.597L192.081 42.6225C192.652 41.6662 193.415 40.9308 194.381 40.4015L193.42 38.6475ZM190.359 41.6059C189.612 42.8855 189.253 44.3409 189.253 45.9414H191.253C191.253 44.6489 191.54 43.5498 192.086 42.6136L190.359 41.6059ZM189.253 45.9414V66H191.253V45.9414H189.253ZM190.253 65H180.42V67H190.253V65ZM236.516 40.6555L236.577 41.6537L237.648 41.5878L237.507 40.5246L236.516 40.6555ZM227.514 41.2095L226.533 41.4056L226.704 42.2612L227.575 42.2076L227.514 41.2095ZM226.521 39.1321L225.742 39.7592L225.75 39.7685L226.521 39.1321ZM224.513 37.6317L224.087 38.5362L224.097 38.541L224.107 38.5456L224.513 37.6317ZM217.727 38.0241L218.243 38.8806L218.252 38.8749L217.727 38.0241ZM217.173 42.7099L216.519 43.4667L216.519 43.4667L217.173 42.7099ZM220.658 44.1179L220.448 45.0956L220.461 45.0982L220.658 44.1179ZM227.075 45.4105L227.277 44.4309L227.273 44.4302L227.075 45.4105ZM234.785 48.8267L234.105 49.56L234.105 49.56L234.785 48.8267ZM235.27 61.1296L234.481 60.5142L234.478 60.5186L235.27 61.1296ZM229.684 65.2383L230.064 66.163L230.067 66.1617L229.684 65.2383ZM210.318 63.761L209.738 64.576L209.743 64.5796L210.318 63.761ZM205.447 55.7283L205.395 54.7297L204.305 54.7869L204.457 55.8679L205.447 55.7283ZM215.119 55.2205L216.098 55.0204L215.926 54.1768L215.066 54.2219L215.119 55.2205ZM217.242 58.4982L216.685 59.3286L216.693 59.3338L217.242 58.4982ZM225.714 58.6136L226.248 59.4588L226.251 59.4568L225.714 58.6136ZM227.329 56.0053L228.329 56.0198L228.329 56.004L228.329 55.9881L227.329 56.0053ZM226.198 53.8125L225.577 54.5966L225.588 54.6045L226.198 53.8125ZM222.782 52.4737L222.978 51.4931L222.977 51.493L222.782 52.4737ZM216.642 51.2504L216.446 52.2309L216.447 52.2311L216.642 51.2504ZM208.91 47.6495L208.196 48.3502L208.199 48.3534L208.91 47.6495ZM208.24 35.2312L207.443 34.6276L207.439 34.6324L208.24 35.2312ZM213.48 31.4226L213.113 30.4924L213.111 30.4932L213.48 31.4226ZM231.992 32.9229L231.399 33.7281L231.401 33.7298L231.992 32.9229ZM236.455 39.6574L227.453 40.2114L227.575 42.2076L236.577 41.6537L236.455 39.6574ZM228.495 41.0134C228.308 40.0794 227.904 39.2362 227.293 38.4957L225.75 39.7685C226.155 40.259 226.412 40.8008 226.533 41.4056L228.495 41.0134ZM227.3 38.5051C226.681 37.7358 225.878 37.1438 224.919 36.7179L224.107 38.5456C224.811 38.8583 225.346 39.2666 225.742 39.7591L227.3 38.5051ZM224.94 36.7273C223.961 36.2654 222.83 36.0547 221.582 36.0547V38.0547C222.611 38.0547 223.435 38.2287 224.087 38.5362L224.94 36.7273ZM221.582 36.0547C219.917 36.0547 218.44 36.4086 217.202 37.1733L218.252 38.8749C219.107 38.347 220.2 38.0547 221.582 38.0547V36.0547ZM217.211 37.1678C215.918 37.9473 215.157 39.0925 215.157 40.5632H217.157C217.157 39.9104 217.443 39.3628 218.243 38.8805L217.211 37.1678ZM215.157 40.5632C215.157 41.7185 215.637 42.7043 216.519 43.4667L217.827 41.953C217.355 41.5459 217.157 41.1006 217.157 40.5632H215.157ZM216.519 43.4667C217.392 44.2206 218.759 44.7324 220.448 45.0956L220.869 43.1402C219.265 42.7955 218.308 42.3687 217.827 41.953L216.519 43.4667ZM220.461 45.0982L226.878 46.3908L227.273 44.4302L220.856 43.1376L220.461 45.0982ZM226.874 46.3901C230.229 47.079 232.599 48.1636 234.105 49.56L235.465 48.0934C233.585 46.3506 230.816 45.1578 227.277 44.431L226.874 46.3901ZM234.105 49.56C235.571 50.9191 236.324 52.7037 236.324 55.0128H238.324C238.324 52.2129 237.385 49.8736 235.465 48.0934L234.105 49.56ZM236.324 55.0128C236.324 57.124 235.707 58.9439 234.481 60.5142L236.058 61.745C237.571 59.8068 238.324 57.5488 238.324 55.0128H236.324ZM234.478 60.5186C233.246 62.1145 231.535 63.3862 229.3 64.3148L230.067 66.1617C232.572 65.1207 234.585 63.6533 236.061 61.7407L234.478 60.5186ZM229.303 64.3136C227.092 65.2241 224.509 65.6925 221.536 65.6925V67.6925C224.717 67.6925 227.567 67.1914 230.064 66.163L229.303 64.3136ZM221.536 65.6925C216.972 65.6925 213.456 64.7415 210.892 62.9424L209.743 64.5796C212.75 66.6891 216.713 67.6925 221.536 67.6925V65.6925ZM210.897 62.9461C208.353 61.1366 206.876 58.7041 206.437 55.5888L204.457 55.8679C204.972 59.5235 206.743 62.446 209.738 64.576L210.897 62.9461ZM205.5 56.727L215.171 56.2191L215.066 54.2219L205.395 54.7297L205.5 56.727ZM214.139 55.4207C214.479 57.0866 215.325 58.4157 216.685 59.3285L217.8 57.6679C216.913 57.0727 216.343 56.2167 216.098 55.0204L214.139 55.4207ZM216.693 59.3338C218.022 60.2079 219.668 60.6062 221.559 60.6062V58.6062C219.941 58.6062 218.709 58.2658 217.792 57.6627L216.693 59.3338ZM221.559 60.6062C223.4 60.6062 224.991 60.254 226.248 59.4588L225.179 57.7684C224.344 58.2967 223.164 58.6062 221.559 58.6062V60.6062ZM226.251 59.4568C227.536 58.6377 228.308 57.4844 228.329 56.0198L226.329 55.9908C226.32 56.6498 226.015 57.2354 225.176 57.7705L226.251 59.4568ZM228.329 55.9881C228.308 54.7761 227.776 53.7659 226.809 53.0205L225.588 54.6045C226.098 54.9979 226.32 55.4495 226.329 56.0226L228.329 55.9881ZM226.819 53.0285C225.9 52.3008 224.581 51.8138 222.978 51.4931L222.586 53.4543C224.06 53.7492 225.019 54.1546 225.578 54.5965L226.819 53.0285ZM222.977 51.493L216.838 50.2696L216.447 52.2311L222.587 53.4544L222.977 51.493ZM216.838 50.2698C213.484 49.599 211.121 48.4605 209.62 46.9456L208.199 48.3534C210.083 50.2546 212.875 51.5167 216.446 52.2309L216.838 50.2698ZM209.623 46.9489C208.15 45.4483 207.394 43.5322 207.394 41.1172H205.394C205.394 43.9958 206.315 46.4345 208.196 48.3502L209.623 46.9489ZM207.394 41.1172C207.394 39.0311 207.953 37.285 209.041 35.83L207.439 34.6324C206.065 36.4704 205.394 38.6484 205.394 41.1172H207.394ZM209.037 35.8347C210.156 34.3571 211.743 33.1887 213.849 32.3519L213.111 30.4932C210.724 31.4415 208.817 32.8121 207.443 34.6276L209.037 35.8347ZM213.847 32.3528C215.967 31.5162 218.484 31.0838 221.42 31.0838V29.0838C218.293 29.0838 215.517 29.5439 213.113 30.4924L213.847 32.3528ZM221.42 31.0838C225.768 31.0838 229.058 32.0039 231.399 33.7281L232.585 32.1178C229.786 30.0565 226.028 29.0838 221.42 29.0838V31.0838ZM231.401 33.7298C233.76 35.4565 235.128 37.7865 235.525 40.7865L237.507 40.5246C237.042 37 235.395 34.1749 232.583 32.1161L231.401 33.7298ZM261.358 77.6104L261.688 76.6664L261.685 76.6652L261.358 77.6104ZM251.641 71.7706L252.337 71.0531L252.335 71.0511L251.641 71.7706ZM245.593 62.3991L246.53 62.048L245.593 62.3991ZM245.593 37.147L244.655 36.8001L244.654 36.8034L245.593 37.147ZM251.71 27.4062L252.421 28.1093L252.423 28.1073L251.71 27.4062ZM261.52 21.1278L261.167 20.1921L261.166 20.1926L261.52 21.1278ZM287.049 20.9432L286.701 21.8805L286.702 21.881L287.049 20.9432ZM296.236 26.6676L295.533 27.3791L295.538 27.3834L296.236 26.6676ZM301.983 35.462L301.05 35.821L301.052 35.8261L301.983 35.462ZM303.945 46.7031L302.945 46.6994L302.946 46.7086L303.945 46.7031ZM300.806 60.7141L299.955 60.1888L299.954 60.1909L300.806 60.7141ZM296.559 64.892L297.06 65.7575L297.066 65.7542L296.559 64.892ZM290.188 66.6232L290.133 65.6248L290.122 65.6254L290.111 65.6262L290.188 66.6232ZM285.849 66.2308L286.189 65.2903L286.189 65.2903L285.849 66.2308ZM283.31 64.4535L282.495 65.0332L282.501 65.0422L282.508 65.051L283.31 64.4535ZM282.202 61.6605L283.189 61.5031L283.055 60.6605H282.202V61.6605ZM281.925 61.6605V60.6605H281.248L280.996 61.2891L281.925 61.6605ZM279.755 64.1765L280.321 65.0013L280.329 64.9957L279.755 64.1765ZM275.808 65.9077L276.06 66.8755L276.066 66.8737L275.808 65.9077ZM270.892 66.3462L270.953 65.3481L270.951 65.348L270.892 66.3462ZM265.721 65.0767L265.305 65.9862L265.309 65.9877L265.721 65.0767ZM261.405 61.8683L260.658 62.5331L260.662 62.5377L261.405 61.8683ZM258.45 56.6747L257.504 56.9994L257.506 57.0057L258.45 56.6747ZM257.365 49.5192L256.365 49.5134L256.365 49.5249L257.365 49.5192ZM258.496 42.5252L257.561 42.1701L257.559 42.1765L258.496 42.5252ZM261.474 37.5163L260.738 36.8391L260.734 36.8437L261.474 37.5163ZM270.222 32.8537L270.361 33.8441L270.371 33.8426L270.222 32.8537ZM279.086 34.1232L278.603 34.9992L278.609 35.0021L279.086 34.1232ZM281.094 36.016L280.161 36.3764L280.408 37.016H281.094V36.016ZM281.417 36.016V37.016H282.417V36.016H281.417ZM281.417 33.4308V32.4308H280.417V33.4308H281.417ZM288.642 33.4308H289.642V32.4308H288.642V33.4308ZM288.642 55.9592H287.642V55.9664L287.642 55.9737L288.642 55.9592ZM289.357 58.429L288.573 59.0486L288.573 59.0486L289.357 58.429ZM293.882 57.8981L293.089 57.2877L293.083 57.296L293.882 57.8981ZM295.497 53.5817L294.515 53.3946L294.514 53.4021L295.497 53.5817ZM294.897 38.555L293.951 38.8792L293.954 38.8872L294.897 38.555ZM291.712 32.946L290.958 33.603L290.965 33.6108L291.712 32.946ZM286.98 29.1605L286.506 30.041L286.506 30.041L286.98 29.1605ZM281.117 27.0369L280.908 28.0149L280.91 28.0153L281.117 27.0369ZM264.613 28.1218L264.987 29.0493L264.991 29.0475L264.613 28.1218ZM257.458 32.9922L258.197 33.6659L258.197 33.6659L257.458 32.9922ZM253.164 40.3555L252.217 40.0346L252.216 40.0377L253.164 40.3555ZM251.733 49.5192L250.733 49.5145L250.733 49.5234L251.733 49.5192ZM253.257 59.2138L252.314 59.5485L252.316 59.5547L253.257 59.2138ZM257.735 66.277L257.039 66.9952L257.039 66.9952L257.735 66.277ZM265.029 70.6165L265.351 69.6698L265.351 69.6698L265.029 70.6165ZM280.194 71.7013L280.05 70.7117L280.041 70.7131L280.194 71.7013ZM284.787 70.7781L284.537 69.8098L284.527 69.8125L284.787 70.7781ZM288.088 69.7393L289.034 69.4163L288.692 68.4135L287.711 68.8133L288.088 69.7393ZM290.373 76.4332L290.869 77.3015L291.586 76.8917L291.319 76.1102L290.373 76.4332ZM286.426 77.9798L286.15 77.0185L286.139 77.0217L286.426 77.9798ZM280.84 79.157L280.701 78.1667L280.692 78.1679L280.84 79.157ZM277.885 57.6673L277.344 56.8264L277.339 56.8299L277.885 57.6673ZM280.286 54.4588L279.34 54.1334L279.338 54.1395L280.286 54.4588ZM280.979 49.1729L279.979 49.1813L279.979 49.1876L280.979 49.1729ZM280.263 44.4872L279.318 44.8136L279.32 44.8204L279.323 44.8271L280.263 44.4872ZM277.932 41.5558L277.405 42.4058L277.412 42.4101L277.419 42.4143L277.932 41.5558ZM268.999 41.625L268.483 40.7685L268.478 40.7714L268.999 41.625ZM266.275 44.6719L265.374 44.2374L265.372 44.2419L266.275 44.6719ZM265.329 49.2422L264.329 49.2334L264.329 49.2425L264.329 49.2516L265.329 49.2422ZM266.113 53.8817L265.169 54.2099L265.17 54.213L266.113 53.8817ZM268.629 57.4134L268.016 58.2033L268.023 58.2083L268.629 57.4134ZM274.469 78.6186C269.65 78.6186 265.394 77.9613 261.688 76.6664L261.029 78.5545C264.986 79.9371 269.471 80.6186 274.469 80.6186V78.6186ZM261.685 76.6652C257.978 75.3849 254.869 73.5111 252.337 71.0531L250.944 72.4881C253.706 75.1698 257.076 77.1892 261.032 78.5557L261.685 76.6652ZM252.335 71.0511C249.803 68.6072 247.866 65.6122 246.53 62.048L244.657 62.7503C246.09 66.5725 248.185 69.8251 250.946 72.4901L252.335 71.0511ZM246.53 62.048C245.194 58.4865 244.516 54.4077 244.516 49.7962H242.516C242.516 54.6022 243.223 58.9254 244.657 62.7503L246.53 62.048ZM244.516 49.7962C244.516 45.2485 245.193 41.1506 246.532 37.4906L244.654 36.8034C243.223 40.7145 242.516 45.0493 242.516 49.7962H244.516ZM246.531 37.494C247.885 33.8338 249.85 30.7104 252.421 28.1093L250.999 26.7032C248.215 29.5187 246.102 32.8892 244.655 36.8001L246.531 37.494ZM252.423 28.1073C254.991 25.4949 258.136 23.478 261.874 22.0631L261.166 20.1926C257.18 21.7014 253.784 23.8702 250.997 26.7052L252.423 28.1073ZM261.873 22.0636C265.618 20.6516 269.912 19.935 274.769 19.935V17.935C269.717 17.935 265.178 18.6803 261.167 20.1921L261.873 22.0636ZM274.769 19.935C279.259 19.935 283.231 20.5903 286.701 21.8805L287.398 20.0059C283.666 18.6185 279.452 17.935 274.769 17.935V19.935ZM286.702 21.881C290.198 23.1751 293.135 25.0105 295.533 27.3791L296.939 25.9562C294.32 23.3698 291.133 21.3888 287.396 20.0054L286.702 21.881ZM295.538 27.3834C297.955 29.7415 299.792 32.55 301.05 35.821L302.917 35.103C301.559 31.5724 299.565 28.518 296.934 25.9518L295.538 27.3834ZM301.052 35.8261C302.324 39.08 302.96 42.7003 302.946 46.6994L304.945 46.7069C304.961 42.4887 304.29 38.6148 302.915 35.0979L301.052 35.8261ZM302.946 46.7086C302.961 49.4795 302.719 52.0069 302.229 54.2954L304.185 54.7145C304.71 52.2634 304.961 49.5896 304.945 46.6977L302.946 46.7086ZM302.229 54.2954C301.741 56.5716 300.979 58.531 299.955 60.1888L301.657 61.2395C302.819 59.358 303.657 57.1779 304.185 54.7145L302.229 54.2954ZM299.954 60.1909C298.962 61.8073 297.664 63.0829 296.052 64.0299L297.066 65.7542C298.963 64.6392 300.497 63.1295 301.658 61.2374L299.954 60.1909ZM296.058 64.0266C294.468 64.9473 292.505 65.493 290.133 65.6248L290.244 67.6217C292.858 67.4765 295.142 66.868 297.06 65.7575L296.058 64.0266ZM290.111 65.6262C288.401 65.7589 287.112 65.6238 286.189 65.2903L285.509 67.1714C286.802 67.6381 288.406 67.7645 290.266 67.6202L290.111 65.6262ZM286.189 65.2903C285.227 64.943 284.557 64.454 284.112 63.856L282.508 65.051C283.232 66.0225 284.255 66.7184 285.509 67.1714L286.189 65.2903ZM284.125 63.8737C283.653 63.2107 283.337 62.4273 283.189 61.5031L281.214 61.8179C281.406 63.0173 281.828 64.0959 282.495 65.0332L284.125 63.8737ZM282.202 60.6605H281.925V62.6605H282.202V60.6605ZM280.996 61.2891C280.719 61.9821 280.15 62.6795 279.182 63.3573L280.329 64.9957C281.515 64.1654 282.392 63.1855 282.853 62.0319L280.996 61.2891ZM279.19 63.3518C278.225 64.0133 277.019 64.5489 275.55 64.9416L276.066 66.8737C277.706 66.4355 279.131 65.817 280.321 65.0012L279.19 63.3518ZM275.556 64.9398C274.129 65.3109 272.597 65.45 270.953 65.3481L270.83 67.3443C272.664 67.4579 274.409 67.3046 276.06 66.8755L275.556 64.9398ZM270.951 65.348C269.255 65.2474 267.651 64.8531 266.134 64.1658L265.309 65.9877C267.053 66.7776 268.896 67.2296 270.832 67.3445L270.951 65.348ZM266.137 64.1672C264.653 63.4888 263.324 62.5039 262.148 61.1988L260.662 62.5377C262.009 64.0332 263.558 65.1873 265.305 65.9862L266.137 64.1672ZM262.152 61.2034C261.005 59.9152 260.081 58.3028 259.394 56.3437L257.506 57.0057C258.266 59.1707 259.311 61.0206 260.658 62.5331L262.152 61.2034ZM259.396 56.35C258.731 54.4121 258.38 52.1385 258.365 49.5135L256.365 49.5249C256.381 52.3165 256.754 54.8133 257.504 56.9994L259.396 56.35ZM258.365 49.5249C258.38 46.9349 258.745 44.7246 259.433 42.8739L257.559 42.1765C256.77 44.296 256.381 46.7483 256.365 49.5134L258.365 49.5249ZM259.431 42.8803C260.148 40.9938 261.079 39.4369 262.214 38.189L260.734 36.8437C259.406 38.3041 258.353 40.0864 257.561 42.1701L259.431 42.8803ZM262.21 38.1936C263.381 36.9208 264.671 35.9348 266.08 35.2236L265.178 33.4383C263.539 34.266 262.059 35.4036 260.738 36.8391L262.21 38.1936ZM266.08 35.2236C267.515 34.4988 268.941 34.0428 270.361 33.844L270.083 31.8634C268.426 32.0954 266.79 32.6243 265.178 33.4383L266.08 35.2236ZM270.371 33.8426C272.017 33.5949 273.557 33.5976 274.996 33.8398L275.328 31.8676C273.658 31.5865 271.905 31.5893 270.073 31.8648L270.371 33.8426ZM274.996 33.8398C276.471 34.0881 277.665 34.4822 278.603 34.9992L279.568 33.2473C278.383 32.5947 276.961 32.1425 275.328 31.8676L274.996 33.8398ZM278.609 35.0021C279.609 35.5452 280.027 36.0291 280.161 36.3764L282.027 35.6556C281.638 34.6487 280.717 33.8707 279.563 33.2444L278.609 35.0021ZM281.094 37.016H281.417V35.016H281.094V37.016ZM282.417 36.016V33.4308H280.417V36.016H282.417ZM281.417 34.4308H288.642V32.4308H281.417V34.4308ZM287.642 33.4308V55.9592H289.642V33.4308H287.642ZM287.642 55.9737C287.659 57.1644 287.927 58.2314 288.573 59.0486L290.142 57.8093C289.864 57.457 289.655 56.8775 289.642 55.9447L287.642 55.9737ZM288.573 59.0486C289.235 59.888 290.155 60.3061 291.227 60.3061V58.3061C290.729 58.3061 290.403 58.1394 290.142 57.8093L288.573 59.0486ZM291.227 60.3061C292.64 60.3061 293.807 59.6585 294.68 58.5002L293.083 57.296C292.541 58.015 291.938 58.3061 291.227 58.3061V60.3061ZM294.674 58.5084C295.538 57.3861 296.115 55.7655 296.481 53.7612L294.514 53.4021C294.172 55.2757 293.671 56.5327 293.089 57.2877L294.674 58.5084ZM296.48 53.7688C296.865 51.7452 297.051 49.2069 297.051 46.1722H295.051C295.051 49.1389 294.868 51.5403 294.515 53.3946L296.48 53.7688ZM297.051 46.1722C297.051 43.1931 296.655 40.5375 295.84 38.2229L293.954 38.8872C294.678 40.9428 295.051 43.3654 295.051 46.1722H297.051ZM295.843 38.2309C295.052 35.9209 293.927 33.9313 292.459 32.2812L290.965 33.6108C292.235 35.0384 293.235 36.7881 293.951 38.8792L295.843 38.2309ZM292.466 32.2891C291.033 30.6449 289.361 29.307 287.454 28.28L286.506 30.041C288.199 30.9529 289.682 32.1387 290.958 33.6029L292.466 32.2891ZM287.454 28.28C285.565 27.263 283.52 26.5235 281.324 26.0586L280.91 28.0153C282.93 28.4428 284.794 29.1191 286.506 30.041L287.454 28.28ZM281.326 26.0589C279.162 25.5975 276.937 25.3675 274.654 25.3675V27.3675C276.802 27.3675 278.887 27.5838 280.908 28.0149L281.326 26.0589ZM274.654 25.3675C270.723 25.3675 267.242 25.9673 264.235 27.1961L264.991 29.0475C267.709 27.9373 270.922 27.3675 274.654 27.3675V25.3675ZM264.239 27.1944C261.25 28.3995 258.737 30.1051 256.719 32.3184L258.197 33.6659C259.995 31.6937 262.251 30.1524 264.987 29.0492L264.239 27.1944ZM256.719 32.3184C254.713 34.5183 253.213 37.0945 252.217 40.0346L254.111 40.6764C255.023 37.9844 256.386 35.6517 258.197 33.6659L256.719 32.3184ZM252.216 40.0377C251.24 42.9506 250.749 46.1122 250.733 49.5145L252.733 49.5238C252.748 46.3092 253.211 43.3616 254.112 40.6733L252.216 40.0377ZM250.733 49.5234C250.749 53.2591 251.269 56.6058 252.314 59.5485L254.199 58.8791C253.244 56.1896 252.748 53.0733 252.733 49.515L250.733 49.5234ZM252.316 59.5547C253.379 62.4855 254.951 64.9726 257.039 66.9952L258.43 65.5587C256.579 63.7651 255.165 61.5434 254.197 58.8729L252.316 59.5547ZM257.039 66.9952C259.126 69.0174 261.69 70.5362 264.706 71.5631L265.351 69.6698C262.582 68.7271 260.282 67.3529 258.43 65.5587L257.039 66.9952ZM264.706 71.5631C267.724 72.5903 271.16 73.0938 275 73.0938V71.0938C271.331 71.0938 268.119 70.6123 265.351 69.6698L264.706 71.5631ZM275 73.0938C276.819 73.0938 278.602 72.9593 280.346 72.6896L280.041 70.7131C278.4 70.9666 276.72 71.0938 275 71.0938V73.0938ZM280.338 72.6909C282.062 72.4401 283.633 72.1251 285.047 71.7436L284.527 69.8125C283.202 70.1697 281.711 70.4701 280.05 70.7118L280.338 72.6909ZM285.037 71.7462C286.429 71.3867 287.576 71.0276 288.465 70.6654L287.711 68.8133C286.938 69.1282 285.885 69.4615 284.537 69.8099L285.037 71.7462ZM287.142 70.0624L289.427 76.7563L291.319 76.1102L289.034 69.4163L287.142 70.0624ZM289.877 75.565C289.004 76.0639 287.772 76.553 286.15 77.0186L286.702 78.9409C288.404 78.4525 289.803 77.9105 290.869 77.3015L289.877 75.565ZM286.139 77.0217C284.55 77.497 282.739 77.8799 280.701 78.1667L280.979 80.1472C283.096 79.8493 285.009 79.4474 286.712 78.9378L286.139 77.0217ZM280.692 78.1679C278.682 78.468 276.607 78.6186 274.469 78.6186V80.6186C276.701 80.6186 278.874 80.4614 280.988 80.146L280.692 78.1679ZM273.407 59.7521C275.401 59.7521 277.107 59.3697 278.432 58.5046L277.339 56.8299C276.448 57.4113 275.168 57.7521 273.407 57.7521V59.7521ZM278.427 58.5081C279.763 57.6475 280.693 56.3818 281.234 54.7781L279.338 54.1395C278.925 55.3672 278.254 56.2405 277.344 56.8265L278.427 58.5081ZM281.232 54.7842C281.773 53.2106 282.01 51.3256 281.978 49.1582L279.979 49.1876C280.008 51.2059 279.784 52.8447 279.34 54.1334L281.232 54.7842ZM281.978 49.1646C281.962 47.2428 281.715 45.5615 281.203 44.1473L279.323 44.8271C279.735 45.9674 279.964 47.4099 279.979 49.1813L281.978 49.1646ZM281.208 44.1609C280.69 42.6598 279.767 41.4874 278.444 40.6972L277.419 42.4143C278.312 42.9475 278.943 43.7294 279.318 44.8136L281.208 44.1609ZM278.458 40.7057C277.146 39.8922 275.412 39.5401 273.361 39.5401V41.5401C275.219 41.5401 276.533 41.8652 277.405 42.4058L278.458 40.7057ZM273.361 39.5401C271.511 39.5401 269.87 39.9327 268.483 40.7685L269.515 42.4815C270.528 41.8708 271.795 41.5401 273.361 41.5401V39.5401ZM268.478 40.7714C267.121 41.5997 266.085 42.7645 265.374 44.2374L267.176 45.1063C267.727 43.9632 268.507 43.0968 269.52 42.4786L268.478 40.7714ZM265.372 44.2419C264.681 45.6924 264.345 47.3655 264.329 49.2334L266.329 49.251C266.343 47.6103 266.638 46.2366 267.178 45.1018L265.372 44.2419ZM264.329 49.2516C264.345 50.9854 264.624 52.64 265.169 54.2099L267.058 53.5536C266.588 52.1997 266.343 50.7613 266.329 49.2328L264.329 49.2516ZM265.17 54.213C265.739 55.8342 266.689 57.1731 268.016 58.2033L269.243 56.6234C268.231 55.8378 267.503 54.8223 267.057 53.5505L265.17 54.213ZM268.023 58.2083C269.421 59.2753 271.252 59.7521 273.407 59.7521V57.7521C271.531 57.7521 270.177 57.3364 269.236 56.6184L268.023 58.2083Z" fill="white" mask="url(#path-1-outside-1_221_242)"/>
<rect x="313" width="179" height="90" fill="#0069FF"/>
<mask id="path-4-outside-2_221_242" maskUnits="userSpaceOnUse" x="326" y="15" width="149" height="53" fill="black">
<rect fill="white" x="326" y="15" width="149" height="53"/>
<path d="M357.938 64.0825C356.659 64.9275 355.11 65.6208 353.29 66.1625C351.47 66.7042 349.498 66.975 347.375 66.975C343.172 66.975 340.008 65.8917 337.885 63.725C335.762 61.5367 334.7 58.6333 334.7 55.015V37.66H327.225V31.5825H334.7V24.01L343.28 22.97V31.5825H354.655L353.778 37.66H343.28V54.9825C343.28 56.7592 343.713 58.0592 344.58 58.8825C345.447 59.7058 346.844 60.1175 348.773 60.1175C350.008 60.1175 351.134 59.9767 352.153 59.695C353.193 59.3917 354.135 59.0125 354.98 58.5575L357.938 64.0825ZM374.52 51.4075C374.693 53.5525 375.18 55.2967 375.982 56.64C376.805 57.9833 377.856 58.9692 379.135 59.5975C380.413 60.2258 381.832 60.54 383.392 60.54C385.039 60.54 386.588 60.28 388.04 59.76C389.491 59.24 390.921 58.5142 392.33 57.5825L395.905 62.49C394.301 63.8333 392.384 64.9167 390.152 65.74C387.942 66.5633 385.505 66.975 382.84 66.975C379.113 66.975 375.971 66.2058 373.415 64.6675C370.88 63.1292 368.962 60.995 367.662 58.265C366.362 55.535 365.712 52.3933 365.712 48.84C365.712 45.4167 366.351 42.3292 367.63 39.5775C368.908 36.8258 370.75 34.6483 373.155 33.045C375.56 31.42 378.463 30.6075 381.865 30.6075C385.028 30.6075 387.758 31.3008 390.055 32.6875C392.351 34.0742 394.128 36.0675 395.385 38.6675C396.641 41.2458 397.27 44.355 397.27 47.995C397.27 48.58 397.248 49.1758 397.205 49.7825C397.183 50.3892 397.15 50.9308 397.107 51.4075H374.52ZM381.897 36.6525C379.817 36.6525 378.105 37.4 376.762 38.895C375.44 40.3683 374.66 42.7083 374.422 45.915H388.917C388.874 43.0117 388.267 40.7475 387.097 39.1225C385.949 37.4758 384.215 36.6525 381.897 36.6525ZM423.504 60.085C425.021 60.085 426.44 59.8033 427.762 59.24C429.105 58.6767 430.394 57.9617 431.629 57.095L435.529 62.5875C434.013 63.8658 432.182 64.9167 430.037 65.74C427.892 66.5633 425.595 66.975 423.147 66.975C419.55 66.975 416.463 66.2275 413.884 64.7325C411.328 63.2158 409.356 61.1142 407.969 58.4275C406.604 55.7192 405.922 52.5775 405.922 49.0025C405.922 45.4708 406.615 42.3183 408.002 39.545C409.41 36.75 411.403 34.5617 413.982 32.98C416.582 31.3983 419.68 30.6075 423.277 30.6075C425.747 30.6075 427.978 30.965 429.972 31.68C431.987 32.3733 433.828 33.4133 435.497 34.8L431.694 40.065C430.416 39.1767 429.094 38.505 427.729 38.05C426.386 37.5733 424.988 37.335 423.537 37.335C421.002 37.335 418.933 38.2558 417.329 40.0975C415.748 41.9175 414.957 44.8858 414.957 49.0025C414.957 51.7108 415.325 53.8775 416.062 55.5025C416.82 57.1275 417.838 58.2975 419.117 59.0125C420.417 59.7275 421.879 60.085 423.504 60.085ZM453.736 17.0225V35.45C455.166 33.825 456.77 32.6117 458.546 31.81C460.345 31.0083 462.219 30.6075 464.169 30.6075C467.332 30.6075 469.705 31.5067 471.286 33.305C472.89 35.0817 473.691 37.5842 473.691 40.8125V66H465.111V42.73C465.111 40.65 464.786 39.1767 464.136 38.31C463.508 37.4433 462.425 37.01 460.886 37.01C459.976 37.01 459.088 37.2267 458.221 37.66C457.376 38.0717 456.575 38.635 455.816 39.35C455.08 40.065 454.386 40.8667 453.736 41.755V66H445.156V17.8675L453.736 17.0225Z"/>
</mask>
<path d="M357.938 64.0825C356.659 64.9275 355.11 65.6208 353.29 66.1625C351.47 66.7042 349.498 66.975 347.375 66.975C343.172 66.975 340.008 65.8917 337.885 63.725C335.762 61.5367 334.7 58.6333 334.7 55.015V37.66H327.225V31.5825H334.7V24.01L343.28 22.97V31.5825H354.655L353.778 37.66H343.28V54.9825C343.28 56.7592 343.713 58.0592 344.58 58.8825C345.447 59.7058 346.844 60.1175 348.773 60.1175C350.008 60.1175 351.134 59.9767 352.153 59.695C353.193 59.3917 354.135 59.0125 354.98 58.5575L357.938 64.0825ZM374.52 51.4075C374.693 53.5525 375.18 55.2967 375.982 56.64C376.805 57.9833 377.856 58.9692 379.135 59.5975C380.413 60.2258 381.832 60.54 383.392 60.54C385.039 60.54 386.588 60.28 388.04 59.76C389.491 59.24 390.921 58.5142 392.33 57.5825L395.905 62.49C394.301 63.8333 392.384 64.9167 390.152 65.74C387.942 66.5633 385.505 66.975 382.84 66.975C379.113 66.975 375.971 66.2058 373.415 64.6675C370.88 63.1292 368.962 60.995 367.662 58.265C366.362 55.535 365.712 52.3933 365.712 48.84C365.712 45.4167 366.351 42.3292 367.63 39.5775C368.908 36.8258 370.75 34.6483 373.155 33.045C375.56 31.42 378.463 30.6075 381.865 30.6075C385.028 30.6075 387.758 31.3008 390.055 32.6875C392.351 34.0742 394.128 36.0675 395.385 38.6675C396.641 41.2458 397.27 44.355 397.27 47.995C397.27 48.58 397.248 49.1758 397.205 49.7825C397.183 50.3892 397.15 50.9308 397.107 51.4075H374.52ZM381.897 36.6525C379.817 36.6525 378.105 37.4 376.762 38.895C375.44 40.3683 374.66 42.7083 374.422 45.915H388.917C388.874 43.0117 388.267 40.7475 387.097 39.1225C385.949 37.4758 384.215 36.6525 381.897 36.6525ZM423.504 60.085C425.021 60.085 426.44 59.8033 427.762 59.24C429.105 58.6767 430.394 57.9617 431.629 57.095L435.529 62.5875C434.013 63.8658 432.182 64.9167 430.037 65.74C427.892 66.5633 425.595 66.975 423.147 66.975C419.55 66.975 416.463 66.2275 413.884 64.7325C411.328 63.2158 409.356 61.1142 407.969 58.4275C406.604 55.7192 405.922 52.5775 405.922 49.0025C405.922 45.4708 406.615 42.3183 408.002 39.545C409.41 36.75 411.403 34.5617 413.982 32.98C416.582 31.3983 419.68 30.6075 423.277 30.6075C425.747 30.6075 427.978 30.965 429.972 31.68C431.987 32.3733 433.828 33.4133 435.497 34.8L431.694 40.065C430.416 39.1767 429.094 38.505 427.729 38.05C426.386 37.5733 424.988 37.335 423.537 37.335C421.002 37.335 418.933 38.2558 417.329 40.0975C415.748 41.9175 414.957 44.8858 414.957 49.0025C414.957 51.7108 415.325 53.8775 416.062 55.5025C416.82 57.1275 417.838 58.2975 419.117 59.0125C420.417 59.7275 421.879 60.085 423.504 60.085ZM453.736 17.0225V35.45C455.166 33.825 456.77 32.6117 458.546 31.81C460.345 31.0083 462.219 30.6075 464.169 30.6075C467.332 30.6075 469.705 31.5067 471.286 33.305C472.89 35.0817 473.691 37.5842 473.691 40.8125V66H465.111V42.73C465.111 40.65 464.786 39.1767 464.136 38.31C463.508 37.4433 462.425 37.01 460.886 37.01C459.976 37.01 459.088 37.2267 458.221 37.66C457.376 38.0717 456.575 38.635 455.816 39.35C455.08 40.065 454.386 40.8667 453.736 41.755V66H445.156V17.8675L453.736 17.0225Z" fill="white"/>
<path d="M357.938 64.0825L358.489 64.9167L359.249 64.4141L358.819 63.6106L357.938 64.0825ZM353.29 66.1625L353.575 67.121L353.29 66.1625ZM337.885 63.725L337.167 64.4214L337.171 64.4249L337.885 63.725ZM334.7 37.66H335.7V36.66H334.7V37.66ZM327.225 37.66H326.225V38.66H327.225V37.66ZM327.225 31.5825V30.5825H326.225V31.5825H327.225ZM334.7 31.5825V32.5825H335.7V31.5825H334.7ZM334.7 24.01L334.58 23.0173L333.7 23.1239V24.01H334.7ZM343.28 22.97H344.28V21.8415L343.16 21.9773L343.28 22.97ZM343.28 31.5825H342.28V32.5825H343.28V31.5825ZM354.655 31.5825L355.645 31.7254L355.81 30.5825H354.655V31.5825ZM353.778 37.66V38.66H354.643L354.767 37.8029L353.778 37.66ZM343.28 37.66V36.66H342.28V37.66H343.28ZM344.58 58.8825L345.269 58.1575L345.269 58.1575L344.58 58.8825ZM352.153 59.695L352.419 60.6589L352.433 60.655L352.153 59.695ZM354.98 58.5575L355.862 58.0856L355.389 57.2018L354.506 57.677L354.98 58.5575ZM357.386 63.2483C356.207 64.0278 354.752 64.684 353.005 65.204L353.575 67.121C355.468 66.5576 357.112 65.8272 358.489 64.9167L357.386 63.2483ZM353.005 65.204C351.288 65.7151 349.413 65.975 347.375 65.975V67.975C349.584 67.975 351.652 67.6932 353.575 67.121L353.005 65.204ZM347.375 65.975C343.334 65.975 340.471 64.9355 338.599 63.0251L337.171 64.4249C339.545 66.8478 343.009 67.975 347.375 67.975V65.975ZM338.603 63.0286C336.694 61.0611 335.7 58.4252 335.7 55.015H333.7C333.7 58.8414 334.83 62.0122 337.167 64.4214L338.603 63.0286ZM335.7 55.015V37.66H333.7V55.015H335.7ZM334.7 36.66H327.225V38.66H334.7V36.66ZM328.225 37.66V31.5825H326.225V37.66H328.225ZM327.225 32.5825H334.7V30.5825H327.225V32.5825ZM335.7 31.5825V24.01H333.7V31.5825H335.7ZM334.82 25.0027L343.4 23.9627L343.16 21.9773L334.58 23.0173L334.82 25.0027ZM342.28 22.97V31.5825H344.28V22.97H342.28ZM343.28 32.5825H354.655V30.5825H343.28V32.5825ZM353.665 31.4396L352.788 37.5171L354.767 37.8029L355.645 31.7254L353.665 31.4396ZM353.778 36.66H343.28V38.66H353.778V36.66ZM342.28 37.66V54.9825H344.28V37.66H342.28ZM342.28 54.9825C342.28 56.9 342.746 58.5199 343.891 59.6075L345.269 58.1575C344.68 57.5984 344.28 56.6183 344.28 54.9825H342.28ZM343.891 59.6075C345.029 60.6888 346.737 61.1175 348.773 61.1175V59.1175C346.951 59.1175 345.864 58.7228 345.269 58.1575L343.891 59.6075ZM348.773 61.1175C350.083 61.1175 351.301 60.9681 352.419 60.6588L351.886 58.7312C350.968 58.9852 349.932 59.1175 348.773 59.1175V61.1175ZM352.433 60.655C353.531 60.3345 354.54 59.9301 355.454 59.438L354.506 57.677C353.73 58.0949 352.854 58.4488 351.873 58.735L352.433 60.655ZM354.098 59.0294L357.056 64.5544L358.819 63.6106L355.862 58.0856L354.098 59.0294ZM374.52 51.4075V50.4075H373.436L373.523 51.488L374.52 51.4075ZM375.982 56.64L375.123 57.1525L375.13 57.1626L375.982 56.64ZM379.135 59.5975L378.693 60.4949L378.693 60.4949L379.135 59.5975ZM388.04 59.76L388.377 60.7014L388.377 60.7014L388.04 59.76ZM392.33 57.5825L393.138 56.9937L392.575 56.2211L391.778 56.7485L392.33 57.5825ZM395.905 62.49L396.547 63.2565L397.263 62.6564L396.713 61.9012L395.905 62.49ZM390.152 65.74L389.806 64.8018L389.803 64.8029L390.152 65.74ZM373.415 64.6675L372.896 65.5224L372.899 65.5244L373.415 64.6675ZM367.662 58.265L368.565 57.8351L367.662 58.265ZM367.63 39.5775L368.537 39.9988L368.537 39.9988L367.63 39.5775ZM373.155 33.045L373.709 33.8771L373.714 33.8736L373.155 33.045ZM390.055 32.6875L390.571 31.8314L390.571 31.8314L390.055 32.6875ZM395.385 38.6675L394.484 39.1027L394.486 39.1056L395.385 38.6675ZM397.205 49.7825L396.207 49.7113L396.206 49.729L396.205 49.7468L397.205 49.7825ZM397.107 51.4075V52.4075H398.02L398.103 51.498L397.107 51.4075ZM376.762 38.895L376.018 38.2266L376.018 38.2272L376.762 38.895ZM374.422 45.915L373.425 45.8409L373.345 46.915H374.422V45.915ZM388.917 45.915V46.915H389.932L389.917 45.9001L388.917 45.915ZM387.097 39.1225L386.277 39.6945L386.281 39.7007L386.286 39.7068L387.097 39.1225ZM373.523 51.488C373.704 53.7315 374.219 55.6378 375.123 57.1525L376.841 56.1275C376.141 54.9555 375.682 53.3735 375.516 51.327L373.523 51.488ZM375.13 57.1626C376.041 58.6496 377.228 59.7744 378.693 60.4949L379.576 58.7001C378.485 58.1639 377.57 57.3171 376.835 56.1174L375.13 57.1626ZM378.693 60.4949C380.122 61.197 381.694 61.54 383.392 61.54V59.54C381.97 59.54 380.704 59.2547 379.576 58.7001L378.693 60.4949ZM383.392 61.54C385.146 61.54 386.81 61.2627 388.377 60.7014L387.702 58.8186C386.366 59.2973 384.932 59.54 383.392 59.54V61.54ZM388.377 60.7014C389.911 60.1519 391.412 59.3883 392.881 58.4165L391.778 56.7485C390.43 57.64 389.072 58.3281 387.702 58.8186L388.377 60.7014ZM391.521 58.1713L395.096 63.0788L396.713 61.9012L393.138 56.9937L391.521 58.1713ZM395.262 61.7235C393.758 62.9836 391.944 64.0129 389.806 64.8018L390.498 66.6782C392.823 65.8205 394.844 64.683 396.547 63.2565L395.262 61.7235ZM389.803 64.8029C387.718 65.5796 385.401 65.975 382.84 65.975V67.975C385.608 67.975 388.166 67.5471 390.501 66.6771L389.803 64.8029ZM382.84 65.975C379.25 65.975 376.297 65.2346 373.93 63.8106L372.899 65.5244C375.646 67.1771 378.976 67.975 382.84 67.975V65.975ZM373.933 63.8126C371.569 62.3775 369.783 60.3927 368.565 57.8351L366.759 58.6949C368.141 61.5973 370.191 63.8808 372.896 65.5224L373.933 63.8126ZM368.565 57.8351C367.339 55.2609 366.712 52.2704 366.712 48.84H364.712C364.712 52.5162 365.385 55.8091 366.759 58.6949L368.565 57.8351ZM366.712 48.84C366.712 45.5435 367.327 42.6025 368.537 39.9988L366.723 39.1562C365.376 42.0558 364.712 45.2899 364.712 48.84H366.712ZM368.537 39.9988C369.741 37.4052 371.465 35.3733 373.709 33.877L372.6 32.2129C370.034 33.9234 368.074 36.2465 366.723 39.1562L368.537 39.9988ZM373.714 33.8736C375.927 32.3785 378.627 31.6075 381.865 31.6075V29.6075C378.299 29.6075 375.192 30.4615 372.595 32.2164L373.714 33.8736ZM381.865 31.6075C384.879 31.6075 387.423 32.2668 389.538 33.5436L390.571 31.8314C388.093 30.3349 385.177 29.6075 381.865 29.6075V31.6075ZM389.538 33.5436C391.656 34.8223 393.305 36.6632 394.484 39.1027L396.285 38.2323C394.951 35.4718 393.047 33.326 390.571 31.8314L389.538 33.5436ZM394.486 39.1056C395.66 41.5158 396.27 44.4672 396.27 47.995H398.27C398.27 44.2428 397.622 40.9758 396.284 38.2294L394.486 39.1056ZM396.27 47.995C396.27 48.5553 396.249 49.1274 396.207 49.7113L398.202 49.8537C398.247 49.2243 398.27 48.6047 398.27 47.995H396.27ZM396.205 49.7468C396.184 50.3398 396.153 50.8626 396.111 51.317L398.103 51.498C398.148 50.9991 398.182 50.4386 398.204 49.8182L396.205 49.7468ZM397.107 50.4075H374.52V52.4075H397.107V50.4075ZM381.897 35.6525C379.545 35.6525 377.559 36.5123 376.018 38.2266L377.506 39.5634C378.652 38.2877 380.09 37.6525 381.897 37.6525V35.6525ZM376.018 38.2272C374.481 39.9398 373.67 42.5409 373.425 45.8409L375.419 45.9891C375.651 42.8758 376.399 40.7969 377.506 39.5628L376.018 38.2272ZM374.422 46.915H388.917V44.915H374.422V46.915ZM389.917 45.9001C389.872 42.8801 389.241 40.3886 387.909 38.5382L386.286 39.7068C387.293 41.1064 387.876 43.1432 387.917 45.9299L389.917 45.9001ZM387.917 38.5505C386.551 36.5911 384.484 35.6525 381.897 35.6525V37.6525C383.947 37.6525 385.347 38.3606 386.277 39.6945L387.917 38.5505ZM427.762 59.24L427.375 58.3178L427.37 58.3201L427.762 59.24ZM431.629 57.095L432.445 56.516L431.869 55.7052L431.055 56.2764L431.629 57.095ZM435.529 62.5875L436.174 63.3521L436.877 62.759L436.345 62.0085L435.529 62.5875ZM430.037 65.74L430.395 66.6736L430.037 65.74ZM413.884 64.7325L413.374 65.5926L413.383 65.5976L413.884 64.7325ZM407.969 58.4275L407.076 58.8776L407.081 58.8861L407.969 58.4275ZM408.002 39.545L407.109 39.095L407.107 39.0978L408.002 39.545ZM413.982 32.98L413.462 32.1257L413.459 32.1276L413.982 32.98ZM429.972 31.68L429.634 32.6214L429.646 32.6256L429.972 31.68ZM435.497 34.8L436.307 35.3855L436.854 34.6281L436.136 34.031L435.497 34.8ZM431.694 40.065L431.124 40.8862L431.93 41.4466L432.505 40.6505L431.694 40.065ZM427.729 38.05L427.395 38.9924L427.404 38.9956L427.413 38.9987L427.729 38.05ZM417.329 40.0975L416.575 39.4409L416.574 39.4415L417.329 40.0975ZM416.062 55.5025L415.151 55.9154L415.156 55.9254L416.062 55.5025ZM419.117 59.0125L418.629 59.8853L418.635 59.8887L419.117 59.0125ZM423.504 61.085C425.148 61.085 426.701 60.779 428.154 60.1599L427.37 58.3201C426.179 58.8277 424.894 59.085 423.504 59.085V61.085ZM428.148 60.1622C429.56 59.5702 430.912 58.8199 432.204 57.9136L431.055 56.2764C429.876 57.1034 428.65 57.7832 427.375 58.3178L428.148 60.1622ZM430.814 57.674L434.714 63.1665L436.345 62.0085L432.445 56.516L430.814 57.674ZM434.885 61.8229C433.466 63.0189 431.735 64.0168 429.678 64.8064L430.395 66.6736C432.628 65.8165 434.559 64.7127 436.174 63.3521L434.885 61.8229ZM429.678 64.8064C427.655 65.583 425.481 65.975 423.147 65.975V67.975C425.709 67.975 428.128 67.5436 430.395 66.6736L429.678 64.8064ZM423.147 65.975C419.69 65.975 416.783 65.2574 414.386 63.8674L413.383 65.5976C416.142 67.1976 419.41 67.975 423.147 67.975V65.975ZM414.394 63.8724C412.002 62.4532 410.16 60.4919 408.858 57.9689L407.081 58.8861C408.552 61.7364 410.653 63.9785 413.374 65.5926L414.394 63.8724ZM408.862 57.9774C407.579 55.4316 406.922 52.449 406.922 49.0025H404.922C404.922 52.706 405.629 56.0067 407.076 58.8776L408.862 57.9774ZM406.922 49.0025C406.922 45.6044 407.588 42.6085 408.896 39.9922L407.107 39.0978C405.642 42.0282 404.922 45.3373 404.922 49.0025H406.922ZM408.895 39.995C410.223 37.3598 412.09 35.3134 414.505 33.8324L413.459 32.1276C410.716 33.8099 408.598 36.1402 407.109 39.095L408.895 39.995ZM414.501 33.8343C416.918 32.364 419.83 31.6075 423.277 31.6075V29.6075C419.53 29.6075 416.245 30.4326 413.462 32.1257L414.501 33.8343ZM423.277 31.6075C425.65 31.6075 427.765 31.951 429.634 32.6213L430.309 30.7387C428.191 29.979 425.843 29.6075 423.277 29.6075V31.6075ZM429.646 32.6256C431.545 33.2788 433.281 34.2583 434.858 35.569L436.136 34.031C434.376 32.5684 432.429 31.4678 430.297 30.7344L429.646 32.6256ZM434.686 34.2145L430.884 39.4795L432.505 40.6505L436.307 35.3855L434.686 34.2145ZM432.265 39.2438C430.915 38.3055 429.508 37.5888 428.045 37.1013L427.413 38.9987C428.68 39.4212 429.917 40.0478 431.124 40.8862L432.265 39.2438ZM428.064 37.1076C426.611 36.5921 425.1 36.335 423.537 36.335V38.335C424.877 38.335 426.161 38.5546 427.395 38.9924L428.064 37.1076ZM423.537 36.335C420.725 36.335 418.376 37.3717 416.575 39.4409L418.083 40.7541C419.489 39.1399 421.278 38.335 423.537 38.335V36.335ZM416.574 39.4415C414.756 41.5343 413.957 44.8012 413.957 49.0025H415.957C415.957 44.9705 416.739 42.3007 418.084 40.7535L416.574 39.4415ZM413.957 49.0025C413.957 51.7864 414.333 54.1112 415.151 55.9154L416.973 55.0896C416.317 53.6438 415.957 51.6352 415.957 49.0025H413.957ZM415.156 55.9254C415.982 57.6971 417.129 59.0467 418.629 59.8853L419.605 58.1397C418.547 57.5483 417.658 56.5579 416.968 55.0796L415.156 55.9254ZM418.635 59.8887C420.096 60.6925 421.727 61.085 423.504 61.085V59.085C422.031 59.085 420.737 58.7625 419.599 58.1363L418.635 59.8887ZM453.736 17.0225H454.736V15.9192L453.638 16.0273L453.736 17.0225ZM453.736 35.45H452.736V38.1001L454.487 36.1106L453.736 35.45ZM458.546 31.81L458.139 30.8966L458.135 30.8985L458.546 31.81ZM471.286 33.305L470.535 33.9655L470.544 33.975L471.286 33.305ZM473.691 66V67H474.691V66H473.691ZM465.111 66H464.111V67H465.111V66ZM464.136 38.31L463.327 38.897L463.331 38.9035L463.336 38.91L464.136 38.31ZM458.221 37.66L458.659 38.559L458.669 38.5544L458.221 37.66ZM455.816 39.35L455.13 38.6224L455.125 38.6274L455.12 38.6324L455.816 39.35ZM453.736 41.755L452.929 41.1645L452.736 41.4282V41.755H453.736ZM453.736 66V67H454.736V66H453.736ZM445.156 66H444.156V67H445.156V66ZM445.156 17.8675L445.058 16.8723L444.156 16.9611V17.8675H445.156ZM452.736 17.0225V35.45H454.736V17.0225H452.736ZM454.487 36.1106C455.833 34.5806 457.324 33.4585 458.958 32.7215L458.135 30.8985C456.215 31.7649 454.499 33.0694 452.986 34.7894L454.487 36.1106ZM458.953 32.7234C460.625 31.9782 462.361 31.6075 464.169 31.6075V29.6075C462.077 29.6075 460.064 30.0384 458.139 30.8966L458.953 32.7234ZM464.169 31.6075C467.142 31.6075 469.2 32.4468 470.535 33.9654L472.037 32.6446C470.21 30.5666 467.522 29.6075 464.169 29.6075V31.6075ZM470.544 33.975C471.931 35.5119 472.691 37.7442 472.691 40.8125H474.691C474.691 37.4242 473.848 34.6514 472.029 32.635L470.544 33.975ZM472.691 40.8125V66H474.691V40.8125H472.691ZM473.691 65H465.111V67H473.691V65ZM466.111 66V42.73H464.111V66H466.111ZM466.111 42.73C466.111 40.6035 465.79 38.8488 464.936 37.71L463.336 38.91C463.782 39.5046 464.111 40.6965 464.111 42.73H466.111ZM464.946 37.723C464.057 36.4964 462.597 36.01 460.886 36.01V38.01C462.253 38.01 462.959 38.3903 463.327 38.897L464.946 37.723ZM460.886 36.01C459.811 36.01 458.77 36.2674 457.774 36.7656L458.669 38.5544C459.406 38.1859 460.142 38.01 460.886 38.01V36.01ZM457.783 36.761C456.838 37.2215 455.954 37.8455 455.13 38.6224L456.502 40.0776C457.195 39.4245 457.914 38.9219 458.659 38.559L457.783 36.761ZM455.12 38.6324C454.34 39.3893 453.61 40.234 452.929 41.1645L454.543 42.3455C455.163 41.4993 455.819 40.7407 456.513 40.0676L455.12 38.6324ZM452.736 41.755V66H454.736V41.755H452.736ZM453.736 65H445.156V67H453.736V65ZM446.156 66V17.8675H444.156V66H446.156ZM445.254 18.8627L453.834 18.0177L453.638 16.0273L445.058 16.8723L445.254 18.8627Z" fill="white" mask="url(#path-4-outside-2_221_242)"/>
</g>
<defs>
<clipPath id="clip0_221_242">
<rect width="490" height="90" fill="white"/>
</clipPath>
</defs>
</svg>
